<svg width="284" height="79" viewBox="0 0 284 79" fill="none" xmlns="http://www.w3.org/2000/svg">
<path fill-rule="evenodd" clip-rule="evenodd" d="M18.1793 27.4028H0.0657349V31.5277C4.94645 31.8776 5.00697 32.884 5.00697 36.4561V52.5456C5.00697 56.1652 4.89025 57.1716 0.0657349 57.5214V61.6464H16.1215V57.5214H15.6503C14.4744 57.4221 12.2394 57.1197 11.4742 56.2645C10.7091 55.4093 10.8258 53.5995 10.8258 52.5931V35.346L20.825 61.6421H27.4695L37.4687 35.7477V52.5412C37.4687 53.647 37.5249 55.6598 36.5263 56.4632C35.5838 57.2191 33.5261 57.4696 32.2897 57.5171H31.8185V61.6421H53.2262V57.5171H52.7549C51.5186 57.4178 49.2274 57.1154 48.4622 56.2602C47.697 55.405 47.8742 53.5952 47.8742 52.5412V36.4517C47.8742 35.346 47.697 33.385 48.6999 32.5298C49.5818 31.7739 51.6396 31.5752 53.2262 31.5234V27.3984H34.4642L26.2288 48.8137L18.1706 27.3984L18.1793 27.4028Z" fill="white"/>
<path fill-rule="evenodd" clip-rule="evenodd" d="M68.4649 36.4041H66.1132L55.6428 37.7128V41.8378H56.0534C60.29 42.2395 60.169 43.2459 60.169 46.5631V52.7959C60.169 56.2643 60.169 57.2189 55.4655 57.5212V61.6462H74.2275V57.5212L73.6958 57.4737C69.8742 57.2232 69.9909 56.0656 69.9909 52.7484V43.4489C69.9909 42.9478 70.8728 42.6455 71.7547 42.6455C73.2246 42.6455 74.0503 44.2048 76.696 44.2048C79.1644 44.2048 81.3432 42.7448 81.3432 40.4858C81.3432 37.9244 78.9915 36.4127 76.108 36.4127C73.2246 36.4127 71.1668 37.3673 68.4606 38.7754V36.4127L68.4649 36.4041Z" fill="white"/>
<path fill-rule="evenodd" clip-rule="evenodd" d="M148.722 61.642C152.838 61.642 157.074 61.6938 160.658 59.6335C163.835 57.8237 165.483 54.757 165.483 51.5391C165.483 47.5696 162.543 44.3517 158.073 43.2935V43.1941C161.25 42.0884 163.719 39.121 163.719 36.1536C163.719 33.1862 161.838 30.37 158.721 28.9663C155.661 27.5582 150.957 27.407 147.546 27.407H125.905V31.5276L127.258 31.7263C131.024 32.2792 130.669 33.7391 130.669 36.4517V52.593C130.669 56.5668 130.609 56.8648 125.905 57.5213V61.6463H148.726L148.722 61.642ZM141.075 41.0301V35.3977C141.075 34.6937 140.897 33.1862 141.723 32.7327C142.488 32.2792 144.723 32.2274 145.722 32.2274C149.31 32.2274 153.663 33.0307 153.663 36.8015C153.663 40.5723 148.605 41.0258 145.311 41.0258H141.075V41.0301ZM141.075 45.6561H145.484C150.309 45.6561 154.541 46.1572 154.541 51.1849C154.541 55.5085 150.659 56.8173 146.133 56.8173C144.896 56.8173 142.722 56.7655 141.723 56.0657C140.958 55.5129 141.075 54.4071 141.075 53.5994V45.6561Z" fill="white"/>
<path fill-rule="evenodd" clip-rule="evenodd" d="M182.71 36.4041H178.828L168.362 37.7128V41.8378H168.772C173.005 42.2395 172.888 43.2459 172.888 46.5631V52.4979C172.888 55.1629 172.827 57.8279 175.062 59.8882C177.003 61.7499 179.766 62.0479 182.593 62.0479C186.415 62.0479 189.532 61.1927 192.709 59.6377V61.6462H205.471V57.5472L204.999 57.4953C201.295 57.193 201.411 56.0872 201.411 52.7657V36.4041H197.706L187.24 37.7128V41.8378H187.651C191.71 42.2395 191.589 43.2459 191.589 46.5631V54.7094C189.826 55.7158 187.297 57.072 185.001 56.9727C182.416 56.9727 182.71 54.3077 182.71 52.3985V36.4127V36.4041Z" fill="white"/>
<path fill-rule="evenodd" clip-rule="evenodd" d="M221.578 36.4043H217.696L207.226 37.713V41.8337H207.637C211.873 42.2353 211.752 43.2418 211.752 46.559V52.7918C211.752 56.1609 211.808 57.1629 207.165 57.5171V61.6378H225.573V57.5171C221.397 57.0636 221.574 56.0572 221.574 52.7918V36.3999L221.578 36.4043ZM216.11 24.9883C212.876 24.9883 210.347 27.2516 210.347 30.016C210.347 32.478 212.759 34.7413 215.759 34.7413C218.76 34.7413 221.583 32.5298 221.583 29.813C221.583 27.0961 219.231 24.9883 216.114 24.9883" fill="white"/>
<path fill-rule="evenodd" clip-rule="evenodd" d="M242.035 25.1912H238.858C235.269 26.5474 231.448 27.2515 227.566 27.4027V31.5233C228.975 31.5233 230.622 31.6745 231.504 32.2273C232.325 32.7802 232.209 34.793 232.209 35.6483V52.7917C232.209 56.2082 232.325 57.016 228.21 57.517V61.642H245.973V57.517L245.031 57.314C243.738 57.1153 242.735 56.9598 242.325 55.8066C242.031 54.9513 242.031 53.6469 242.031 52.7917V25.1912H242.035Z" fill="white"/>
<path fill-rule="evenodd" clip-rule="evenodd" d="M279.196 25.1912H276.018C272.43 26.5474 268.609 27.2515 264.727 27.4027V31.5276C266.14 31.5276 267.787 31.6788 268.669 32.2317C269.495 32.7845 269.374 34.7973 269.374 35.6526V37.4105C267.55 36.456 265.081 35.7519 262.786 35.7519C254.079 35.7519 248.848 42.4382 248.848 49.3276C248.848 52.7485 250.141 56.1132 252.847 58.6271C255.553 61.1409 258.493 62.0437 262.375 62.0437C265.315 62.0437 268.254 61.3914 270.433 59.681V61.642H283.605V57.517C279.019 57.0635 279.196 56.1607 279.196 52.7917V25.1912ZM269.374 54.554C268.375 56.0139 265.963 56.9685 263.905 56.9685C259.963 56.9685 258.847 52.2431 258.847 49.6774C258.847 46.4595 259.963 40.8271 264.787 40.8271C266.728 40.8271 268.198 41.881 269.374 43.0386V54.5496V54.554Z" fill="white"/>
<path fill-rule="evenodd" clip-rule="evenodd" d="M139.678 75.2997V71.1791L136.086 65.5078H138.407L140.716 69.3823L142.977 65.5078H145.255L141.65 71.192V75.2997H139.678Z" fill="white"/>
<path fill-rule="evenodd" clip-rule="evenodd" d="M145.739 71.6542C145.739 71.0323 145.895 70.4276 146.202 69.8444C146.509 69.2613 146.945 68.8165 147.507 68.5098C148.074 68.2031 148.705 68.0476 149.401 68.0476C150.477 68.0476 151.355 68.3975 152.042 69.0972C152.73 69.7926 153.071 70.6694 153.071 71.7363C153.071 72.8118 152.725 73.7016 152.029 74.41C151.338 75.114 150.469 75.4639 149.414 75.4639C148.761 75.4639 148.139 75.317 147.546 75.0233C146.958 74.7296 146.509 74.2977 146.202 73.7318C145.895 73.1617 145.739 72.4706 145.739 71.6542ZM147.667 71.7536C147.667 72.4576 147.836 72.9976 148.169 73.369C148.502 73.7405 148.917 73.9305 149.405 73.9305C149.894 73.9305 150.304 73.7448 150.637 73.369C150.97 72.9932 151.139 72.4533 151.139 71.7363C151.139 71.0193 150.97 70.5053 150.637 70.1339C150.309 69.7581 149.898 69.5723 149.405 69.5723C148.912 69.5723 148.502 69.7581 148.169 70.1339C147.836 70.5096 147.667 71.0452 147.667 71.7493" fill="white"/>
<path fill-rule="evenodd" clip-rule="evenodd" d="M159.167 75.2998V74.2372C158.907 74.6173 158.566 74.9154 158.142 75.1313C157.723 75.3473 157.282 75.4596 156.811 75.4596C156.339 75.4596 155.903 75.3559 155.527 75.1443C155.146 74.9369 154.874 74.6432 154.705 74.2631C154.537 73.883 154.45 73.3604 154.45 72.6909V68.2031H156.331V71.4642C156.331 72.462 156.365 73.0753 156.43 73.2999C156.504 73.5202 156.629 73.7016 156.811 73.8355C156.992 73.9651 157.226 74.0299 157.507 74.0299C157.826 74.0299 158.116 73.9435 158.371 73.7707C158.626 73.5936 158.799 73.3734 158.894 73.1142C158.989 72.8507 159.037 72.2115 159.037 71.1964V68.2031H160.917V75.2998H159.171H159.167Z" fill="white"/>
<path fill-rule="evenodd" clip-rule="evenodd" d="M164.605 75.2998H162.724V68.2031H164.471V69.2138C164.769 68.7387 165.037 68.4234 165.275 68.2722C165.517 68.121 165.785 68.0476 166.092 68.0476C166.52 68.0476 166.931 68.1642 167.329 68.4018L166.745 70.0388C166.429 69.8358 166.135 69.7321 165.863 69.7321C165.599 69.7321 165.379 69.8056 165.193 69.9524C165.011 70.095 164.864 70.3541 164.756 70.7342C164.653 71.1143 164.601 71.9048 164.601 73.1142V75.3041L164.605 75.2998Z" fill="white"/>
<path fill-rule="evenodd" clip-rule="evenodd" d="M171.811 65.5078H175.728C176.502 65.5078 177.081 65.5424 177.462 65.6072C177.846 65.672 178.184 65.8015 178.486 66.0089C178.789 66.2119 179.04 66.4883 179.243 66.8295C179.442 67.1664 179.545 67.5509 179.545 67.9698C179.545 68.4277 179.42 68.851 179.169 69.2311C178.923 69.6155 178.59 69.9006 178.166 70.0949C178.763 70.2677 179.221 70.5658 179.545 70.9847C179.865 71.4037 180.025 71.8961 180.025 72.4619C180.025 72.9068 179.921 73.3431 179.71 73.7664C179.506 74.1854 179.221 74.5223 178.862 74.7771C178.504 75.0276 178.063 75.1788 177.539 75.2393C177.211 75.2738 176.416 75.2954 175.153 75.3041H171.816V65.5078H171.811ZM173.791 67.1362V69.4039H175.088C175.858 69.4039 176.338 69.3909 176.528 69.3693C176.865 69.3304 177.133 69.2138 177.323 69.0238C177.518 68.8294 177.617 68.5702 177.617 68.2549C177.617 67.9396 177.531 67.7064 177.362 67.5206C177.198 67.3306 176.952 67.2139 176.619 67.1708C176.424 67.1492 175.858 67.1362 174.928 67.1362H173.791ZM173.791 71.0322V73.6497H175.624C176.338 73.6497 176.792 73.6282 176.982 73.5893C177.276 73.5375 177.514 73.4079 177.695 73.2005C177.881 72.9889 177.976 72.7125 177.976 72.3669C177.976 72.0732 177.903 71.8227 177.76 71.6197C177.617 71.4167 177.41 71.2655 177.137 71.1705C176.869 71.0754 176.286 71.0279 175.387 71.0279H173.787L173.791 71.0322Z" fill="white"/>
<path fill-rule="evenodd" clip-rule="evenodd" d="M186.307 75.2998V74.2372C186.047 74.6173 185.706 74.9154 185.282 75.1313C184.863 75.3473 184.417 75.4596 183.951 75.4596C183.484 75.4596 183.047 75.3559 182.667 75.1443C182.286 74.9369 182.014 74.6432 181.845 74.2631C181.677 73.883 181.59 73.3604 181.59 72.6909V68.2031H183.471V71.4642C183.471 72.462 183.505 73.0753 183.57 73.2999C183.644 73.5202 183.769 73.7016 183.951 73.8355C184.132 73.9651 184.366 74.0299 184.647 74.0299C184.967 74.0299 185.256 73.9435 185.511 73.7707C185.766 73.5936 185.939 73.3734 186.034 73.1142C186.129 72.8507 186.173 72.2115 186.173 71.1964V68.2031H188.053V75.2998H186.307Z" fill="white"/>
<path fill-rule="evenodd" clip-rule="evenodd" d="M189.951 65.5078H191.831V67.2442H189.951V65.5078ZM189.951 68.2074H191.831V75.3041H189.951V68.2074Z" fill="white"/>
<path d="M195.584 65.5078H193.703V75.3041H195.584V65.5078Z" fill="white"/>
<path fill-rule="evenodd" clip-rule="evenodd" d="M203.975 75.2997H202.228V74.2588C201.939 74.6648 201.593 74.9671 201.2 75.1658C200.806 75.3602 200.408 75.4595 200.011 75.4595C199.194 75.4595 198.493 75.1313 197.91 74.4791C197.33 73.8182 197.041 72.9025 197.041 71.7277C197.041 70.5528 197.326 69.6112 197.892 68.9892C198.459 68.3629 199.172 68.0476 200.041 68.0476C200.832 68.0476 201.519 68.3759 202.099 69.0367V65.5078H203.979V75.3041L203.975 75.2997ZM198.956 71.5981C198.956 72.3539 199.06 72.9025 199.271 73.2394C199.574 73.7275 199.998 73.9737 200.542 73.9737C200.975 73.9737 201.342 73.7923 201.645 73.4251C201.947 73.0537 202.099 72.5051 202.099 71.7752C202.099 70.9588 201.952 70.3757 201.658 70.0172C201.364 69.6587 200.988 69.4773 200.529 69.4773C200.071 69.4773 199.708 69.6544 199.405 70.0129C199.107 70.3627 198.956 70.894 198.956 71.5981Z" fill="white"/>
<path fill-rule="evenodd" clip-rule="evenodd" d="M205.778 65.5078H207.658V67.2442H205.778V65.5078ZM205.778 68.2074H207.658V75.3041H205.778V68.2074Z" fill="white"/>
<path fill-rule="evenodd" clip-rule="evenodd" d="M215.989 75.2996H214.108V71.68C214.108 70.9155 214.069 70.4188 213.987 70.1985C213.909 69.9695 213.775 69.7968 213.594 69.6715C213.416 69.5462 213.2 69.4858 212.945 69.4858C212.621 69.4858 212.327 69.5765 212.068 69.7536C211.808 69.9307 211.631 70.1682 211.532 70.4619C211.436 70.7557 211.393 71.2999 211.393 72.0946V75.3082H209.513V68.2116H211.259V69.2525C211.877 68.4491 212.66 68.0518 213.598 68.0518C214.013 68.0518 214.389 68.1252 214.735 68.2764C215.076 68.4232 215.336 68.6133 215.509 68.8465C215.686 69.0798 215.811 69.3389 215.876 69.6326C215.945 69.9263 215.984 70.3453 215.984 70.8939V75.3039L215.989 75.2996Z" fill="white"/>
<path fill-rule="evenodd" clip-rule="evenodd" d="M217.675 75.7705L219.823 76.0296C219.858 76.2802 219.94 76.4486 220.07 76.5436C220.247 76.6775 220.528 76.7423 220.913 76.7423C221.401 76.7423 221.769 76.6689 222.015 76.522C222.179 76.4227 222.305 76.2672 222.391 76.0469C222.447 75.8914 222.478 75.602 222.478 75.1874V74.1507C221.916 74.9153 221.207 75.2997 220.351 75.2997C219.395 75.2997 218.639 74.898 218.085 74.0903C217.649 73.4553 217.428 72.6606 217.428 71.7103C217.428 70.5225 217.714 69.6111 218.284 68.9848C218.859 68.3585 219.572 68.0432 220.424 68.0432C221.276 68.0432 222.028 68.4276 222.599 69.2008V68.203H224.358V74.5697C224.358 75.4077 224.289 76.034 224.151 76.4486C224.012 76.8633 223.818 77.1872 223.567 77.4248C223.316 77.6624 222.983 77.8438 222.564 77.9777C222.149 78.1116 221.622 78.1764 220.986 78.1764C219.784 78.1764 218.928 77.969 218.427 77.5544C217.925 77.144 217.67 76.6214 217.67 75.9908C217.67 75.9303 217.67 75.8526 217.679 75.7618M219.352 71.6067C219.352 72.3582 219.499 72.9111 219.789 73.2653C220.083 73.6151 220.446 73.7879 220.874 73.7879C221.332 73.7879 221.721 73.6108 222.037 73.2523C222.352 72.8938 222.512 72.3582 222.512 71.6542C222.512 70.9199 222.361 70.3756 222.058 70.0171C221.756 69.663 221.371 69.4815 220.908 69.4815C220.459 69.4815 220.087 69.6586 219.793 70.0085C219.503 70.354 219.356 70.8896 219.356 71.6067" fill="white"/>
<path fill-rule="evenodd" clip-rule="evenodd" d="M229.887 65.5078H233.808C234.582 65.5078 235.161 65.5424 235.542 65.6072C235.927 65.672 236.264 65.8015 236.566 66.0089C236.869 66.2119 237.12 66.4883 237.323 66.8295C237.522 67.1664 237.625 67.5509 237.625 67.9698C237.625 68.4277 237.5 68.851 237.254 69.2311C237.007 69.6155 236.674 69.9006 236.251 70.0949C236.847 70.2677 237.306 70.5658 237.63 70.9847C237.95 71.4037 238.11 71.8961 238.11 72.4619C238.11 72.9068 238.006 73.3431 237.794 73.7664C237.591 74.1854 237.306 74.5223 236.947 74.7771C236.588 75.0276 236.147 75.1788 235.624 75.2393C235.295 75.2738 234.5 75.2954 233.238 75.3041H229.9V65.5078H229.887ZM231.867 67.1362V69.4039H233.164C233.934 69.4039 234.413 69.3909 234.604 69.3693C234.941 69.3304 235.209 69.2138 235.399 69.0238C235.594 68.8294 235.693 68.5702 235.693 68.2549C235.693 67.9396 235.607 67.7064 235.438 67.5206C235.274 67.3306 235.027 67.2139 234.694 67.1708C234.5 67.1492 233.934 67.1362 233.004 67.1362H231.867ZM231.867 71.0322V73.6497H233.7C234.413 73.6497 234.867 73.6282 235.058 73.5893C235.352 73.5375 235.589 73.4079 235.775 73.2005C235.961 72.9889 236.056 72.7125 236.056 72.3669C236.056 72.0732 235.987 71.8227 235.844 71.6197C235.702 71.4167 235.494 71.2655 235.222 71.1705C234.954 71.0754 234.37 71.0279 233.471 71.0279H231.871L231.867 71.0322Z" fill="white"/>
<path fill-rule="evenodd" clip-rule="evenodd" d="M244.382 75.2998V74.2372C244.123 74.6173 243.781 74.9154 243.358 75.1313C242.938 75.3473 242.493 75.4596 242.026 75.4596C241.559 75.4596 241.123 75.3559 240.742 75.1443C240.362 74.9369 240.09 74.6432 239.921 74.2631C239.752 73.883 239.666 73.3604 239.666 72.6909V68.2031H241.546V71.4642C241.546 72.462 241.581 73.0753 241.646 73.2999C241.719 73.5202 241.845 73.7016 242.026 73.8355C242.208 73.9651 242.441 74.0299 242.722 74.0299C243.042 74.0299 243.332 73.9435 243.583 73.7707C243.838 73.5936 244.011 73.3734 244.106 73.1142C244.201 72.8507 244.244 72.2115 244.244 71.1964V68.2031H246.125V75.2998H244.378H244.382Z" fill="white"/>
<path fill-rule="evenodd" clip-rule="evenodd" d="M254.537 75.2997H252.791V74.2588C252.501 74.6648 252.155 74.9671 251.762 75.1658C251.368 75.3602 250.971 75.4595 250.573 75.4595C249.756 75.4595 249.056 75.1313 248.472 74.4791C247.893 73.8182 247.603 72.9025 247.603 71.7277C247.603 70.5528 247.884 69.6112 248.45 68.9892C249.017 68.3629 249.73 68.0476 250.595 68.0476C251.39 68.0476 252.073 68.3759 252.652 69.0367V65.5078H254.533V75.3041L254.537 75.2997ZM249.522 71.5981C249.522 72.3539 249.626 72.9025 249.838 73.2394C250.141 73.7275 250.564 73.9737 251.109 73.9737C251.541 73.9737 251.909 73.7923 252.211 73.4251C252.514 73.0537 252.665 72.5051 252.665 71.7752C252.665 70.9588 252.518 70.3757 252.224 70.0172C251.93 69.6587 251.554 69.4773 251.096 69.4773C250.638 69.4773 250.275 69.6544 249.972 70.0129C249.674 70.3627 249.522 70.894 249.522 71.5981Z" fill="white"/>
<path fill-rule="evenodd" clip-rule="evenodd" d="M262.855 75.2997H261.108V74.2588C260.819 74.6648 260.473 74.9671 260.079 75.1658C259.686 75.3602 259.288 75.4595 258.89 75.4595C258.073 75.4595 257.373 75.1313 256.789 74.4791C256.21 73.8182 255.921 72.9025 255.921 71.7277C255.921 70.5528 256.206 69.6112 256.772 68.9892C257.338 68.3629 258.052 68.0476 258.916 68.0476C259.712 68.0476 260.395 68.3759 260.974 69.0367V65.5078H262.855V75.3041V75.2997ZM257.84 71.5981C257.84 72.3539 257.944 72.9025 258.156 73.2394C258.458 73.7275 258.882 73.9737 259.427 73.9737C259.859 73.9737 260.226 73.7923 260.529 73.4251C260.831 73.0537 260.983 72.5051 260.983 71.7752C260.983 70.9588 260.836 70.3757 260.542 70.0172C260.248 69.6587 259.872 69.4773 259.414 69.4773C258.955 69.4773 258.592 69.6544 258.29 70.0129C257.991 70.3627 257.84 70.894 257.84 71.5981Z" fill="white"/>
<path fill-rule="evenodd" clip-rule="evenodd" d="M263.767 68.2031H265.764L267.463 73.2395L269.123 68.2031H271.068L268.561 75.032L268.112 76.2673C267.947 76.682 267.787 76.9973 267.636 77.2176C267.489 77.4335 267.316 77.6106 267.122 77.7445C266.931 77.8827 266.689 77.9907 266.404 78.0641C266.123 78.1376 265.803 78.1765 265.449 78.1765C265.094 78.1765 264.731 78.1376 264.385 78.0641L264.216 76.5956C264.51 76.6517 264.774 76.682 265.012 76.682C265.449 76.682 265.773 76.5524 265.98 76.2932C266.188 76.0384 266.352 75.7144 266.46 75.3171L263.758 68.2031H263.767Z" fill="white"/>
<path fill-rule="evenodd" clip-rule="evenodd" d="M99.9582 66.3544C99.9582 66.3544 100.2 70.3411 93.5515 71.5462L83.0335 71.1834C83.0335 71.1834 80.1328 70.2159 80.738 67.0757L81.8274 66.5919C81.8274 66.5919 80.9801 62.6052 85.3334 60.5535L85.6965 57.0505L86.7859 56.083L86.6951 49.7854C86.6951 49.7854 82.424 48.7877 82.3029 45.1638C82.1819 41.5398 82.3029 40.4514 82.3029 40.4514L84.7195 40.5723L84.8406 38.6416L84.6806 38.2485C84.6806 38.2485 84.7152 38.2787 84.2353 36.8318C83.7512 35.3805 83.1459 34.7758 80.3662 35.1386C80.3662 35.1386 79.0347 34.5339 79.0347 33.8082C79.0347 33.0826 77.9453 31.3937 78.6716 28.2536L69.243 28.0117C69.243 28.0117 68.3957 27.6489 68.1536 26.1976C67.9115 24.7506 68.1536 22.0899 69.6062 21.4852C71.0587 20.8805 72.9911 20.3967 73.7174 20.6386C73.7174 20.6386 72.5069 16.41 74.4436 15.9262C74.4436 15.9262 76.8602 15.4425 77.1023 16.0472C77.3444 16.6519 81.4556 21.7228 81.4556 21.7228C81.4556 21.7228 82.0608 20.5133 83.8722 20.7552C85.6879 20.9971 86.894 23.1697 86.894 23.1697H89.1895C89.1895 23.1697 88.2212 20.5133 88.7054 18.5783C88.7054 18.5783 87.9229 17.0233 90.0628 9.20967C90.0628 9.20967 90.9922 5.53392 95.9854 2.57518C95.9854 2.57518 100.857 -0.396518 105.055 1.54718C105.055 1.54718 108.388 3.65933 109.633 6.06952C109.633 6.06952 112.391 6.23797 112.746 7.72382C112.746 7.72382 113.182 10.6782 114.445 13.2007C114.445 13.2007 117.717 15.0537 112.867 17.8526L112.521 22.5607C112.521 22.5607 115.906 22.9235 116.753 22.9235C116.753 22.9235 118.206 22.6816 118.569 21.1094C118.932 19.5372 118.811 16.6389 121.349 16.0385C121.349 16.0385 123.402 16.4014 123.043 19.4206C123.043 19.4206 125.944 19.0577 127.397 19.4206C128.849 19.7834 131.953 23.809 130.081 25.7095C128.75 27.0614 125.222 26.068 125.222 26.068C125.222 26.068 125.827 27.1565 124.133 27.1565C122.438 27.1565 121.716 27.0355 121.716 27.0355C121.716 27.0355 122.684 30.7804 121.716 32.4692C120.748 34.1581 119.3 35.8513 117.242 36.2141C117.242 36.2141 118.733 41.4103 118.128 47.6906L116.083 50.6363C116.083 50.6363 115.672 52.6275 115.517 52.999C115.564 53.3186 115.599 53.6469 115.599 53.9449C115.599 54.4719 115.517 54.7613 115.227 55.1975L115.015 55.2192C114.938 56.1737 114.989 57.3831 115.318 58.8517C115.318 58.8517 119.671 60.4239 119.671 63.9269V66.7042C119.671 66.7042 121.003 68.0346 119.792 69.3606C118.582 70.691 115.923 73.5892 106.374 70.0863C106.374 70.0863 102.504 67.7927 101.778 66.2205L99.9626 66.3414L99.9582 66.3544Z" fill="#231F20"/>
<path d="M99.9582 66.3544C99.9582 66.3544 100.2 70.3411 93.5515 71.5462L83.0335 71.1834C83.0335 71.1834 80.1328 70.2159 80.738 67.0757L81.8274 66.5919C81.8274 66.5919 80.9801 62.6052 85.3334 60.5535L85.6965 57.0505L86.7859 56.083L86.6951 49.7854C86.6951 49.7854 82.424 48.7877 82.3029 45.1638C82.1819 41.5398 82.3029 40.4514 82.3029 40.4514L84.7195 40.5723L84.8406 38.6416L84.6806 38.2485C84.6806 38.2485 84.7152 38.2787 84.2353 36.8318C83.7512 35.3805 83.1459 34.7758 80.3662 35.1386C80.3662 35.1386 79.0347 34.5339 79.0347 33.8082C79.0347 33.0826 77.9453 31.3937 78.6716 28.2536L69.243 28.0117C69.243 28.0117 68.3957 27.6489 68.1536 26.1976C67.9115 24.7506 68.1536 22.0899 69.6062 21.4852C71.0587 20.8805 72.9911 20.3967 73.7174 20.6386C73.7174 20.6386 72.5069 16.41 74.4436 15.9262C74.4436 15.9262 76.8602 15.4425 77.1023 16.0472C77.3444 16.6519 81.4556 21.7228 81.4556 21.7228C81.4556 21.7228 82.0608 20.5133 83.8722 20.7552C85.6879 20.9971 86.894 23.1697 86.894 23.1697H89.1895C89.1895 23.1697 88.2212 20.5133 88.7054 18.5783C88.7054 18.5783 87.9229 17.0233 90.0628 9.20967C90.0628 9.20967 90.9922 5.53392 95.9854 2.57518C95.9854 2.57518 100.857 -0.396518 105.055 1.54718C105.055 1.54718 108.388 3.65933 109.633 6.06952C109.633 6.06952 112.391 6.23797 112.746 7.72382C112.746 7.72382 113.182 10.6782 114.445 13.2007C114.445 13.2007 117.717 15.0537 112.867 17.8526L112.521 22.5607C112.521 22.5607 115.906 22.9235 116.753 22.9235C116.753 22.9235 118.206 22.6816 118.569 21.1094C118.932 19.5372 118.811 16.6389 121.349 16.0385C121.349 16.0385 123.402 16.4013 123.043 19.4206C123.043 19.4206 125.944 19.0577 127.397 19.4206C128.849 19.7834 131.953 23.809 130.081 25.7095C128.75 27.0614 125.222 26.068 125.222 26.068C125.222 26.068 125.827 27.1565 124.133 27.1565C122.438 27.1565 121.716 27.0355 121.716 27.0355C121.716 27.0355 122.684 30.7804 121.716 32.4692C120.748 34.1581 119.3 35.8513 117.242 36.2141C117.242 36.2141 118.733 41.4103 118.128 47.6906L116.083 50.6363C116.083 50.6363 115.672 52.6275 115.517 52.999C115.564 53.3186 115.599 53.6469 115.599 53.9449C115.599 54.4719 115.517 54.7613 115.227 55.1975L115.015 55.2192C114.938 56.1737 114.989 57.3831 115.318 58.8517C115.318 58.8517 119.671 60.4239 119.671 63.9269V66.7042C119.671 66.7042 121.003 68.0346 119.792 69.3606C118.582 70.691 115.923 73.5892 106.374 70.0863C106.374 70.0863 102.504 67.7927 101.778 66.2205L99.9626 66.3414L99.9582 66.3544Z" stroke="#231F20" stroke-width="0.34" stroke-miterlimit="3.86"/>
<path fill-rule="evenodd" clip-rule="evenodd" d="M121.21 25.9815C121.975 26.0809 123.156 26.2061 124.124 26.2061C124.258 26.2061 124.444 26.1802 124.539 26.1586C124.517 26.245 124.483 26.3487 124.375 26.543L125.274 25.122C125.274 25.122 128.313 26.4307 129.48 25.2775C130.989 23.7873 127.989 20.5737 127.154 20.3621C125.918 20.0511 123.221 20.375 123.156 20.3837L121.937 20.5348L122.084 19.3168C122.235 18.0512 121.876 17.5113 121.647 17.2867C121.535 17.1744 121.418 17.101 121.323 17.0535C120.648 17.2953 120.289 17.8007 120.047 18.5264C119.896 18.9756 119.814 19.4507 119.74 19.8999C119.658 20.4269 119.593 20.9236 119.498 21.3382C119.356 21.9516 119.092 22.4224 118.781 22.7852L121.21 25.9772V25.9815Z" fill="#E0A651"/>
<path fill-rule="evenodd" clip-rule="evenodd" d="M79.7912 32.8104L79.8647 33.0695C81.8533 30.3786 83.1243 26.8842 81.6026 23.7052C81.5032 23.4936 81.3951 23.2776 81.3173 23.1005C81.3173 23.1005 79.6659 21.0618 78.6024 19.7142C78.0707 19.036 77.526 18.3363 77.1023 17.7705C76.8818 17.4767 76.6959 17.2219 76.5533 17.0146L76.3587 16.7209C76.2031 16.7036 75.987 16.7079 75.7362 16.7209C75.2564 16.7554 74.7981 16.8332 74.6598 16.8591C73.9465 17.0362 74.4177 19.6537 74.6252 20.375L75.1267 22.1243L73.4018 21.5499C73.0732 21.4419 71.4823 21.7399 69.965 22.3705C69.6883 22.4872 69.3641 22.8932 69.1695 23.7398C68.988 24.5302 68.988 25.4329 69.0917 26.042C69.1825 26.5905 69.377 26.8756 69.5413 27.0613L79.8604 27.3248L79.5967 28.4694C79.2681 29.8905 79.3546 30.9574 79.5102 31.7521C79.5967 32.1711 79.7004 32.5253 79.7869 32.8104" fill="#E0A651"/>
<path fill-rule="evenodd" clip-rule="evenodd" d="M83.6518 34.4864C82.9384 34.0976 81.9441 33.9896 80.5046 34.1365C84.8233 28.3011 82.705 23.4721 82.0955 22.3577L82.3246 22.1374C82.3635 22.0856 82.4327 22.0121 82.5321 21.9387C82.7137 21.8091 83.0768 21.632 83.7339 21.7184C85.0005 21.8869 85.9992 23.5671 86.0424 23.6492L86.224 23.9774C86.773 27.2817 85.2124 31.6702 83.6431 34.482M94.0098 24.8283C94.0876 25.2171 94.1827 25.5972 94.2864 25.9686L94.0314 29.6228C93.5126 32.6593 91.9088 34.7542 89.7732 36.7799L89.0901 37.4235C88.8913 37.6179 88.7097 37.8036 88.567 37.9807C88.0656 38.607 86.6692 38.4817 85.8133 38.3306L85.8608 37.6092L85.6663 37.3371C85.4761 37.0909 85.2772 36.9397 85.1389 36.5294C84.9443 35.9506 84.7152 35.4755 84.404 35.1083C87.3696 29.9813 87.3696 25.8175 87.201 24.1416H90.2747C90.8626 24.6037 91.6883 24.8586 92.8641 24.8845C93.2273 24.8931 93.6682 24.8456 93.6682 24.8456C93.6942 24.8111 93.7028 24.7592 93.7028 24.7031L94.0054 24.8283H94.0098Z" fill="white"/>
<path d="M83.6518 34.4864C82.9384 34.0976 81.9442 33.9896 80.5046 34.1365C84.8233 28.3011 82.705 23.4721 82.0955 22.3577L82.3246 22.1374C82.3635 22.0856 82.4327 22.0121 82.5321 21.9387C82.7137 21.8091 83.0768 21.632 83.7339 21.7184C85.0005 21.8869 85.9992 23.5671 86.0424 23.6492L86.224 23.9774C86.773 27.2817 85.2124 31.6702 83.6431 34.482L83.6518 34.4864ZM94.0098 24.8283C94.0876 25.2171 94.1827 25.5972 94.2864 25.9686L94.0314 29.6228C93.5126 32.6593 91.9088 34.7542 89.7732 36.7799L89.0901 37.4235C88.8913 37.6179 88.7097 37.8036 88.567 37.9807C88.0656 38.607 86.6692 38.4817 85.8133 38.3306L85.8608 37.6092L85.6663 37.3371C85.4761 37.0909 85.2772 36.9397 85.1389 36.5294C84.9443 35.9506 84.7152 35.4755 84.404 35.1083C87.3696 29.9813 87.3696 25.8175 87.201 24.1416H90.2747C90.8626 24.6037 91.6883 24.8586 92.8641 24.8845C93.2273 24.8931 93.6682 24.8456 93.6682 24.8456C93.6942 24.8111 93.7028 24.7592 93.7028 24.7031L94.0054 24.8283H94.0098Z" stroke="#231F20" stroke-width="0.34" stroke-miterlimit="3.86"/>
<path fill-rule="evenodd" clip-rule="evenodd" d="M97.8443 2.74358C98.5619 3.5297 99.8588 6.47979 99.9755 7.68489C100.114 9.10163 98.8688 9.28736 96.7895 10.9503C94.7101 12.6132 92.2373 16.3797 91.2473 16.6432C90.8755 16.7425 90.5945 16.6389 90.387 16.4704L90.2876 16.1465C90.0325 15.2437 89.9288 13.3087 90.9836 9.46445C90.9836 9.46445 91.0355 9.27872 91.1609 8.97205C91.3122 8.62219 91.5543 8.12114 91.9433 7.54235C92.7258 6.36318 94.1092 4.80822 96.4696 3.40444C96.4868 3.39148 97.0143 3.08048 97.84 2.73926" fill="#F5DF11"/>
<path fill-rule="evenodd" clip-rule="evenodd" d="M106.655 6.22064C106.655 6.22064 102.777 8.17298 101.329 7.28752C100.875 7.01108 98.3933 2.32893 99.9928 2.07841C101.592 1.82789 104.61 2.19504 106.011 3.89685C107.441 5.63754 106.655 6.22064 106.655 6.22064Z" fill="#F5DF11"/>
<path fill-rule="evenodd" clip-rule="evenodd" d="M97.2909 29.3938L97.3471 29.4197C99.5605 30.4995 102.461 30.6637 104.662 30.6637C105.345 30.6637 106.205 30.4132 107.087 29.9683C108.038 31.2986 108.656 32.8709 108.656 34.5338C108.656 36.9008 106.983 35.5575 105.142 36.6589C103.75 37.4925 98.8472 36.9526 97.399 36.7712L97.2952 29.3981H97.2909V29.3938Z" fill="white"/>
<path d="M97.2909 29.3938L97.3471 29.4197C99.5605 30.4995 102.461 30.6637 104.662 30.6637C105.345 30.6637 106.205 30.4132 107.087 29.9683C108.038 31.2986 108.656 32.8709 108.656 34.5338C108.656 36.9008 106.983 35.5575 105.142 36.6589C103.75 37.4925 98.8472 36.9526 97.399 36.7712L97.2952 29.3981H97.2909V29.3938Z" stroke="#231F20" stroke-width="0.34" stroke-miterlimit="3.86"/>
<path fill-rule="evenodd" clip-rule="evenodd" d="M99.1671 22.742C99.1671 22.742 98.4149 26.9188 103.347 27.0052C107.727 27.083 108.233 21.6536 108.233 21.6536C106.659 23.8262 105.695 24.4309 102.673 24.4309C99.6513 24.4309 99.1671 22.7377 99.1671 22.7377M101.726 15.9434C101.726 15.9434 100.684 15.3689 100.468 16.4401C100.252 17.5113 101.437 17.8569 101.96 17.4206C102.483 16.98 101.726 15.9434 101.726 15.9434ZM97.239 28.2751L97.1223 28.1369L96.0329 26.1716C95.4277 24.906 94.7187 23.4202 94.589 21.5369C94.4982 20.2109 94.4982 19.1872 94.4982 19.1872C94.4982 19.1872 95.7433 20.4701 96.3355 20.7076C97.1223 21.0229 97.9567 22.133 98.8213 21.3382C102.725 17.7532 106.309 15.8225 111.639 17.2781C111.669 17.2954 111.557 22.4829 110.498 25.1868C110.187 25.9815 109.672 26.7158 109.058 27.3464C108.665 27.7524 108.237 28.1153 107.792 28.4306C106.659 29.234 105.457 29.7134 104.657 29.7134C102.963 29.7134 101.264 29.64 99.6167 29.221C98.7348 28.9964 98.0129 28.7157 97.4638 28.4219L97.3947 28.3831L97.2347 28.2794L97.239 28.2751Z" fill="#E0A651"/>
<path d="M99.1671 22.742C99.1671 22.742 98.4149 26.9188 103.347 27.0052C107.727 27.083 108.233 21.6536 108.233 21.6536C106.659 23.8262 105.695 24.4309 102.673 24.4309C99.6513 24.4309 99.1671 22.7377 99.1671 22.7377V22.742ZM101.726 15.9434C101.726 15.9434 100.684 15.3689 100.468 16.4401C100.252 17.5113 101.437 17.8569 101.96 17.4206C102.483 16.98 101.726 15.9434 101.726 15.9434ZM97.239 28.2751L97.1223 28.1369L96.0329 26.1716C95.4277 24.906 94.7187 23.4202 94.589 21.5369C94.4982 20.2109 94.4982 19.1872 94.4982 19.1872C94.4982 19.1872 95.7433 20.4701 96.3355 20.7076C97.1223 21.0229 97.9567 22.133 98.8213 21.3382C102.725 17.7532 106.309 15.8225 111.639 17.2781C111.669 17.2954 111.557 22.4829 110.498 25.1868C110.187 25.9815 109.672 26.7158 109.058 27.3464C108.665 27.7524 108.237 28.1153 107.792 28.4306C106.659 29.234 105.457 29.7134 104.657 29.7134C102.963 29.7134 101.264 29.64 99.6167 29.221C98.7348 28.9964 98.0129 28.7157 97.4638 28.4219L97.3947 28.3831L97.2347 28.2794L97.239 28.2751Z" stroke="#231F20" stroke-width="0.34" stroke-miterlimit="3.86"/>
<path fill-rule="evenodd" clip-rule="evenodd" d="M107.796 28.4264L109.063 27.3423C108.669 27.7483 108.241 28.1111 107.796 28.4264Z" fill="#231F20"/>
<path d="M107.796 28.4264L109.063 27.3423C108.669 27.7483 108.241 28.1111 107.796 28.4264Z" stroke="#231F20" stroke-width="0.34" stroke-miterlimit="3.86"/>
<path fill-rule="evenodd" clip-rule="evenodd" d="M92.89 23.9257H93.1321C93.586 22.9711 93.2921 21.8783 92.7647 21.0144C92.086 19.9044 92.4923 19.5459 91.2948 19.291C90.8712 19.2003 89.8553 19.6884 89.7342 19.7057C89.6261 20.0685 89.9547 21.6537 90.0195 22.0036C90.2833 23.4592 91.6364 23.8911 92.89 23.9213" fill="#E0A651"/>
<path fill-rule="evenodd" clip-rule="evenodd" d="M116.52 35.3805L117.069 35.2812C117.337 35.2337 117.592 35.1559 117.838 35.0566C118.478 32.884 118.699 29.1996 117.199 26.9492C116.122 25.3381 113.26 25.1653 111.436 25.4202C111.146 26.1631 110.787 26.7592 110.359 27.3077C110.757 29.2989 111.527 32.5902 112.478 33.4541C113.161 34.0718 114.462 34.7067 115.521 35.1602C115.206 33.48 112.975 33.3504 113.368 29.4112L114.324 29.5062C113.939 33.3677 116.433 32.9401 116.516 35.3762" fill="white"/>
<path fill-rule="evenodd" clip-rule="evenodd" d="M119.001 34.3481C119.732 33.7434 120.359 32.9184 120.877 32.007C121.608 30.7328 120.826 27.4544 120.782 27.286L120.726 27.07L118.054 23.4202C117.756 23.6102 117.488 23.7182 117.289 23.783C117.06 23.8607 116.822 23.8953 116.753 23.8953C116.031 23.8953 112.923 23.58 111.894 23.472C111.847 23.8046 111.79 24.1242 111.726 24.4266C112.231 24.3834 112.953 24.3488 113.736 24.405C115.184 24.513 117.021 24.9492 117.998 26.4135C119.503 28.6681 119.477 31.9983 119.001 34.3437" fill="white"/>
<path fill-rule="evenodd" clip-rule="evenodd" d="M101.169 60.9164C101.169 60.9164 99.9496 59.9359 99.2406 59.8192C98.5402 59.7026 97.6281 59.586 96.811 59.586C95.726 59.586 95.0732 59.1627 94.4334 58.3766C93.2834 56.9339 92.3107 56.3379 90.24 56.6791C89.2976 56.8346 88.0655 56.8951 87.2874 56.9167L86.6043 57.5214L86.2239 61.1928L85.7354 61.4217C83.8376 62.3158 83.1329 63.5857 82.8692 64.5921C82.7309 65.1104 82.705 65.5812 82.7136 65.9138C82.7223 66.2118 82.9038 67.1621 82.9038 67.1621L81.6155 67.7366C81.5334 69.3822 82.8303 70.0647 83.2237 70.2331L93.478 70.5873C96.5387 70.0129 97.8615 68.8423 98.4495 67.9655C98.7564 67.5076 98.8904 67.093 98.9509 66.8036C98.9985 66.566 98.9898 65.4603 98.9898 65.4603L102.366 65.2357L102.643 65.8361C103.175 66.9807 106.253 68.9114 106.784 69.2354C111.414 70.9242 114.246 71.0106 115.992 70.6176C117.709 70.2288 118.508 69.3563 119.075 68.7343C119.624 68.1296 119.092 67.5033 118.984 67.3997L118.703 67.1189V63.9442C118.703 61.2101 115.145 59.8322 114.985 59.7717L114.488 59.5946L114.371 59.0806C114.043 57.5991 113.974 56.3508 114.038 55.3271L113.667 55.3617C113.667 55.3617 110.792 55.7202 109.469 55.9621C108.341 56.1651 102.807 60.6486 101.584 61.655L101.169 60.9293V60.9164Z" fill="#231F20"/>
<path d="M83.669 63.1926C83.7512 63.0933 83.8333 62.9896 83.9111 62.8773C83.8247 62.981 83.7425 63.089 83.669 63.1926ZM82.584 66.9202C82.545 66.6826 82.8693 66.0434 82.8649 65.9138C82.8563 65.5769 82.8822 65.1104 83.0163 64.5921C83.133 64.1558 83.3275 63.6764 83.669 63.1926C83.7425 63.089 83.8247 62.981 83.9111 62.8773C84.3521 62.3547 84.9832 61.845 85.8824 61.4217L86.3709 61.1928L88.7356 60.9207C88.7356 60.9207 87.7673 62.3719 87.2831 62.7305C86.7989 63.0933 86.0727 65.024 86.0727 66.7172C86.0727 67.9007 85.2037 67.3089 84.5207 67.1405C84.5207 66.7345 83.1373 66.9764 82.5753 66.9202M96.9624 68.2851C98.2766 67.4515 97.667 69.4816 93.4651 70.5787L83.3751 70.2288C83.2238 70.164 82.9341 70.0215 82.6445 69.7753C82.5451 69.6457 82.437 69.5248 82.29 69.4125C82.0133 69.0669 81.7928 68.6047 81.7669 67.9957L81.8015 67.715L81.8404 67.6977C82.2727 67.7366 82.9817 67.8359 83.7685 68.0951L83.8031 68.108C83.9889 68.2981 84.3434 68.3672 84.6331 68.4017C85.7138 68.5313 86.3277 69.2483 87.5338 69.3693C88.7443 69.4902 92.9722 69.6111 93.8195 68.8855C94.6668 68.1598 95.6309 69.1274 96.9624 68.2808" fill="white"/>
<path fill-rule="evenodd" clip-rule="evenodd" d="M114.462 59.8323C114.462 59.8323 114.67 59.6941 115.115 59.8193C115.305 59.8712 115.538 59.9748 115.815 60.1563C116.381 60.5234 117.129 61.2145 118.089 62.4887C118.089 62.4887 118.694 65.5079 118.089 66.8383L115.413 67.5725C115.413 67.5725 115.91 63.6981 114.22 62.3677C112.525 61.0374 114.462 59.8323 114.462 59.8323Z" fill="white"/>
<path fill-rule="evenodd" clip-rule="evenodd" d="M114.341 69.0109C116.044 68.8986 118.067 66.8642 118.807 67.2184L118.98 67.3911C119.446 68.1643 118.379 69.5206 116.758 70.216C115.599 70.7127 112.564 70.5831 110.459 70.3412C109.478 70.1166 108.375 69.797 107.143 69.3607C106.266 68.8554 105.44 68.1988 105.755 67.8015C106.24 67.1967 107.446 67.9224 107.446 67.9224C107.446 67.9224 112.525 69.1318 114.337 69.0109" fill="white"/>
<path fill-rule="evenodd" clip-rule="evenodd" d="M107.805 48.792C107.805 48.792 103.715 49.6861 103.693 48.792C102.82 48.792 103.572 43.963 103.572 43.963C103.572 43.963 107.662 43.2374 107.684 44.084C108.457 44.1056 107.805 48.792 107.805 48.792Z" fill="white"/>
<path fill-rule="evenodd" clip-rule="evenodd" d="M116.814 47.6516C116.814 47.6516 116.481 49.0252 115.737 47.5264C115.244 46.5286 113.308 41.4923 113.546 40.1619C113.546 40.1619 114.756 39.3153 115.962 40.1619C117.173 41.0085 117.052 44.9952 117.052 44.9952L116.809 47.6516H116.814Z" fill="#F5DF11"/>
<path fill-rule="evenodd" clip-rule="evenodd" d="M83.0292 41.5054C83.0292 41.5054 85.8219 42.6241 86.5611 42.8141C87.3004 43.0042 86.7081 44.3259 86.7081 45.842C86.7081 47.3581 86.2628 48.4897 86.2628 48.4897C86.2628 48.4897 83.7468 46.978 83.4529 45.842C83.1589 44.706 82.8693 43.4059 83.0379 42.9567C83.2065 42.5074 83.0335 41.5097 83.0335 41.5097" fill="#F5DF11"/>
<path fill-rule="evenodd" clip-rule="evenodd" d="M87.5857 43.2416C87.5857 43.2416 88.9388 43.2071 88.9172 43.6304C88.8956 44.058 88.9172 45.2717 88.7097 46.0103C88.5022 46.7446 88.3639 47.8288 88.0007 48.3428C87.6376 48.8568 87.2182 48.6408 87.2701 47.6646C87.322 46.6841 87.4949 44.9867 87.5165 44.5418C87.5382 44.0969 87.5857 43.2416 87.5857 43.2416Z" fill="#F5DF11"/>
<path fill-rule="evenodd" clip-rule="evenodd" d="M116.386 49.2541C116.386 49.2541 117.043 52.7355 117.259 53.7591C117.471 54.7655 118.439 57.7632 118.543 57.3312C118.651 56.8993 118.21 53.9535 117.998 53.0205C117.786 52.0876 117.471 48.3945 117.471 48.3945L116.386 49.2584V49.2541Z" fill="#231F20"/>
<path fill-rule="evenodd" clip-rule="evenodd" d="M83.3491 41.1899L87.3263 42.5851C87.3263 42.5851 88.8264 43.0084 88.4027 42.5851C87.9791 42.1618 86.3709 41.2979 85.6101 41.2979C84.8492 41.2979 83.3491 41.1943 83.3491 41.1943" fill="#F5DF11"/>
<path fill-rule="evenodd" clip-rule="evenodd" d="M94.5371 41.6781C94.1005 41.6392 93.9752 41.6867 93.4348 42.1402C92.8901 42.5938 93.0457 43.3194 92.7171 43.4749C92.3886 43.6304 91.7272 42.6283 92.6739 41.7731C93.625 40.9179 94.5285 39.6264 95.5098 39.838C95.9205 39.9244 97.3169 40.0108 97.6627 40.1533C98.1469 40.352 98.2766 40.6716 98.4884 40.7278C98.8515 40.8228 99.1455 40.473 99.4568 40.4341C99.768 40.3952 100.04 40.8617 100.04 40.8617C100.04 40.8617 100.144 42.5419 99.7724 42.5117C99.4006 42.4771 99.232 42.2741 98.8688 42.1186C98.5057 41.9631 97.6281 42.0106 97.3471 42.3605C97.0661 42.7147 97.1353 42.6499 97.1353 42.6499L96.9667 43.138L94.7447 42.9436L94.6193 42.2439L94.5415 41.6781H94.5371Z" fill="white"/>
<path fill-rule="evenodd" clip-rule="evenodd" d="M95.8816 54.7958C95.8816 54.7958 94.9392 54.9643 94.2561 54.9038C93.5731 54.8433 93.331 54.7613 93.1667 54.4935C93.0024 54.23 93.3007 54.0356 93.3656 53.2927L94.0486 50.1828C94.1048 49.5608 94.1178 48.6408 94.3685 47.224C94.6193 45.8073 94.7446 43.6433 94.7446 43.6433L96.8932 43.829C96.8283 44.3862 96.7073 44.7059 96.69 44.9262C96.6641 45.2328 96.5776 48.481 96.6122 49.5435C96.6468 50.6104 95.7908 54.4719 95.8859 54.7958" fill="#F5DF11"/>
<path fill-rule="evenodd" clip-rule="evenodd" d="M85.6749 40.5508L85.7528 39.2982C85.9992 39.3371 86.2758 39.376 86.5655 39.3932C88.1736 39.5055 88.6967 39.147 89.7602 38.1104L90.4303 37.4754C92.7301 35.2985 94.4204 33.0222 94.9781 29.7611L95.1251 27.6663C95.4623 28.1155 95.8687 28.4956 96.3269 28.8195L96.4479 37.605C98.5403 37.9117 103.875 38.5337 105.63 37.4798C107.338 36.4561 109.612 37.9074 109.612 34.534C109.612 32.7544 108.976 30.9878 107.969 29.5322L108.384 29.178C108.79 28.8886 109.184 28.5604 109.551 28.2019C109.663 28.7288 109.832 29.4545 110.044 30.2233C111.09 34.0243 111.687 34.4174 115.024 36.1969C115.595 36.4993 116.027 36.6245 116.317 36.6721C116.399 37.2249 116.503 37.929 116.598 38.6892C116.598 38.6892 113.26 37.9722 112.162 39.3328C111.233 40.4817 111.911 43.1165 111.911 43.1165C111.911 43.1165 110.891 44.5592 109.975 44.084C108.967 43.5571 107.921 42.9955 107.921 42.9955C107.921 42.9955 104.329 42.4902 103.261 43.1122C102.44 43.5916 102.967 44.6844 102.362 45.4101C101.757 46.1357 97.1612 45.8938 97.1612 45.8938L97.7838 43.3281L98.9856 43.1424C100.339 43.2677 100.892 42.7709 100.529 40.8402C100.417 40.2441 100.136 39.877 99.7162 39.6524C99.4222 39.7258 98.8645 39.8338 98.5965 39.6524C98.3501 39.4883 98.2161 39.4623 97.9913 39.3241C97.1699 39.3025 96.1929 39.3716 95.1078 39.3716C93.9622 39.3716 94.3167 39.6913 93.4867 40.2182C92.6566 40.7452 91.3727 42.3261 91.3035 43.2029C91.1825 44.6542 93.6596 43.7169 93.6596 43.7169L93.7806 45.1682L90.7588 45.0472C90.6378 42.6327 89.3063 42.149 87.8581 41.1814C87.3263 40.8273 86.505 40.6415 85.6793 40.5508M102.435 60.5579C102.435 60.5579 106.802 58.4156 107.839 57.5258C108.877 56.6403 108.358 56.0486 109.836 55.824C111.315 55.6037 114.203 55.3791 114.203 55.3791C114.203 55.3791 114.056 57.5992 114.129 57.8929C114.203 58.1866 114.648 58.8561 113.757 59.3701C112.867 59.8841 109.465 59.517 107.394 60.9985C105.323 62.4757 104.506 63.1409 103.473 63.5858C102.435 64.0307 102.215 64.251 102.215 63.8061C102.215 63.3612 101.476 62.4023 101.77 61.884C102.064 61.3657 102.435 60.5536 102.435 60.5536M86.9675 57.0118C86.9675 57.0118 86.3018 59.9705 86.5957 60.0439C86.894 60.1174 88.0007 59.599 90.7415 60.3376C93.478 61.0763 98.363 63.6635 99.5476 63.8881C100.732 64.1084 101.026 64.2596 101.251 63.1495C101.471 62.0395 100.879 62.1129 101.104 61.4477L101.476 60.3376C100.589 59.8928 99.1801 59.4522 97.7751 59.599C96.3701 59.7459 95.6309 59.6725 94.8873 59.0073C94.1481 58.3421 94.2216 57.5301 92.8166 56.9383C91.4116 56.3466 90.3006 56.5669 89.0426 56.7181C87.7846 56.8649 86.9718 57.0118 86.9718 57.0118M101.657 58.6747L101.406 58.8648C100.161 58.5711 98.0907 58.6272 96.8111 58.6272C96.0243 58.6272 95.6309 58.3292 95.177 57.772C93.8109 56.0529 92.4707 55.3359 90.0801 55.7333C89.2155 55.8758 88.3077 55.9319 87.7327 55.9535L87.8451 49.4011L87.7889 49.3838L88.7789 48.3472L89.2458 47.1853C89.2976 47.3538 89.3538 47.492 89.4273 47.5784C89.9115 48.1831 93.5385 48.1831 93.5385 48.1831C93.6596 50.3557 92.7042 52.2173 92.7042 52.2173L92.3411 54.6318C92.3411 54.6318 95.3758 55.5734 95.9767 55.0897C96.582 54.6059 97.1612 48.5545 97.1612 48.5545L102.483 48.304L102.725 49.8762C102.725 49.8762 107.891 50.4378 108.315 48.9174C108.431 48.4984 108.527 47.8202 108.527 47.8202C108.527 47.8202 109.374 47.2155 110.221 46.4899C111.068 45.7642 112.638 45.1595 113.364 45.2805C114.09 45.4014 113.969 47.3365 114.574 47.8159C114.925 48.0967 114.977 49.0253 115.175 49.7596C115.175 49.7596 114.713 53.6341 114.631 53.9839C114.592 54.1481 114.177 54.1524 114.146 54.3381L113.563 54.3899C113.563 54.3899 110.636 54.7571 109.296 54.999C108.077 55.2192 104.048 58.4156 102.695 59.4954L102.842 58.6963C103.162 56.9859 104.143 54.0012 105.474 52.6233H103.136L103.252 53.5822C102.154 54.8176 102.396 57.055 101.899 58.5192C101.878 58.584 101.653 58.6618 101.653 58.6618" fill="#F5B41A"/>
<path fill-rule="evenodd" clip-rule="evenodd" d="M97.7189 20.2326C95.9421 20.1376 95.0948 17.5115 94.1264 17.4251C94.0227 17.4164 94.602 11.9741 104.843 8.091C108.656 6.64402 110.316 7.96142 111.125 8.39767C111.937 8.83392 112.102 9.69779 111.929 10.2852C111.756 10.877 115.227 14.9112 114.125 15.5418C113.07 16.1422 105.202 14.976 101.623 17.749C98.8213 19.9173 99.5216 20.3277 97.7189 20.2326Z" fill="#F5DF11"/>
<path d="M103.944 18.224C103.836 18.1592 103.797 18.0858 103.81 18.0124C104.51 17.7316 105.232 17.5157 105.972 17.3774C107.303 18.6128 105.643 22.0898 102.401 21.5326C102.133 21.4851 101.783 21.3901 101.54 21.2519L102.007 20.4139C102.734 20.699 103.412 20.6601 103.996 20.3967C104.74 20.0597 104.467 18.535 103.948 18.224" fill="#231F20"/>
<path d="M103.944 18.224C103.836 18.1592 103.797 18.0858 103.81 18.0124C104.51 17.7316 105.232 17.5157 105.972 17.3774C107.303 18.6128 105.643 22.0898 102.401 21.5326C102.133 21.4851 101.783 21.3901 101.54 21.2519L102.007 20.4139C102.734 20.699 103.412 20.6601 103.996 20.3967C104.74 20.0597 104.467 18.535 103.948 18.224H103.944Z" stroke="#231F20" stroke-width="0.34" stroke-miterlimit="3.86"/>
</svg>
