<svg width="68" height="68" viewBox="0 0 68 68" fill="none" xmlns="http://www.w3.org/2000/svg">
<g clip-path="url(#clip0_144_1727)">
<path d="M0 34.5439C0 34.1781 0 33.8137 0 33.448C0.0397581 33.1343 0.100081 32.8206 0.11379 32.5055C0.246774 29.574 0.734839 26.7042 1.60677 23.9028C6.90968 6.87949 24.3717 -3.12873 41.7693 0.882234C54.9333 3.91648 65.3088 14.9548 67.4612 28.2302C67.6833 29.5973 67.8218 30.9768 68 32.3507V35.7754C67.9561 36.0206 67.8903 36.2631 67.8725 36.5096C67.6573 39.4809 67.1404 42.4 66.1492 45.2083C62.6286 55.1863 55.8656 62.1165 46.1427 66.1795C44.3878 66.9124 42.5219 67.3809 40.6218 68V43.4425H47.2559C47.759 40.2247 48.2485 37.0973 48.7544 33.8672H38.6654C38.6654 31.6096 38.649 29.4452 38.6695 27.2795C38.6956 24.5768 40.3435 22.6987 43.0402 22.4973C45.1309 22.3411 47.2381 22.4028 49.3384 22.3685C49.603 22.3644 49.8676 22.3685 50.1486 22.3685V13.9685C46.861 13.5411 43.605 13.137 40.2996 13.4288C34.074 13.9781 29.6458 18.3302 29.2235 24.5425C29.0302 27.3836 29.1111 30.2439 29.0686 33.0959C29.0645 33.3384 29.0686 33.5809 29.0686 33.9055H21.4337V43.4932H29.0371V67.8261C28.8931 67.8178 28.7794 67.8233 28.6697 67.8042C20.6152 66.3699 13.77 62.7562 8.38073 56.5343C3.90589 51.3699 1.25992 45.3863 0.403065 38.6165C0.231694 37.2631 0.132984 35.9014 0 34.5425V34.5439Z" fill="#F5DF11"/>
</g>
<defs>
<clipPath id="clip0_144_1727">
<rect width="68" height="68" fill="white"/>
</clipPath>
</defs>
</svg>
