<svg width="68" height="68" viewBox="0 0 68 68" fill="none" xmlns="http://www.w3.org/2000/svg">
<g clip-path="url(#clip0_144_1730)">
<path d="M23.7935 0C30.5809 0 37.3684 0 44.1559 0C44.5506 0.0359485 44.9453 0.0732285 45.34 0.109177C47.8976 0.339514 50.5006 0.343508 53.0022 0.845456C59.6284 2.17555 64.2436 6.01672 66.5732 12.4329C67.7 15.5351 67.9613 18.7785 67.9707 22.0418C67.9947 29.8373 68.0307 37.6328 67.948 45.427C67.9227 47.8941 67.7506 50.3999 67.2786 52.8151C66.0051 59.3284 62.2753 63.9352 56.0173 66.369C52.9982 67.5433 49.8179 67.8549 46.6161 67.8882C39.4313 67.9601 32.2451 68.028 25.0603 67.988C21.5199 67.9694 17.9608 67.9547 14.479 67.1119C8.8397 65.7459 4.65121 62.5531 2.15892 57.2807C0.625404 54.036 0.157349 50.5463 0.120011 47.0047C0.0426688 39.6539 -0.0386741 32.3018 0.0199995 24.951C0.0453358 21.8607 0.232024 18.7452 0.684078 15.6922C1.38816 10.9324 3.68443 6.98067 7.58489 4.05952C10.9266 1.55511 14.7951 0.560531 18.8889 0.27028C20.5224 0.154446 22.1599 0.0878742 23.7948 0H23.7935ZM34.028 62.0232C34.028 61.9886 34.0293 61.9527 34.0307 61.918C35.8269 61.918 37.6258 61.9713 39.4206 61.9074C43.2958 61.7676 47.1989 61.8168 51.034 61.3322C56.2746 60.6718 59.8164 57.6508 61.0952 52.4436C61.6126 50.3386 61.7819 48.1111 61.8246 45.9342C61.9486 39.6473 61.99 33.3563 61.9406 27.0693C61.9153 23.7766 61.8086 20.464 61.4232 17.198C60.7752 11.7086 57.3294 8.00854 51.8874 6.92076C49.5578 6.45476 47.1362 6.31895 44.7519 6.28301C38.4099 6.18981 32.0651 6.17516 25.723 6.24839C22.7147 6.28301 19.681 6.39085 16.7113 6.8209C11.5054 7.57449 7.96227 10.9523 6.91548 16.0677C6.46209 18.2845 6.30474 20.5865 6.25673 22.8553C6.13939 28.3448 6.09805 33.8396 6.15672 39.3304C6.19806 43.1343 6.29541 46.9501 6.66612 50.7327C7.04749 54.6271 8.90104 57.7946 12.3935 59.8104C14.5297 61.0446 16.898 61.5586 19.3316 61.6451C24.2282 61.8195 29.1288 61.9034 34.028 62.0232Z" fill="#F5DF11"/>
<path d="M16.5273 34.0419C16.4939 24.421 24.3669 16.5549 34.0333 16.5536C43.6865 16.5523 51.4661 24.2958 51.5327 33.9713C51.5994 43.5869 43.7478 51.4676 34.0707 51.5022C24.4309 51.5368 16.5619 43.7054 16.5286 34.0419H16.5273ZM22.6933 34.0179C22.688 40.2863 27.7326 45.3351 34.0133 45.3457C40.2981 45.3564 45.3547 40.3355 45.376 34.0619C45.3987 27.7655 40.3327 22.6955 34.024 22.6995C27.7459 22.7035 22.7 27.7456 22.6947 34.0179H22.6933Z" fill="#F5DF11"/>
<path d="M56.3026 15.828C56.3173 18.0808 54.5331 19.9075 52.2928 19.9315C50.0206 19.9568 48.1603 18.1394 48.1497 15.8839C48.139 13.6325 49.9205 11.8191 52.1688 11.7898C54.4637 11.7605 56.2866 13.5406 56.3026 15.8267V15.828Z" fill="#F5DF11"/>
</g>
<defs>
<clipPath id="clip0_144_1730">
<rect width="68" height="68" fill="white"/>
</clipPath>
</defs>
</svg>
