<svg width="27" height="42" viewBox="0 0 27 42" fill="none" xmlns="http://www.w3.org/2000/svg">
<path d="M0.788949 41.6421C0.496744 41.399 0.437012 41.0838 0.437012 40.7127C0.445891 36.1342 0.442662 31.5557 0.443469 26.9781C0.443469 26.3298 0.644461 26.0275 1.0642 26.0373C1.47668 26.047 1.67041 26.3549 1.67041 27.0016C1.67041 31.2964 1.67041 35.5913 1.67041 39.8853V40.3982H3.02488C3.02488 40.224 3.02488 40.0409 3.02488 39.8586C3.02488 27.8524 3.02488 15.8463 3.02488 3.84023C3.02488 3.67816 3.01923 3.51529 3.03134 3.35403C3.06121 2.96992 3.27108 2.76733 3.64723 2.7487C3.72795 2.74464 3.80867 2.74789 3.88939 2.74789C10.4277 2.74789 16.9652 2.74789 23.5035 2.74789C24.2211 2.74789 24.3833 2.9059 24.3833 3.62225C24.3841 12.2387 24.3833 20.8551 24.3833 29.4715C24.3833 29.5793 24.3833 29.6879 24.3736 29.7948C24.3405 30.1417 24.1379 30.3337 23.8029 30.367C23.4889 30.3986 23.2104 30.153 23.1652 29.8167C23.1459 29.6709 23.1564 29.5201 23.1564 29.3718C23.1564 21.0933 23.1564 12.814 23.1564 4.53551C23.1564 4.3621 23.1564 4.18787 23.1564 3.98691H4.28007V40.4055H23.1564C23.1564 40.2475 23.1564 40.1033 23.1564 39.959C23.1564 37.4607 23.1564 34.9624 23.1572 32.4633C23.1572 32.3288 23.1443 32.187 23.1806 32.0614C23.2661 31.7583 23.4647 31.576 23.7981 31.5922C24.1266 31.6084 24.3203 31.7859 24.3672 32.11C24.3881 32.2559 24.3841 32.4066 24.3841 32.5549C24.3849 34.9997 24.3841 37.4437 24.3841 39.8885C24.3841 40.0482 24.3841 40.2086 24.3841 40.3991H25.7095V1.39055H1.6696V1.91242C1.6696 9.23229 1.6696 16.5522 1.6696 23.872C1.6696 24.5171 1.47426 24.8266 1.06178 24.8347C0.643654 24.8436 0.442662 24.5397 0.442662 23.8915C0.442662 16.2888 0.445084 8.6853 0.437012 1.08181C0.437012 0.710673 0.495937 0.395448 0.788949 0.152344H26.6192C26.9114 0.395448 26.9712 0.711483 26.9704 1.081C26.9631 14.2913 26.9631 27.5024 26.9704 40.7127C26.9704 41.0838 26.9074 41.3974 26.6184 41.6413H0.788949V41.6421Z" fill="white"/>
<path d="M6.38036 30.9861C6.38036 28.8249 6.38036 26.6645 6.38036 24.5033C6.38036 23.7837 6.57408 23.5916 7.2933 23.5908C11.5714 23.5908 15.8488 23.5908 20.1269 23.5908C20.8227 23.5908 21.0269 23.7902 21.0269 24.4757C21.0277 28.8111 21.0286 33.1456 21.0269 37.481C21.0269 38.1487 20.8316 38.3408 20.1544 38.3416C15.8496 38.3432 11.5448 38.3432 7.24002 38.3416C6.57166 38.3416 6.38116 38.1447 6.38036 37.468C6.37874 35.3076 6.38036 33.1464 6.38036 30.9861ZM7.64766 37.0863H19.7451V24.8679H7.64766V37.0863Z" fill="white"/>
<path d="M7.62831 19.5169H19.7589V7.30088H7.62831C7.62831 7.44431 7.62831 7.58612 7.62831 7.72793C7.62831 9.02449 7.63073 10.321 7.62588 11.6168C7.62588 11.7894 7.64445 12.0082 7.55243 12.1249C7.41682 12.2967 7.18838 12.4984 7.00111 12.4968C6.81384 12.496 6.59429 12.2886 6.45303 12.1184C6.36666 12.0147 6.38361 11.8097 6.38361 11.65C6.37957 10.0698 6.37957 8.48966 6.38199 6.91029C6.3828 6.23932 6.57491 6.04646 7.24892 6.04565C11.5537 6.04403 15.8577 6.04403 20.1625 6.04565C20.8348 6.04565 21.0286 6.24013 21.0286 6.9111C21.0302 11.2456 21.0302 15.581 21.0286 19.9156C21.0286 20.5841 20.8211 20.7948 20.1625 20.7956C15.8577 20.7972 11.5537 20.7972 7.24892 20.7956C6.58864 20.7956 6.38199 20.5849 6.38119 19.918C6.37957 18.1352 6.37957 16.3533 6.3828 14.5705C6.3828 14.4376 6.36262 14.2601 6.43527 14.1799C6.59187 14.0057 6.78559 13.8023 6.99627 13.7545C7.2804 13.6905 7.51933 13.8833 7.58149 14.1872C7.6275 14.4084 7.62588 14.6418 7.62669 14.8703C7.62992 16.4076 7.62831 17.9448 7.62831 19.5177V19.5169Z" fill="white"/>
<path d="M21.4483 23.3965C21.2199 23.2993 20.9341 23.2564 20.7767 23.091C20.5273 22.8293 20.2561 22.809 19.9437 22.8196C19.662 22.8293 19.3795 22.8334 19.0986 22.8163C18.6877 22.7912 18.4464 22.5497 18.4456 22.194C18.4456 21.8374 18.6877 21.5984 19.097 21.5708C19.3109 21.5562 19.5264 21.5676 19.7411 21.566C20.135 21.5627 20.5047 21.5976 20.8413 21.2507C21.1642 20.9193 21.7599 20.9858 22.1474 21.2694C22.5405 21.5579 22.7084 22.1008 22.5493 22.5708C22.3952 23.0262 21.9674 23.3301 21.4475 23.3965H21.4483Z" fill="white"/>
</svg>
