<svg width="33" height="33" viewBox="0 0 33 33" fill="none" xmlns="http://www.w3.org/2000/svg">
<g clip-path="url(#clip0_175_2713)">
<path d="M0.046875 2.49425C0.20972 2.28111 0.354189 2.05027 0.538577 1.85801C1.00493 1.37167 1.4865 0.900504 1.9668 0.427441C2.29185 0.106796 2.54087 0.0713792 2.92866 0.302219C4.36575 1.15854 5.79777 2.02181 7.23486 2.87813C7.50605 3.04004 7.63468 3.26519 7.62961 3.57887C7.62391 3.97857 7.61757 4.37891 7.63468 4.77798C7.63975 4.90004 7.68791 5.05182 7.77091 5.1353C10.2731 7.65114 12.7817 10.16 15.2903 12.6695C15.3188 12.698 15.3536 12.7201 15.3993 12.7555C15.4797 12.6796 15.557 12.6101 15.6305 12.5373C17.0315 11.139 18.4306 9.73881 19.836 8.34492C19.9925 8.18934 20.0476 8.05653 19.9963 7.82379C19.2512 4.46935 21.3764 1.10162 24.7289 0.322457C25.8365 0.0650549 26.9435 0.0992065 28.0359 0.428706C28.698 0.628556 28.8387 1.14779 28.3572 1.63919C27.6057 2.40634 26.8523 3.17222 26.0887 3.92735C25.9246 4.08988 25.8891 4.26127 25.8587 4.4801C25.763 5.16945 25.9816 5.70703 26.5373 6.11685C26.5456 6.12317 26.5538 6.13076 26.5595 6.13961C26.9733 6.77015 27.5632 6.98328 28.2874 6.85047C28.4294 6.82454 28.5922 6.76699 28.6911 6.66959C29.4635 5.90877 30.2219 5.13341 30.9874 4.36499C31.5412 3.80845 32.0513 3.93051 32.2521 4.68943C32.3497 5.06004 32.4188 5.45152 32.415 5.83288C32.4074 6.60635 32.5024 7.38172 32.3015 8.15329C31.6971 10.4769 29.5706 12.383 27.1818 12.7252C26.3587 12.8428 25.5476 12.8093 24.7346 12.6493C24.6352 12.6297 24.4837 12.6708 24.4128 12.7404C23.2431 13.8933 22.0816 15.0551 20.9195 16.2156C20.8834 16.2516 20.8555 16.2966 20.8143 16.349C21.114 16.6248 21.4062 16.8942 21.7141 17.1788C22.0981 16.8297 22.4485 16.3105 23.0181 16.8272C23.3324 17.1124 23.2367 17.4109 22.6785 18.0585C22.8356 18.204 22.9947 18.3513 23.1544 18.4981C25.8416 20.9582 28.5327 23.4134 31.2098 25.8843C31.5298 26.1796 31.8003 26.5414 32.0373 26.9088C32.3193 27.3459 32.4644 27.8366 32.4283 28.3748C32.3871 28.9984 32.5075 29.6321 32.2223 30.2355C31.6476 31.4491 30.7263 32.2125 29.4008 32.4794C29.3526 32.4888 29.3089 32.5192 29.2633 32.5401H28.188C27.2046 32.3276 26.3903 31.852 25.7041 31.0994C23.2146 28.3691 20.7003 25.6617 18.1987 22.9422C18.1302 22.8682 18.1005 22.7588 18.0574 22.6747C17.3344 23.3052 17.0721 23.3723 16.7502 23.0706C16.427 22.7676 16.4948 22.5115 17.1019 21.7614C16.8281 21.4636 16.5538 21.1651 16.2712 20.8571C15.0584 22.0675 13.8633 23.2546 12.6803 24.4531C12.6056 24.529 12.5745 24.701 12.598 24.8129C12.75 25.5497 12.8128 26.2859 12.6974 27.0347C12.3515 29.2735 11.1729 30.9255 9.13513 31.9095C8.49389 32.2194 7.75887 32.3352 7.06694 32.5394H5.73884C5.38337 32.4572 5.0317 32.3503 4.67179 32.2978C3.93931 32.191 3.7112 31.5149 4.3347 30.9501C5.12231 30.2374 5.85733 29.4664 6.60755 28.7126C6.69563 28.624 6.778 28.4893 6.78624 28.3704C6.85974 27.3414 6.85467 27.3414 6.12662 26.616C6.09684 26.5863 6.06199 26.5604 6.03791 26.5262C5.63175 25.9463 5.08366 25.7338 4.38159 25.8331C4.17185 25.8628 4.01344 25.9033 3.862 26.0588C3.09847 26.8437 2.32734 27.6203 1.55113 28.3925C1.07337 28.8681 0.534142 28.7334 0.367495 28.077C0.228729 27.5324 0.151425 26.9715 0.046875 26.4168C0.046875 26.3118 0.046875 26.2062 0.046875 26.1012C0.090596 25.7711 0.123545 25.4397 0.179305 25.1121C0.424523 23.6714 1.09681 22.4546 2.19871 21.5015C3.81955 20.0994 5.69385 19.5922 7.80576 20.0494C7.99078 20.0893 8.11054 20.057 8.24424 19.9173C8.67321 19.4682 9.11929 19.0363 9.55904 18.598C10.602 17.5583 11.645 16.5185 12.7386 15.4282C12.6239 15.3409 12.5131 15.2745 12.4243 15.186C10.2421 13.0072 8.03324 10.8544 5.89915 8.63015C5.22749 7.93004 4.56281 7.5139 3.58447 7.67896C3.19669 7.74411 2.94196 7.54489 2.743 7.20653C1.95476 5.86703 1.14307 4.54018 0.348486 3.20447C0.227462 3.00146 0.146356 2.77378 0.046875 2.55749C0.046875 2.53662 0.046875 2.51512 0.046875 2.49425ZM5.93527 31.2284C6.08861 31.2442 6.2128 31.2701 6.33636 31.2682C8.13335 31.2423 9.58375 30.5314 10.5982 29.0376C11.4878 27.7285 11.7115 26.2935 11.254 24.7699C11.1431 24.4006 11.1964 24.1084 11.4783 23.8276C15.5887 19.7338 19.6941 15.6357 23.7969 11.5337C24.0681 11.263 24.3526 11.2061 24.7144 11.3117C25.0458 11.4084 25.3898 11.4862 25.7326 11.5141C28.3179 11.7209 30.5742 10.0576 31.1306 7.51706C31.237 7.03008 31.2206 6.51654 31.2668 5.94356C30.5761 6.61963 29.9615 7.21033 29.3615 7.81557C29.146 8.0325 28.9097 8.13748 28.6049 8.13116C28.11 8.12041 27.6145 8.1223 27.119 8.13052C26.8364 8.13495 26.6134 8.03629 26.4195 7.83201C25.9056 7.28938 25.3664 6.76952 24.8728 6.20918C24.7207 6.03653 24.6225 5.76964 24.6028 5.53753C24.5623 5.05688 24.5984 4.57054 24.5876 4.08735C24.5807 3.78378 24.6808 3.5403 24.8962 3.3259C25.4266 2.79908 25.9474 2.26277 26.4714 1.72963C26.5405 1.65943 26.6077 1.58733 26.7167 1.47286C26.5139 1.45262 26.3789 1.42543 26.2452 1.42796C24.4622 1.46084 23.0188 2.16791 22.0087 3.64844C21.1172 4.95443 20.8853 6.38879 21.3415 7.91423C21.4505 8.27915 21.4169 8.57702 21.1324 8.86099C17.015 12.9623 12.9021 17.0681 8.79107 21.1771C8.53951 21.4288 8.26832 21.4895 7.92932 21.4009C7.57448 21.308 7.21331 21.203 6.85087 21.1847C4.70981 21.0727 3.07313 21.9404 1.98454 23.7852C1.45989 24.6751 1.2888 25.6541 1.39209 26.728C1.50044 26.6268 1.57648 26.5597 1.64808 26.4876C2.1835 25.9507 2.72272 25.4182 3.24991 24.8737C3.45458 24.6624 3.68459 24.5625 3.97859 24.5688C4.48424 24.5789 4.99051 24.5764 5.49615 24.5701C5.76672 24.5663 5.98025 24.6618 6.16971 24.8547C6.7007 25.3954 7.23802 25.9305 7.77915 26.4617C7.98825 26.6673 8.08139 26.9051 8.07569 27.196C8.06745 27.6482 8.06112 28.101 8.07759 28.5525C8.09027 28.9042 7.97177 29.1742 7.71959 29.4209C7.12714 30.0021 6.55306 30.6023 5.9359 31.2309L5.93527 31.2284ZM18.9293 21.8411C18.9413 21.8588 18.9559 21.8873 18.9768 21.9101C21.6108 24.7655 24.2379 27.6273 26.8865 30.4701C27.5436 31.1753 28.3926 31.4213 29.3374 31.1765C30.3328 30.9185 30.9608 30.2614 31.1775 29.2621C31.3834 28.3122 31.0862 27.497 30.3727 26.8405C28.9705 25.5497 27.5638 24.2634 26.1584 22.9764C24.6985 21.6394 23.238 20.3043 21.7958 18.9844C20.8409 19.9362 19.8956 20.8786 18.9293 21.8411ZM2.58332 1.5829C2.28805 1.889 2.00545 2.20079 1.7013 2.49045C1.54796 2.63591 1.5505 2.74406 1.65631 2.91735C2.29058 3.9577 2.92359 4.99933 3.53251 6.05423C3.69536 6.33693 3.87848 6.46152 4.20227 6.42041C4.42024 6.39322 4.64518 6.4299 4.86505 6.41219C5.27438 6.37867 5.5817 6.5273 5.8719 6.81948C8.34879 9.31255 10.8377 11.7942 13.3203 14.2816C13.409 14.3701 13.4762 14.4802 13.5307 14.551C13.8703 14.2297 14.1637 13.9515 14.4691 13.6625C14.3867 13.5758 14.3094 13.4917 14.2289 13.4107C11.7216 10.9031 9.21624 8.39362 6.70323 5.8917C6.45358 5.64315 6.32749 5.37753 6.34333 5.02716C6.3579 4.70208 6.35663 4.37511 6.34016 4.05004C6.33509 3.95075 6.28567 3.81035 6.21026 3.76481C5.01712 3.03751 3.81702 2.32285 2.58269 1.58354L2.58332 1.5829ZM20.775 18.0497C20.4956 17.7942 20.1972 17.5216 19.9063 17.2553C18.9907 18.1698 18.0992 19.0597 17.1906 19.9672C17.4592 20.2581 17.7349 20.5566 17.9883 20.8318C18.9223 19.8995 19.8398 18.9831 20.775 18.0497Z" fill="white"/>
<path d="M12.4752 20.9299C11.8491 20.9318 11.5475 20.4144 11.7959 19.992C11.8586 19.8851 11.9493 19.7915 12.038 19.7029C14.5769 17.1662 17.1153 14.6289 19.6638 12.1011C19.8171 11.9493 20.0414 11.8057 20.2474 11.7823C20.7327 11.7266 21.0508 12.2655 20.8094 12.6917C20.7435 12.8081 20.644 12.9093 20.5483 13.0048C18.017 15.5346 15.4849 18.0637 12.9472 20.5871C12.785 20.7484 12.5728 20.8603 12.4752 20.9305V20.9299Z" fill="white"/>
<path d="M22.0695 9.96895C22.4167 9.97844 22.6993 10.2833 22.6835 10.6324C22.6689 10.9695 22.3768 11.2433 22.0416 11.2338C21.6912 11.2243 21.4093 10.922 21.4257 10.5736C21.4416 10.2396 21.7394 9.9601 22.0689 9.96895H22.0695Z" fill="white"/>
<path d="M9.91459 22.1027C9.91079 21.7517 10.2016 21.4589 10.5508 21.4639C10.886 21.4684 11.1698 21.7517 11.1743 22.0869C11.1787 22.4309 10.8783 22.7326 10.5356 22.7269C10.1997 22.7212 9.91839 22.4392 9.91459 22.1027Z" fill="white"/>
<path d="M28.8939 28.1512C28.9053 28.7716 28.3889 29.0834 27.965 28.8387C27.849 28.7716 27.7483 28.673 27.6519 28.5769C25.867 26.806 24.0839 25.0333 22.3009 23.26C21.8801 22.8419 21.8155 22.4669 22.1102 22.1703C22.401 21.8775 22.7894 21.9426 23.2025 22.353C24.9926 24.134 26.7839 25.913 28.5682 27.6997C28.7234 27.8546 28.8292 28.0589 28.8945 28.1506L28.8939 28.1512Z" fill="white"/>
</g>
<defs>
<clipPath id="clip0_175_2713">
<rect width="32.3871" height="32.3871" fill="white" transform="translate(0.046875 0.15332)"/>
</clipPath>
</defs>
</svg>
