<svg width="31" height="31" viewBox="0 0 31 31" fill="none" xmlns="http://www.w3.org/2000/svg">
<g clip-path="url(#clip0_175_2707)">
<path d="M9.42411 0.15332C9.49086 0.186698 9.55585 0.224175 9.62435 0.253454C10.2104 0.500566 10.5395 0.950873 10.5729 1.5751C10.6057 2.17707 10.3346 2.65431 9.80176 2.94651C9.62611 3.04313 9.58454 3.14853 9.58454 3.33182C9.58864 8.89302 9.58747 14.4542 9.58864 20.0154C9.58864 20.5495 9.82928 20.9032 10.2784 21.046C10.6788 21.1737 11.1303 21.0425 11.361 20.683C11.471 20.5114 11.5138 20.2912 11.5618 20.0869C11.5899 19.9668 11.5624 19.8345 11.5694 19.708C11.5911 19.3168 11.5993 18.986 11.1432 18.7523C10.731 18.5415 10.5711 18.0783 10.5705 17.6023C10.567 15.9469 10.5641 14.2908 10.5711 12.6354C10.5735 12.0282 10.858 11.5691 11.3967 11.2933C11.57 11.2043 11.5712 11.0878 11.5688 10.9396C11.5524 9.86742 11.5899 8.80226 11.8797 7.75701C12.847 4.27108 15.8114 1.67699 19.3672 1.21789C24.1426 0.60187 28.521 3.80145 29.384 8.55807C29.4859 9.11905 29.5169 9.69994 29.5175 10.272C29.5269 15.7846 29.5245 21.2967 29.5193 26.8093C29.5193 27.0417 29.5579 27.184 29.7909 27.3099C30.3788 27.6273 30.6434 28.3253 30.4695 28.963C30.2869 29.6323 29.7271 30.0727 29.0362 30.0738C26.6989 30.0768 24.3621 30.0768 22.0248 30.0738C21.3561 30.0733 20.7659 29.6183 20.5961 28.9894C20.4158 28.3212 20.6951 27.6215 21.2982 27.29C21.4627 27.1998 21.5359 27.1155 21.5353 26.917C21.5289 21.3458 21.5306 15.7753 21.5294 10.2041C21.5294 9.67652 21.2794 9.31698 20.8303 9.17937C20.4299 9.0564 19.9761 9.19283 19.7501 9.55355C19.6418 9.72629 19.6002 9.94705 19.5557 10.152C19.5276 10.2826 19.5592 10.4243 19.5475 10.5596C19.5147 10.939 19.5452 11.2365 19.9597 11.4614C20.3801 11.6891 20.5464 12.1488 20.5476 12.636C20.5505 14.2914 20.5546 15.9474 20.5452 17.6029C20.5417 18.196 20.2659 18.6504 19.7378 18.9263C19.5785 19.0094 19.5452 19.1101 19.5469 19.27C19.5557 20.1753 19.5446 21.0771 19.359 21.9718C18.6107 25.5743 15.6059 28.4266 11.9699 28.9694C7.20856 29.6803 2.79501 26.6588 1.79497 21.9748C1.6562 21.3236 1.60468 20.6432 1.60292 19.9756C1.58828 14.463 1.59355 8.95099 1.59824 3.43839C1.59824 3.19889 1.5713 3.03259 1.3172 2.91489C0.923735 2.73219 0.753353 2.34688 0.599365 1.96567V1.32271C0.794339 0.737138 1.1837 0.347731 1.76862 0.15332C4.32026 0.15332 6.87189 0.15332 9.42352 0.15332H9.42411ZM28.5262 27.0693V26.7817C28.5262 21.2598 28.5327 15.7378 28.5175 10.2164C28.5157 9.60859 28.4531 8.98671 28.316 8.3947C27.477 4.77233 24.5032 2.28013 20.7923 2.16828C17.9918 2.08396 15.7312 3.23461 14.0672 5.49083C12.8405 7.15328 12.4447 9.05347 12.5976 11.1059H18.5451C18.5451 10.7493 18.5375 10.4102 18.5463 10.0718C18.5814 8.76654 19.8502 7.84426 21.1003 8.212C22.0248 8.4837 22.5517 9.24671 22.5517 10.3242C22.5529 15.7776 22.5517 21.2317 22.5517 26.6851C22.5517 26.8081 22.5517 26.9311 22.5517 27.0693H28.5251H28.5262ZM12.5735 19.1218C12.5735 19.4843 12.5905 19.8251 12.57 20.163C12.5208 20.981 12.1309 21.593 11.3785 21.9244C10.6402 22.25 9.92882 22.1457 9.29881 21.6363C8.75019 21.193 8.564 20.5887 8.56459 19.9007C8.5681 14.4478 8.56634 8.99491 8.56634 3.54204C8.56634 3.41966 8.56634 3.29668 8.56634 3.16786H2.59301C2.59301 3.28673 2.59301 3.38276 2.59301 3.4788C2.59301 8.9709 2.58833 14.4624 2.60004 19.9545C2.60121 20.5056 2.65683 21.0642 2.75637 21.6064C3.50289 25.6779 7.40177 28.5619 11.4939 28.0155C14.6041 27.6004 16.7775 25.8887 17.9959 22.996C18.5153 21.7634 18.6089 20.4599 18.5258 19.1213H12.5735V19.1218ZM15.5362 18.1C16.6656 18.1 17.7951 18.1012 18.9245 18.1C19.3713 18.1 19.5387 17.9314 19.5387 17.4828C19.5399 15.9053 19.5399 14.3277 19.5387 12.7502C19.5387 12.2987 19.373 12.1312 18.9269 12.1312C16.6873 12.1301 14.4477 12.1307 12.2082 12.1312C11.7404 12.1312 11.5799 12.2923 11.5799 12.7625C11.5788 14.3301 11.5794 15.8982 11.5799 17.4658C11.5799 17.936 11.7415 18.1 12.2058 18.1006C13.316 18.1018 14.4261 18.1006 15.5356 18.1006L15.5362 18.1ZM5.59549 2.1431C6.73371 2.1431 7.87193 2.14135 9.01016 2.14427C9.24729 2.14427 9.461 2.06522 9.51662 1.83685C9.55468 1.67991 9.52423 1.4451 9.42528 1.33208C9.32399 1.21614 9.10208 1.15817 8.93228 1.15641C7.70682 1.14236 6.48077 1.1488 5.25472 1.1488C4.25292 1.1488 3.25054 1.13826 2.24874 1.15817C2.06489 1.16168 1.84005 1.24659 1.71592 1.37366C1.62517 1.46618 1.62107 1.70392 1.66381 1.85207C1.72529 2.06581 1.92612 2.14427 2.15154 2.14427C3.29972 2.14252 4.44731 2.1431 5.59549 2.14369V2.1431ZM25.5331 28.0864C24.4142 28.0864 23.2953 28.0858 22.1764 28.0864C21.7736 28.0864 21.5581 28.2603 21.5587 28.58C21.5587 28.8998 21.7754 29.0789 22.177 29.0795C24.4148 29.0813 26.6526 29.0813 28.8898 29.0795C29.2757 29.0795 29.5193 28.881 29.5193 28.5795C29.5193 28.2791 29.2763 28.0864 28.8893 28.0864C27.7704 28.0852 26.6514 28.0864 25.5325 28.0864H25.5331Z" fill="white"/>
<path d="M4.59074 11.1421C4.59074 12.2224 4.59074 13.3028 4.59074 14.3832C4.59074 14.4804 4.59191 14.5788 4.57961 14.6748C4.54683 14.9331 4.36473 15.1011 4.11589 15.1123C3.86237 15.124 3.64046 14.9518 3.59538 14.6971C3.5784 14.6022 3.58543 14.5033 3.58543 14.406C3.58543 12.216 3.58543 10.0259 3.58543 7.8359C3.58543 7.75802 3.58074 7.67955 3.58894 7.60226C3.61821 7.32938 3.83661 7.12618 4.09306 7.12794C4.35127 7.12911 4.57493 7.32879 4.58137 7.60928C4.59601 8.21243 4.59015 8.81615 4.59074 9.41929C4.59191 9.99374 4.59074 10.5676 4.59074 11.1421Z" fill="white"/>
<path d="M4.584 5.13786C4.584 5.31295 4.59454 5.4892 4.58166 5.66312C4.56058 5.94771 4.35507 6.13802 4.08866 6.13744C3.83572 6.13744 3.60796 5.95532 3.59332 5.69298C3.57342 5.32407 3.574 4.95282 3.59332 4.58391C3.60679 4.3286 3.84392 4.13594 4.08749 4.13477C4.34746 4.1336 4.55882 4.33035 4.58049 4.61201C4.59395 4.78593 4.58283 4.96219 4.58283 5.13727L4.584 5.13786Z" fill="white"/>
</g>
<defs>
<clipPath id="clip0_175_2707">
<rect width="29.9229" height="29.9229" fill="white" transform="translate(0.599854 0.15332)"/>
</clipPath>
</defs>
</svg>
