<svg width="40" height="40" viewBox="0 0 40 40" fill="none" xmlns="http://www.w3.org/2000/svg">
<g clip-path="url(#clip0_175_2721)">
<path d="M0.0859375 19.5121C0.315273 19.1981 0.624112 19.1192 1.00634 19.12C5.8759 19.1299 10.7455 19.1238 15.615 19.1337C15.907 19.1337 16.0599 19.0526 16.1998 18.7891C17.8709 15.6475 19.5565 12.5136 21.2383 9.37744C21.9156 8.11454 23.1342 8.02493 23.9995 9.17602C24.8251 10.2743 25.6477 11.3748 26.4718 12.4746C26.5773 12.6147 26.6843 12.7541 26.8104 12.9203C27.2997 12.5481 27.7966 12.231 28.2109 11.829C28.402 11.6436 28.4945 11.299 28.5236 11.0156C28.5618 10.6403 28.4846 10.2551 28.4731 9.87295C28.4502 9.07722 28.772 8.44309 29.3996 7.9629C29.8315 7.63205 30.2673 7.30655 30.7191 6.96498C30.5234 6.70153 30.343 6.4733 30.1794 6.23358C29.9271 5.86367 29.9676 5.52899 30.3208 5.26247C32.1165 3.90613 33.9091 2.54443 35.7224 1.21184C36.5625 0.594553 37.6955 0.781423 38.3567 1.58711C38.502 1.76402 38.638 1.94936 38.7687 2.137C39.404 3.0476 39.2611 4.18261 38.3773 4.85886C36.6206 6.20372 34.8463 7.52406 33.0743 8.84823C32.6646 9.15458 32.3336 9.09943 32.0225 8.70042C31.8589 8.49057 31.7006 8.27613 31.5034 8.01574C30.9966 8.41093 30.4714 8.76628 30.0211 9.19976C29.8514 9.36289 29.8101 9.70446 29.7926 9.96945C29.7681 10.3478 29.8254 10.7315 29.8361 11.1129C29.8568 11.8512 29.5609 12.4508 28.9952 12.9096C28.5511 13.2688 28.0886 13.605 27.6077 13.9711C27.698 14.1013 27.7782 14.2253 27.8669 14.3433C28.6673 15.4124 29.4692 16.4816 30.2703 17.5499C30.7779 18.2262 30.7909 18.2607 30.8452 19.1276C31.18 19.1276 31.5194 19.1253 31.8589 19.1276C32.4062 19.1322 32.6485 19.3681 32.6501 19.9195C32.6539 21.7155 32.6516 23.5114 32.6516 25.3073C32.6516 25.3962 32.6516 25.4843 32.6516 25.6351C32.8014 25.6351 32.9345 25.6351 33.0682 25.6351C34.3777 25.6351 35.6872 25.6344 36.9967 25.6351C37.6228 25.6359 37.8476 25.8603 37.8476 26.4837C37.8483 28.5347 37.8483 30.5849 37.8476 32.6359C37.8476 33.2554 37.6175 33.4867 36.996 33.4875C35.6995 33.4898 34.4022 33.4883 33.1057 33.4883C32.9688 33.4883 32.8328 33.4883 32.6524 33.4883V33.9325C32.6524 35.6396 32.6463 37.3459 32.6577 39.053C32.66 39.3892 32.5966 39.6787 32.3581 39.92H0.0859375V32.5823C0.297691 32.2483 0.606529 32.1488 0.991049 32.1526C2.2738 32.1656 3.55655 32.1572 4.8393 32.1572C4.97461 32.1572 5.10992 32.1572 5.26281 32.1572V26.9578C5.1168 26.9578 4.97996 26.9578 4.84389 26.9578C3.56114 26.9578 2.27839 26.9501 0.995636 26.9624C0.614174 26.9662 0.301513 26.8751 0.0859375 26.5434V19.5113L0.0859375 19.5121ZM25.7532 13.7122C24.7762 12.4087 23.8252 11.1374 22.872 9.86836C22.6487 9.5712 22.5341 9.74965 22.4148 9.97252C20.3982 13.7344 18.3785 17.494 16.3657 21.2575C16.3084 21.3655 16.3237 21.5117 16.3053 21.6404C16.4337 21.6542 16.5698 21.7024 16.6898 21.6772C19.4059 21.1089 22.1213 20.5337 24.8358 19.9586C26.2615 19.6561 27.6865 19.3505 29.1114 19.0464C29.6053 18.9407 29.6244 18.8871 29.3155 18.4743C29.1252 18.2193 28.9371 17.9635 28.7468 17.7092C28.016 16.7335 27.2844 15.7594 26.5413 14.7691C25.6676 15.4247 24.8183 16.0672 23.9636 16.7029C23.5577 17.0046 23.1701 16.9702 22.9308 16.6255C22.7061 16.3024 22.7993 15.9347 23.1862 15.6429C24.0278 15.008 24.871 14.3754 25.7532 13.7122ZM15.6907 32.1312V26.9915H6.63118V32.1312H15.6907ZM17.0392 32.1289H26.0934V26.9807H17.0392V32.1289ZM1.40615 38.6739H10.4626V33.5097H1.40615V38.6739ZM20.8928 38.6793V33.5128H11.8478V38.6793H20.8928ZM22.2512 33.5036V38.667H31.2901V33.5036H22.2512ZM36.5258 32.1335V26.9907H27.4701V32.1335H36.5258ZM22.2199 25.6145H31.3001V20.4418C30.4653 20.4418 29.6328 20.3224 28.8477 20.4648C26.7156 20.8508 24.6042 21.3524 22.4813 21.7943C22.2405 21.8441 22.2153 21.9667 22.2168 22.1658C22.2229 22.9554 22.2191 23.745 22.2191 24.5346C22.2191 24.8877 22.2191 25.2407 22.2191 25.6137L22.2199 25.6145ZM1.39927 25.6145H10.4641V20.461H1.40997V21.6932C1.4566 21.7093 1.47953 21.7239 1.50323 21.7246C1.8587 21.7277 2.21494 21.7285 2.57041 21.7315C3.03825 21.7361 3.34938 21.9958 3.35244 22.381C3.3555 22.767 3.04895 23.0289 2.57729 23.035C2.18818 23.0396 1.79984 23.0358 1.39927 23.0358V25.6145ZM20.9012 22.1627C20.7728 22.1788 20.6604 22.1849 20.5511 22.2079C19.3364 22.4668 18.1224 22.7279 16.9077 22.9875C16.2602 23.1262 15.6907 23.0006 15.2703 22.4545C14.8544 21.9146 14.8399 21.3348 15.1449 20.7367C15.1892 20.6501 15.2244 20.5598 15.2703 20.4571H11.8532V25.6045H20.9004V22.1627H20.9012ZM32.7403 7.45896C34.3602 6.24048 35.9387 5.06182 37.5036 3.86478C37.6588 3.74607 37.8254 3.51631 37.8239 3.3394C37.8193 2.85997 37.4868 2.52299 37.1282 2.26107C36.8186 2.03437 36.5312 2.23656 36.2667 2.43645C35.0902 3.32561 33.9107 4.21018 32.7319 5.09628C32.3603 5.37582 31.9896 5.65613 31.6051 5.94639C31.9911 6.46028 32.355 6.9466 32.7403 7.45896Z" fill="white"/>
<path d="M6.60645 23.0357C6.17606 23.0357 5.74491 23.0449 5.31452 23.0326C4.89484 23.0211 4.63951 22.7546 4.64945 22.3663C4.65862 21.9972 4.91624 21.7398 5.31452 21.736C6.16306 21.7276 7.01237 21.7284 7.86091 21.736C8.27295 21.7398 8.55045 22.0133 8.55045 22.387C8.55045 22.7661 8.28442 23.0242 7.86015 23.0349C7.44199 23.0449 7.02384 23.0372 6.60568 23.0364L6.60645 23.0357Z" fill="white"/>
</g>
<defs>
<clipPath id="clip0_175_2721">
<rect width="39.0757" height="39.0757" fill="white" transform="translate(0.0866699 0.844727)"/>
</clipPath>
</defs>
</svg>
