<svg width="45" height="46" viewBox="0 0 45 46" fill="none" xmlns="http://www.w3.org/2000/svg">
<path d="M10.3628 0.439453C11.7596 0.717245 12.7175 1.64467 13.6762 2.60954C17.8797 6.83999 22.1049 11.0478 26.3214 15.2643C26.4442 15.3871 26.5705 15.5099 26.6732 15.6492C26.9258 15.9906 26.8936 16.4695 26.6105 16.7673C26.3084 17.0852 25.8268 17.134 25.4646 16.8692C25.3365 16.7761 25.2277 16.6559 25.1153 16.5427C22.9191 14.3473 20.7229 12.152 18.5302 9.95404C18.4179 9.84171 18.3317 9.70325 18.2158 9.55434C18.0434 9.71718 17.9293 9.81994 17.8205 9.92879C15.6965 12.0519 13.5674 14.1714 11.4539 16.3049C11.1326 16.6298 10.7877 16.7761 10.3366 16.7656C9.51024 16.7464 8.68296 16.7595 7.85568 16.7613C7.71634 16.7613 7.57614 16.7743 7.35931 16.7856C7.95669 17.3874 8.48789 17.9377 9.04086 18.4663C9.1262 18.5473 9.30733 18.5499 9.44492 18.5508C10.2139 18.5586 10.9828 18.5508 11.7517 18.556C12.3491 18.5595 12.6913 18.8974 12.7062 19.4974C12.7157 19.8858 12.7079 20.2741 12.7079 20.7139C13.2548 20.7139 13.7581 20.7139 14.2623 20.7139C15.6521 20.7139 15.7854 20.8463 15.7854 22.2187C15.7854 22.4181 15.7854 22.6167 15.7854 22.8709C16.4559 22.8709 17.0759 22.8692 17.6951 22.8709C18.606 22.8735 18.8864 23.1566 18.8872 24.0692C18.8872 24.3705 18.8872 24.6709 18.8872 25.0184H20.3128C21.855 25.0184 21.9551 25.1194 21.9578 26.679C21.9578 26.8227 21.9578 26.9664 21.9578 27.1859C22.4228 27.1859 22.8651 27.1859 23.3067 27.1859C23.5531 27.1859 23.8004 27.1815 24.0469 27.1867C24.6939 27.2007 25.0405 27.5394 25.064 28.1777C25.0692 28.3205 25.064 28.4625 25.064 28.6305H37.1788C37.0473 28.4903 36.9507 28.3797 36.847 28.277C34.8982 26.3272 32.9475 24.3792 31.0012 22.4268C30.5014 21.9252 30.5423 21.2712 31.0796 20.9525C31.4654 20.7235 31.8442 20.794 32.2482 21.1963C33.5135 22.4547 34.7745 23.7182 36.0363 24.9801C37.1754 26.1191 38.3065 27.266 39.4604 28.3893C39.6137 28.5382 39.8801 28.6393 40.0978 28.6445C41.2142 28.6697 42.3324 28.6758 43.4487 28.6471C43.9721 28.6332 44.3518 28.7908 44.5852 29.2636V45.0255H0C0 39.7718 0 34.5173 0 29.2636C0.23338 28.7882 0.6148 28.6462 1.13642 28.6471C7.37673 28.6602 13.617 28.6558 19.8573 28.6558C20.021 28.6558 20.1839 28.6558 20.2779 28.6558C20.2414 28.014 20.2083 27.4297 20.1717 26.7966C19.4864 26.7966 18.8089 26.8053 18.1314 26.794C17.4669 26.7835 17.1456 26.4622 17.1273 25.8039C17.1169 25.4303 17.1256 25.0567 17.1256 24.6361C16.4402 24.6361 15.8054 24.6378 15.1706 24.6361C14.3494 24.6335 14.0315 24.3191 14.0289 23.5101C14.0281 23.1688 14.0289 22.8274 14.0289 22.4651C13.2957 22.4651 12.6295 22.4686 11.9633 22.4643C11.2963 22.4599 10.9723 22.1455 10.9567 21.4863C10.948 21.0997 10.9549 20.713 10.9549 20.2933C10.2731 20.2933 9.65044 20.2715 9.03041 20.3003C8.5741 20.3212 8.23535 20.1705 7.91402 19.8466C5.99473 17.9081 4.07544 15.9679 2.12306 14.0626C1.14426 13.1064 0.248184 12.1241 0.00174164 10.716V9.49686C0.258634 8.09658 1.14687 7.11168 2.13177 6.16771C3.37617 4.97556 4.59532 3.75467 5.78748 2.51114C6.71229 1.54365 7.685 0.686766 9.05654 0.439453H10.3628ZM42.8366 38.7538H41.9353C38.9893 38.7538 36.0442 38.7504 33.0982 38.7582C32.7011 38.7591 32.3806 38.6537 32.1795 38.3019C31.832 37.6914 32.2848 37.0174 33.0477 37.0165C36.1382 37.0131 39.2296 37.0148 42.3202 37.0148H42.8157V30.9722C42.6363 31.068 42.5022 31.1455 42.3628 31.2125C40.9042 31.9162 39.4534 32.6346 37.9826 33.3112C37.4192 33.5707 36.9237 33.346 36.7304 32.8418C36.5405 32.3455 36.7904 31.9144 37.3826 31.6671C38.1838 31.3336 38.9788 30.9861 39.7747 30.6387C39.8819 30.5916 39.975 30.5133 40.117 30.4227H1.77386V37.0148C1.96631 37.0148 2.1248 37.0148 2.28329 37.0148C4.64844 37.0148 7.01359 37.0148 9.37874 37.0165C9.53723 37.0165 9.70269 37.0139 9.8516 37.0575C10.2557 37.1768 10.4977 37.5835 10.4429 38.0084C10.3854 38.4534 10.0292 38.7512 9.52156 38.7521C7.08413 38.7556 4.64583 38.7538 2.2084 38.7538C2.05688 38.7538 1.90536 38.7538 1.76515 38.7538V43.2856C1.96022 43.2856 2.13177 43.2856 2.30245 43.2856C6.00257 43.2856 9.70269 43.2778 13.4028 43.2873C17.1116 43.2969 20.7369 42.7657 24.2663 41.6206C25.1632 41.3297 26.041 40.9814 26.9284 40.6592C26.7812 40.5051 26.6532 40.4511 26.5209 40.4075C23.1604 39.3129 19.7093 38.7869 16.1799 38.7521C15.5999 38.746 15.2446 38.4177 15.2376 37.8987C15.2307 37.3579 15.5929 36.9974 16.192 37.02C17.4669 37.0679 18.7462 37.088 20.0132 37.2221C23.2849 37.5669 26.4425 38.3907 29.4973 39.6133C29.8927 39.7718 30.1861 39.986 30.214 40.4406C30.2427 40.9161 29.9737 41.1904 29.5661 41.3654C28.5568 41.8008 27.551 42.2458 26.5374 42.6717C26.0584 42.8728 25.5647 43.0374 24.9969 43.249H42.8374V38.7538H42.8366ZM16.9009 8.34564C16.826 8.26378 16.7703 8.19847 16.7102 8.13751C15.0077 6.43419 13.3096 4.7265 11.6002 3.03015C10.4559 1.8946 8.91634 1.8885 7.76859 3.02405C6.03566 4.73783 4.31318 6.46205 2.59766 8.19411C1.44643 9.35579 1.46124 10.8945 2.61595 12.0588C3.50418 12.9549 4.39155 13.8536 5.30156 14.7279C5.45656 14.8768 5.72129 14.9796 5.93726 14.983C7.24262 15.0065 8.54885 14.9865 9.85421 15.0013C10.1538 15.0048 10.3636 14.9186 10.5761 14.7044C12.579 12.6858 14.5923 10.6786 16.6022 8.66697C16.7023 8.56596 16.7964 8.45884 16.9009 8.34651V8.34564Z" fill="white"/>
<path d="M29.6114 18.9249C29.6158 19.4195 29.2335 19.8096 28.7458 19.8079C28.2625 19.807 27.8654 19.4056 27.8724 18.9231C27.8785 18.4677 28.2704 18.068 28.7249 18.0532C29.1952 18.0375 29.6062 18.4416 29.6106 18.924L29.6114 18.9249Z" fill="white"/>
<path d="M12.1159 32.8361C13.9724 32.8361 15.829 32.8361 17.6856 32.8361C18.3361 32.8361 18.7115 33.1487 18.7193 33.6886C18.728 34.2494 18.3474 34.5734 17.6734 34.5734C13.9454 34.5734 10.2175 34.5742 6.48948 34.5734C5.9905 34.5734 5.69006 34.367 5.5577 33.9533C5.42969 33.5536 5.56205 33.2201 5.89209 33.0068C6.07148 32.8909 6.32402 32.8439 6.54434 32.843C8.40093 32.8308 10.2575 32.8361 12.1141 32.8361H12.1159Z" fill="white"/>
<path d="M26.4964 32.8356C27.8461 32.8356 29.1959 32.8339 30.5448 32.8356C31.1605 32.8365 31.5245 33.1552 31.5323 33.6864C31.5402 34.2411 31.1736 34.572 30.5352 34.572C27.8357 34.5738 25.137 34.5738 22.4375 34.572C21.7974 34.572 21.4212 34.2437 21.4238 33.6986C21.4265 33.1552 21.8018 32.8356 22.4471 32.8348C23.7968 32.833 25.1466 32.8348 26.4955 32.8348L26.4964 32.8356Z" fill="white"/>
<path d="M7.90463 12.9264C6.8161 13.1799 6.03759 12.7096 5.37576 11.891C5.05878 11.4992 4.66082 11.1717 4.30727 10.8086C3.87011 10.3584 3.85792 9.8716 4.29246 9.43445C5.85559 7.86175 7.42393 6.2934 8.99664 4.73027C9.43379 4.29573 9.92493 4.30096 10.3708 4.7416C11.3505 5.70908 12.324 6.68266 13.2915 7.66233C13.7287 8.10471 13.7295 8.59498 13.2907 9.0391C12.1072 10.2339 10.9238 11.4286 9.71506 12.5973C9.52784 12.7784 9.21434 12.8716 8.94526 12.9143C8.60564 12.9674 8.25121 12.9273 7.90376 12.9273L7.90463 12.9264ZM6.12554 10.1938C6.4042 10.4594 6.70115 10.7529 7.01291 11.0315C7.09128 11.1012 7.21145 11.1474 7.31769 11.1578C8.14584 11.244 8.89736 11.1831 9.46166 10.4089C9.82392 9.91166 10.3194 9.50847 10.7722 9.08003C11.0204 8.8449 11.3043 8.64636 11.5455 8.45303C10.8463 7.75115 10.2654 7.1677 9.70984 6.61038C8.53597 7.78337 7.35166 8.96769 6.12641 10.1929L6.12554 10.1938Z" fill="white"/>
</svg>
