<svg width="32" height="32" viewBox="0 0 32 32" fill="none" xmlns="http://www.w3.org/2000/svg">
<g clip-path="url(#clip0_175_2729)">
<path d="M17.2207 0.44873C17.8191 0.536976 18.4201 0.61084 19.0159 0.716081C20.0531 0.899108 21.057 1.1998 22.0556 1.61226C21.9228 1.93844 21.7979 2.24501 21.6632 2.57642C17.8413 1.10044 14.0423 1.1024 10.2839 2.72219C7.42403 3.95436 5.18937 5.93236 3.58515 8.59802C0.412683 13.8692 1.05097 20.2216 4.18485 24.4972C4.79175 24.2076 5.44377 24.0664 6.09318 24.3031C6.50061 24.4514 6.9015 24.6809 7.23372 24.9593C7.7314 25.377 8.16826 25.8679 8.62736 26.3307C8.97201 26.6785 8.97005 26.9275 8.62932 27.2779C8.54757 27.3622 8.46648 27.4479 8.36053 27.5583C8.85952 28.0427 9.34151 28.5114 9.84377 28.999C9.57106 29.2461 9.32516 29.469 9.04525 29.722C8.61232 29.2631 8.14668 28.7683 7.69413 28.2878C7.41618 28.5669 7.1886 28.7957 6.97344 29.0114C7.42468 29.4559 7.90798 29.9325 8.38669 30.4038C8.08128 30.7103 7.84193 30.9509 7.58164 31.213C7.12712 30.7424 6.66149 30.2586 6.17231 29.752C6.01731 29.8978 5.89829 30.0194 5.77011 30.1299C5.54056 30.3279 5.25412 30.3358 5.03765 30.1233C4.48699 29.5827 3.92457 29.0513 3.40923 28.478C2.66892 27.6538 2.59045 26.4079 3.19407 25.4489C3.31767 25.2528 3.32225 25.128 3.18949 24.9371C1.7043 22.8016 0.843004 20.4294 0.529092 17.8533C0.505549 17.6611 0.474811 17.4696 0.447998 17.2781C0.447998 16.5172 0.447998 15.7563 0.447998 14.9948C0.497701 14.6203 0.54021 14.2451 0.59776 13.8718C1.0235 11.0892 2.08165 8.57449 3.84805 6.37816C6.29068 3.34056 9.43372 1.44492 13.268 0.711505C13.8416 0.601689 14.4236 0.535015 15.0017 0.44873C15.7414 0.44873 16.481 0.44873 17.2207 0.44873ZM7.57837 26.7458C7.36256 26.538 7.12254 26.3053 6.88123 26.0732C6.70138 25.9 6.53461 25.7091 6.33777 25.5581C5.74133 25.0992 4.88004 25.1554 4.33462 25.6725C3.77677 26.2013 3.64793 27.0511 4.11292 27.6564C4.48569 28.1408 4.95067 28.5545 5.36202 28.9853C6.1128 28.2264 6.82825 27.5041 7.57837 26.7458Z" fill="white"/>
<path d="M10.1675 30.5882C10.3022 30.2627 10.4284 29.9567 10.5625 29.6325C14.3052 31.0791 18.0277 31.0994 21.7207 29.5789C24.5786 28.4023 26.8336 26.4799 28.479 23.8646C31.7633 18.6437 31.2918 12.1828 28.0801 7.76665C27.655 7.85032 27.2489 7.97648 26.8375 8.00197C26.1312 8.04577 25.5171 7.77646 25.0103 7.28686C24.5257 6.81883 24.0522 6.33904 23.5774 5.8599C23.2511 5.53111 23.2537 5.27225 23.5905 4.93954C23.6742 4.85652 23.7912 4.80749 23.9057 4.73494C23.3492 4.18651 22.8711 3.71521 22.3996 3.2498C22.6729 2.98899 22.9123 2.7602 23.1739 2.51116C23.5951 2.9563 24.062 3.44917 24.5139 3.92635C24.8115 3.63873 25.0482 3.40864 25.3085 3.15698C24.833 2.69353 24.3458 2.21831 23.8586 1.74375C24.1267 1.47248 24.3609 1.23519 24.6028 0.990723C25.0783 1.47836 25.5465 1.95881 26.0462 2.47128C26.1914 2.33009 26.294 2.22616 26.4013 2.1268C26.6688 1.8784 26.9572 1.8601 27.2096 2.10654C27.7459 2.63078 28.2906 3.14914 28.7936 3.70476C29.5561 4.54799 29.6385 5.81022 29.0133 6.78942C28.9002 6.96656 28.9015 7.07769 29.0172 7.24437C30.509 9.38971 31.4062 11.7665 31.6868 14.3596C32.4532 21.4499 28.4208 28.1422 21.7423 30.7059C17.9316 32.1688 14.1051 32.123 10.297 30.6496C10.2669 30.6379 10.2388 30.6222 10.1681 30.5888L10.1675 30.5882ZM26.8296 3.26549C26.1103 3.98975 25.3942 4.71075 24.6885 5.42194C25.0646 5.81153 25.4341 6.25864 25.8683 6.62927C26.4719 7.14436 27.3875 7.0535 27.9388 6.48415C28.494 5.91089 28.5437 5.00817 28.0088 4.41202C27.6406 4.00152 27.2175 3.64004 26.829 3.26549H26.8296Z" fill="white"/>
<path d="M15.5903 18.7119H15.194C13.4538 18.7119 11.7135 18.7132 9.97326 18.7112C9.40429 18.7112 9.17671 18.3589 9.42915 17.8542C11.484 13.7387 13.5427 9.62586 15.5988 5.51102C15.7296 5.2489 15.9265 5.09201 16.224 5.16065C16.5366 5.23255 16.6367 5.46395 16.636 5.77445C16.6308 8.21001 16.6328 10.6449 16.6328 13.0805C16.6328 13.208 16.6328 13.3354 16.6328 13.4962H17.0127C18.753 13.4962 20.4932 13.4956 22.2335 13.4962C22.8273 13.4962 23.0503 13.8394 22.788 14.365C20.7372 18.472 18.683 22.577 16.6315 26.6833C16.4948 26.9572 16.2927 27.1233 15.9821 27.0442C15.6708 26.9651 15.587 26.7232 15.5877 26.416C15.5936 23.9915 15.591 21.5671 15.591 19.1426C15.591 19.0132 15.591 18.8844 15.591 18.7112L15.5903 18.7119ZM16.6321 24.1746C16.655 24.1772 16.6779 24.1798 16.7008 24.1824C18.3017 20.9807 19.9033 17.7784 21.5239 14.5369C19.7261 14.5369 17.9983 14.5369 16.2705 14.5369C15.7512 14.5369 15.5903 14.3761 15.5903 13.8584C15.5903 12.0222 15.5903 10.1861 15.5903 8.3499V8.02503C15.5681 8.02503 15.5452 8.02503 15.523 8.02437C13.922 11.2267 12.3204 14.4284 10.6992 17.6706C12.4996 17.6706 14.2274 17.6706 15.9552 17.6706C16.4719 17.6706 16.6315 17.832 16.6321 18.3523C16.6321 20.1885 16.6321 22.0247 16.6321 23.8608C16.6321 23.9654 16.6321 24.07 16.6321 24.1739V24.1746Z" fill="white"/>
</g>
<defs>
<clipPath id="clip0_175_2729">
<rect width="31.331" height="31.331" fill="white" transform="translate(0.447998 0.44873)"/>
</clipPath>
</defs>
</svg>
