<svg width="35" height="40" viewBox="0 0 35 40" fill="none" xmlns="http://www.w3.org/2000/svg">
<g clip-path="url(#clip0_175_2726)">
<path d="M34.6818 12.0348C34.666 12.0538 34.6389 12.0697 34.6351 12.091C34.4176 13.1416 33.7403 13.6691 32.7236 13.8467C28.2503 14.6278 23.7777 15.4188 19.3052 16.2075C18.7716 16.3016 18.4954 16.625 18.4894 17.1707C18.4826 17.8 18.4879 18.4285 18.4879 19.0981C18.9846 19.0981 19.4444 19.0965 19.905 19.0981C20.4521 19.1003 20.6485 19.2947 20.6538 19.8541C20.6598 20.4857 20.6553 21.1172 20.6553 21.7404C21.3176 22.0068 21.3454 22.0501 21.3454 22.7743C21.3454 24.7729 21.3462 26.7708 21.3439 28.7695C21.3439 28.9198 21.3409 29.0754 21.3033 29.2189C21.231 29.4952 21.0361 29.6455 20.7509 29.6379C20.4672 29.6303 20.279 29.4739 20.2196 29.1931C20.1887 29.0466 20.1857 28.8925 20.1849 28.7422C20.1827 26.9841 20.1834 25.2261 20.1834 23.4681V22.9899H15.6454C15.6394 23.0969 15.6304 23.194 15.6304 23.292C15.6304 27.4654 15.6266 31.6396 15.6326 35.813C15.6341 36.9918 16.3882 37.8822 17.5344 38.0986C18.8378 38.3445 20.1277 37.3463 20.1654 36.0028C20.206 34.562 20.1804 33.1198 20.1842 31.6775C20.1857 31.0482 20.3482 30.7932 20.7524 30.7864C21.1731 30.7788 21.3462 31.0414 21.3462 31.6897C21.3462 33.0051 21.3484 34.3206 21.3462 35.6361C21.3416 37.4981 20.3272 38.7886 18.524 39.2319C18.4894 39.2402 18.4593 39.2683 18.4269 39.2865H17.3733C17.1031 39.1954 16.8209 39.1286 16.5635 39.0079C15.1893 38.362 14.4819 37.2568 14.4767 35.7363C14.4624 31.3473 14.4706 26.9576 14.4729 22.5686C14.4729 22.0501 14.588 21.9241 15.1705 21.7662C15.1705 21.1468 15.1683 20.516 15.1705 19.886C15.1735 19.2726 15.3466 19.1003 15.9532 19.0988C16.3905 19.0981 16.8277 19.0988 17.3063 19.0988C17.3139 18.9447 17.3236 18.8119 17.3267 18.679C17.3387 18.0725 17.3101 17.4622 17.368 16.8603C17.4569 15.9342 18.1537 15.2374 19.0568 15.078C22.8889 14.4016 26.7211 13.7222 30.5532 13.0436C31.2802 12.9146 32.0086 12.7947 32.7334 12.655C33.2451 12.5563 33.4987 12.2603 33.5025 11.7357C33.513 10.2935 33.5145 8.852 33.5025 7.40974C33.4972 6.80703 33.1563 6.49202 32.5498 6.47759C32.2773 6.47076 32.0056 6.47684 31.6903 6.47684C31.6903 7.28981 31.6986 8.058 31.6865 8.82619C31.6813 9.17764 31.685 9.542 31.597 9.87675C31.3629 10.7672 30.5961 11.3478 29.6847 11.3516C27.8409 11.36 25.9978 11.3562 24.154 11.3539C23.7281 11.3539 23.4654 11.1209 23.4759 10.7709C23.4865 10.4324 23.7393 10.2176 24.148 10.2176C25.9038 10.2153 27.6595 10.2176 29.4153 10.2161C30.2288 10.2161 30.5486 9.89042 30.5486 9.06454C30.5486 6.91407 30.5502 4.76359 30.5486 2.61312C30.5486 1.94058 30.198 1.56255 29.5402 1.5618C26.3049 1.55648 23.0688 1.56028 19.8335 1.5618C19.8094 1.5618 19.7846 1.57015 19.7003 1.58609C19.7003 1.70678 19.7003 1.83886 19.7003 1.9717C19.7003 3.57791 19.7093 5.18488 19.6965 6.79109C19.6875 7.92895 18.8597 8.8611 17.7631 9.00685C16.6463 9.15563 15.5671 8.49599 15.321 7.40291C15.1848 6.79717 15.2315 6.14891 15.2059 5.51964C15.1841 4.98373 14.8936 4.5761 14.4202 4.4425C13.7467 4.25197 13.046 4.70287 13.0287 5.42779C12.9911 7.00591 13.0174 8.58556 13.0174 10.2161H13.4735C16.1948 10.2161 18.9161 10.2161 21.6374 10.2161C22.0814 10.2161 22.3125 10.3861 22.3426 10.7262C22.3719 11.0602 22.165 11.3182 21.8331 11.3494C21.7089 11.3608 21.5825 11.3547 21.4568 11.3547C18.7979 11.3547 16.1391 11.3547 13.481 11.3547H13.0114C13.0114 11.5088 13.0114 11.6416 13.0114 11.7745C13.0106 12.6094 13.0189 13.4444 13.0054 14.2787C12.9866 15.4522 12.0338 16.4102 10.8696 16.4451C9.66017 16.4815 8.64193 15.6169 8.56743 14.4236C8.514 13.5666 8.5441 12.7043 8.53808 11.8443C8.53657 11.6947 8.53808 11.546 8.53808 11.3539C7.98644 11.3539 7.47619 11.3539 6.96595 11.3539C6.28863 11.3539 5.61131 11.357 4.934 11.3539C3.67795 11.3478 2.84485 10.5364 2.78313 9.26342C2.78088 9.21332 2.77561 9.16246 2.76658 9.04936C2.31202 9.04936 1.85295 9.03342 1.39539 9.05391C1.01232 9.07061 0.716563 8.95371 0.515625 8.61896V3.15358C0.71581 2.81504 1.01684 2.71863 1.39388 2.73685C1.84768 2.75886 2.30374 2.74216 2.75077 2.74216C2.86065 1.77282 2.97655 1.38493 3.41379 1.01981C3.71106 0.771593 4.08735 0.6175 4.42826 0.420898C12.9828 0.420898 21.5366 0.420898 30.0911 0.420898C31.3208 0.854333 31.7859 1.75308 31.6971 3.02758C31.6534 3.65458 31.6888 4.28765 31.6903 4.91845C31.6903 5.03838 31.7031 5.15756 31.7121 5.30558C32.0282 5.30558 32.3022 5.29799 32.5753 5.30709C33.5371 5.33898 34.2799 5.88399 34.5606 6.75466C34.5983 6.8708 34.6412 6.98618 34.6818 7.10156V12.0356V12.0348ZM18.5406 1.58381H9.68651C9.68651 2.61919 9.69027 3.62953 9.685 4.63986C9.68275 5.05812 9.43289 5.33746 9.09423 5.32759C8.76536 5.31772 8.54861 5.06267 8.54034 4.64745C8.53055 4.17986 8.53733 3.71151 8.53733 3.24316C8.53733 2.68979 8.53733 2.13642 8.53733 1.55876C7.32267 1.55876 6.15693 1.5542 4.99194 1.56028C4.29656 1.56407 3.94285 1.90718 3.9406 2.60629C3.93307 4.79472 3.93307 6.98314 3.9406 9.17157C3.94285 9.87599 4.29431 10.2123 4.99119 10.2145C6.06963 10.2183 7.14807 10.2161 8.22727 10.2145C8.32134 10.2145 8.41616 10.1971 8.53733 10.1849C8.53733 10.0081 8.53733 9.85778 8.53733 9.70824C8.53733 8.8353 8.53055 7.96235 8.54259 7.08941C8.54786 6.69849 8.77514 6.46241 9.10025 6.45634C9.43289 6.45027 9.66995 6.71291 9.68651 7.10763C9.69102 7.20859 9.68726 7.3103 9.68726 7.41126C9.68726 9.65055 9.68952 11.8898 9.68651 14.1284C9.68651 14.6369 9.89874 15.0104 10.3586 15.2116C11.1096 15.5402 11.878 14.9762 11.8795 14.0934C11.884 11.2218 11.8773 8.35024 11.8833 5.47865C11.8855 4.296 12.8052 3.31755 13.9619 3.23936C15.1397 3.15966 16.1955 4.02197 16.322 5.20917C16.3807 5.76026 16.346 6.32122 16.3784 6.87535C16.4078 7.38242 16.7916 7.78928 17.2687 7.86216C17.7842 7.94186 18.2734 7.68377 18.4533 7.201C18.5263 7.00591 18.5526 6.78274 18.5534 6.57172C18.5616 5.02851 18.5579 3.4853 18.5571 1.94133C18.5571 1.82975 18.5481 1.71817 18.5421 1.58229L18.5406 1.58381ZM19.479 20.2693H16.3408V21.7913H19.479V20.2693ZM1.71523 3.9195V7.84318H2.7598V3.9195H1.71523Z" fill="white"/>
</g>
<defs>
<clipPath id="clip0_175_2726">
<rect width="34.1669" height="38.8649" fill="white" transform="translate(0.514893 0.420898)"/>
</clipPath>
</defs>
</svg>
