<svg width="49" height="46" viewBox="0 0 49 46" fill="none" xmlns="http://www.w3.org/2000/svg">
<path d="M27.7361 0.00188662C28.2219 0.116027 28.7153 0.205642 29.1926 0.349025C30.8094 0.835773 32.1593 1.76776 33.3479 2.93841C35.1392 4.7024 36.9089 6.48903 38.688 8.26717C39.5775 9.15671 39.6784 9.74345 39.1445 10.8707C39.5615 11.2735 39.9765 11.6744 40.4076 12.0913C41.6226 11.5725 42.0858 11.664 43.0668 12.646C43.3781 12.9573 43.6941 13.2629 43.9988 13.5808C44.7233 14.3364 44.7402 15.3637 44.0035 16.1127C42.6489 17.4918 41.2811 18.8577 39.9039 20.2142C39.1342 20.9717 38.1163 20.9575 37.3371 20.2085C36.9862 19.8708 36.6466 19.5209 36.3023 19.1765C35.3902 18.2615 35.3137 17.5182 36.0033 16.4938C35.5892 16.0834 35.1798 15.6788 34.7534 15.2571C34.1601 15.7382 33.4837 15.8778 32.7319 15.5137C32.6593 15.4788 32.4904 15.542 32.4206 15.6137C30.9406 17.1324 29.469 18.6587 27.9559 20.2236C28.3389 20.6151 28.7162 20.982 29.0728 21.3697C30.3501 22.7555 29.6652 25.0081 27.8248 25.4165C27.4258 25.5052 26.989 25.4297 26.5098 25.4297C25.9901 26.7777 24.9609 27.3739 23.479 27.1239C22.7819 28.7511 21.9735 29.1803 20.1491 28.903C19.7831 29.9199 19.07 30.518 17.9814 30.6642C17.8616 30.6802 17.7437 30.8019 17.6493 30.8981C16.9796 31.5839 16.3259 32.2857 15.6486 32.964C14.3326 34.2827 12.4573 34.327 11.0782 33.0753C10.5896 32.6319 10.1057 32.181 9.651 31.7037C8.43885 30.4321 8.45677 28.4851 9.70383 27.2494C10.4057 26.5532 11.1537 25.9042 11.8574 25.2543C11.3075 24.0167 10.7962 22.7875 10.2113 21.5952C10.0113 21.1867 9.63685 20.8575 9.3199 20.5132C8.8973 20.0538 8.45206 19.6142 8.02191 19.1718C7.75872 19.3869 7.56912 19.5793 7.34555 19.719C6.72674 20.1057 5.96172 20.0095 5.39856 19.4709C4.84201 18.9388 4.31281 18.3785 3.76003 17.8418C3.32422 17.4192 3.12896 16.9286 3.1931 16.3145C3.21103 16.1466 3.11575 15.9193 2.99595 15.7929C2.37903 15.1439 1.71588 14.5383 1.11028 13.8789C0.703709 13.4365 0.367891 12.9299 0 12.4517C0 12.1376 0 11.8225 0 11.5084C0.220734 11.1726 0.391474 10.7886 0.668807 10.5085C3.0101 8.13982 5.36838 5.78815 7.72665 3.43648C8.66241 2.50354 9.76609 2.50732 10.7122 3.44214C11.4942 4.21471 12.2611 5.00332 13.0535 5.76551C13.1743 5.88154 13.3997 5.95323 13.5705 5.94285C14.1015 5.91172 14.5675 6.02586 14.9505 6.40696C15.5514 7.00502 16.1881 7.57478 16.7343 8.22C16.9758 8.50583 17.1767 8.96239 17.1409 9.31424C17.0899 9.80665 16.7985 10.2745 16.5749 10.8424C17.1248 11.3735 17.6606 12.2159 18.7049 12.3036C19.1671 12.3423 19.6473 12.2989 20.1057 12.2187C21.7706 11.9263 23.2847 12.2385 24.6411 13.2629C24.6996 13.3073 24.7741 13.3299 24.8515 13.3676C25.8439 12.4564 26.8221 11.5574 27.8031 10.6556C27.0371 9.58875 26.857 8.4879 27.1437 7.25971C27.4107 6.11453 26.9928 5.24103 25.992 4.60618C25.7033 4.42318 25.393 4.24678 25.0685 4.15056C24.41 3.9553 23.7384 3.80248 23.0658 3.66099C22.597 3.56194 22.2432 3.35347 22.1178 2.86672C22.0018 2.41582 22.1951 2.07528 22.5338 1.79418C23.4016 1.07349 24.3619 0.52448 25.4571 0.233941C25.8033 0.14244 26.157 0.0773514 26.507 0C26.9155 0 27.3249 0 27.7333 0L27.7361 0.00188662ZM9.02087 18.2427C9.39914 18.604 9.79533 19.0077 10.2179 19.3794C11.015 20.0793 11.6131 20.9151 11.9395 21.9225C12.8828 24.8364 14.9854 26.8928 17.1003 28.9426C17.4107 29.2435 17.788 29.32 18.187 29.1388C18.5587 28.9709 18.7662 28.6842 18.787 28.2587C18.8407 27.173 19.5473 26.8183 20.4727 27.4032C20.8547 27.6446 21.2481 27.6692 21.6207 27.4107C21.9867 27.1569 22.1593 26.7966 22.0357 26.3476C21.9235 25.9363 22.0027 25.5977 22.3612 25.3543C22.7489 25.092 23.1017 25.1968 23.4318 25.4845C23.7893 25.7967 24.1921 25.8552 24.61 25.6326C25.0166 25.4165 25.1703 25.0562 25.1109 24.6053C25.0543 24.1761 25.1713 23.8242 25.5675 23.6082C25.9731 23.3865 26.308 23.5356 26.6457 23.7969C27.2484 24.2638 28.0371 24.0148 28.2653 23.2988C28.4153 22.8281 28.1861 22.4857 27.8701 22.1697C26.3683 20.6708 24.8685 19.1699 23.3714 17.6673C22.4027 16.6947 22.4196 15.6014 23.4214 14.6779C23.5205 14.5864 23.6601 14.5392 23.861 14.427C23.4752 14.2025 23.263 14.0723 23.0451 13.9534C21.9933 13.3818 20.8764 13.5403 19.7746 13.7082C18.3776 13.9204 17.1984 13.5459 16.2268 12.5253C15.9712 12.2574 15.7391 11.9668 15.5335 11.7291C13.3129 13.9497 11.1933 16.0693 9.02087 18.2427ZM4.18735 14.9015C4.29678 14.7977 4.40054 14.7043 4.49864 14.6062C5.96643 13.1394 7.43045 11.6697 8.90201 10.2076C9.26991 9.84155 9.67459 9.83401 9.98116 10.1538C10.2689 10.4528 10.2472 10.8405 9.92079 11.2027C9.83683 11.2961 9.74439 11.382 9.65572 11.4706C8.05492 13.0714 6.45979 14.676 4.84956 16.2664C4.59769 16.5155 4.59109 16.6692 4.85144 16.9079C5.30234 17.322 5.74287 17.7512 6.15038 18.2078C6.43809 18.5294 6.61826 18.5313 6.93238 18.2144C9.7642 15.3561 12.6149 12.5168 15.4599 9.67081C15.5684 9.56233 15.6693 9.44442 15.742 9.36424C15.0684 8.69637 14.4204 8.05209 13.712 7.34838C13.2865 7.79457 12.8413 8.28037 12.3743 8.74448C12.0074 9.1086 11.6008 9.11237 11.2952 8.79354C11.015 8.50111 11.033 8.08134 11.3659 7.74457C11.6291 7.47762 11.9168 7.23519 12.2159 6.96257C11.3707 6.11925 10.582 5.33159 9.79156 4.54487C9.30858 4.06378 9.11992 4.06472 8.62751 4.55713C6.37111 6.81258 4.11472 9.06898 1.85926 11.3244C1.75927 11.4244 1.59985 11.514 1.57627 11.631C1.53194 11.8499 1.46779 12.1781 1.58287 12.2989C2.42431 13.1856 3.30819 14.0317 4.18924 14.9005L4.18735 14.9015ZM24.2317 2.32903C24.9364 2.59505 25.5797 2.7922 26.1825 3.07519C27.9107 3.88644 29.0379 5.47874 28.5115 7.73891C28.304 8.63129 28.5361 9.40291 29.2011 10.0576C30.5227 11.3575 31.832 12.6687 33.1319 13.9912C33.4403 14.3053 33.6601 14.3345 33.9837 14.0034C35.2241 12.7337 36.4882 11.4876 37.7418 10.2311C38.1418 9.83023 38.1437 9.74817 37.7475 9.35103C36.0269 7.62855 34.3063 5.90512 32.5819 4.18641C31.6528 3.26008 30.6359 2.45355 29.4077 1.94982C27.6399 1.22536 25.9306 1.30271 24.2317 2.32903ZM28.7917 11.6989C27.2862 13.0799 25.7939 14.4477 24.3034 15.8165C24.044 16.0551 24.0487 16.3174 24.2846 16.5551C25.1571 17.4343 26.0391 18.304 26.9485 19.2077C28.4908 17.6097 30.0189 16.025 31.5424 14.4458C30.6057 13.5101 29.7171 12.6224 28.7917 11.698V11.6989ZM12.6753 26.4485C12.0178 27.056 11.331 27.6522 10.6886 28.2946C10.0085 28.9757 10.0095 30.0142 10.6792 30.7113C11.1565 31.2085 11.6631 31.6811 12.1838 32.1329C12.7941 32.663 13.7072 32.7329 14.3119 32.2197C15.0345 31.6065 15.6797 30.9028 16.3504 30.2463C15.093 28.9474 13.9063 27.7201 12.6753 26.4476V26.4485ZM43.1432 14.8609C43.0847 14.7581 43.0593 14.6798 43.0064 14.626C42.5772 14.1883 42.1471 13.7516 41.7094 13.3233C41.4971 13.1158 41.3141 13.2318 41.1425 13.4035C39.8209 14.727 38.5002 16.0514 37.174 17.3701C36.9513 17.5918 36.9325 17.788 37.1617 18.0116C37.5437 18.3851 37.9248 18.7596 38.2946 19.1454C38.537 19.3973 38.738 19.3624 38.971 19.1275C40.2774 17.8116 41.5924 16.5032 42.9008 15.1892C42.9961 15.0939 43.063 14.9703 43.1423 14.8609H43.1432ZM37.0183 15.3599C37.7918 14.5855 38.5295 13.8468 39.2124 13.1629C38.8644 12.7828 38.4842 12.3687 38.1333 11.9848C37.3777 12.7385 36.6372 13.4771 35.8628 14.2506C36.1476 14.5251 36.4618 14.8298 36.7768 15.1335C36.8664 15.2194 36.9579 15.3024 37.0183 15.3599Z" fill="white"/>
<path d="M0.00317383 41.7912C0.148444 41.4837 0.259754 41.1526 0.446529 40.8724C1.01157 40.0234 1.82565 39.6282 2.84348 39.6282C7.77793 39.6301 12.7114 39.6282 17.6459 39.6282C25.0622 39.6282 32.4794 39.6282 39.8957 39.6282H40.4721V33.3901C40.1533 33.3901 39.8307 33.3929 39.508 33.3901C38.31 33.3797 37.3781 32.4807 37.3733 31.3355C37.3686 30.197 38.3016 29.2753 39.4958 29.2621C40.6428 29.2489 41.7899 29.2508 42.937 29.2621C44.1359 29.2735 45.0698 30.1809 45.0773 31.3195C45.0849 32.4798 44.1406 33.3835 42.9115 33.391C42.6153 33.3929 42.3191 33.391 41.988 33.391V39.6291C42.6134 39.6291 43.2369 39.6291 43.8595 39.6291C44.4566 39.6291 45.0557 39.6036 45.6509 39.6367C46.8244 39.7008 47.6554 40.2819 48.1186 41.3714C48.178 41.512 48.2403 41.6516 48.3016 41.7912V42.9232C48.195 43.1618 48.1016 43.408 47.9799 43.6391C47.5469 44.4636 46.8064 44.8664 45.9433 45.0928H36.2272C36.1848 45.0532 36.1461 45.0069 36.098 44.9749C35.8027 44.7739 35.6858 44.489 35.7829 44.157C35.881 43.8212 36.1395 43.6533 36.4961 43.6533C36.6376 43.6533 36.779 43.6514 36.9205 43.6514C39.7344 43.6514 42.5474 43.6561 45.3613 43.6486C46.2942 43.6457 46.8951 43.1118 46.8819 42.3374C46.8687 41.5761 46.2772 41.0733 45.3745 41.0563C45.3273 41.0563 45.2802 41.0563 45.233 41.0563C31.1805 41.0563 17.128 41.0563 3.07553 41.0592C2.85669 41.0592 2.63406 41.0743 2.42088 41.1195C1.82753 41.245 1.40682 41.7874 1.42191 42.3808C1.437 42.9807 1.87093 43.4995 2.46899 43.6014C2.71519 43.6429 2.96894 43.6514 3.21892 43.6514C13.0435 43.6533 22.8671 43.6533 32.6917 43.6542C32.8804 43.6542 33.0709 43.6467 33.2567 43.6731C33.6359 43.7269 33.8963 43.9768 33.8397 44.3381C33.7972 44.607 33.551 44.8447 33.3963 45.0956H2.36145C1.85206 44.8352 1.26627 44.6607 0.856869 44.29C0.474829 43.94 0.280507 43.3863 0.00317383 42.9232C0.00317383 42.5458 0.00317383 42.1685 0.00317383 41.7912ZM41.2107 31.9694C41.7748 31.9694 42.338 31.9798 42.9021 31.9666C43.3643 31.9553 43.619 31.7166 43.6209 31.3337C43.6228 30.946 43.3784 30.7101 42.9049 30.7054C41.7937 30.6931 40.6815 30.6941 39.5694 30.7045C39.0911 30.7082 38.8392 30.9299 38.827 31.3072C38.8138 31.7072 39.0798 31.9572 39.5665 31.9676C40.1146 31.9798 40.6627 31.9704 41.2107 31.9704V31.9694Z" fill="white"/>
</svg>
