<svg width="257" height="72" viewBox="0 0 257 72" fill="none" xmlns="http://www.w3.org/2000/svg">
<path fill-rule="evenodd" clip-rule="evenodd" d="M16.3719 25.0391H0V28.7788C4.41141 29.096 4.46612 30.0084 4.46612 33.2469V47.8339C4.46612 51.1155 4.36062 52.0279 0 52.3451V56.0848H14.5119V52.3451H14.086C13.0232 52.255 11.0031 51.9809 10.3115 51.2056C9.61993 50.4302 9.72543 48.7894 9.72543 47.877V32.2405L18.7632 56.0809H24.7688L33.8065 32.6047V47.83C33.8065 48.8325 33.8573 50.6573 32.9547 51.3857C32.1029 52.071 30.243 52.2981 29.1255 52.3412H28.6996V56.0809H48.0489V52.3412H47.6229C46.5054 52.2511 44.4345 51.977 43.7429 51.2016C43.0513 50.4263 43.2115 48.7855 43.2115 47.83V33.243C43.2115 32.2405 43.0513 30.4627 43.9578 29.6873C44.7549 29.002 46.6148 28.8219 48.0489 28.7749V25.0352H31.0909L23.6474 44.4505L16.364 25.0352L16.3719 25.0391Z" fill="#ED1C24"/>
<path fill-rule="evenodd" clip-rule="evenodd" d="M61.8222 33.1997H59.6966L50.233 34.3862V38.126H50.6042C54.4334 38.4902 54.324 39.4026 54.324 42.4101V48.0608C54.324 51.2053 54.324 52.0707 50.0728 52.3449V56.0846H67.0307V52.3449L66.5501 52.3018C63.096 52.0747 63.2015 51.0252 63.2015 48.0177V39.5866C63.2015 39.1324 63.9986 38.8583 64.7957 38.8583C66.1242 38.8583 66.8705 40.2719 69.2618 40.2719C71.4929 40.2719 73.4622 38.9483 73.4622 36.9003C73.4622 34.5781 71.3366 33.2075 68.7304 33.2075C66.1242 33.2075 64.2643 34.073 61.8183 35.3496V33.2075L61.8222 33.1997Z" fill="#ED1C24"/>
<path fill-rule="evenodd" clip-rule="evenodd" d="M134.363 56.0809C138.082 56.0809 141.912 56.1279 145.151 54.26C148.023 52.6192 149.511 49.8389 149.511 46.9215C149.511 43.3227 146.854 40.4053 142.814 39.4459V39.3558C145.686 38.3533 147.917 35.6631 147.917 32.9728C147.917 30.2825 146.218 27.7293 143.4 26.4566C140.634 25.18 136.383 25.043 133.3 25.043H113.74V28.7788L114.963 28.9589C118.366 29.4602 118.045 30.7838 118.045 33.243V47.877C118.045 51.4797 117.991 51.7499 113.74 52.3451V56.0848H134.366L134.363 56.0809ZM127.45 37.3939V32.2875C127.45 31.6492 127.29 30.2825 128.037 29.8714C128.728 29.4602 130.748 29.4132 131.651 29.4132C134.894 29.4132 138.829 30.1416 138.829 33.5602C138.829 36.9788 134.257 37.39 131.28 37.39H127.45V37.3939ZM127.45 41.5879H131.436C135.797 41.5879 139.622 42.0422 139.622 46.6004C139.622 50.5203 136.113 51.7068 132.022 51.7068C130.905 51.7068 128.939 51.6598 128.037 51.0254C127.345 50.5242 127.45 49.5217 127.45 48.7894V41.5879Z" fill="#ED1C24"/>
<path fill-rule="evenodd" clip-rule="evenodd" d="M165.082 33.1997H161.573L152.114 34.3862V38.126H152.485C156.31 38.4902 156.205 39.4026 156.205 42.4101V47.7906C156.205 50.2067 156.15 52.6229 158.17 54.4908C159.925 56.1786 162.421 56.4488 164.977 56.4488C168.431 56.4488 171.248 55.6734 174.12 54.2637V56.0846H185.655V52.3684L185.229 52.3214C181.88 52.0472 181.986 51.0448 181.986 48.0334V33.1997H178.637L169.177 34.3862V38.126H169.548C173.217 38.4902 173.108 39.4026 173.108 42.4101V49.7956C171.514 50.708 169.228 51.9376 167.153 51.8475C164.817 51.8475 165.082 49.4314 165.082 47.7005V33.2075V33.1997Z" fill="#ED1C24"/>
<path fill-rule="evenodd" clip-rule="evenodd" d="M200.213 33.1995H196.704L187.241 34.386V38.1219H187.612C191.441 38.4861 191.332 39.3985 191.332 42.4059V48.0567C191.332 51.1111 191.383 52.0196 187.186 52.3407V56.0766H203.824V52.3407C200.049 51.9296 200.209 51.0171 200.209 48.0567V33.1956L200.213 33.1995ZM195.27 22.8496C192.348 22.8496 190.062 24.9016 190.062 27.4078C190.062 29.6399 192.242 31.6919 194.954 31.6919C197.666 31.6919 200.217 29.6869 200.217 27.2237C200.217 24.7606 198.091 22.8496 195.274 22.8496" fill="#ED1C24"/>
<path fill-rule="evenodd" clip-rule="evenodd" d="M218.703 23.0337H215.831C212.588 24.2633 209.134 24.9016 205.625 25.0387V28.7745C206.899 28.7745 208.388 28.9116 209.185 29.4128C209.927 29.914 209.822 31.7389 209.822 32.5142V48.0567C209.822 51.1542 209.927 51.8865 206.207 52.3408V56.0805H222.263V52.3408L221.411 52.1567C220.242 51.9766 219.336 51.8356 218.965 50.7901C218.699 50.0147 218.699 48.8321 218.699 48.0567V23.0337H218.703Z" fill="#ED1C24"/>
<path fill-rule="evenodd" clip-rule="evenodd" d="M252.291 23.0337H249.419C246.176 24.2633 242.721 24.9016 239.213 25.0387V28.7784C240.49 28.7784 241.979 28.9155 242.776 29.4167C243.522 29.918 243.413 31.7428 243.413 32.5182V34.112C241.764 33.2465 239.533 32.6082 237.458 32.6082C229.589 32.6082 224.861 38.6701 224.861 44.9161C224.861 48.0176 226.029 51.0681 228.475 53.3472C230.921 55.6263 233.578 56.4447 237.087 56.4447C239.744 56.4447 242.401 55.8534 244.37 54.3027V56.0805H256.276V52.3408C252.13 51.9296 252.291 51.1112 252.291 48.0567V23.0337ZM243.413 49.6544C242.51 50.978 240.33 51.8435 238.47 51.8435C234.907 51.8435 233.899 47.5594 233.899 45.2333C233.899 42.3159 234.907 37.2095 239.267 37.2095C241.022 37.2095 242.35 38.165 243.413 39.2145V49.6505V49.6544Z" fill="#ED1C24"/>
<path fill-rule="evenodd" clip-rule="evenodd" d="M126.188 68.4629V64.7271L122.941 59.5854H125.04L127.126 63.0981L129.17 59.5854H131.229L127.97 64.7389V68.4629H126.188Z" fill="white"/>
<path fill-rule="evenodd" clip-rule="evenodd" d="M131.667 65.158C131.667 64.5941 131.807 64.0459 132.085 63.5172C132.362 62.9886 132.757 62.5852 133.265 62.3072C133.776 62.0292 134.347 61.8882 134.976 61.8882C135.949 61.8882 136.742 62.2054 137.363 62.8398C137.985 63.4702 138.293 64.2652 138.293 65.2324C138.293 66.2075 137.981 67.0142 137.352 67.6564C136.727 68.2947 135.941 68.6119 134.988 68.6119C134.398 68.6119 133.835 68.4788 133.3 68.2125C132.768 67.9462 132.362 67.5546 132.085 67.0416C131.807 66.5247 131.667 65.8981 131.667 65.158ZM133.409 65.2481C133.409 65.8864 133.562 66.3759 133.862 66.7127C134.163 67.0494 134.538 67.2217 134.98 67.2217C135.421 67.2217 135.793 67.0533 136.094 66.7127C136.394 66.372 136.547 65.8825 136.547 65.2324C136.547 64.5824 136.394 64.1164 136.094 63.7796C135.797 63.4389 135.425 63.2705 134.98 63.2705C134.535 63.2705 134.163 63.4389 133.862 63.7796C133.562 64.1203 133.409 64.6059 133.409 65.2442" fill="white"/>
<path fill-rule="evenodd" clip-rule="evenodd" d="M143.803 68.4632V67.4999C143.568 67.8445 143.26 68.1147 142.877 68.3105C142.498 68.5063 142.099 68.6081 141.673 68.6081C141.247 68.6081 140.853 68.5141 140.513 68.3222C140.169 68.1343 139.923 67.868 139.77 67.5234C139.618 67.1788 139.54 66.705 139.54 66.098V62.0293H141.24V64.9858C141.24 65.8904 141.271 66.4465 141.329 66.6501C141.396 66.8498 141.509 67.0143 141.673 67.1357C141.837 67.2532 142.048 67.3119 142.302 67.3119C142.591 67.3119 142.853 67.2336 143.084 67.077C143.314 66.9164 143.471 66.7167 143.557 66.4817C143.643 66.2429 143.686 65.6633 143.686 64.7431V62.0293H145.385V68.4632H143.807H143.803Z" fill="white"/>
<path fill-rule="evenodd" clip-rule="evenodd" d="M148.718 68.4631H147.019V62.0292H148.597V62.9455C148.867 62.5147 149.109 62.2289 149.324 62.0918C149.543 61.9548 149.785 61.8882 150.062 61.8882C150.449 61.8882 150.82 61.9939 151.18 62.2093L150.652 63.6935C150.367 63.5094 150.101 63.4154 149.855 63.4154C149.617 63.4154 149.418 63.482 149.25 63.6151C149.086 63.7444 148.953 63.9793 148.855 64.3239C148.761 64.6685 148.714 65.3851 148.714 66.4816V68.467L148.718 68.4631Z" fill="white"/>
<path fill-rule="evenodd" clip-rule="evenodd" d="M155.232 59.5854H158.772C159.471 59.5854 159.995 59.6168 160.339 59.6755C160.686 59.7343 160.991 59.8517 161.265 60.0397C161.538 60.2238 161.765 60.4744 161.948 60.7837C162.128 61.0892 162.222 61.4377 162.222 61.8176C162.222 62.2326 162.109 62.6164 161.882 62.961C161.659 63.3095 161.358 63.568 160.976 63.7442C161.515 63.9009 161.929 64.1711 162.222 64.5509C162.511 64.9308 162.656 65.3772 162.656 65.8902C162.656 66.2935 162.562 66.689 162.37 67.0728C162.187 67.4526 161.929 67.7581 161.605 67.9891C161.28 68.2162 160.882 68.3533 160.409 68.4081C160.112 68.4394 159.393 68.459 158.252 68.4669H155.236V59.5854H155.232ZM157.021 61.0618V63.1177H158.193C158.889 63.1177 159.323 63.1059 159.495 63.0863C159.799 63.0511 160.042 62.9454 160.214 62.7731C160.389 62.5968 160.479 62.3619 160.479 62.076C160.479 61.7901 160.401 61.5787 160.249 61.4103C160.1 61.238 159.878 61.1323 159.577 61.0931C159.401 61.0735 158.889 61.0618 158.049 61.0618H157.021ZM157.021 64.594V66.967H158.678C159.323 66.967 159.733 66.9475 159.905 66.9122C160.171 66.8652 160.386 66.7478 160.55 66.5598C160.718 66.3679 160.804 66.1173 160.804 65.804C160.804 65.5377 160.737 65.3106 160.608 65.1266C160.479 64.9425 160.292 64.8054 160.046 64.7193C159.803 64.6331 159.276 64.5901 158.463 64.5901H157.017L157.021 64.594Z" fill="white"/>
<path fill-rule="evenodd" clip-rule="evenodd" d="M168.333 68.4632V67.4999C168.099 67.8445 167.79 68.1147 167.407 68.3105C167.028 68.5063 166.626 68.6081 166.204 68.6081C165.782 68.6081 165.387 68.5141 165.043 68.3222C164.699 68.1343 164.453 67.868 164.301 67.5234C164.148 67.1788 164.07 66.705 164.07 66.098V62.0293H165.77V64.9858C165.77 65.8904 165.801 66.4465 165.86 66.6501C165.926 66.8498 166.04 67.0143 166.204 67.1357C166.368 67.2532 166.579 67.3119 166.833 67.3119C167.122 67.3119 167.384 67.2336 167.614 67.077C167.845 66.9164 168.001 66.7167 168.087 66.4817C168.173 66.2429 168.212 65.6633 168.212 64.7431V62.0293H169.912V68.4632H168.333Z" fill="white"/>
<path fill-rule="evenodd" clip-rule="evenodd" d="M171.627 59.5854H173.327V61.1597H171.627V59.5854ZM171.627 62.0329H173.327V68.4669H171.627V62.0329Z" fill="white"/>
<path d="M176.718 59.5854H175.019V68.4669H176.718V59.5854Z" fill="white"/>
<path fill-rule="evenodd" clip-rule="evenodd" d="M184.303 68.4629H182.724V67.5192C182.462 67.8873 182.15 68.1614 181.794 68.3416C181.438 68.5178 181.079 68.6078 180.72 68.6078C179.981 68.6078 179.348 68.3102 178.821 67.7189C178.297 67.1198 178.035 66.2896 178.035 65.2245C178.035 64.1593 178.293 63.3056 178.805 62.7417C179.317 62.1739 179.961 61.888 180.747 61.888C181.462 61.888 182.083 62.1857 182.607 62.7848V59.5854H184.306V68.4669L184.303 68.4629ZM179.766 65.107C179.766 65.7923 179.86 66.2896 180.051 66.595C180.325 67.0375 180.708 67.2607 181.2 67.2607C181.591 67.2607 181.923 67.0963 182.197 66.7634C182.47 66.4266 182.607 65.9293 182.607 65.2675C182.607 64.5274 182.474 63.9987 182.208 63.6737C181.943 63.3487 181.603 63.1842 181.188 63.1842C180.774 63.1842 180.446 63.3448 180.172 63.6698C179.903 63.987 179.766 64.4687 179.766 65.107Z" fill="white"/>
<path fill-rule="evenodd" clip-rule="evenodd" d="M185.932 59.5854H187.632V61.1597H185.932V59.5854ZM185.932 62.0329H187.632V68.4669H185.932V62.0329Z" fill="white"/>
<path fill-rule="evenodd" clip-rule="evenodd" d="M195.161 68.4631H193.461V65.1815C193.461 64.4884 193.426 64.038 193.352 63.8383C193.282 63.6308 193.161 63.4741 192.996 63.3606C192.836 63.247 192.641 63.1922 192.41 63.1922C192.117 63.1922 191.852 63.2744 191.617 63.435C191.383 63.5955 191.222 63.8109 191.133 64.0772C191.047 64.3435 191.008 64.8369 191.008 65.5574V68.4709H189.308V62.037H190.886V62.9807C191.445 62.2524 192.152 61.8921 193 61.8921C193.375 61.8921 193.715 61.9587 194.028 62.0957C194.337 62.2289 194.571 62.4012 194.727 62.6126C194.888 62.8241 195.001 63.059 195.06 63.3253C195.122 63.5916 195.157 63.9715 195.157 64.4688V68.467L195.161 68.4631Z" fill="white"/>
<path fill-rule="evenodd" clip-rule="evenodd" d="M196.685 68.8899L198.627 69.1249C198.658 69.352 198.732 69.5047 198.85 69.5909C199.01 69.7123 199.264 69.771 199.611 69.771C200.053 69.771 200.385 69.7045 200.608 69.5713C200.756 69.4812 200.87 69.3403 200.948 69.1406C200.999 68.9996 201.026 68.7372 201.026 68.3613V67.4214C200.518 68.1146 199.877 68.4631 199.104 68.4631C198.24 68.4631 197.556 68.0989 197.056 67.3666C196.661 66.791 196.462 66.0704 196.462 65.2089C196.462 64.132 196.72 63.3058 197.236 62.738C197.756 62.1701 198.4 61.8843 199.17 61.8843C199.94 61.8843 200.62 62.2328 201.135 62.9338V62.0292H202.726V67.8013C202.726 68.561 202.663 69.1288 202.538 69.5047C202.413 69.8807 202.237 70.1744 202.011 70.3898C201.784 70.6051 201.483 70.7696 201.104 70.891C200.729 71.0124 200.252 71.0711 199.678 71.0711C198.592 71.0711 197.818 70.8832 197.365 70.5072C196.912 70.1352 196.681 69.6614 196.681 69.0897C196.681 69.0348 196.681 68.9643 196.689 68.8821M198.201 65.1149C198.201 65.7963 198.334 66.2976 198.596 66.6187C198.861 66.9359 199.19 67.0925 199.576 67.0925C199.991 67.0925 200.342 66.932 200.627 66.6069C200.913 66.2819 201.057 65.7963 201.057 65.158C201.057 64.4923 200.92 63.9989 200.647 63.6739C200.373 63.3528 200.026 63.1883 199.608 63.1883C199.201 63.1883 198.865 63.3488 198.599 63.666C198.338 63.9793 198.205 64.4649 198.205 65.1149" fill="white"/>
<path fill-rule="evenodd" clip-rule="evenodd" d="M207.723 59.5854H211.267C211.967 59.5854 212.49 59.6168 212.834 59.6755C213.182 59.7343 213.487 59.8517 213.76 60.0397C214.034 60.2238 214.26 60.4744 214.444 60.7837C214.624 61.0892 214.717 61.4377 214.717 61.8176C214.717 62.2326 214.604 62.6164 214.381 62.961C214.159 63.3095 213.858 63.568 213.475 63.7442C214.014 63.9009 214.428 64.1711 214.721 64.5509C215.01 64.9308 215.155 65.3772 215.155 65.8902C215.155 66.2935 215.061 66.689 214.87 67.0728C214.686 67.4526 214.428 67.7581 214.104 67.9891C213.78 68.2162 213.381 68.3533 212.908 68.4081C212.611 68.4394 211.892 68.459 210.751 68.4669H207.735V59.5854H207.723ZM209.513 61.0618V63.1177H210.685C211.38 63.1177 211.814 63.1059 211.986 63.0863C212.291 63.0511 212.533 62.9454 212.705 62.7731C212.881 62.5968 212.971 62.3619 212.971 62.076C212.971 61.7901 212.893 61.5787 212.74 61.4103C212.592 61.238 212.369 61.1323 212.068 61.0931C211.892 61.0735 211.38 61.0618 210.54 61.0618H209.513ZM209.513 64.594V66.967H211.169C211.814 66.967 212.224 66.9475 212.396 66.9122C212.662 66.8652 212.877 66.7478 213.045 66.5598C213.213 66.3679 213.299 66.1173 213.299 65.804C213.299 65.5377 213.236 65.3106 213.108 65.1266C212.979 64.9425 212.791 64.8054 212.545 64.7193C212.303 64.6331 211.775 64.5901 210.962 64.5901H209.517L209.513 64.594Z" fill="white"/>
<path fill-rule="evenodd" clip-rule="evenodd" d="M220.825 68.4632V67.4999C220.59 67.8445 220.282 68.1147 219.899 68.3105C219.52 68.5063 219.117 68.6081 218.695 68.6081C218.273 68.6081 217.879 68.5141 217.535 68.3222C217.191 68.1343 216.945 67.868 216.792 67.5234C216.64 67.1788 216.562 66.705 216.562 66.098V62.0293H218.261V64.9858C218.261 65.8904 218.293 66.4465 218.351 66.6501C218.418 66.8498 218.531 67.0143 218.695 67.1357C218.859 67.2532 219.07 67.3119 219.324 67.3119C219.613 67.3119 219.875 67.2336 220.102 67.077C220.332 66.9164 220.489 66.7167 220.575 66.4817C220.661 66.2429 220.7 65.6633 220.7 64.7431V62.0293H222.399V68.4632H220.821H220.825Z" fill="white"/>
<path fill-rule="evenodd" clip-rule="evenodd" d="M230.003 68.4629H228.424V67.5192C228.163 67.8873 227.85 68.1614 227.494 68.3416C227.139 68.5178 226.779 68.6078 226.42 68.6078C225.681 68.6078 225.048 68.3102 224.521 67.7189C223.997 67.1198 223.736 66.2896 223.736 65.2245C223.736 64.1593 223.99 63.3056 224.501 62.7417C225.013 62.1739 225.658 61.888 226.439 61.888C227.158 61.888 227.776 62.1857 228.299 62.7848V59.5854H229.999V68.4669L230.003 68.4629ZM225.47 65.107C225.47 65.7923 225.564 66.2896 225.756 66.595C226.029 67.0375 226.412 67.2607 226.904 67.2607C227.295 67.2607 227.627 67.0963 227.901 66.7634C228.174 66.4266 228.311 65.9293 228.311 65.2675C228.311 64.5274 228.178 63.9987 227.913 63.6737C227.647 63.3487 227.307 63.1842 226.893 63.1842C226.479 63.1842 226.15 63.3448 225.877 63.6698C225.607 63.987 225.47 64.4687 225.47 65.107Z" fill="white"/>
<path fill-rule="evenodd" clip-rule="evenodd" d="M237.521 68.4629H235.942V67.5192C235.68 67.8873 235.368 68.1614 235.012 68.3416C234.657 68.5178 234.297 68.6078 233.938 68.6078C233.199 68.6078 232.566 68.3102 232.039 67.7189C231.515 67.1198 231.253 66.2896 231.253 65.2245C231.253 64.1593 231.511 63.3056 232.023 62.7417C232.535 62.1739 233.18 61.888 233.961 61.888C234.68 61.888 235.298 62.1857 235.821 62.7848V59.5854H237.521V68.4669V68.4629ZM232.988 65.107C232.988 65.7923 233.082 66.2896 233.274 66.595C233.547 67.0375 233.93 67.2607 234.422 67.2607C234.813 67.2607 235.145 67.0963 235.419 66.7634C235.692 66.4266 235.829 65.9293 235.829 65.2675C235.829 64.5274 235.696 63.9987 235.43 63.6737C235.165 63.3487 234.825 63.1842 234.411 63.1842C233.996 63.1842 233.668 63.3448 233.395 63.6698C233.125 63.987 232.988 64.4687 232.988 65.107Z" fill="white"/>
<path fill-rule="evenodd" clip-rule="evenodd" d="M238.345 62.0293H240.15L241.686 66.5953L243.186 62.0293H244.945L242.678 68.2204L242.272 69.3404C242.124 69.7163 241.979 70.0022 241.842 70.2019C241.709 70.3977 241.553 70.5583 241.377 70.6797C241.205 70.805 240.987 70.9029 240.729 70.9694C240.475 71.036 240.186 71.0713 239.865 71.0713C239.545 71.0713 239.217 71.036 238.904 70.9694L238.752 69.638C239.017 69.6889 239.256 69.7163 239.471 69.7163C239.865 69.7163 240.158 69.5989 240.346 69.3639C240.533 69.1329 240.682 68.8392 240.78 68.4789L238.337 62.0293H238.345Z" fill="white"/>
<path fill-rule="evenodd" clip-rule="evenodd" d="M90.2874 60.3531C90.2874 60.3531 90.5062 63.9675 84.4967 65.0601L74.9901 64.7311C74.9901 64.7311 72.3683 63.8539 72.9153 61.007L73.9 60.5684C73.9 60.5684 73.1341 56.954 77.0688 55.0939L77.397 51.9181L78.3817 51.0409L78.2996 45.3314C78.2996 45.3314 74.4392 44.4268 74.3298 41.1413C74.2204 37.8558 74.3298 36.869 74.3298 36.869L76.514 36.9787L76.6234 35.2282L76.4788 34.8719C76.4788 34.8719 76.5101 34.8993 76.0764 33.5874C75.6387 32.2717 75.0917 31.7234 72.5793 32.0524C72.5793 32.0524 71.3758 31.5041 71.3758 30.8463C71.3758 30.1884 70.3911 28.6572 71.0476 25.8103L62.5256 25.591C62.5256 25.591 61.7598 25.2621 61.541 23.9463C61.3222 22.6345 61.541 20.2222 62.8538 19.674C64.1667 19.1258 65.9133 18.6872 66.5697 18.9065C66.5697 18.9065 65.4757 15.0727 67.2262 14.6341C67.2262 14.6341 69.4104 14.1956 69.6292 14.7438C69.848 15.292 73.5639 19.8894 73.5639 19.8894C73.5639 19.8894 74.111 18.7929 75.7481 19.0122C77.3892 19.2315 78.4794 21.2012 78.4794 21.2012H80.5542C80.5542 21.2012 79.6789 18.7929 80.1166 17.0386C80.1166 17.0386 79.4093 15.6288 81.3435 8.54483C81.3435 8.54483 82.1836 5.21234 86.6966 2.5299C86.6966 2.5299 91.1002 -0.164286 94.8942 1.5979C94.8942 1.5979 97.9068 3.51281 99.0321 5.69792C99.0321 5.69792 101.525 5.85064 101.845 7.19773C101.845 7.19773 102.24 9.87625 103.381 12.1632C103.381 12.1632 106.339 13.8431 101.955 16.3807L101.642 20.6491C101.642 20.6491 104.702 20.978 105.468 20.978C105.468 20.978 106.78 20.7587 107.109 19.3333C107.437 17.9079 107.327 15.2803 109.621 14.736C109.621 14.736 111.477 15.0649 111.153 17.8022C111.153 17.8022 113.775 17.4732 115.087 17.8022C116.4 18.1311 119.206 21.7808 117.514 23.5038C116.31 24.7295 113.122 23.8288 113.122 23.8288C113.122 23.8288 113.669 24.8157 112.137 24.8157C110.606 24.8157 109.953 24.706 109.953 24.706C109.953 24.706 110.828 28.1012 109.953 29.6323C109.078 31.1634 107.769 32.6985 105.909 33.0275C105.909 33.0275 107.257 37.7383 106.71 43.4322L104.862 46.1029C104.862 46.1029 104.491 47.9081 104.35 48.2449C104.393 48.5347 104.424 48.8323 104.424 49.1025C104.424 49.5802 104.35 49.8426 104.088 50.2381L103.897 50.2577C103.826 51.1231 103.873 52.2196 104.17 53.551C104.17 53.551 108.105 54.9764 108.105 58.1523V60.6703C108.105 60.6703 109.308 61.8764 108.214 63.0786C107.12 64.2847 104.717 66.9123 96.086 63.7365C96.086 63.7365 92.5889 61.6571 91.9324 60.2317L90.2913 60.3413L90.2874 60.3531Z" fill="#231F20"/>
<path d="M90.2874 60.3531C90.2874 60.3531 90.5062 63.9675 84.4967 65.0601L74.9901 64.7311C74.9901 64.7311 72.3683 63.8539 72.9153 61.007L73.9 60.5684C73.9 60.5684 73.1341 56.954 77.0688 55.0939L77.397 51.9181L78.3817 51.0409L78.2996 45.3314C78.2996 45.3314 74.4392 44.4268 74.3298 41.1413C74.2204 37.8558 74.3298 36.869 74.3298 36.869L76.514 36.9787L76.6234 35.2282L76.4788 34.8719C76.4788 34.8719 76.5101 34.8993 76.0764 33.5874C75.6387 32.2717 75.0917 31.7234 72.5793 32.0524C72.5793 32.0524 71.3758 31.5041 71.3758 30.8463C71.3758 30.1884 70.3911 28.6572 71.0476 25.8103L62.5256 25.591C62.5256 25.591 61.7598 25.2621 61.541 23.9463C61.3222 22.6345 61.541 20.2222 62.8538 19.674C64.1667 19.1258 65.9133 18.6872 66.5697 18.9065C66.5697 18.9065 65.4757 15.0727 67.2262 14.6341C67.2262 14.6341 69.4104 14.1956 69.6292 14.7438C69.848 15.292 73.5639 19.8894 73.5639 19.8894C73.5639 19.8894 74.111 18.7929 75.7481 19.0122C77.3892 19.2315 78.4794 21.2012 78.4794 21.2012H80.5542C80.5542 21.2012 79.6789 18.7929 80.1166 17.0386C80.1166 17.0386 79.4093 15.6288 81.3435 8.54483C81.3435 8.54483 82.1836 5.21234 86.6966 2.5299C86.6966 2.5299 91.1002 -0.164286 94.8942 1.5979C94.8942 1.5979 97.9068 3.51281 99.0321 5.69792C99.0321 5.69792 101.525 5.85064 101.845 7.19773C101.845 7.19773 102.24 9.87625 103.381 12.1632C103.381 12.1632 106.339 13.8431 101.955 16.3807L101.642 20.6491C101.642 20.6491 104.702 20.978 105.468 20.978C105.468 20.978 106.78 20.7587 107.109 19.3333C107.437 17.9079 107.327 15.2803 109.621 14.736C109.621 14.736 111.477 15.0649 111.153 17.8022C111.153 17.8022 113.775 17.4732 115.087 17.8022C116.4 18.1311 119.206 21.7808 117.514 23.5038C116.31 24.7295 113.122 23.8288 113.122 23.8288C113.122 23.8288 113.669 24.8157 112.137 24.8157C110.606 24.8157 109.953 24.706 109.953 24.706C109.953 24.706 110.828 28.1012 109.953 29.6323C109.078 31.1634 107.769 32.6985 105.909 33.0275C105.909 33.0275 107.257 37.7383 106.71 43.4322L104.862 46.1029C104.862 46.1029 104.491 47.9081 104.35 48.2449C104.393 48.5347 104.424 48.8323 104.424 49.1025C104.424 49.5802 104.35 49.8426 104.088 50.2381L103.897 50.2577C103.826 51.1231 103.873 52.2196 104.17 53.551C104.17 53.551 108.105 54.9764 108.105 58.1523V60.6703C108.105 60.6703 109.308 61.8764 108.214 63.0786C107.12 64.2847 104.717 66.9123 96.086 63.7365C96.086 63.7365 92.5889 61.6571 91.9324 60.2317L90.2913 60.3413L90.2874 60.3531Z" stroke="#231F20" stroke-width="0.34" stroke-miterlimit="3.86"/>
<path fill-rule="evenodd" clip-rule="evenodd" d="M109.496 23.7506C110.188 23.8406 111.254 23.9542 112.13 23.9542C112.251 23.9542 112.419 23.9307 112.505 23.9111C112.485 23.9894 112.454 24.0834 112.356 24.2596L113.169 22.9713C113.169 22.9713 115.916 24.1578 116.971 23.1123C118.334 21.7612 115.623 18.8478 114.869 18.6559C113.751 18.3739 111.313 18.6676 111.254 18.6755L110.152 18.8125L110.285 17.7082C110.422 16.5608 110.098 16.0713 109.891 15.8677C109.789 15.7659 109.684 15.6993 109.598 15.6562C108.988 15.8755 108.664 16.3337 108.445 16.9916C108.308 17.3989 108.234 17.8296 108.167 18.2369C108.093 18.7146 108.035 19.165 107.949 19.5409C107.82 20.097 107.581 20.5238 107.3 20.8527L109.496 23.7466V23.7506Z" fill="#E0A651"/>
<path fill-rule="evenodd" clip-rule="evenodd" d="M72.0595 29.9415L72.1259 30.1765C73.9233 27.7369 75.0721 24.5688 73.6967 21.6867C73.6068 21.4948 73.5092 21.299 73.4388 21.1384C73.4388 21.1384 71.9462 19.2901 70.985 18.0683C70.5044 17.4535 70.0121 16.8191 69.6291 16.3061C69.4299 16.0399 69.2619 15.8088 69.1329 15.6209L68.9571 15.3546C68.8164 15.3389 68.621 15.3428 68.3944 15.3546C67.9607 15.3859 67.5465 15.4564 67.4215 15.4799C66.7768 15.6404 67.2027 18.0135 67.3902 18.6675L67.8435 20.2534L66.2844 19.7326C65.9875 19.6347 64.5496 19.9049 63.1781 20.4766C62.928 20.5824 62.635 20.9505 62.4591 21.718C62.295 22.4346 62.295 23.2531 62.3888 23.8052C62.4709 24.3025 62.6467 24.561 62.7952 24.7294L72.122 24.9683L71.8837 26.006C71.5867 27.2943 71.6649 28.2616 71.8056 28.9821C71.8837 29.362 71.9775 29.6831 72.0556 29.9415" fill="#E0A651"/>
<path fill-rule="evenodd" clip-rule="evenodd" d="M75.5489 31.4611C74.9042 31.1086 74.0055 31.0107 72.7043 31.1439C76.6078 25.8534 74.6932 21.4754 74.1423 20.465L74.3493 20.2653C74.3845 20.2183 74.447 20.1518 74.5369 20.0852C74.701 19.9677 75.0292 19.8072 75.6231 19.8855C76.768 20.0382 77.6706 21.5615 77.7097 21.6359L77.8738 21.9335C78.37 24.9292 76.9595 28.9079 75.5411 31.4572M84.9109 22.705C84.9813 23.0574 85.0672 23.402 85.161 23.7388L84.9305 27.0517C84.4616 29.8046 83.012 31.7039 81.0817 33.5405L80.4644 34.1239C80.2846 34.3001 80.1205 34.4685 79.9916 34.6291C79.5383 35.1969 78.2762 35.0833 77.5026 34.9463L77.5456 34.2923L77.3697 34.0456C77.1978 33.8224 77.0181 33.6853 76.893 33.3133C76.7172 32.7886 76.5101 32.3578 76.2288 32.025C78.9092 27.3767 78.9092 23.6017 78.7568 22.0823H81.535C82.0664 22.5013 82.8127 22.7324 83.8755 22.7559C84.2037 22.7637 84.6023 22.7206 84.6023 22.7206C84.6257 22.6893 84.6335 22.6423 84.6335 22.5914L84.907 22.705H84.9109Z" fill="white"/>
<path d="M75.5489 31.4611C74.9042 31.1086 74.0055 31.0107 72.7043 31.1439C76.6078 25.8534 74.6932 21.4754 74.1423 20.465L74.3493 20.2653C74.3845 20.2183 74.447 20.1518 74.5369 20.0852C74.701 19.9677 75.0292 19.8072 75.6231 19.8855C76.768 20.0382 77.6706 21.5615 77.7097 21.6359L77.8738 21.9335C78.37 24.9292 76.9595 28.9079 75.5411 31.4572L75.5489 31.4611ZM84.9109 22.705C84.9813 23.0574 85.0672 23.402 85.161 23.7388L84.9305 27.0517C84.4616 29.8046 83.012 31.7039 81.0817 33.5405L80.4644 34.1239C80.2846 34.3001 80.1205 34.4685 79.9916 34.6291C79.5383 35.1969 78.2762 35.0833 77.5026 34.9463L77.5456 34.2923L77.3697 34.0456C77.1978 33.8224 77.0181 33.6853 76.893 33.3133C76.7172 32.7886 76.5101 32.3578 76.2288 32.025C78.9092 27.3767 78.9092 23.6017 78.7568 22.0823H81.535C82.0664 22.5013 82.8127 22.7324 83.8755 22.7559C84.2037 22.7637 84.6023 22.7206 84.6023 22.7206C84.6257 22.6893 84.6335 22.6423 84.6335 22.5914L84.907 22.705H84.9109Z" stroke="#231F20" stroke-width="0.34" stroke-miterlimit="3.86"/>
<path fill-rule="evenodd" clip-rule="evenodd" d="M88.3768 2.68263C89.0254 3.39534 90.1976 6.06994 90.3031 7.16249C90.4282 8.44693 89.3028 8.61532 87.4234 10.123C85.544 11.6306 83.3089 15.0453 82.4141 15.2842C82.0781 15.3743 81.8241 15.2803 81.6366 15.1276L81.5467 14.8339C81.3162 14.0154 81.2224 12.2611 82.1758 8.77587C82.1758 8.77587 82.2227 8.60749 82.336 8.32945C82.4728 8.01226 82.6916 7.55801 83.0432 7.03327C83.7505 5.96421 85.0008 4.55446 87.1342 3.28177C87.1499 3.27003 87.6266 2.98807 88.3729 2.67871" fill="#F5DF11"/>
<path fill-rule="evenodd" clip-rule="evenodd" d="M96.34 5.835C96.34 5.835 92.8351 7.60501 91.5261 6.80224C91.1158 6.55162 88.873 2.30671 90.3187 2.07959C91.7645 1.85246 94.4918 2.18532 95.7578 3.72821C97.0511 5.30634 96.34 5.835 96.34 5.835Z" fill="#F5DF11"/>
<path fill-rule="evenodd" clip-rule="evenodd" d="M87.8767 26.8442L87.9275 26.8677C89.9281 27.8467 92.5499 27.9955 94.5388 27.9955C95.1561 27.9955 95.9337 27.7684 96.7308 27.3651C97.5904 28.5712 98.1492 29.9966 98.1492 31.5042C98.1492 33.6502 96.637 32.4323 94.9725 33.4309C93.7143 34.1867 89.2834 33.6972 87.9744 33.5327L87.8806 26.8482H87.8767V26.8442Z" fill="white"/>
<path d="M87.8767 26.8442L87.9275 26.8677C89.9281 27.8467 92.5499 27.9955 94.5388 27.9955C95.1561 27.9955 95.9337 27.7684 96.7308 27.3651C97.5904 28.5712 98.1492 29.9966 98.1492 31.5042C98.1492 33.6502 96.637 32.4323 94.9725 33.4309C93.7143 34.1867 89.2834 33.6972 87.9744 33.5327L87.8806 26.8482H87.8767V26.8442Z" stroke="#231F20" stroke-width="0.34" stroke-miterlimit="3.86"/>
<path fill-rule="evenodd" clip-rule="evenodd" d="M89.5725 20.8135C89.5725 20.8135 88.8926 24.6002 93.3509 24.6785C97.3091 24.749 97.7662 19.8266 97.7662 19.8266C96.344 21.7964 95.4726 22.3446 92.7414 22.3446C90.0101 22.3446 89.5725 20.8096 89.5725 20.8096M91.8857 14.6497C91.8857 14.6497 90.944 14.1289 90.7486 15.1001C90.5532 16.0712 91.6239 16.3845 92.0967 15.989C92.5694 15.5896 91.8857 14.6497 91.8857 14.6497ZM87.8298 25.8298L87.7243 25.7045L86.7397 23.9227C86.1926 22.7754 85.5518 21.4283 85.4346 19.7209C85.3525 18.5187 85.3525 17.5906 85.3525 17.5906C85.3525 17.5906 86.4779 18.7537 87.0132 18.9691C87.7243 19.2549 88.4784 20.2613 89.2599 19.5408C92.7883 16.2905 96.0275 14.5401 100.845 15.8598C100.873 15.8754 100.771 20.5785 99.8137 23.0299C99.5324 23.7504 99.0674 24.4162 98.5125 24.9879C98.157 25.356 97.7701 25.6849 97.3677 25.9708C96.344 26.6992 95.2577 27.1338 94.5348 27.1338C93.0032 27.1338 91.4676 27.0673 89.9789 26.6874C89.1818 26.4838 88.5292 26.2293 88.033 25.963L87.9705 25.9277L87.8259 25.8337L87.8298 25.8298Z" fill="#E0A651"/>
<path d="M89.5725 20.8135C89.5725 20.8135 88.8926 24.6002 93.3509 24.6785C97.3091 24.749 97.7662 19.8266 97.7662 19.8266C96.344 21.7964 95.4726 22.3446 92.7414 22.3446C90.0101 22.3446 89.5725 20.8096 89.5725 20.8096V20.8135ZM91.8857 14.6497C91.8857 14.6497 90.944 14.1289 90.7486 15.1001C90.5532 16.0712 91.6239 16.3845 92.0967 15.989C92.5694 15.5896 91.8857 14.6497 91.8857 14.6497ZM87.8298 25.8298L87.7243 25.7045L86.7397 23.9227C86.1926 22.7754 85.5518 21.4283 85.4346 19.7209C85.3525 18.5187 85.3525 17.5906 85.3525 17.5906C85.3525 17.5906 86.4779 18.7537 87.0132 18.9691C87.7243 19.2549 88.4784 20.2613 89.2599 19.5408C92.7883 16.2905 96.0275 14.5401 100.845 15.8598C100.873 15.8754 100.771 20.5785 99.8137 23.0299C99.5324 23.7504 99.0674 24.4162 98.5125 24.9879C98.157 25.356 97.7701 25.6849 97.3677 25.9708C96.344 26.6992 95.2577 27.1338 94.5348 27.1338C93.0032 27.1338 91.4676 27.0673 89.9789 26.6874C89.1818 26.4838 88.5292 26.2293 88.033 25.963L87.9705 25.9277L87.8259 25.8337L87.8298 25.8298Z" stroke="#231F20" stroke-width="0.34" stroke-miterlimit="3.86"/>
<path fill-rule="evenodd" clip-rule="evenodd" d="M97.3716 25.9668L98.5164 24.9839C98.1609 25.352 97.774 25.6809 97.3716 25.9668Z" fill="#231F20"/>
<path d="M97.3716 25.9668L98.5164 24.9839C98.1609 25.352 97.774 25.6809 97.3716 25.9668Z" stroke="#231F20" stroke-width="0.34" stroke-miterlimit="3.86"/>
<path fill-rule="evenodd" clip-rule="evenodd" d="M83.899 21.8863H84.1178C84.5281 21.0209 84.2624 20.0302 83.7857 19.247C83.1723 18.2406 83.5396 17.9155 82.4572 17.6845C82.0743 17.6023 81.1561 18.0448 81.0467 18.0604C80.949 18.3894 81.2459 19.8265 81.3045 20.1437C81.5429 21.4634 82.7659 21.855 83.899 21.8824" fill="#E0A651"/>
<path fill-rule="evenodd" clip-rule="evenodd" d="M105.256 32.2718L105.753 32.1817C105.995 32.1386 106.226 32.0681 106.448 31.9781C107.027 30.0083 107.226 26.668 105.87 24.6278C104.897 23.1671 102.31 23.0105 100.661 23.2416C100.4 23.9151 100.075 24.4555 99.6885 24.9528C100.048 26.7581 100.743 29.7421 101.603 30.5252C102.22 31.0852 103.397 31.6609 104.354 32.0721C104.069 30.5487 102.052 30.4313 102.408 26.8599L103.272 26.9461C102.924 30.4469 105.178 30.0592 105.253 32.2679" fill="white"/>
<path fill-rule="evenodd" clip-rule="evenodd" d="M107.499 31.3356C108.16 30.7874 108.726 30.0394 109.195 29.2132C109.856 28.058 109.148 25.0857 109.109 24.933L109.058 24.7372L106.644 21.4282C106.374 21.6005 106.132 21.6984 105.952 21.7572C105.745 21.8276 105.53 21.859 105.468 21.859C104.815 21.859 102.006 21.5731 101.076 21.4752C101.033 21.7767 100.982 22.0665 100.923 22.3406C101.381 22.3015 102.033 22.2702 102.74 22.3211C104.049 22.419 105.71 22.8145 106.593 24.142C107.953 26.1861 107.929 29.2053 107.499 31.3317" fill="white"/>
<path fill-rule="evenodd" clip-rule="evenodd" d="M91.3814 55.4227C91.3814 55.4227 90.2796 54.5338 89.6388 54.4281C89.0058 54.3223 88.1813 54.2166 87.4428 54.2166C86.4621 54.2166 85.8721 53.8328 85.2938 53.1201C84.2544 51.8122 83.3753 51.2718 81.5036 51.5812C80.6518 51.7221 79.5382 51.777 78.8349 51.7965L78.2176 52.3448L77.8737 55.6733L77.4322 55.8809C75.7168 56.6915 75.0799 57.8428 74.8416 58.7552C74.7165 59.2251 74.6931 59.652 74.7009 59.9535C74.7087 60.2237 74.8728 61.0852 74.8728 61.0852L73.7085 61.606C73.6342 63.098 74.8064 63.7167 75.162 63.8695L84.4303 64.1906C87.1967 63.6697 88.3923 62.6085 88.9237 61.8136C89.2011 61.3985 89.3223 61.0226 89.377 60.7602C89.42 60.5448 89.4121 59.5423 89.4121 59.5423L92.4638 59.3387L92.7139 59.883C93.1945 60.9207 95.9765 62.6712 96.4571 62.9649C100.642 64.496 103.201 64.5743 104.78 64.218C106.331 63.8656 107.054 63.0745 107.566 62.5106C108.062 61.9624 107.581 61.3946 107.484 61.3006L107.23 61.0461V58.1678C107.23 55.689 104.014 54.4398 103.869 54.385L103.42 54.2244L103.315 53.7584C103.018 52.4153 102.955 51.2836 103.014 50.3555L102.678 50.3868C102.678 50.3868 100.079 50.7118 98.8836 50.9311C97.8638 51.1152 92.8623 55.1799 91.7566 56.0924L91.3814 55.4345V55.4227Z" fill="#231F20"/>
<path d="M75.5645 57.4866C75.6387 57.3965 75.7129 57.3025 75.7833 57.2007C75.7051 57.2947 75.6309 57.3926 75.5645 57.4866ZM74.5837 60.866C74.5485 60.6507 74.8416 60.0711 74.8377 59.9536C74.8299 59.6482 74.8533 59.2252 74.9744 58.7553C75.0799 58.3598 75.2558 57.9251 75.5645 57.4866C75.6309 57.3926 75.7051 57.2947 75.7833 57.2007C76.1818 56.7269 76.7523 56.2648 77.565 55.881L78.0066 55.6735L80.1439 55.4268C80.1439 55.4268 79.2686 56.7425 78.831 57.0675C78.3934 57.3965 77.7369 59.1469 77.7369 60.682C77.7369 61.755 76.9516 61.2185 76.3342 61.0657C76.3342 60.6976 75.0838 60.9169 74.5759 60.866M87.5796 62.1035C88.7674 61.3477 88.2165 63.1882 84.4185 64.1829L75.2988 63.8657C75.162 63.8069 74.9002 63.6777 74.6384 63.4545C74.5485 63.337 74.4509 63.2274 74.318 63.1255C74.0679 62.8123 73.8687 62.3933 73.8452 61.8411L73.8765 61.5866L73.9116 61.5709C74.3024 61.6062 74.9432 61.6962 75.6543 61.9312L75.6856 61.9429C75.8536 62.1152 76.174 62.1779 76.4358 62.2092C77.4126 62.3267 77.9675 62.9767 79.0576 63.0864C80.1517 63.196 83.9731 63.3057 84.7389 62.6478C85.5048 61.9899 86.3761 62.8671 87.5796 62.0996" fill="white"/>
<path fill-rule="evenodd" clip-rule="evenodd" d="M103.397 54.4397C103.397 54.4397 103.584 54.3144 103.987 54.428C104.159 54.475 104.37 54.5689 104.62 54.7334C105.132 55.0663 105.808 55.6928 106.675 56.848C106.675 56.848 107.222 59.5853 106.675 60.7914L104.256 61.4571C104.256 61.4571 104.706 57.9445 103.178 56.7384C101.646 55.5323 103.397 54.4397 103.397 54.4397Z" fill="white"/>
<path fill-rule="evenodd" clip-rule="evenodd" d="M103.287 62.7612C104.827 62.6594 106.655 60.815 107.323 61.1361L107.48 61.2928C107.902 61.9937 106.937 63.2233 105.471 63.8538C104.424 64.3041 101.681 64.1867 99.7784 63.9674C98.8914 63.7637 97.895 63.474 96.7814 63.0784C95.9882 62.6203 95.2419 62.025 95.5271 61.6648C95.9648 61.1165 97.0549 61.7744 97.0549 61.7744C97.0549 61.7744 101.646 62.8709 103.283 62.7612" fill="white"/>
<path fill-rule="evenodd" clip-rule="evenodd" d="M97.3792 44.4305C97.3792 44.4305 93.6829 45.2411 93.6633 44.4305C92.874 44.4305 93.5539 40.0525 93.5539 40.0525C93.5539 40.0525 97.2503 39.3946 97.2698 40.1621C97.9692 40.1817 97.3792 44.4305 97.3792 44.4305Z" fill="white"/>
<path fill-rule="evenodd" clip-rule="evenodd" d="M105.522 43.397C105.522 43.397 105.221 44.6423 104.549 43.2835C104.104 42.3789 102.353 37.8129 102.568 36.6067C102.568 36.6067 103.662 35.8392 104.752 36.6067C105.847 37.3743 105.737 40.9887 105.737 40.9887L105.518 43.397H105.522Z" fill="#F5DF11"/>
<path fill-rule="evenodd" clip-rule="evenodd" d="M74.9862 37.8247C74.9862 37.8247 77.5103 38.8389 78.1785 39.0112C78.8467 39.1835 78.3114 40.3818 78.3114 41.7563C78.3114 43.1308 77.9089 44.1568 77.9089 44.1568C77.9089 44.1568 75.6348 42.7862 75.3691 41.7563C75.1034 40.7264 74.8416 39.5477 74.994 39.1405C75.1464 38.7332 74.9901 37.8286 74.9901 37.8286" fill="#F5DF11"/>
<path fill-rule="evenodd" clip-rule="evenodd" d="M79.1046 39.3986C79.1046 39.3986 80.3276 39.3672 80.3081 39.751C80.2886 40.1387 80.3081 41.2391 80.1205 41.9087C79.933 42.5744 79.8079 43.5573 79.4797 44.0233C79.1515 44.4893 78.7725 44.2935 78.8194 43.4085C78.8663 42.5196 79.0226 40.9806 79.0421 40.5773C79.0616 40.1739 79.1046 39.3986 79.1046 39.3986Z" fill="#F5DF11"/>
<path fill-rule="evenodd" clip-rule="evenodd" d="M105.135 44.8496C105.135 44.8496 105.729 48.0059 105.925 48.9339C106.116 49.8464 106.991 52.564 107.085 52.1724C107.183 51.7809 106.784 49.1102 106.593 48.2643C106.401 47.4185 106.116 44.0703 106.116 44.0703L105.135 44.8535V44.8496Z" fill="#231F20"/>
<path fill-rule="evenodd" clip-rule="evenodd" d="M75.2754 37.5386L78.8702 38.8034C78.8702 38.8034 80.226 39.1872 79.8431 38.8034C79.4602 38.4197 78.0066 37.6365 77.3189 37.6365C76.6312 37.6365 75.2754 37.5425 75.2754 37.5425" fill="#F5DF11"/>
<path fill-rule="evenodd" clip-rule="evenodd" d="M85.3877 37.9811C84.993 37.9459 84.8797 37.989 84.3913 38.4001C83.899 38.8113 84.0396 39.4692 83.7427 39.6102C83.4457 39.7511 82.8479 38.8426 83.7036 38.0673C84.5632 37.2919 85.3799 36.121 86.2668 36.3129C86.638 36.3912 87.9001 36.4696 88.2127 36.5988C88.6503 36.7789 88.7675 37.0687 88.959 37.1196C89.2872 37.2058 89.5529 36.8886 89.8343 36.8533C90.1156 36.8181 90.3617 37.241 90.3617 37.241C90.3617 37.241 90.4555 38.7643 90.1195 38.7369C89.7835 38.7056 89.6311 38.5215 89.3029 38.3805C88.9746 38.2396 88.1814 38.2826 87.9275 38.5998C87.6735 38.9209 87.736 38.8622 87.736 38.8622L87.5836 39.3047L85.5752 39.1285L85.4619 38.4941L85.3916 37.9811H85.3877Z" fill="white"/>
<path fill-rule="evenodd" clip-rule="evenodd" d="M86.6029 49.8737C86.6029 49.8737 85.7511 50.0264 85.1337 49.9716C84.5163 49.9168 84.2975 49.8424 84.149 49.5996C84.0006 49.3607 84.2702 49.1845 84.3288 48.511L84.9461 45.6915C84.9969 45.1276 85.0087 44.2935 85.2353 43.009C85.4619 41.7246 85.5752 39.7627 85.5752 39.7627L87.5172 39.9311C87.4586 40.4362 87.3492 40.726 87.3335 40.9257C87.3101 41.2038 87.2319 44.1486 87.2632 45.1119C87.2945 46.0792 86.5208 49.58 86.6068 49.8737" fill="#F5DF11"/>
<path fill-rule="evenodd" clip-rule="evenodd" d="M77.3774 36.9592L77.4478 35.8235C77.6705 35.8588 77.9206 35.894 78.1824 35.9097C79.6359 36.0115 80.1087 35.6865 81.0699 34.7466L81.6755 34.171C83.7543 32.1973 85.282 30.1336 85.7861 27.1771L85.9189 25.2778C86.2237 25.6851 86.591 26.0297 87.0052 26.3234L87.1146 34.2885C89.0058 34.5665 93.8274 35.1304 95.4138 34.1749C96.9572 33.2468 99.0125 34.5626 99.0125 31.5042C99.0125 29.8908 98.4381 28.2892 97.5277 26.9695L97.9028 26.6484C98.2701 26.3861 98.6257 26.0884 98.9578 25.7634C99.0594 26.2412 99.2118 26.899 99.4033 27.5961C100.349 31.0421 100.888 31.3985 103.905 33.0119C104.42 33.286 104.811 33.3995 105.073 33.4426C105.147 33.9439 105.241 34.5822 105.327 35.2714C105.327 35.2714 102.31 34.6213 101.318 35.8549C100.478 36.8965 101.091 39.2852 101.091 39.2852C101.091 39.2852 100.169 40.5932 99.3407 40.1624C98.4303 39.6847 97.4847 39.1756 97.4847 39.1756C97.4847 39.1756 94.2377 38.7174 93.2726 39.2813C92.5302 39.716 93.0069 40.7067 92.4599 41.3646C91.9128 42.0225 87.7593 41.8032 87.7593 41.8032L88.322 39.4771L89.4082 39.3087C90.6312 39.4223 91.1314 38.972 90.8031 37.2215C90.7016 36.6811 90.4476 36.3483 90.0686 36.1446C89.8029 36.2112 89.2988 36.3091 89.0566 36.1446C88.8338 35.9958 88.7127 35.9723 88.5095 35.847C87.7671 35.8274 86.8841 35.8901 85.9033 35.8901C84.8679 35.8901 85.1883 36.1799 84.4381 36.6576C83.6878 37.1354 82.5274 38.5686 82.4648 39.3636C82.3554 40.6793 84.5943 39.8296 84.5943 39.8296L84.7037 41.1453L81.9725 41.0357C81.8631 38.8467 80.6596 38.4081 79.3507 37.5309C78.8701 37.2098 78.1277 37.0414 77.3814 36.9592M92.5263 55.0979C92.5263 55.0979 96.4727 53.1556 97.4105 52.3489C98.3483 51.5461 97.8794 51.0096 99.2157 50.806C100.552 50.6063 103.162 50.4027 103.162 50.4027C103.162 50.4027 103.029 52.4155 103.096 52.6818C103.162 52.9481 103.565 53.555 102.76 54.021C101.955 54.487 98.8797 54.1542 97.008 55.4973C95.1364 56.8366 94.3979 57.4397 93.4641 57.843C92.5263 58.2464 92.327 58.4461 92.327 58.0427C92.327 57.6394 91.6589 56.77 91.9246 56.3001C92.1903 55.8302 92.5263 55.094 92.5263 55.094M78.5458 51.8829C78.5458 51.8829 77.944 54.5653 78.2097 54.6319C78.4793 54.6985 79.4796 54.2286 81.9569 54.8982C84.4302 55.5678 88.8456 57.9135 89.9162 58.1171C90.9868 58.3168 91.2525 58.4539 91.4557 57.4475C91.6549 56.4411 91.1196 56.5077 91.3228 55.9046L91.6589 54.8982C90.8579 54.4949 89.5841 54.0954 88.3142 54.2286C87.0443 54.3617 86.3761 54.2951 85.704 53.6921C85.0359 53.089 85.1023 52.3528 83.8324 51.8163C82.5625 51.2798 81.5583 51.4796 80.4213 51.6166C79.2842 51.7498 78.5497 51.8829 78.5497 51.8829M91.823 53.3906L91.5963 53.5629C90.471 53.2966 88.5994 53.3475 87.4428 53.3475C86.7317 53.3475 86.3761 53.0773 85.9658 52.5721C84.7311 51.0136 83.5198 50.3635 81.359 50.7238C80.5776 50.853 79.757 50.9039 79.2374 50.9235L79.3389 44.983L79.2881 44.9673L80.1829 44.0275L80.6049 42.9741C80.6518 43.1268 80.7026 43.2521 80.769 43.3304C81.2067 43.8787 84.4849 43.8787 84.4849 43.8787C84.5943 45.8484 83.7308 47.5362 83.7308 47.5362L83.4026 49.7252C83.4026 49.7252 86.1456 50.5789 86.6887 50.1403C87.2357 49.7017 87.7593 44.2154 87.7593 44.2154L92.5693 43.9883L92.7881 45.4137C92.7881 45.4137 97.4574 45.9228 97.8403 44.5444C97.9458 44.1645 98.0318 43.5497 98.0318 43.5497C98.0318 43.5497 98.7976 43.0015 99.5635 42.3436C100.329 41.6857 101.748 41.1375 102.404 41.2471C103.061 41.3568 102.951 43.1111 103.498 43.5458C103.815 43.8004 103.862 44.6423 104.041 45.308C104.041 45.308 103.623 48.8206 103.549 49.1378C103.514 49.2866 103.139 49.2905 103.111 49.4589L102.584 49.5059C102.584 49.5059 99.9386 49.8388 98.7273 50.0581C97.6254 50.2578 93.9837 53.1556 92.7607 54.1346L92.8936 53.4101C93.1827 51.8594 94.0697 49.1535 95.2732 47.9043H93.1593L93.2648 48.7736C92.2723 49.8936 92.4911 51.9221 92.0418 53.2496C92.0222 53.3083 91.8191 53.3788 91.8191 53.3788" fill="#F5B41A"/>
<path fill-rule="evenodd" clip-rule="evenodd" d="M88.2634 18.5383C86.6574 18.4522 85.8916 16.0713 85.0163 15.9929C84.9226 15.9851 85.4461 11.051 94.7027 7.53053C98.149 6.21868 99.6494 7.41305 100.38 7.80857C101.115 8.20408 101.263 8.98727 101.107 9.51984C100.951 10.0563 104.088 13.7138 103.092 14.2856C102.138 14.8299 95.027 13.7726 91.7917 16.2866C89.2597 18.2524 89.8927 18.6245 88.2634 18.5383Z" fill="#F5DF11"/>
<path d="M93.89 16.7172C93.7923 16.6585 93.7572 16.5919 93.7689 16.5254C94.4019 16.2708 95.0544 16.075 95.7226 15.9497C96.926 17.0697 95.4256 20.222 92.4951 19.7169C92.2528 19.6738 91.9363 19.5876 91.7175 19.4623L92.1395 18.7026C92.796 18.9611 93.4094 18.9258 93.9369 18.687C94.609 18.3815 94.3628 16.9992 93.8939 16.7172" fill="#231F20"/>
<path d="M93.89 16.7172C93.7923 16.6585 93.7572 16.5919 93.7689 16.5254C94.4019 16.2708 95.0544 16.075 95.7226 15.9497C96.926 17.0697 95.4256 20.222 92.4951 19.7169C92.2528 19.6738 91.9363 19.5876 91.7175 19.4623L92.1395 18.7026C92.796 18.9611 93.4094 18.9258 93.9369 18.687C94.609 18.3815 94.3628 16.9992 93.8939 16.7172H93.89Z" stroke="#231F20" stroke-width="0.34" stroke-miterlimit="3.86"/>
</svg>
