<svg xmlns="http://www.w3.org/2000/svg" fill="none" viewBox="0 0 329 233">
<g clip-path="url(#clip0_175_2439)">
<path d="M23.4011 123.69H296.85" stroke="#231F20" stroke-width="1.17" stroke-miterlimit="3.86"/>
<mask id="mask0_175_2439" style="mask-type:luminance" maskUnits="userSpaceOnUse" x="0" y="0" width="329" height="233">
<path d="M329 0H0V233H329V0Z" fill="white"/>
</mask>
<g mask="url(#mask0_175_2439)">
<path fill-rule="evenodd" clip-rule="evenodd" d="M49.8736 92.8399H33.5017V96.5796C37.9131 96.8968 37.9678 97.8092 37.9678 101.048V115.635C37.9678 118.916 37.8623 119.829 33.5017 120.146V123.886H48.0137V120.146H47.5878C46.525 120.056 44.5048 119.782 43.8132 119.006C43.1216 118.231 43.2271 116.59 43.2271 115.678V100.041L52.2649 123.882H58.2705L67.3082 100.405V115.631C67.3082 116.633 67.359 118.458 66.4564 119.186C65.6046 119.872 63.7447 120.099 62.6272 120.142H62.2013V123.882H81.5506V120.142H81.1247C80.0071 120.052 77.9362 119.778 77.2446 119.002C76.553 118.227 76.7132 116.586 76.7132 115.631V101.044C76.7132 100.041 76.553 98.2635 77.4595 97.4881C78.2567 96.8028 80.1166 96.6227 81.5506 96.5757V92.8359H64.5926L57.1491 112.251L49.8657 92.8359L49.8736 92.8399Z" fill="#ED1C24"/>
<path fill-rule="evenodd" clip-rule="evenodd" d="M95.3239 101H93.1983L83.7347 102.187V105.927H84.1059C87.9351 106.291 87.8257 107.203 87.8257 110.211V115.862C87.8257 119.006 87.8257 119.872 83.5745 120.146V123.885H100.532V120.146L100.052 120.103C96.5977 119.875 96.7032 118.826 96.7032 115.819V107.387C96.7032 106.933 97.5003 106.659 98.2974 106.659C99.6259 106.659 100.372 108.073 102.764 108.073C104.995 108.073 106.964 106.749 106.964 104.701C106.964 102.379 104.838 101.008 102.232 101.008C99.6259 101.008 97.766 101.874 95.32 103.15V101.008L95.3239 101Z" fill="#ED1C24"/>
<path fill-rule="evenodd" clip-rule="evenodd" d="M167.864 123.882C171.584 123.882 175.413 123.929 178.653 122.061C181.524 120.42 183.013 117.64 183.013 114.722C183.013 111.123 180.356 108.206 176.316 107.247V107.157C179.188 106.154 181.419 103.464 181.419 100.774C181.419 98.0833 179.719 95.5301 176.902 94.2574C174.136 92.9808 169.884 92.8438 166.801 92.8438H147.241V96.5796L148.464 96.7597C151.868 97.261 151.547 98.5846 151.547 101.044V115.678C151.547 119.28 151.492 119.551 147.241 120.146V123.886H167.868L167.864 123.882ZM160.952 105.195V100.088C160.952 99.45 160.792 98.0833 161.538 97.6721C162.23 97.261 164.25 97.214 165.153 97.214C168.396 97.214 172.33 97.9423 172.33 101.361C172.33 104.78 167.759 105.191 164.781 105.191H160.952V105.195ZM160.952 109.389H164.938C169.298 109.389 173.124 109.843 173.124 114.401C173.124 118.321 169.615 119.508 165.524 119.508C164.406 119.508 162.441 119.461 161.538 118.826C160.847 118.325 160.952 117.322 160.952 116.59V109.389Z" fill="#ED1C24"/>
<path fill-rule="evenodd" clip-rule="evenodd" d="M198.584 101H195.075L185.615 102.187V105.927H185.987C189.812 106.291 189.706 107.203 189.706 110.211V115.591C189.706 118.008 189.652 120.424 191.672 122.292C193.426 123.979 195.923 124.25 198.479 124.25C201.933 124.25 204.75 123.474 207.622 122.064V123.885H219.156V120.169L218.73 120.122C215.382 119.848 215.487 118.846 215.487 115.834V101H212.139L202.679 102.187V105.927H203.05C206.719 106.291 206.61 107.203 206.61 110.211V117.596C205.016 118.509 202.73 119.738 200.655 119.648C198.318 119.648 198.584 117.232 198.584 115.501V101.008V101Z" fill="#ED1C24"/>
<path fill-rule="evenodd" clip-rule="evenodd" d="M233.715 101H230.206L220.743 102.187V105.923H221.114C224.943 106.287 224.834 107.199 224.834 110.207V115.857C224.834 118.912 224.884 119.82 220.688 120.142V123.877H237.326V120.142C233.551 119.73 233.711 118.818 233.711 115.857V100.996L233.715 101ZM228.772 90.6504C225.85 90.6504 223.564 92.7024 223.564 95.2086C223.564 97.4407 225.744 99.4926 228.456 99.4926C231.168 99.4926 233.719 97.4877 233.719 95.0245C233.719 92.5614 231.593 90.6504 228.776 90.6504" fill="#ED1C24"/>
<path fill-rule="evenodd" clip-rule="evenodd" d="M252.205 90.8345H249.333C246.09 92.0641 242.636 92.7024 239.127 92.8394V96.5753C240.401 96.5753 241.889 96.7123 242.686 97.2136C243.429 97.7148 243.323 99.5397 243.323 100.315V115.857C243.323 118.955 243.429 119.687 239.709 120.142V123.881H255.764V120.142L254.912 119.958C253.744 119.777 252.838 119.636 252.466 118.591C252.201 117.815 252.201 116.633 252.201 115.857V90.8345H252.205Z" fill="#ED1C24"/>
<path fill-rule="evenodd" clip-rule="evenodd" d="M285.792 90.8345H282.92C279.677 92.0641 276.223 92.7024 272.714 92.8394V96.5792C273.992 96.5792 275.481 96.7162 276.278 97.2175C277.024 97.7187 276.915 99.5436 276.915 100.319V101.913C275.266 101.047 273.035 100.409 270.96 100.409C263.09 100.409 258.363 106.471 258.363 112.717C258.363 115.818 259.531 118.869 261.977 121.148C264.423 123.427 267.08 124.245 270.589 124.245C273.246 124.245 275.903 123.654 277.872 122.103V123.881H289.778V120.142C285.632 119.73 285.792 118.912 285.792 115.857V90.8345ZM276.915 117.455C276.012 118.779 273.832 119.644 271.972 119.644C268.408 119.644 267.4 115.36 267.4 113.034C267.4 110.117 268.408 105.01 272.769 105.01C274.523 105.01 275.852 105.966 276.915 107.015V117.451V117.455Z" fill="#ED1C24"/>
<path fill-rule="evenodd" clip-rule="evenodd" d="M159.69 136.264V132.528L156.443 127.386H158.541L160.628 130.899L162.671 127.386H164.731L161.472 132.54V136.264H159.69Z" fill="white"/>
<path fill-rule="evenodd" clip-rule="evenodd" d="M165.168 132.959C165.168 132.395 165.309 131.847 165.586 131.318C165.864 130.789 166.258 130.386 166.766 130.108C167.278 129.83 167.849 129.689 168.478 129.689C169.451 129.689 170.244 130.006 170.865 130.641C171.486 131.271 171.795 132.066 171.795 133.033C171.795 134.008 171.483 134.815 170.853 135.457C170.228 136.095 169.443 136.413 168.489 136.413C167.899 136.413 167.337 136.28 166.801 136.013C166.27 135.747 165.864 135.355 165.586 134.842C165.309 134.325 165.168 133.699 165.168 132.959ZM166.911 133.049C166.911 133.687 167.063 134.177 167.364 134.513C167.665 134.85 168.04 135.023 168.482 135.023C168.923 135.023 169.294 134.854 169.595 134.513C169.896 134.173 170.049 133.683 170.049 133.033C170.049 132.383 169.896 131.917 169.595 131.58C169.298 131.24 168.927 131.071 168.482 131.071C168.036 131.071 167.665 131.24 167.364 131.58C167.063 131.921 166.911 132.407 166.911 133.045" fill="white"/>
<path fill-rule="evenodd" clip-rule="evenodd" d="M177.304 136.264V135.301C177.07 135.645 176.761 135.915 176.378 136.111C175.999 136.307 175.601 136.409 175.175 136.409C174.749 136.409 174.354 136.315 174.014 136.123C173.671 135.935 173.424 135.669 173.272 135.324C173.12 134.98 173.042 134.506 173.042 133.899V129.83H174.741V132.787C174.741 133.691 174.772 134.247 174.831 134.451C174.898 134.651 175.011 134.815 175.175 134.936C175.339 135.054 175.55 135.113 175.804 135.113C176.093 135.113 176.355 135.034 176.585 134.878C176.816 134.717 176.972 134.517 177.058 134.283C177.144 134.044 177.187 133.464 177.187 132.544V129.83H178.887V136.264H177.308H177.304Z" fill="white"/>
<path fill-rule="evenodd" clip-rule="evenodd" d="M182.22 136.264H180.52V129.83H182.099V130.746C182.368 130.316 182.611 130.03 182.826 129.893C183.044 129.756 183.287 129.689 183.564 129.689C183.951 129.689 184.322 129.795 184.682 130.01L184.154 131.494C183.869 131.31 183.603 131.216 183.357 131.216C183.119 131.216 182.919 131.283 182.751 131.416C182.587 131.545 182.454 131.78 182.357 132.125C182.263 132.469 182.216 133.186 182.216 134.282V136.268L182.22 136.264Z" fill="white"/>
<path fill-rule="evenodd" clip-rule="evenodd" d="M188.733 127.386H192.273C192.973 127.386 193.496 127.418 193.84 127.476C194.188 127.535 194.493 127.653 194.766 127.84C195.04 128.025 195.267 128.275 195.45 128.585C195.63 128.89 195.724 129.238 195.724 129.618C195.724 130.033 195.61 130.417 195.384 130.762C195.161 131.11 194.86 131.369 194.477 131.545C195.016 131.702 195.431 131.972 195.724 132.352C196.013 132.732 196.157 133.178 196.157 133.691C196.157 134.094 196.064 134.49 195.872 134.874C195.689 135.253 195.431 135.559 195.106 135.79C194.782 136.017 194.383 136.154 193.911 136.209C193.614 136.24 192.895 136.26 191.754 136.268H188.737V127.386H188.733ZM190.523 128.863V130.918H191.695C192.391 130.918 192.824 130.907 192.996 130.887C193.301 130.852 193.543 130.746 193.715 130.574C193.891 130.398 193.981 130.163 193.981 129.877C193.981 129.591 193.903 129.379 193.75 129.211C193.602 129.039 193.379 128.933 193.078 128.894C192.903 128.874 192.391 128.863 191.551 128.863H190.523ZM190.523 132.395V134.768H192.18C192.824 134.768 193.235 134.748 193.407 134.713C193.672 134.666 193.887 134.549 194.051 134.361C194.219 134.169 194.305 133.918 194.305 133.605C194.305 133.339 194.239 133.111 194.11 132.927C193.981 132.743 193.793 132.606 193.547 132.52C193.305 132.434 192.778 132.391 191.965 132.391H190.519L190.523 132.395Z" fill="white"/>
<path fill-rule="evenodd" clip-rule="evenodd" d="M201.835 136.264V135.301C201.6 135.645 201.292 135.915 200.909 136.111C200.53 136.307 200.127 136.409 199.705 136.409C199.283 136.409 198.889 136.315 198.545 136.123C198.201 135.935 197.955 135.669 197.802 135.324C197.65 134.98 197.572 134.506 197.572 133.899V129.83H199.271V132.787C199.271 133.691 199.303 134.247 199.361 134.451C199.428 134.651 199.541 134.815 199.705 134.936C199.869 135.054 200.08 135.113 200.334 135.113C200.623 135.113 200.885 135.034 201.116 134.878C201.346 134.717 201.503 134.517 201.589 134.283C201.674 134.044 201.714 133.464 201.714 132.544V129.83H203.413V136.264H201.835Z" fill="white"/>
<path fill-rule="evenodd" clip-rule="evenodd" d="M205.129 127.386H206.828V128.96H205.129V127.386ZM205.129 129.834H206.828V136.268H205.129V129.834Z" fill="white"/>
<path d="M210.22 127.386H208.52V136.268H210.22V127.386Z" fill="white"/>
<path fill-rule="evenodd" clip-rule="evenodd" d="M217.804 136.264H216.226V135.32C215.964 135.688 215.651 135.962 215.296 136.142C214.94 136.319 214.581 136.409 214.221 136.409C213.483 136.409 212.85 136.111 212.322 135.52C211.799 134.921 211.537 134.09 211.537 133.025C211.537 131.96 211.795 131.106 212.307 130.542C212.818 129.975 213.463 129.689 214.249 129.689C214.964 129.689 215.585 129.986 216.108 130.586V127.386H217.808V136.268L217.804 136.264ZM213.268 132.908C213.268 133.593 213.362 134.09 213.553 134.396C213.827 134.838 214.209 135.062 214.702 135.062C215.093 135.062 215.425 134.897 215.698 134.564C215.972 134.227 216.108 133.73 216.108 133.068C216.108 132.328 215.976 131.8 215.71 131.475C215.444 131.149 215.104 130.985 214.69 130.985C214.276 130.985 213.948 131.146 213.674 131.471C213.405 131.788 213.268 132.269 213.268 132.908Z" fill="white"/>
<path fill-rule="evenodd" clip-rule="evenodd" d="M219.434 127.386H221.133V128.96H219.434V127.386ZM219.434 129.834H221.133V136.268H219.434V129.834Z" fill="white"/>
<path fill-rule="evenodd" clip-rule="evenodd" d="M228.663 136.264H226.963V132.982C226.963 132.289 226.928 131.839 226.854 131.639C226.783 131.432 226.662 131.275 226.498 131.161C226.338 131.048 226.143 130.993 225.912 130.993C225.619 130.993 225.353 131.075 225.119 131.236C224.884 131.396 224.724 131.612 224.634 131.878C224.548 132.144 224.509 132.638 224.509 133.358V136.272H222.81V129.838H224.388V130.782C224.947 130.053 225.654 129.693 226.502 129.693C226.877 129.693 227.217 129.759 227.53 129.896C227.838 130.03 228.073 130.202 228.229 130.413C228.389 130.625 228.503 130.86 228.561 131.126C228.624 131.392 228.659 131.772 228.659 132.27V136.268L228.663 136.264Z" fill="white"/>
<path fill-rule="evenodd" clip-rule="evenodd" d="M230.187 136.691L232.129 136.926C232.16 137.153 232.234 137.306 232.351 137.392C232.511 137.513 232.765 137.572 233.113 137.572C233.555 137.572 233.887 137.505 234.11 137.372C234.258 137.282 234.371 137.141 234.45 136.941C234.5 136.8 234.528 136.538 234.528 136.162V135.222C234.02 135.915 233.379 136.264 232.605 136.264C231.742 136.264 231.058 135.9 230.558 135.167C230.163 134.592 229.964 133.871 229.964 133.01C229.964 131.933 230.222 131.107 230.738 130.539C231.257 129.971 231.902 129.685 232.672 129.685C233.441 129.685 234.121 130.034 234.637 130.735V129.83H236.227V135.602C236.227 136.362 236.165 136.93 236.04 137.306C235.915 137.681 235.739 137.975 235.512 138.191C235.286 138.406 234.985 138.57 234.606 138.692C234.231 138.813 233.754 138.872 233.18 138.872C232.093 138.872 231.32 138.684 230.866 138.308C230.413 137.936 230.183 137.462 230.183 136.89C230.183 136.836 230.183 136.765 230.191 136.683M231.703 132.916C231.703 133.597 231.836 134.098 232.097 134.419C232.363 134.737 232.691 134.893 233.078 134.893C233.492 134.893 233.844 134.733 234.129 134.408C234.414 134.083 234.559 133.597 234.559 132.959C234.559 132.293 234.422 131.8 234.149 131.475C233.875 131.154 233.527 130.989 233.109 130.989C232.703 130.989 232.367 131.15 232.101 131.467C231.839 131.78 231.707 132.266 231.707 132.916" fill="white"/>
<path fill-rule="evenodd" clip-rule="evenodd" d="M241.225 127.386H244.769C245.468 127.386 245.992 127.418 246.336 127.476C246.683 127.535 246.988 127.653 247.262 127.84C247.535 128.025 247.762 128.275 247.946 128.585C248.125 128.89 248.219 129.238 248.219 129.618C248.219 130.033 248.106 130.417 247.883 130.762C247.66 131.11 247.359 131.369 246.977 131.545C247.516 131.702 247.93 131.972 248.223 132.352C248.512 132.732 248.657 133.178 248.657 133.691C248.657 134.094 248.563 134.49 248.371 134.874C248.188 135.253 247.93 135.559 247.606 135.79C247.281 136.017 246.883 136.154 246.41 136.209C246.113 136.24 245.394 136.26 244.253 136.268H241.237V127.386H241.225ZM243.014 128.863V130.918H244.187C244.882 130.918 245.316 130.907 245.488 130.887C245.793 130.852 246.035 130.746 246.207 130.574C246.383 130.398 246.472 130.163 246.472 129.877C246.472 129.591 246.394 129.379 246.242 129.211C246.093 129.039 245.871 128.933 245.57 128.894C245.394 128.874 244.882 128.863 244.042 128.863H243.014ZM243.014 132.395V134.768H244.671C245.316 134.768 245.726 134.748 245.898 134.713C246.164 134.666 246.379 134.549 246.547 134.361C246.715 134.169 246.801 133.918 246.801 133.605C246.801 133.339 246.738 133.111 246.609 132.927C246.48 132.743 246.293 132.606 246.047 132.52C245.804 132.434 245.277 132.391 244.464 132.391H243.018L243.014 132.395Z" fill="white"/>
<path fill-rule="evenodd" clip-rule="evenodd" d="M254.326 136.264V135.301C254.092 135.645 253.783 135.915 253.4 136.111C253.021 136.307 252.619 136.409 252.197 136.409C251.775 136.409 251.38 136.315 251.036 136.123C250.693 135.935 250.446 135.669 250.294 135.324C250.142 134.98 250.063 134.506 250.063 133.899V129.83H251.763V132.787C251.763 133.691 251.794 134.247 251.853 134.451C251.919 134.651 252.033 134.815 252.197 134.936C252.361 135.054 252.572 135.113 252.826 135.113C253.115 135.113 253.377 135.034 253.604 134.878C253.834 134.717 253.99 134.517 254.076 134.283C254.162 134.044 254.201 133.464 254.201 132.544V129.83H255.901V136.264H254.323H254.326Z" fill="white"/>
<path fill-rule="evenodd" clip-rule="evenodd" d="M263.505 136.264H261.926V135.32C261.664 135.688 261.352 135.962 260.996 136.142C260.641 136.319 260.281 136.409 259.922 136.409C259.183 136.409 258.55 136.111 258.023 135.52C257.499 134.921 257.237 134.09 257.237 133.025C257.237 131.96 257.491 131.106 258.003 130.542C258.515 129.975 259.16 129.689 259.941 129.689C260.66 129.689 261.278 129.986 261.801 130.586V127.386H263.501V136.268L263.505 136.264ZM258.972 132.908C258.972 133.593 259.066 134.09 259.257 134.396C259.531 134.838 259.914 135.062 260.406 135.062C260.797 135.062 261.129 134.897 261.403 134.564C261.676 134.227 261.813 133.73 261.813 133.068C261.813 132.328 261.68 131.8 261.414 131.475C261.149 131.149 260.809 130.985 260.394 130.985C259.98 130.985 259.652 131.146 259.379 131.471C259.109 131.788 258.972 132.269 258.972 132.908Z" fill="white"/>
<path fill-rule="evenodd" clip-rule="evenodd" d="M271.023 136.264H269.444V135.32C269.182 135.688 268.87 135.962 268.514 136.142C268.158 136.319 267.799 136.409 267.439 136.409C266.701 136.409 266.068 136.111 265.541 135.52C265.017 134.921 264.755 134.09 264.755 133.025C264.755 131.96 265.013 131.106 265.525 130.542C266.037 129.975 266.681 129.689 267.463 129.689C268.182 129.689 268.799 129.986 269.323 130.586V127.386H271.023V136.268V136.264ZM266.49 132.908C266.49 133.593 266.584 134.09 266.775 134.396C267.049 134.838 267.432 135.062 267.924 135.062C268.315 135.062 268.647 134.897 268.92 134.564C269.194 134.227 269.331 133.73 269.331 133.068C269.331 132.328 269.198 131.8 268.932 131.475C268.666 131.149 268.326 130.985 267.912 130.985C267.498 130.985 267.17 131.146 266.896 131.471C266.627 131.788 266.49 132.269 266.49 132.908Z" fill="white"/>
<path fill-rule="evenodd" clip-rule="evenodd" d="M271.847 129.83H273.652L275.188 134.396L276.688 129.83H278.446L276.18 136.021L275.774 137.141C275.625 137.517 275.481 137.803 275.344 138.003C275.211 138.198 275.055 138.359 274.879 138.48C274.707 138.606 274.488 138.704 274.23 138.77C273.976 138.837 273.687 138.872 273.367 138.872C273.046 138.872 272.718 138.837 272.406 138.77L272.253 137.439C272.519 137.49 272.757 137.517 272.972 137.517C273.367 137.517 273.66 137.4 273.847 137.165C274.035 136.934 274.184 136.64 274.281 136.28L271.839 129.83H271.847Z" fill="white"/>
<path fill-rule="evenodd" clip-rule="evenodd" d="M123.789 128.154C123.789 128.154 124.008 131.768 117.998 132.861L108.492 132.532C108.492 132.532 105.87 131.655 106.417 128.808L107.402 128.369C107.402 128.369 106.636 124.755 110.571 122.895L110.899 119.719L111.883 118.842L111.801 113.132C111.801 113.132 107.941 112.228 107.831 108.942C107.722 105.657 107.831 104.67 107.831 104.67L110.016 104.779L110.125 103.029L109.981 102.673C109.981 102.673 110.012 102.7 109.578 101.388C109.14 100.072 108.593 99.5242 106.081 99.8532C106.081 99.8532 104.878 99.3049 104.878 98.647C104.878 97.9892 103.893 96.458 104.549 93.6111L96.0273 93.3918C96.0273 93.3918 95.2615 93.0629 95.0427 91.7471C94.8239 90.4352 95.0427 88.023 96.3555 87.4748C97.6684 86.9265 99.415 86.488 100.071 86.7073C100.071 86.7073 98.9774 82.8735 100.728 82.4349C100.728 82.4349 102.912 81.9963 103.131 82.5446C103.35 83.0928 107.066 87.6902 107.066 87.6902C107.066 87.6902 107.613 86.5937 109.25 86.813C110.891 87.0323 111.981 89.002 111.981 89.002H114.056C114.056 89.002 113.181 86.5937 113.618 84.8393C113.618 84.8393 112.911 83.4296 114.845 76.3456C114.845 76.3456 115.685 73.0131 120.198 70.3307C120.198 70.3307 124.602 67.6365 128.396 69.3987C128.396 69.3987 131.409 71.3136 132.534 73.4987C132.534 73.4987 135.027 73.6514 135.347 74.9985C135.347 74.9985 135.742 77.677 136.883 79.964C136.883 79.964 139.841 81.6439 135.457 84.1815L135.144 88.4499C135.144 88.4499 138.203 88.7788 138.969 88.7788C138.969 88.7788 140.282 88.5595 140.61 87.1341C140.939 85.7087 140.829 83.0811 143.123 82.5367C143.123 82.5367 144.979 82.8657 144.654 85.603C144.654 85.603 147.276 85.274 148.589 85.603C149.902 85.9319 152.708 89.5816 151.016 91.3046C149.812 92.5303 146.624 91.6296 146.624 91.6296C146.624 91.6296 147.171 92.6164 145.639 92.6164C144.107 92.6164 143.455 92.5068 143.455 92.5068C143.455 92.5068 144.33 95.9019 143.455 97.4331C142.58 98.9642 141.271 100.499 139.411 100.828C139.411 100.828 140.759 105.539 140.212 111.233L138.364 113.904C138.364 113.904 137.992 115.709 137.852 116.046C137.895 116.335 137.926 116.633 137.926 116.903C137.926 117.381 137.852 117.643 137.59 118.039L137.398 118.058C137.328 118.924 137.375 120.02 137.672 121.352C137.672 121.352 141.607 122.777 141.607 125.953V128.471C141.607 128.471 142.81 129.677 141.716 130.879C140.622 132.085 138.219 134.713 129.588 131.537C129.588 131.537 126.091 129.458 125.434 128.032L123.793 128.142L123.789 128.154Z" fill="#231F20"/>
<path d="M123.789 128.154C123.789 128.154 124.008 131.768 117.998 132.861L108.492 132.532C108.492 132.532 105.87 131.655 106.417 128.808L107.402 128.369C107.402 128.369 106.636 124.755 110.571 122.895L110.899 119.719L111.883 118.842L111.801 113.132C111.801 113.132 107.941 112.228 107.831 108.942C107.722 105.657 107.831 104.67 107.831 104.67L110.016 104.779L110.125 103.029L109.981 102.673C109.981 102.673 110.012 102.7 109.578 101.388C109.14 100.072 108.593 99.5242 106.081 99.8532C106.081 99.8532 104.878 99.3049 104.878 98.647C104.878 97.9892 103.893 96.458 104.549 93.6111L96.0273 93.3918C96.0273 93.3918 95.2615 93.0629 95.0427 91.7471C94.8239 90.4352 95.0427 88.023 96.3555 87.4748C97.6684 86.9265 99.415 86.488 100.071 86.7072C100.071 86.7072 98.9774 82.8735 100.728 82.4349C100.728 82.4349 102.912 81.9963 103.131 82.5446C103.35 83.0928 107.066 87.6902 107.066 87.6902C107.066 87.6902 107.613 86.5937 109.25 86.813C110.891 87.0323 111.981 89.002 111.981 89.002H114.056C114.056 89.002 113.181 86.5937 113.618 84.8393C113.618 84.8393 112.911 83.4296 114.845 76.3456C114.845 76.3456 115.685 73.0131 120.198 70.3307C120.198 70.3307 124.602 67.6365 128.396 69.3987C128.396 69.3987 131.409 71.3136 132.534 73.4987C132.534 73.4987 135.027 73.6514 135.347 74.9985C135.347 74.9985 135.742 77.677 136.883 79.964C136.883 79.964 139.841 81.6439 135.457 84.1815L135.144 88.4499C135.144 88.4499 138.203 88.7788 138.969 88.7788C138.969 88.7788 140.282 88.5595 140.61 87.1341C140.939 85.7087 140.829 83.0811 143.123 82.5367C143.123 82.5367 144.979 82.8657 144.654 85.603C144.654 85.603 147.276 85.274 148.589 85.603C149.902 85.9319 152.708 89.5816 151.016 91.3046C149.812 92.5303 146.624 91.6296 146.624 91.6296C146.624 91.6296 147.171 92.6164 145.639 92.6164C144.107 92.6164 143.455 92.5068 143.455 92.5068C143.455 92.5068 144.33 95.9019 143.455 97.4331C142.58 98.9642 141.271 100.499 139.411 100.828C139.411 100.828 140.759 105.539 140.212 111.233L138.364 113.904C138.364 113.904 137.992 115.709 137.852 116.046C137.895 116.335 137.926 116.633 137.926 116.903C137.926 117.381 137.852 117.643 137.59 118.039L137.398 118.058C137.328 118.924 137.375 120.02 137.672 121.352C137.672 121.352 141.607 122.777 141.607 125.953V128.471C141.607 128.471 142.81 129.677 141.716 130.879C140.622 132.085 138.219 134.713 129.588 131.537C129.588 131.537 126.091 129.458 125.434 128.032L123.793 128.142L123.789 128.154Z" stroke="#231F20" stroke-width="0.34" stroke-miterlimit="3.86"/>
<path fill-rule="evenodd" clip-rule="evenodd" d="M142.998 91.5513C143.689 91.6414 144.756 91.755 145.631 91.755C145.752 91.755 145.92 91.7315 146.006 91.7119C145.987 91.7902 145.956 91.8842 145.858 92.0604L146.671 90.7721C146.671 90.7721 149.417 91.9586 150.472 90.913C151.836 89.562 149.124 86.6485 148.37 86.4567C147.253 86.1747 144.815 86.4684 144.756 86.4762L143.654 86.6133L143.787 85.509C143.924 84.3616 143.599 83.8721 143.392 83.6685C143.291 83.5667 143.185 83.5001 143.099 83.457C142.49 83.6763 142.165 84.1345 141.947 84.7924C141.81 85.1996 141.736 85.6304 141.669 86.0377C141.595 86.5154 141.536 86.9657 141.45 87.3417C141.321 87.8977 141.083 88.3246 140.802 88.6535L142.998 91.5474V91.5513Z" fill="#E0A651"/>
<path fill-rule="evenodd" clip-rule="evenodd" d="M105.561 97.7423L105.628 97.9773C107.425 95.5376 108.574 92.3696 107.198 89.4875C107.109 89.2956 107.011 89.0998 106.941 88.9392C106.941 88.9392 105.448 87.0909 104.487 85.8691C104.006 85.2543 103.514 84.6199 103.131 84.1069C102.932 83.8406 102.764 83.6096 102.635 83.4216L102.459 83.1554C102.318 83.1397 102.123 83.1436 101.896 83.1554C101.462 83.1867 101.048 83.2572 100.923 83.2807C100.278 83.4412 100.704 85.8143 100.892 86.4683L101.345 88.0542L99.7862 87.5334C99.4892 87.4355 98.0513 87.7057 96.6798 88.2774C96.4297 88.3832 96.1367 88.7513 95.9608 89.5188C95.7967 90.2354 95.7967 91.0538 95.8905 91.606C95.9726 92.1033 96.1484 92.3618 96.2969 92.5302L105.624 92.769L105.385 93.8068C105.088 95.0951 105.167 96.0624 105.307 96.7829C105.385 97.1628 105.479 97.4839 105.557 97.7423" fill="#E0A651"/>
<path fill-rule="evenodd" clip-rule="evenodd" d="M109.051 99.2619C108.406 98.9094 107.507 98.8115 106.206 98.9447C110.11 93.6542 108.195 89.2761 107.644 88.2658L107.851 88.0661C107.886 88.0191 107.949 87.9525 108.039 87.886C108.203 87.7685 108.531 87.6079 109.125 87.6863C110.27 87.839 111.172 89.3623 111.211 89.4367L111.376 89.7343C111.872 92.73 110.461 96.7086 109.043 99.2579M118.413 90.5057C118.483 90.8582 118.569 91.2028 118.663 91.5396L118.432 94.8525C117.963 97.6054 116.514 99.5046 114.583 101.341L113.966 101.925C113.786 102.101 113.622 102.269 113.493 102.43C113.04 102.998 111.778 102.884 111.004 102.747L111.047 102.093L110.871 101.846C110.7 101.623 110.52 101.486 110.395 101.114C110.219 100.589 110.012 100.159 109.73 99.8258C112.411 95.1775 112.411 91.4025 112.259 89.8831H115.037C115.568 90.3021 116.314 90.5332 117.377 90.5567C117.705 90.5645 118.104 90.5214 118.104 90.5214C118.127 90.4901 118.135 90.4431 118.135 90.3922L118.409 90.5057H118.413Z" fill="white"/>
<path d="M109.051 99.2619C108.406 98.9094 107.507 98.8115 106.206 98.9447C110.11 93.6542 108.195 89.2761 107.644 88.2658L107.851 88.0661C107.886 88.0191 107.949 87.9525 108.039 87.886C108.203 87.7685 108.531 87.6079 109.125 87.6863C110.27 87.839 111.172 89.3623 111.211 89.4367L111.376 89.7343C111.872 92.73 110.461 96.7086 109.043 99.2579L109.051 99.2619ZM118.413 90.5057C118.483 90.8582 118.569 91.2028 118.663 91.5396L118.432 94.8525C117.963 97.6054 116.514 99.5046 114.583 101.341L113.966 101.925C113.786 102.101 113.622 102.269 113.493 102.43C113.04 102.998 111.778 102.884 111.004 102.747L111.047 102.093L110.871 101.846C110.7 101.623 110.52 101.486 110.395 101.114C110.219 100.589 110.012 100.159 109.73 99.8258C112.411 95.1775 112.411 91.4025 112.259 89.8831H115.037C115.568 90.3021 116.314 90.5332 117.377 90.5567C117.705 90.5645 118.104 90.5214 118.104 90.5214C118.127 90.4901 118.135 90.4431 118.135 90.3922L118.409 90.5057H118.413Z" stroke="#231F20" stroke-width="0.34" stroke-miterlimit="3.86"/>
<path fill-rule="evenodd" clip-rule="evenodd" d="M121.878 70.4834C122.527 71.1961 123.699 73.8707 123.805 74.9633C123.93 76.2477 122.805 76.4161 120.925 77.9237C119.046 79.4314 116.811 82.8461 115.916 83.085C115.58 83.1751 115.326 83.0811 115.138 82.9284L115.048 82.6347C114.818 81.8162 114.724 80.0619 115.678 76.5767C115.678 76.5767 115.724 76.4083 115.838 76.1302C115.974 75.813 116.193 75.3588 116.545 74.8341C117.252 73.765 118.503 72.3552 120.636 71.0826C120.652 71.0708 121.128 70.7889 121.875 70.4795" fill="#F5DF11"/>
<path fill-rule="evenodd" clip-rule="evenodd" d="M129.842 73.6358C129.842 73.6358 126.337 75.4058 125.028 74.603C124.618 74.3524 122.375 70.1075 123.82 69.8804C125.266 69.6532 127.994 69.9861 129.259 71.529C130.553 73.1071 129.842 73.6358 129.842 73.6358Z" fill="#F5DF11"/>
<path fill-rule="evenodd" clip-rule="evenodd" d="M121.378 94.645L121.429 94.6685C123.43 95.6475 126.052 95.7963 128.04 95.7963C128.658 95.7963 129.435 95.5692 130.232 95.1658C131.092 96.372 131.651 97.7974 131.651 99.305C131.651 101.451 130.139 100.233 128.474 101.232C127.216 101.987 122.785 101.498 121.476 101.333L121.382 94.6489H121.378V94.645Z" fill="white"/>
<path d="M121.378 94.645L121.429 94.6685C123.43 95.6475 126.052 95.7963 128.04 95.7963C128.658 95.7963 129.435 95.5692 130.232 95.1658C131.092 96.372 131.651 97.7974 131.651 99.305C131.651 101.451 130.139 100.233 128.474 101.232C127.216 101.987 122.785 101.498 121.476 101.333L121.382 94.6489H121.378V94.645Z" stroke="#231F20" stroke-width="0.34" stroke-miterlimit="3.86"/>
<path fill-rule="evenodd" clip-rule="evenodd" d="M123.074 88.6142C123.074 88.6142 122.394 92.401 126.853 92.4793C130.811 92.5498 131.268 87.6274 131.268 87.6274C129.846 89.5972 128.974 90.1454 126.243 90.1454C123.512 90.1454 123.074 88.6103 123.074 88.6103M125.387 82.4505C125.387 82.4505 124.446 81.9297 124.25 82.9009C124.055 83.872 125.126 84.1853 125.598 83.7898C126.071 83.3904 125.387 82.4505 125.387 82.4505ZM121.332 93.6306L121.226 93.5053L120.241 91.7235C119.694 90.5761 119.054 89.2291 118.936 87.5217C118.854 86.3195 118.854 85.3914 118.854 85.3914C118.854 85.3914 119.98 86.5545 120.515 86.7698C121.226 87.0557 121.98 88.0621 122.762 87.3416C126.29 84.0913 129.529 82.3409 134.347 83.6606C134.374 83.6762 134.273 88.3793 133.315 90.8307C133.034 91.5512 132.569 92.2169 132.014 92.7887C131.659 93.1568 131.272 93.4857 130.869 93.7716C129.846 94.5 128.759 94.9346 128.037 94.9346C126.505 94.9346 124.969 94.868 123.481 94.4882C122.683 94.2846 122.031 94.03 121.535 93.7637L121.472 93.7285L121.328 93.6345L121.332 93.6306Z" fill="#E0A651"/>
<path d="M123.074 88.6142C123.074 88.6142 122.394 92.401 126.853 92.4793C130.811 92.5498 131.268 87.6274 131.268 87.6274C129.846 89.5972 128.974 90.1454 126.243 90.1454C123.512 90.1454 123.074 88.6103 123.074 88.6103V88.6142ZM125.387 82.4505C125.387 82.4505 124.446 81.9297 124.25 82.9009C124.055 83.872 125.126 84.1853 125.598 83.7898C126.071 83.3904 125.387 82.4505 125.387 82.4505ZM121.332 93.6306L121.226 93.5053L120.241 91.7235C119.694 90.5761 119.054 89.2291 118.936 87.5217C118.854 86.3195 118.854 85.3914 118.854 85.3914C118.854 85.3914 119.98 86.5545 120.515 86.7698C121.226 87.0557 121.98 88.0621 122.762 87.3416C126.29 84.0913 129.529 82.3409 134.347 83.6606C134.374 83.6762 134.273 88.3793 133.315 90.8307C133.034 91.5512 132.569 92.2169 132.014 92.7887C131.659 93.1568 131.272 93.4857 130.869 93.7716C129.846 94.5 128.759 94.9346 128.037 94.9346C126.505 94.9346 124.969 94.868 123.481 94.4882C122.683 94.2846 122.031 94.03 121.535 93.7637L121.472 93.7285L121.328 93.6345L121.332 93.6306Z" stroke="#231F20" stroke-width="0.34" stroke-miterlimit="3.86"/>
<path fill-rule="evenodd" clip-rule="evenodd" d="M130.873 93.7676L132.018 92.7847C131.663 93.1528 131.276 93.4817 130.873 93.7676Z" fill="#231F20"/>
<path d="M130.873 93.7676L132.018 92.7847C131.663 93.1528 131.276 93.4817 130.873 93.7676Z" stroke="#231F20" stroke-width="0.34" stroke-miterlimit="3.86"/>
<path fill-rule="evenodd" clip-rule="evenodd" d="M117.401 89.6871H117.62C118.03 88.8217 117.764 87.8309 117.287 87.0477C116.674 86.0413 117.041 85.7163 115.959 85.4853C115.576 85.403 114.658 85.8455 114.548 85.8612C114.451 86.1901 114.748 87.6273 114.806 87.9445C115.045 89.2642 116.268 89.6558 117.401 89.6832" fill="#E0A651"/>
<path fill-rule="evenodd" clip-rule="evenodd" d="M138.758 100.073L139.254 99.9825C139.497 99.9394 139.727 99.8689 139.95 99.7789C140.528 97.8091 140.727 94.4688 139.372 92.4286C138.399 90.9679 135.812 90.8113 134.163 91.0423C133.901 91.7159 133.577 92.2563 133.19 92.7536C133.55 94.5589 134.245 97.5428 135.105 98.326C135.722 98.886 136.898 99.4617 137.856 99.8728C137.57 98.3495 135.554 98.232 135.91 94.6607L136.773 94.7468C136.425 98.2477 138.68 97.86 138.754 100.069" fill="white"/>
<path fill-rule="evenodd" clip-rule="evenodd" d="M141.001 99.1364C141.661 98.5882 142.228 97.8402 142.697 97.0139C143.357 95.8587 142.65 92.8865 142.611 92.7338L142.56 92.538L140.145 89.229C139.876 89.4013 139.634 89.4992 139.454 89.5579C139.247 89.6284 139.032 89.6598 138.969 89.6598C138.317 89.6598 135.507 89.3739 134.577 89.276C134.534 89.5775 134.484 89.8673 134.425 90.1414C134.882 90.1023 135.535 90.0709 136.242 90.1218C137.551 90.2197 139.212 90.6153 140.095 91.9428C141.454 93.9869 141.431 97.0061 141.001 99.1325" fill="white"/>
<path fill-rule="evenodd" clip-rule="evenodd" d="M124.883 123.224C124.883 123.224 123.781 122.335 123.14 122.229C122.507 122.123 121.683 122.017 120.945 122.017C119.964 122.017 119.374 121.634 118.795 120.921C117.756 119.613 116.877 119.073 115.005 119.382C114.154 119.523 113.04 119.578 112.337 119.597L111.719 120.146L111.375 123.474L110.934 123.682C109.219 124.492 108.582 125.644 108.343 126.556C108.218 127.026 108.195 127.453 108.203 127.754C108.21 128.024 108.375 128.886 108.375 128.886L107.21 129.407C107.136 130.899 108.308 131.518 108.664 131.67L117.932 131.991C120.698 131.471 121.894 130.409 122.425 129.614C122.703 129.199 122.824 128.823 122.879 128.561C122.922 128.346 122.914 127.343 122.914 127.343L125.966 127.139L126.216 127.684C126.696 128.722 129.478 130.472 129.959 130.766C134.144 132.297 136.703 132.375 138.282 132.019C139.833 131.666 140.556 130.875 141.067 130.311C141.564 129.763 141.083 129.195 140.985 129.101L140.731 128.847V125.969C140.731 123.49 137.516 122.241 137.371 122.186L136.922 122.025L136.816 121.559C136.519 120.216 136.457 119.084 136.515 118.156L136.179 118.188C136.179 118.188 133.581 118.513 132.385 118.732C131.365 118.916 126.364 122.981 125.258 123.893L124.883 123.235V123.224Z" fill="#231F20"/>
<path d="M109.066 125.287C109.14 125.197 109.215 125.103 109.285 125.001C109.207 125.095 109.133 125.193 109.066 125.287ZM108.085 128.667C108.05 128.451 108.343 127.872 108.339 127.754C108.332 127.449 108.355 127.026 108.476 126.556C108.582 126.161 108.757 125.726 109.066 125.287C109.133 125.193 109.207 125.095 109.285 125.001C109.684 124.528 110.254 124.066 111.067 123.682L111.508 123.474L113.646 123.228C113.646 123.228 112.77 124.543 112.333 124.868C111.895 125.197 111.239 126.948 111.239 128.483C111.239 129.556 110.453 129.019 109.836 128.867C109.836 128.498 108.586 128.718 108.078 128.667M121.081 129.904C122.269 129.148 121.718 130.989 117.92 131.984L108.8 131.666C108.664 131.608 108.402 131.478 108.14 131.255C108.05 131.138 107.953 131.028 107.82 130.926C107.57 130.613 107.37 130.194 107.347 129.642L107.378 129.387L107.413 129.372C107.804 129.407 108.445 129.497 109.156 129.732L109.187 129.744C109.355 129.916 109.676 129.979 109.937 130.01C110.914 130.127 111.469 130.778 112.559 130.887C113.653 130.997 117.475 131.106 118.241 130.449C119.006 129.791 119.878 130.668 121.081 129.9" fill="white"/>
<path fill-rule="evenodd" clip-rule="evenodd" d="M136.898 122.24C136.898 122.24 137.086 122.115 137.488 122.229C137.66 122.276 137.871 122.37 138.121 122.534C138.633 122.867 139.309 123.494 140.177 124.649C140.177 124.649 140.724 127.386 140.177 128.592L137.758 129.258C137.758 129.258 138.207 125.745 136.68 124.539C135.148 123.333 136.898 122.24 136.898 122.24Z" fill="white"/>
<path fill-rule="evenodd" clip-rule="evenodd" d="M136.789 130.562C138.328 130.46 140.157 128.616 140.825 128.937L140.981 129.094C141.403 129.794 140.438 131.024 138.973 131.655C137.926 132.105 135.183 131.987 133.28 131.768C132.393 131.565 131.397 131.275 130.283 130.879C129.49 130.421 128.744 129.826 129.029 129.466C129.466 128.917 130.557 129.575 130.557 129.575C130.557 129.575 135.148 130.672 136.785 130.562" fill="white"/>
<path fill-rule="evenodd" clip-rule="evenodd" d="M130.881 112.231C130.881 112.231 127.185 113.042 127.165 112.231C126.376 112.231 127.056 107.853 127.056 107.853C127.056 107.853 130.752 107.195 130.772 107.963C131.471 107.982 130.881 112.231 130.881 112.231Z" fill="white"/>
<path fill-rule="evenodd" clip-rule="evenodd" d="M139.024 111.198C139.024 111.198 138.723 112.443 138.051 111.084C137.606 110.18 135.855 105.614 136.07 104.408C136.07 104.408 137.164 103.64 138.254 104.408C139.348 105.175 139.239 108.789 139.239 108.789L139.02 111.198H139.024Z" fill="#F5DF11"/>
<path fill-rule="evenodd" clip-rule="evenodd" d="M108.488 105.625C108.488 105.625 111.012 106.64 111.68 106.812C112.348 106.984 111.813 108.183 111.813 109.557C111.813 110.932 111.411 111.958 111.411 111.958C111.411 111.958 109.137 110.587 108.871 109.557C108.605 108.527 108.343 107.349 108.496 106.941C108.648 106.534 108.492 105.629 108.492 105.629" fill="#F5DF11"/>
<path fill-rule="evenodd" clip-rule="evenodd" d="M112.606 107.199C112.606 107.199 113.829 107.168 113.81 107.552C113.79 107.939 113.81 109.04 113.622 109.709C113.435 110.375 113.31 111.358 112.981 111.824C112.653 112.29 112.274 112.094 112.321 111.209C112.368 110.32 112.524 108.781 112.544 108.378C112.563 107.975 112.606 107.199 112.606 107.199Z" fill="#F5DF11"/>
<path fill-rule="evenodd" clip-rule="evenodd" d="M138.637 112.65C138.637 112.65 139.231 115.807 139.426 116.735C139.618 117.647 140.493 120.365 140.587 119.973C140.685 119.582 140.286 116.911 140.095 116.065C139.903 115.219 139.618 111.871 139.618 111.871L138.637 112.654V112.65Z" fill="#231F20"/>
<path fill-rule="evenodd" clip-rule="evenodd" d="M108.777 105.339L112.372 106.604C112.372 106.604 113.728 106.988 113.345 106.604C112.962 106.22 111.508 105.437 110.821 105.437C110.133 105.437 108.777 105.343 108.777 105.343" fill="#F5DF11"/>
<path fill-rule="evenodd" clip-rule="evenodd" d="M118.889 105.782C118.495 105.747 118.381 105.79 117.893 106.201C117.401 106.612 117.541 107.27 117.244 107.411C116.947 107.552 116.35 106.643 117.205 105.868C118.065 105.093 118.882 103.922 119.769 104.114C120.14 104.192 121.402 104.27 121.714 104.4C122.152 104.58 122.269 104.869 122.461 104.92C122.789 105.007 123.055 104.689 123.336 104.654C123.617 104.619 123.863 105.042 123.863 105.042C123.863 105.042 123.957 106.565 123.621 106.538C123.285 106.506 123.133 106.322 122.805 106.181C122.476 106.04 121.683 106.083 121.429 106.401C121.175 106.722 121.238 106.663 121.238 106.663L121.085 107.106L119.077 106.929L118.964 106.295L118.893 105.782H118.889Z" fill="white"/>
<path fill-rule="evenodd" clip-rule="evenodd" d="M120.105 117.675C120.105 117.675 119.253 117.827 118.635 117.772C118.018 117.718 117.799 117.643 117.651 117.4C117.502 117.162 117.772 116.985 117.83 116.312L118.448 113.492C118.499 112.928 118.51 112.094 118.737 110.81C118.964 109.525 119.077 107.563 119.077 107.563L121.019 107.732C120.96 108.237 120.851 108.527 120.835 108.727C120.812 109.005 120.734 111.949 120.765 112.913C120.796 113.88 120.023 117.381 120.108 117.675" fill="#F5DF11"/>
<path fill-rule="evenodd" clip-rule="evenodd" d="M110.879 104.76L110.949 103.624C111.172 103.66 111.422 103.695 111.684 103.71C113.138 103.812 113.61 103.487 114.572 102.547L115.177 101.972C117.256 99.9981 118.784 97.9344 119.288 94.9779L119.421 93.0786C119.725 93.4859 120.093 93.8305 120.507 94.1242L120.616 102.089C122.507 102.367 127.329 102.931 128.916 101.976C130.459 101.048 132.514 102.363 132.514 99.305C132.514 97.6916 131.94 96.09 131.029 94.7703L131.405 94.4492C131.772 94.1868 132.127 93.8892 132.46 93.5642C132.561 94.0419 132.714 94.6998 132.905 95.3969C133.851 98.8429 134.39 99.1993 137.406 100.813C137.922 101.087 138.313 101.2 138.575 101.243C138.649 101.745 138.743 102.383 138.829 103.072C138.829 103.072 135.812 102.422 134.82 103.656C133.979 104.697 134.593 107.086 134.593 107.086C134.593 107.086 133.671 108.394 132.842 107.963C131.932 107.485 130.986 106.976 130.986 106.976C130.986 106.976 127.739 106.518 126.774 107.082C126.032 107.517 126.509 108.508 125.962 109.165C125.415 109.823 121.261 109.604 121.261 109.604L121.824 107.278L122.91 107.11C124.133 107.223 124.633 106.773 124.305 105.022C124.203 104.482 123.949 104.149 123.57 103.945C123.305 104.012 122.801 104.11 122.558 103.945C122.336 103.797 122.214 103.773 122.011 103.648C121.269 103.628 120.386 103.691 119.405 103.691C118.37 103.691 118.69 103.981 117.94 104.458C117.19 104.936 116.029 106.369 115.967 107.164C115.857 108.48 118.096 107.63 118.096 107.63L118.205 108.946L115.474 108.836C115.365 106.647 114.161 106.209 112.852 105.332C112.372 105.011 111.629 104.842 110.883 104.76M126.028 122.899C126.028 122.899 129.974 120.956 130.912 120.15C131.85 119.347 131.381 118.81 132.717 118.607C134.054 118.407 136.664 118.203 136.664 118.203C136.664 118.203 136.531 120.216 136.597 120.483C136.664 120.749 137.066 121.356 136.261 121.822C135.456 122.288 132.381 121.955 130.51 123.298C128.638 124.637 127.9 125.24 126.966 125.644C126.028 126.047 125.829 126.247 125.829 125.843C125.829 125.44 125.161 124.571 125.426 124.101C125.692 123.631 126.028 122.895 126.028 122.895M112.047 119.684C112.047 119.684 111.446 122.366 111.711 122.433C111.981 122.499 112.981 122.029 115.459 122.699C117.932 123.369 122.347 125.714 123.418 125.918C124.488 126.118 124.754 126.255 124.957 125.248C125.157 124.242 124.621 124.308 124.825 123.705L125.161 122.699C124.36 122.296 123.086 121.896 121.816 122.029C120.546 122.162 119.878 122.096 119.206 121.493C118.538 120.89 118.604 120.154 117.334 119.617C116.064 119.081 115.06 119.28 113.923 119.417C112.786 119.551 112.051 119.684 112.051 119.684M125.325 121.191L125.098 121.364C123.973 121.097 122.101 121.148 120.945 121.148C120.233 121.148 119.878 120.878 119.468 120.373C118.233 118.814 117.022 118.164 114.861 118.525C114.079 118.654 113.259 118.705 112.739 118.724L112.841 112.784L112.79 112.768L113.685 111.828L114.107 110.775C114.154 110.928 114.204 111.053 114.271 111.131C114.708 111.679 117.987 111.679 117.987 111.679C118.096 113.649 117.233 115.337 117.233 115.337L116.904 117.526C116.904 117.526 119.647 118.38 120.19 117.941C120.737 117.502 121.261 112.016 121.261 112.016L126.071 111.789L126.29 113.215C126.29 113.215 130.959 113.724 131.342 112.345C131.448 111.965 131.533 111.351 131.533 111.351C131.533 111.351 132.299 110.802 133.065 110.144C133.831 109.487 135.249 108.938 135.906 109.048C136.562 109.158 136.453 110.912 137 111.347C137.316 111.601 137.363 112.443 137.543 113.109C137.543 113.109 137.125 116.621 137.051 116.939C137.016 117.087 136.64 117.091 136.613 117.26L136.086 117.307C136.086 117.307 133.44 117.64 132.229 117.859C131.127 118.059 127.485 120.956 126.262 121.935L126.395 121.211C126.684 119.66 127.571 116.954 128.775 115.705H126.661L126.766 116.574C125.774 117.694 125.993 119.723 125.543 121.05C125.524 121.109 125.321 121.18 125.321 121.18" fill="#F5B41A"/>
<path fill-rule="evenodd" clip-rule="evenodd" d="M121.765 86.3391C120.159 86.2529 119.393 83.872 118.518 83.7937C118.424 83.7859 118.948 78.8518 128.204 75.3313C131.651 74.0195 133.151 75.2138 133.882 75.6093C134.616 76.0049 134.765 76.7881 134.609 77.3206C134.452 77.8571 137.59 81.5146 136.593 82.0864C135.64 82.6307 128.529 81.5734 125.293 84.0874C122.761 86.0532 123.394 86.4252 121.765 86.3391Z" fill="#F5DF11"/>
<path d="M127.392 84.518C127.294 84.4593 127.259 84.3927 127.271 84.3261C127.904 84.0716 128.556 83.8758 129.224 83.7505C130.428 84.8705 128.927 88.0228 125.997 87.5177C125.755 87.4746 125.438 87.3884 125.219 87.2631L125.641 86.5034C126.298 86.7619 126.911 86.7266 127.439 86.4878C128.111 86.1823 127.865 84.8 127.396 84.518" fill="#231F20"/>
<path d="M127.392 84.518C127.294 84.4593 127.259 84.3927 127.271 84.3261C127.904 84.0716 128.556 83.8758 129.224 83.7505C130.428 84.8705 128.927 88.0228 125.997 87.5177C125.755 87.4746 125.438 87.3884 125.219 87.2631L125.641 86.5034C126.298 86.7619 126.911 86.7266 127.439 86.4878C128.111 86.1823 127.865 84.8 127.396 84.518H127.392Z" stroke="#231F20" stroke-width="0.34" stroke-miterlimit="3.86"/>
</g>
</g>
<defs>
<clipPath id="clip0_175_2439">
<rect width="329" height="233" fill="white"/>
</clipPath>
</defs>
</svg>