<svg width="28" height="28" viewBox="0 0 28 28" fill="none" xmlns="http://www.w3.org/2000/svg">
<path d="M26.9564 0.000488281C27.026 0.0360895 27.0939 0.0760725 27.1657 0.107292C28.017 0.475902 28.2707 1.54504 27.6724 2.25377C27.5963 2.34415 27.5097 2.42576 27.4259 2.50956C23.6831 6.25152 19.9402 9.99404 16.1968 13.7349C16.1196 13.8121 16.0308 13.8773 15.9235 13.9682C16.0226 14.0723 16.0938 14.1501 16.1683 14.2246C19.943 17.9988 23.717 21.7742 27.4949 25.5458C27.908 25.9582 28.1041 26.4259 27.9398 27.0021C27.6642 27.9683 26.4787 28.3112 25.721 27.6484C25.6389 27.5767 25.5638 27.4967 25.4866 27.4195C21.7437 23.6775 18.0009 19.9356 14.2586 16.1925C14.1813 16.1153 14.1167 16.0265 14.0252 15.9186C13.9206 16.0183 13.8433 16.0895 13.7688 16.164C9.98707 19.9443 6.20587 23.7252 2.42359 27.5049C1.84452 28.0833 1.07097 28.1737 0.516554 27.6769C0.291939 27.4748 0.169223 27.1593 0.000488281 26.8953C0.000488281 26.7129 0.000488281 26.5311 0.000488281 26.3487C0.118274 25.9505 0.38562 25.6608 0.67214 25.3749C4.39033 21.6636 8.10469 17.9485 11.819 14.2339C11.8946 14.1583 11.9659 14.0794 12.0886 13.9502C11.985 13.874 11.887 13.8198 11.8108 13.7437C8.14578 10.0828 4.48347 6.41912 0.817318 2.75876C0.496832 2.4389 0.169771 2.1289 0.000488281 1.69511V1.03895C0.191137 0.537246 0.53792 0.19164 1.03919 0.000488281H1.69551C2.12994 0.169183 2.44002 0.496715 2.75996 0.817126C6.42282 4.48351 10.089 8.1466 13.7518 11.8124C13.8274 11.888 13.8767 11.9904 13.9386 12.0803C13.9786 12.0803 14.0186 12.0814 14.0586 12.0819C14.12 11.9915 14.1682 11.8891 14.2443 11.813C17.9072 8.1466 21.5733 4.48351 25.2362 0.817674C25.5561 0.497263 25.8662 0.169731 26.3001 0.000488281C26.5187 0.000488281 26.7373 0.000488281 26.9564 0.000488281Z" fill="white"/>
</svg>
