<svg width="36" height="27" viewBox="0 0 36 27" fill="none" xmlns="http://www.w3.org/2000/svg">
<path d="M0.293945 13.0908C0.541961 12.5521 0.861936 12.0937 1.47115 11.9738C1.60668 11.9468 1.74711 11.9314 1.88474 11.9314C12.7227 11.9292 23.5606 11.9292 34.3992 11.9307C35.2529 11.9307 35.9083 12.5009 35.9879 13.2969C36.071 14.1244 35.5855 14.843 34.8086 15.0206C34.6409 15.0586 34.4628 15.0535 34.2895 15.0535C23.6025 15.055 12.9155 15.0477 2.22847 15.0681C1.31395 15.0711 0.65514 14.7969 0.293945 13.8927V13.0908Z" fill="white"/>
<path d="M0.293945 25.0468C0.339357 24.9518 0.383371 24.8553 0.430179 24.761C0.694962 24.2237 1.10296 23.9035 1.69122 23.8728C1.93434 23.8604 2.17886 23.867 2.42269 23.867C13.0531 23.867 23.6835 23.867 34.3133 23.867C35.1943 23.867 35.7469 24.2617 35.9488 25.0307C36.1696 25.8706 35.6379 26.7785 34.8198 26.9364C34.5934 26.9803 34.358 26.989 34.1267 26.989C23.4733 26.9912 12.8198 26.9861 2.16629 27C1.26155 27.0015 0.616016 26.6901 0.293945 25.7763C0.293945 25.5329 0.293945 25.2902 0.293945 25.0468Z" fill="white"/>
<path d="M0.293945 1.20761C0.622304 0.296789 1.26575 -0.00145664 2.17327 5.3442e-06C12.8379 0.0168182 23.5033 0.0102393 34.168 0.0131632C34.4111 0.0131632 34.6612 0.0117012 34.8952 0.0694498C35.5869 0.23904 36.0396 0.938602 35.9907 1.71784C35.9467 2.42325 35.3836 3.03144 34.6898 3.11038C34.5054 3.13158 34.3189 3.13305 34.133 3.13305C23.4795 3.13378 12.8268 3.12793 2.17327 3.14401C1.26784 3.14547 0.621605 2.84869 0.293945 1.93641V1.20761Z" fill="white"/>
</svg>
