<svg width="223" height="46" viewBox="0 0 223 46" fill="none" xmlns="http://www.w3.org/2000/svg">
<path d="M16.3641 2.31836H0V6.01805C4.40765 6.33543 4.46095 7.23468 4.46095 10.4396V24.8774C4.46095 28.1259 4.35436 29.0283 0 29.3426V33.0423H14.502V29.3426H14.0756C13.0129 29.2523 10.9941 28.9816 10.3044 28.2162C9.61157 27.4476 9.72129 25.8234 9.72129 24.921V9.44703L18.7529 33.0423H24.7562L33.7878 9.80797V24.8774C33.7878 25.87 33.8411 27.6748 32.9383 28.3967C32.0887 29.0719 30.2297 29.299 29.1137 29.3426H28.6874V33.0423H48.0234V29.3426H47.6001C46.4841 29.2523 44.412 28.9816 43.7223 28.2162C43.0326 27.4476 43.1894 25.8234 43.1894 24.8774V10.4396C43.1894 9.44703 43.0295 7.68898 43.9323 6.92041C44.7286 6.24519 46.5876 6.06161 48.0234 6.01805V2.31836H31.0761L23.6402 21.5387L16.3641 2.31836Z" fill="#EC1C24"/>
<path d="M61.7853 10.3955H59.6598L50.2019 11.5686V15.2683H50.5749C54.3995 15.6292 54.2929 16.5316 54.2929 19.5094V25.104C54.2929 28.2187 54.2929 29.0744 50.042 29.3451V33.0448H66.9892V29.3451L66.5096 29.3016C63.0549 29.0744 63.1615 28.0383 63.1615 25.0605V16.7152C63.1615 16.264 63.9578 15.9933 64.754 15.9933C66.0832 15.9933 66.8262 17.3935 69.215 17.3935C71.447 17.3935 73.4126 16.0835 73.4126 14.0547C73.4126 11.7553 71.2871 10.4017 68.6852 10.4017C66.0832 10.4017 64.2211 11.2574 61.779 12.5207V10.4017L61.7853 10.3955Z" fill="#EC1C24"/>
<path fill-rule="evenodd" clip-rule="evenodd" d="M101.15 32.8899C104.868 32.8899 108.693 32.9366 111.934 31.0852C114.802 29.4609 116.291 26.7072 116.291 23.8227C116.291 20.26 113.636 17.3724 109.598 16.4234V16.3331C112.467 15.3405 114.699 12.6801 114.699 10.0166C114.699 7.30948 113 4.82954 110.185 3.56623C107.423 2.30293 103.172 2.16602 100.09 2.16602H80.5381V5.8657L81.7607 6.04618C85.162 6.54092 84.8423 7.8509 84.8423 10.2873V24.7687C84.8423 28.3314 84.789 28.6021 80.5381 29.1902V32.8899H101.15ZM94.2438 14.3915V9.33825C94.2438 8.70659 94.0839 7.35305 94.8269 6.94543C95.5166 6.53781 97.5354 6.49425 98.4383 6.49425C101.68 6.49425 105.611 7.21614 105.611 10.5984C105.611 13.9807 101.043 14.3884 98.0684 14.3884H94.2438V14.3915ZM94.2438 18.5455H98.2283C102.586 18.5455 106.41 18.9966 106.41 23.5085C106.41 27.3886 102.902 28.5617 98.8113 28.5617C97.6953 28.5617 95.7297 28.515 94.8269 27.8865C94.1372 27.3886 94.2438 26.396 94.2438 25.6741V18.5455Z" fill="#EC1C24"/>
<path d="M131.853 10.2437H128.345L118.891 11.4167V15.1164H119.264C123.088 15.4774 122.982 16.3797 122.982 19.3575V24.6815C122.982 27.0712 122.928 29.464 124.947 31.3123C126.7 32.9832 129.195 33.2539 131.747 33.2539C135.198 33.2539 138.013 32.4853 140.885 31.0882V32.893H152.412V29.2151L151.986 29.1715C148.641 28.9008 148.744 27.9051 148.744 24.9273V10.2468H145.396L135.941 11.4198V15.1195H136.311C139.976 15.4805 139.872 16.3828 139.872 19.3606V26.6698C138.28 27.5721 135.995 28.7888 133.922 28.6985C131.587 28.6985 131.85 26.3088 131.85 24.5943V10.2499L131.853 10.2437Z" fill="#EC1C24"/>
<path fill-rule="evenodd" clip-rule="evenodd" d="M166.964 10.2434H163.459L154.004 11.4164V15.1161H154.377C158.202 15.4771 158.098 16.3794 158.098 19.3572V24.9519C158.098 27.9733 158.152 28.8756 153.954 29.193V32.8927H170.582V29.193C166.81 28.7854 166.967 27.883 166.967 24.9519V10.2434H166.964ZM162.023 0C159.102 0 156.816 2.03187 156.816 4.51182C156.816 6.72105 158.995 8.75292 161.704 8.75292C164.519 8.75292 166.964 6.76772 166.964 4.33134C166.964 1.89496 164.838 0 162.023 0Z" fill="#EC1C24"/>
<path d="M185.444 0.180176H182.576C179.334 1.39681 175.883 2.02846 172.375 2.16537V5.86506C173.651 5.86506 175.137 6.00197 175.936 6.49672C176.679 6.99146 176.573 8.79619 176.573 9.56475V24.9485C176.573 28.0165 176.679 28.7384 172.961 29.1896V32.8893H189.006V29.1896L188.156 29.0091C186.987 28.8286 186.084 28.6917 185.714 27.6556C185.447 26.8901 185.447 25.717 185.447 24.9485V0.180176H185.444Z" fill="#EC1C24"/>
<path fill-rule="evenodd" clip-rule="evenodd" d="M219.013 0.180176H216.144C212.906 1.39681 209.451 2.02846 205.943 2.16537V5.86506C207.219 5.86506 208.705 6.00197 209.505 6.49672C210.248 6.99146 210.144 8.79619 210.144 9.56475V11.1454C208.498 10.2866 206.266 9.65499 204.194 9.65499C196.332 9.65499 191.604 15.6541 191.604 21.8369C191.604 24.9049 192.771 27.9294 195.216 30.1853C197.661 32.4412 200.316 33.2533 203.821 33.2533C206.476 33.2533 209.135 32.6684 211.1 31.1343V32.8924H223V29.1927C218.859 28.7851 219.016 27.973 219.016 24.9516V0.180176H219.013ZM210.141 26.5292C209.238 27.8392 207.059 28.6948 205.2 28.6948C201.642 28.6948 200.633 24.4537 200.633 22.1543C200.633 19.2667 201.642 14.2135 206 14.2135C207.752 14.2135 209.081 15.1594 210.144 16.1987V26.5292H210.141Z" fill="#EC1C24"/>
<path fill-rule="evenodd" clip-rule="evenodd" d="M119.135 40.2176C119.135 39.7104 119.26 39.2219 119.511 38.7489C119.762 38.2759 120.116 37.915 120.577 37.6629C121.038 37.414 121.555 37.2896 122.122 37.2896C123 37.2896 123.718 37.5727 124.282 38.1421C124.843 38.7053 125.122 39.421 125.122 40.2829C125.122 41.1542 124.837 41.876 124.27 42.4517C123.705 43.0242 122.994 43.3074 122.132 43.3074C121.599 43.3074 121.091 43.1891 120.608 42.9495C120.129 42.71 119.762 42.3615 119.511 41.904C119.26 41.4404 119.135 40.8803 119.135 40.2176ZM120.708 40.2985C120.708 40.871 120.846 41.3066 121.119 41.6116C121.392 41.9165 121.73 42.069 122.129 42.069C122.53 42.069 122.865 41.9165 123.135 41.6116C123.408 41.3097 123.546 40.8679 123.546 40.2891C123.546 39.7104 123.408 39.2903 123.135 38.9885C122.865 38.6867 122.53 38.5342 122.129 38.5342C121.727 38.5342 121.392 38.6867 121.119 38.9885C120.846 39.2934 120.708 39.729 120.708 40.3016V40.2985Z" fill="white"/>
<path d="M130.105 43.052V42.1901C129.895 42.4982 129.616 42.7409 129.268 42.9182C128.926 43.0956 128.562 43.1827 128.18 43.1827C127.797 43.1827 127.44 43.0987 127.13 42.9276C126.819 42.7564 126.597 42.52 126.459 42.2119C126.321 41.9039 126.252 41.4807 126.252 40.9362V37.2925H127.788V39.9404C127.788 40.7495 127.816 41.2473 127.87 41.4309C127.929 41.6114 128.033 41.7576 128.18 41.8634C128.33 41.9692 128.518 42.0221 128.747 42.0221C129.011 42.0221 129.246 41.9505 129.453 41.8105C129.66 41.6674 129.804 41.49 129.879 41.2784C129.954 41.0668 129.995 40.5472 129.995 39.7226V37.2925H131.531V43.052H130.105Z" fill="white"/>
<path d="M134.55 43.0519H133.014V37.2923H134.44V38.1107C134.685 37.7248 134.904 37.4697 135.095 37.3452C135.293 37.2239 135.515 37.1616 135.763 37.1616C136.111 37.1616 136.45 37.2581 136.772 37.4479L136.296 38.7765C136.039 38.6116 135.797 38.5276 135.575 38.5276C135.359 38.5276 135.177 38.5867 135.029 38.7081C134.879 38.8232 134.763 39.0348 134.675 39.3429C134.591 39.6509 134.55 40.295 134.55 41.2751V43.055V43.0519Z" fill="white"/>
<path fill-rule="evenodd" clip-rule="evenodd" d="M140.625 35.0986H143.826C144.459 35.0986 144.932 35.1266 145.24 35.1795C145.553 35.2293 145.832 35.3382 146.077 35.5063C146.324 35.6712 146.531 35.8952 146.694 36.1721C146.857 36.446 146.939 36.7571 146.939 37.0994C146.939 37.4728 146.835 37.8119 146.631 38.1262C146.431 38.4374 146.158 38.6707 145.813 38.8263C146.302 38.9695 146.675 39.2091 146.939 39.5482C147.202 39.8874 147.334 40.2888 147.334 40.7462C147.334 41.1071 147.249 41.4587 147.077 41.8041C146.91 42.1433 146.678 42.4171 146.384 42.6225C146.092 42.8247 145.732 42.9492 145.302 42.9959C145.033 43.0239 144.384 43.0425 143.352 43.0519H140.625V35.1017V35.0986ZM142.243 36.4242V38.2631H143.302C143.932 38.2631 144.324 38.2538 144.478 38.2351C144.757 38.204 144.973 38.1075 145.13 37.952C145.29 37.7933 145.371 37.5848 145.371 37.3296C145.371 37.0838 145.302 36.8847 145.164 36.7322C145.03 36.5766 144.826 36.4833 144.556 36.4491C144.396 36.4304 143.935 36.4211 143.174 36.4211H142.246L142.243 36.4242ZM142.243 39.5856V41.7108H143.741C144.324 41.7108 144.694 41.6952 144.851 41.661C145.092 41.6174 145.287 41.5116 145.434 41.3467C145.588 41.1787 145.663 40.9515 145.663 40.6684C145.663 40.4288 145.606 40.2265 145.487 40.0616C145.371 39.8967 145.202 39.7754 144.979 39.6976C144.76 39.6229 144.283 39.5824 143.547 39.5824H142.239L142.243 39.5856Z" fill="white"/>
<path d="M152.469 43.052V42.1901C152.259 42.4982 151.98 42.7409 151.632 42.9182C151.29 43.0956 150.926 43.1827 150.544 43.1827C150.155 43.1827 149.804 43.0987 149.497 42.9276C149.187 42.7564 148.961 42.52 148.826 42.2119C148.688 41.9039 148.619 41.4807 148.619 40.9362V37.2925H150.155V39.9404C150.155 40.7495 150.183 41.2473 150.237 41.4309C150.296 41.6114 150.4 41.7576 150.547 41.8634C150.698 41.9692 150.886 42.0221 151.115 42.0221C151.378 42.0221 151.613 41.9505 151.82 41.8105C152.027 41.6674 152.171 41.49 152.246 41.2784C152.321 41.0668 152.362 40.5472 152.362 39.7226V37.2925H153.898V43.052H152.472H152.469Z" fill="white"/>
<path fill-rule="evenodd" clip-rule="evenodd" d="M156.979 36.5116H155.443V35.1021H156.979V36.5116ZM156.979 36.5116H155.443ZM156.979 43.0522H155.443V37.2926H156.979V43.0522ZM156.979 43.0522H155.443Z" fill="white"/>
<path d="M160.049 35.0986H158.513V43.0488H160.049V35.0986Z" fill="white"/>
<path fill-rule="evenodd" clip-rule="evenodd" d="M166.901 43.052H165.475V42.2056C165.24 42.5355 164.957 42.7813 164.635 42.9431C164.315 43.1018 163.989 43.1827 163.663 43.1827C162.995 43.1827 162.424 42.9182 161.948 42.3861C161.475 41.8509 161.236 41.1072 161.236 40.152C161.236 39.1749 161.468 38.4344 161.929 37.9303C162.39 37.42 162.976 37.1649 163.682 37.1649C164.33 37.1649 164.892 37.4325 165.365 37.9676V35.105H166.901V43.0551V43.052ZM162.804 40.0462C162.804 40.6623 162.888 41.1073 163.061 41.3811C163.308 41.7794 163.653 41.9785 164.098 41.9785C164.453 41.9785 164.754 41.8291 165.001 41.5335C165.249 41.2348 165.374 40.7868 165.374 40.1955C165.374 39.5328 165.255 39.0567 165.014 38.7673C164.772 38.4748 164.465 38.3286 164.092 38.3286C163.729 38.3286 163.421 38.4748 163.174 38.7642C162.929 39.0505 162.807 39.4768 162.807 40.0493L162.804 40.0462Z" fill="white"/>
<path fill-rule="evenodd" clip-rule="evenodd" d="M169.911 36.5116H168.375V35.1021H169.911V36.5116ZM169.911 36.5116H168.375ZM169.911 43.0522H168.375V37.2926H169.911V43.0522ZM169.911 43.0522H168.375Z" fill="white"/>
<path d="M176.723 43.0521H175.187V40.1116C175.187 39.4893 175.156 39.0879 175.09 38.9074C175.024 38.7238 174.917 38.5807 174.767 38.478C174.62 38.3753 174.444 38.3255 174.237 38.3255C173.971 38.3255 173.732 38.3971 173.522 38.5434C173.309 38.6865 173.165 38.8794 173.087 39.119C173.011 39.3586 172.971 39.7973 172.971 40.4414V43.0489H171.435V37.2894H172.861V38.1357C173.366 37.4854 174.005 37.1587 174.773 37.1587C175.112 37.1587 175.422 37.2209 175.701 37.3423C175.98 37.4605 176.193 37.6161 176.334 37.8028C176.479 37.9895 176.579 38.2042 176.635 38.4438C176.695 38.6834 176.723 39.0256 176.723 39.4675V43.0458V43.0521Z" fill="white"/>
<path fill-rule="evenodd" clip-rule="evenodd" d="M178.096 43.4315L179.848 43.6431C179.877 43.8453 179.946 43.9854 180.052 44.06C180.196 44.1689 180.428 44.2218 180.742 44.2218C181.143 44.2218 181.444 44.1627 181.645 44.0414C181.779 43.9636 181.883 43.8329 181.952 43.6555C181.999 43.5279 182.021 43.2946 182.024 42.9554V42.1153C181.566 42.7376 180.986 43.0488 180.287 43.0488C179.507 43.0488 178.889 42.722 178.435 42.0686C178.077 41.5521 177.898 40.908 177.898 40.1394C177.898 39.1748 178.13 38.4374 178.598 37.9271C179.068 37.4168 179.651 37.1616 180.347 37.1616C181.065 37.1616 181.657 37.4759 182.121 38.0982V37.2892H183.557V42.4576C183.557 43.1359 183.5 43.6462 183.388 43.9822C183.275 44.3183 183.115 44.5828 182.911 44.7757C182.707 44.9655 182.435 45.118 182.093 45.2269C181.754 45.3358 181.325 45.3887 180.804 45.3887C179.82 45.3887 179.124 45.2207 178.714 44.8846C178.303 44.5517 178.096 44.1285 178.096 43.6151C178.096 43.5653 178.096 43.5031 178.102 43.4315M179.469 40.0523C179.469 40.6622 179.588 41.1133 179.823 41.3965C180.065 41.6797 180.359 41.8197 180.707 41.8197C181.083 41.8197 181.4 41.6734 181.657 41.3841C181.914 41.0916 182.046 40.6591 182.046 40.0865C182.046 39.4891 181.924 39.0472 181.676 38.7579C181.428 38.4685 181.115 38.3254 180.736 38.3254C180.366 38.3254 180.065 38.4685 179.823 38.7548C179.585 39.0379 179.469 39.4673 179.469 40.0492V40.0523Z" fill="white"/>
<path fill-rule="evenodd" clip-rule="evenodd" d="M188.077 35.1021H191.278C191.911 35.1021 192.381 35.1301 192.692 35.183C193.005 35.2327 193.284 35.3416 193.529 35.5097C193.776 35.6746 193.983 35.8986 194.146 36.1756C194.309 36.4494 194.391 36.7605 194.391 37.1028C194.391 37.4762 194.29 37.8154 194.084 38.1265C193.883 38.4377 193.61 38.6711 193.265 38.8266C193.754 38.9698 194.127 39.2094 194.391 39.5485C194.654 39.8877 194.786 40.2891 194.786 40.7465C194.786 41.1074 194.701 41.459 194.529 41.8044C194.363 42.1436 194.131 42.4174 193.836 42.6228C193.544 42.825 193.184 42.9495 192.754 42.9962C192.485 43.0242 191.836 43.0428 190.805 43.0522H188.077V35.1021ZM189.695 36.4245V38.2634H190.754C191.384 38.2634 191.776 38.2541 191.93 38.2354C192.206 38.2043 192.422 38.1079 192.579 37.9523C192.739 37.7936 192.82 37.5851 192.82 37.33C192.82 37.0841 192.751 36.885 192.613 36.7325C192.479 36.5769 192.275 36.4836 192.008 36.4494C191.848 36.4307 191.388 36.4214 190.626 36.4214H189.698L189.695 36.4245ZM189.695 39.5859V41.7111H191.193C191.776 41.7111 192.146 41.6955 192.303 41.6613C192.544 41.6177 192.739 41.5119 192.886 41.347C193.04 41.179 193.115 40.9519 193.115 40.6687C193.115 40.4291 193.055 40.2269 192.939 40.0619C192.823 39.897 192.654 39.7757 192.432 39.6979C192.212 39.6232 191.736 39.5828 190.999 39.5828H189.692L189.695 39.5859Z" fill="white"/>
<path d="M199.921 43.052V42.1901C199.708 42.4982 199.432 42.7409 199.084 42.9182C198.742 43.0956 198.379 43.1827 197.996 43.1827C197.608 43.1827 197.256 43.0987 196.946 42.9276C196.636 42.7564 196.413 42.52 196.275 42.2119C196.137 41.9039 196.068 41.4807 196.068 40.9362V37.2925H197.604V39.9404C197.604 40.7495 197.633 41.2473 197.686 41.4309C197.746 41.6114 197.849 41.7576 197.996 41.8634C198.147 41.9692 198.335 42.0221 198.564 42.0221C198.827 42.0221 199.059 41.9505 199.269 41.8105C199.476 41.6674 199.62 41.49 199.695 41.2784C199.771 41.0668 199.811 40.5472 199.811 39.7226V37.2925H201.348V43.052H199.921Z" fill="white"/>
<path fill-rule="evenodd" clip-rule="evenodd" d="M208.22 43.052H206.793V42.2056C206.555 42.5355 206.276 42.7813 205.95 42.9431C205.63 43.1018 205.304 43.1827 204.978 43.1827C204.314 43.1827 203.74 42.9182 203.263 42.3861C202.79 41.8509 202.555 41.1072 202.552 40.152C202.552 39.1749 202.784 38.4344 203.245 37.9303C203.705 37.42 204.292 37.1649 204.997 37.1649C205.646 37.1649 206.207 37.4325 206.68 37.9676V35.105H208.217V43.0551L208.22 43.052ZM204.122 40.0462C204.122 40.6623 204.207 41.1073 204.379 41.3811C204.627 41.7794 204.975 41.9785 205.417 41.9785C205.771 41.9785 206.072 41.8291 206.32 41.5335C206.568 41.2348 206.693 40.7868 206.693 40.1955C206.693 39.5328 206.574 39.0567 206.332 38.7704C206.091 38.478 205.784 38.3317 205.408 38.3317C205.044 38.3317 204.737 38.4779 204.489 38.7673C204.245 39.0536 204.122 39.4799 204.122 40.0524V40.0462Z" fill="white"/>
<path fill-rule="evenodd" clip-rule="evenodd" d="M215.013 43.052H213.586V42.2056C213.348 42.5355 213.069 42.7813 212.743 42.9431C212.423 43.1018 212.097 43.1827 211.771 43.1827C211.103 43.1827 210.533 42.9182 210.056 42.3861C209.583 41.8509 209.345 41.1072 209.345 40.152C209.345 39.1749 209.577 38.4344 210.038 37.9303C210.502 37.42 211.085 37.1649 211.793 37.1649C212.442 37.1649 213.003 37.4325 213.477 37.9676V35.105H215.013V43.0551V43.052ZM210.915 40.0462C210.915 40.6623 211 41.1073 211.172 41.3811C211.42 41.7794 211.765 41.9785 212.21 41.9785C212.564 41.9785 212.865 41.8291 213.113 41.5335C213.361 41.2348 213.486 40.7868 213.486 40.1955C213.486 39.5328 213.367 39.0567 213.125 38.7673C212.884 38.4748 212.577 38.3286 212.201 38.3286C211.824 38.3286 211.53 38.4748 211.282 38.7642C211.038 39.0505 210.915 39.4768 210.915 40.0493V40.0462Z" fill="white"/>
<path d="M215.762 37.2925H217.395L218.784 41.3811L220.138 37.2925H221.727L219.677 42.8342L219.31 43.8393C219.176 44.1753 219.047 44.4305 218.922 44.6078C218.803 44.7852 218.661 44.9283 218.502 45.0372C218.345 45.1493 218.151 45.2364 217.919 45.2986C217.69 45.3609 217.429 45.392 217.138 45.392C216.843 45.392 216.552 45.3609 216.27 45.2986L216.135 44.1069C216.376 44.1536 216.592 44.1784 216.784 44.1784C217.141 44.1784 217.404 44.0727 217.577 43.8642C217.749 43.6588 217.878 43.3943 217.972 43.0738L215.765 37.2987L215.762 37.2925Z" fill="white"/>
<path d="M115.517 43.2139V39.6947L112.433 34.853H114.426L116.408 38.1607L118.351 34.853H120.311L117.213 39.7071V43.2139H115.517Z" fill="white"/>
</svg>
