<svg width="411" height="404" viewBox="0 0 411 404" fill="none" xmlns="http://www.w3.org/2000/svg">
<path fill-rule="evenodd" clip-rule="evenodd" d="M63.7654 355.698C63.0244 355.341 62.3231 354.878 61.7012 354.283L55.0719 347.986C54.5691 347.656 54.0928 347.246 53.6429 346.783L49.4086 342.365C49.0778 342.021 48.7867 341.65 48.5221 341.267C48.1516 340.989 47.7943 340.685 47.4635 340.341L43.1763 335.87C42.7926 335.473 42.4618 335.05 42.1707 334.6C41.8399 334.309 41.5223 333.978 41.2312 333.621L35.515 326.584C33.0009 323.489 33.1332 319.097 35.8193 316.148L36.3222 315.592C36.2428 315.499 36.1766 315.394 36.0972 315.288C34.205 312.603 33.464 309.415 34.0198 306.174C34.1521 305.394 34.3638 304.64 34.6285 303.912C24.8764 303.581 16.5535 297.087 15.9051 286.478C15.9051 286.425 15.9051 286.385 15.9051 286.333C12.8882 284.401 10.5197 281.478 9.03771 277.986C6.88089 272.907 5.38567 267.47 4.14186 262.1C2.60694 255.486 1.49545 248.753 0.833853 241.994C0.675069 240.314 0.529516 238.647 0.436892 236.967C0.0399314 230.565 -0.0262287 224.123 0.000235309 217.695C0.0266994 213.515 0.119324 209.321 0.503052 205.155C0.952941 200.3 1.79979 195.194 5.05487 191.332C8.13793 187.681 12.6501 185.737 17.2945 185.075C19.0544 184.824 20.8936 184.745 22.7196 184.864C23.7253 174.916 25.6042 165.062 28.3565 155.445L16.9372 130.604C15.3362 127.125 16.3815 123.104 19.4645 120.829L24.5986 117.046C18.0884 116.239 11.565 114.149 8.42904 108.977C5.0681 103.408 3.32147 96.6487 4.49912 90.1804C6.32514 80.0613 14.3173 74.0163 23.7253 71.2253C35.7002 67.6671 51.1553 75.3788 62.9715 83.1434C65.856 69.4131 71.3606 52.9844 82.4225 47.032C91.0234 42.4023 101.027 41.0796 109.416 46.9394C111.057 48.077 112.512 49.4262 113.796 50.9209C131.05 41.9262 149.707 35.9737 169.013 33.2092C174.981 32.3494 181.001 31.807 187.035 31.5689C191.269 24.5054 196.959 18.3413 203.337 13.2223C207.095 10.1535 211.977 7.3492 216.384 5.39152C225.778 1.21159 236.179 -0.494767 246.195 2.5079C246.553 2.61372 246.844 2.71954 247.188 2.87827C254.24 6.0529 262.749 11.4101 268.438 17.5345C275.398 17.9181 282.782 20.6297 285.481 27.4419C285.574 27.6668 285.64 27.8652 285.706 28.1033C287.334 33.5663 290.258 40.0743 293.434 45.0743C296.04 46.6616 298.33 48.9897 299.666 51.6088C302.498 57.1114 301.307 62.5083 298.422 67.1909C299.375 67.9184 300.314 68.6724 301.254 69.4131C302.167 61.1326 305.938 54.3601 314.062 51.1458C315.134 50.7225 316.127 50.5505 317.278 50.5902C320.361 50.6961 323.642 52.032 326.077 53.8574C328.776 55.8945 330.642 58.54 331.859 61.4898C336.041 60.749 340.394 60.2861 343.808 60.6432C350.053 61.2914 356.643 66.966 360.454 71.6618C366.236 78.8047 369.703 88.6989 363.696 96.8471C359.567 102.429 351.84 104.413 344.589 104.612C342.763 106.821 340.024 108.21 337.02 108.884C349.352 127.773 357.702 148.858 361.724 171.067C363.153 170.538 364.662 170.155 366.21 169.93C376.015 168.528 385.383 172.562 389.339 182.006C389.525 182.456 389.71 182.932 389.869 183.395C390.385 183.197 390.901 183.025 391.417 182.853C399.091 180.274 407.52 184.03 410.206 191.795C412.667 198.885 409.254 206.544 402.545 209.784C402.32 209.89 402.095 209.996 401.857 210.089C399.396 211.107 396.829 212.589 394.407 214.15C394.407 217.02 394.262 219.877 393.971 222.734C392.594 236.319 387.368 254.176 378.476 264.705L378.304 264.917C372.257 272.073 366.302 277.497 356.63 278.885C353.044 279.401 349.445 279.071 346.137 277.735C344.39 281.187 342.525 284.56 340.566 287.867C341.81 287.126 343.186 286.597 344.668 286.346C347.711 285.817 350.781 286.346 353.388 288.039C356.22 289.864 358.152 292.602 358.826 295.909C359.369 298.608 359.025 301.306 357.834 303.727C357.9 303.886 357.953 304.058 358.006 304.229C361.063 306.862 361.711 311.452 359.369 314.838L356.114 319.547C355.188 320.896 353.904 321.862 352.488 322.431C352.316 323.952 351.721 325.447 350.662 326.703L342.524 336.359C341.611 337.444 340.513 338.224 339.269 338.687C339.137 339.031 338.978 339.375 338.82 339.719C337.986 341.412 336.835 342.92 335.472 344.23C333.99 345.645 332.336 346.902 330.47 347.762C330.364 347.814 330.245 347.867 330.139 347.907C329.689 348.899 329.015 349.812 328.141 350.579L318.654 358.912C317.476 359.944 316.166 360.579 314.711 360.804C314.142 361.862 313.321 362.815 312.263 363.555L307.711 366.743C307.46 366.915 307.208 367.074 306.944 367.219C306.719 367.418 306.48 367.603 306.229 367.775L301.32 371.214C300.83 371.558 300.301 371.836 299.772 372.061C299.6 372.18 299.428 372.285 299.256 372.391L290.271 377.616C289.292 378.185 288.233 378.529 287.162 378.648C285.561 380.024 283.483 381.108 281.644 382.021L275.451 385.09C274.274 385.672 273.003 385.95 271.773 385.923C270.238 387.352 268.438 388.423 266.493 389.204C264.469 390.01 262.325 390.447 260.142 390.421C259.613 390.421 259.097 390.381 258.581 390.315C257.641 391.452 256.371 392.339 254.876 392.828L249.173 394.653C247.545 395.169 245.865 395.143 244.343 394.653C242.345 396.413 239.923 397.537 237.317 398.145C234.511 398.78 231.627 398.873 228.848 398.066C228.769 398.04 228.676 398.013 228.597 397.987C228.081 398.397 227.538 398.767 226.956 399.098C224.984 400.249 222.801 400.91 220.538 401.175C218.382 401.426 216.185 401.307 214.081 400.725C213.181 400.474 212.321 400.143 211.501 399.72C210.045 401.466 207.862 402.577 205.414 402.59L199.685 402.63C198.123 402.63 196.668 402.206 195.424 401.439C195.305 401.505 195.173 401.558 195.054 401.624C192.645 402.749 190.025 403.106 187.405 403C184.494 402.881 181.623 402.246 179.149 400.645C176.74 399.098 174.888 396.928 173.962 394.217L173.115 394.151C172.334 398.463 168.179 401.36 163.852 400.606L158.202 399.614C156.204 399.27 154.511 398.198 153.333 396.73C151.52 397.802 149.297 398.159 147.114 397.55L142.073 396.148C141.728 396.056 141.411 395.936 141.093 395.804C140.749 395.751 140.405 395.685 140.061 395.593L136.528 394.614C136.171 394.508 135.814 394.389 135.483 394.243C135.126 394.19 134.755 394.124 134.398 394.018L129.357 392.616C127.994 392.233 126.816 391.518 125.877 390.579C123.865 390.579 121.88 390.169 119.988 389.455C118.003 388.701 116.164 387.629 114.59 386.201C113.385 386.201 112.155 385.936 111.004 385.368L106.028 382.894C105.751 382.762 105.486 382.603 105.248 382.444C104.97 382.338 104.692 382.219 104.414 382.087L99.042 379.428C98.0496 378.939 97.1895 378.251 96.5146 377.457C95.5884 377.312 94.6754 377.008 93.8153 376.532L88.5887 373.608C86.7229 372.563 85.4394 370.883 84.8572 368.992C83.4943 368.899 82.1447 368.582 80.8612 368.053C79.3527 367.431 77.9104 366.505 76.5607 365.579L70.3682 361.267C69.7859 360.857 69.2699 360.394 68.8332 359.865C68.5421 359.68 68.2643 359.481 67.9996 359.256L63.8051 355.738L63.7654 355.698Z" fill="white"/>
<g style="mix-blend-mode:multiply" opacity="0.5">
<path d="M145.724 103.567L97.2686 108.408L96.1042 108.527L95.125 109.175L34.4297 149.453L38.5845 158.501L39.5108 157.522L99.3989 117.773L147.709 112.945L149.098 112.919L145.724 103.567Z" fill="#640000"/>
</g>
<path fill-rule="evenodd" clip-rule="evenodd" d="M170.177 41.1327C259.441 28.3416 342.101 89.7838 354.791 178.369C367.493 266.954 305.422 349.124 216.159 361.915C126.895 374.706 44.2349 313.264 31.5454 224.679C18.8426 136.094 80.9141 53.9238 170.177 41.1327Z" fill="#8C0100"/>
<path d="M214.675 351.539C298.171 339.585 356.235 262.73 344.365 179.877C332.496 97.0244 255.188 39.5493 171.692 51.5028C88.1971 63.4563 30.1328 140.312 42.0022 223.165C53.8717 306.017 131.18 363.492 214.675 351.539Z" fill="#8C0100"/>
<path d="M214.675 351.539C298.171 339.585 356.235 262.73 344.365 179.877C332.496 97.0244 255.188 39.5493 171.692 51.5028C88.1971 63.4563 30.1328 140.312 42.0022 223.165C53.8717 306.017 131.18 363.492 214.675 351.539Z" stroke="white" stroke-width="3.02" stroke-miterlimit="22.93"/>
<path fill-rule="evenodd" clip-rule="evenodd" d="M55.6275 107.959C55.6275 107.959 31.3996 83.2626 12.3984 91.5828C13.3511 86.3579 17.2281 81.4901 26.0142 78.8711C42.4748 73.9901 74.364 101.596 74.364 101.596L55.6275 107.959Z" fill="#FF6600"/>
<path fill-rule="evenodd" clip-rule="evenodd" d="M23.8571 90.0613C23.8571 90.0613 22.1369 102.059 44.1418 98.6063C50.9695 103.236 55.614 107.971 55.614 107.971C55.614 107.971 20.2845 113.077 15.2827 104.837C12.9539 101.001 11.5513 96.1592 12.3717 91.6089C16.0767 89.9952 19.9669 89.6248 23.8439 90.0745" fill="#CE5200"/>
<path fill-rule="evenodd" clip-rule="evenodd" d="M85.7169 95.5639C85.7169 95.5639 85.492 60.9738 104.85 53.5002C100.497 50.4578 94.3045 49.7303 86.233 54.0822C71.1087 62.2172 67.9463 104.254 67.9463 104.254L85.7169 95.5772V95.5639Z" fill="#FF6600"/>
<path fill-rule="evenodd" clip-rule="evenodd" d="M95.6278 60.4847C95.6278 60.4847 105.314 67.7863 87.2519 80.8288C85.6641 88.924 85.717 95.5643 85.717 95.5643C85.717 95.5643 114.391 74.2943 112.115 64.9292C111.056 60.5641 108.648 56.1461 104.851 53.4873C101.079 54.9423 98.0625 57.4159 95.6278 60.4715" fill="#CE5200"/>
<path fill-rule="evenodd" clip-rule="evenodd" d="M85.0826 82.4157L24.2285 127.257L78.0696 244.427L141.16 218.435L181.187 201.94L137.442 80.6167L85.0826 82.4157Z" fill="#EC1C24"/>
<path fill-rule="evenodd" clip-rule="evenodd" d="M141.159 218.435L85.082 82.4157L137.441 80.6167L181.186 201.94L141.159 218.435Z" fill="#7C0000"/>
<path fill-rule="evenodd" clip-rule="evenodd" d="M47.4502 110.154L104.692 233.462L116.376 228.647L57.8109 102.509L47.4502 110.154Z" fill="#FF6600"/>
<path fill-rule="evenodd" clip-rule="evenodd" d="M107.828 81.6353L152.367 213.819L164.064 208.991L121.007 81.1855L107.828 81.6353Z" fill="#CE5200"/>
<path fill-rule="evenodd" clip-rule="evenodd" d="M322.134 98.1833C325.231 98.1436 329.994 97.9849 333.858 97.4293C334.4 97.35 335.115 97.1383 335.486 97.0061C335.459 97.3632 335.366 97.7865 335.049 98.6198L337.828 92.4425C337.828 92.4425 350.663 95.9214 354.645 90.67C359.793 83.871 346.031 72.7863 342.591 72.4292C337.484 71.9001 326.951 74.7175 326.686 74.7969L321.936 76.1064L321.817 71.1726C321.698 66.0535 319.964 64.109 318.919 63.3418C318.403 62.9582 317.9 62.7333 317.49 62.6011C314.936 63.9371 313.811 66.1593 313.256 69.1884C312.925 71.0535 312.846 72.998 312.819 74.8366C312.793 76.9795 312.819 79.0033 312.673 80.6964C312.462 83.2097 311.668 85.2467 310.649 86.8605L322.134 98.1833ZM161.259 148.964L161.696 149.956C168.074 138.104 171.144 123.488 163.271 111.689C162.741 110.908 162.199 110.101 161.802 109.44C161.802 109.44 154.074 102.271 149.073 97.5087C146.559 95.1145 144.005 92.6409 142.007 90.6304C140.975 89.5986 140.075 88.6727 139.4 87.9319L138.461 86.8737C137.839 86.9002 136.979 87.0192 135.973 87.2441C134.094 87.6541 132.321 88.2362 131.778 88.4081C129.039 89.5192 132.414 99.678 133.644 102.429L136.635 109.096L129.436 107.8C128.06 107.548 121.907 109.652 116.231 113.025C115.199 113.646 114.14 115.445 113.849 118.924C113.571 122.178 114.1 125.763 114.855 128.131C115.53 130.26 116.456 131.292 117.223 131.927L158.428 127.099L158.031 131.795C157.528 137.628 158.481 141.834 159.566 144.903C160.135 146.53 160.77 147.866 161.259 148.964ZM177.574 153.422C174.505 152.297 170.495 152.416 164.859 153.819C178.712 128.131 167.518 110.115 164.475 106.027L165.255 105.022C165.388 104.797 165.613 104.453 165.97 104.109C166.618 103.474 167.955 102.575 170.628 102.548C175.762 102.496 180.697 108.62 180.922 108.924L181.848 110.128C185.924 122.959 182.206 141.332 177.574 153.422ZM213.261 109.083L212.004 108.752C212.031 108.977 212.031 109.175 211.938 109.334C211.938 109.334 210.218 109.784 208.776 109.956C204.078 110.511 200.651 109.969 198.044 108.474L185.805 110.234C187.419 116.808 189.814 133.382 180.935 155.472C182.378 156.768 183.569 158.528 184.667 160.723C185.448 162.284 186.321 162.76 187.221 163.633L188.147 164.612L188.385 167.522C191.878 167.628 197.502 167.337 199.143 164.559C199.593 163.779 200.214 162.932 200.903 162.046L203.245 159.083C210.588 149.811 215.775 140.551 216.106 128.17L215.021 113.488C214.386 112.059 213.804 110.604 213.261 109.096V109.083ZM215.934 18.9897C219.242 21.7146 226.07 32.7199 227.234 37.4422C228.597 43.011 223.741 44.4528 216.424 52.2571C209.093 60.0614 201.419 76.4636 197.634 78.0774C196.205 78.6858 195.028 78.4213 194.115 77.8789L193.532 76.6488C192.011 73.1964 190.489 65.5508 192.487 49.6645C192.487 49.6645 192.58 48.8973 192.924 47.601C193.307 46.1063 194.009 43.9898 195.213 41.4634C197.647 36.3311 202.265 29.3469 210.866 22.4156C210.932 22.3495 212.851 20.8151 215.947 18.9897H215.934ZM252.944 27.7993C252.944 27.7993 238.64 37.7861 232.355 35.0744C230.397 34.2279 217.84 17.0055 224.072 15.1008C230.291 13.1828 242.517 12.9314 249.041 18.9103C255.723 25.0215 252.944 27.7993 252.944 27.7993ZM228.915 125.392L229.14 125.472C238.561 128.501 250.192 127.509 258.965 126.252C261.69 125.869 264.972 124.374 268.227 122.099C272.766 126.848 276.113 132.747 277.066 139.374C278.416 148.792 270.993 144.401 264.297 149.837C259.229 153.951 239.434 154.586 233.559 154.692L228.941 125.392H228.915ZM232.58 97.8394C232.58 97.8394 231.971 114.903 251.647 112.443C269.114 110.26 268.029 88.3552 268.029 88.3552C263.014 97.9055 259.52 100.855 247.493 102.588C235.465 104.308 232.58 97.8526 232.58 97.8526V97.8394ZM228.081 120.961L227.539 120.472L222.087 113.263C218.964 108.567 215.286 103.064 213.698 95.6436C212.586 90.4187 212.004 86.3314 212.004 86.3314C212.004 86.3314 217.681 90.7362 220.182 91.3314C223.503 92.1383 227.446 96.0801 230.436 92.4293C243.92 75.9345 257.086 66.199 279.104 68.9635C279.236 69.0165 281.75 89.7309 279.077 101.093C278.297 104.44 276.656 107.641 274.578 110.511V110.538V110.525C274.102 111.186 273.599 111.821 273.083 112.443L273.017 112.522C272.117 113.607 271.151 114.612 270.159 115.564C266.123 119.414 261.611 122.006 258.422 122.456C251.687 123.422 244.886 124.096 238.085 123.369C234.446 122.972 231.416 122.271 229.06 121.411L228.769 121.305L228.068 120.974L228.081 120.961ZM208.299 106.133L209.265 105.988C210.535 101.94 208.736 97.7733 206.142 94.6251C202.808 90.5907 204.224 88.9372 199.315 88.6065C197.568 88.4875 193.81 91.014 193.347 91.1595C193.122 92.6674 195.332 98.7786 195.795 100.154C197.674 105.789 203.298 106.742 208.312 106.146L208.299 106.133ZM308.836 138.263L310.967 137.562C311.999 137.218 312.978 136.768 313.904 136.226C315.214 127.218 313.983 112.416 306.732 104.321C301.532 98.514 290.047 99.4664 282.941 101.517C282.213 104.638 281.128 107.218 279.726 109.652C282.438 117.35 287.374 130.009 291.674 132.906C294.731 134.982 300.275 136.768 304.747 137.972C302.538 131.464 293.58 132.218 292.918 116.318L296.769 116.146C297.43 131.742 307.103 128.62 308.836 138.263ZM318.112 132.734C320.679 129.916 322.69 126.266 324.238 122.35C326.408 116.861 321.42 104.255 321.168 103.62L320.824 102.8L308.108 89.797C307.023 90.7229 306.031 91.305 305.277 91.6753C304.403 92.1118 303.477 92.3896 303.213 92.4293C300.341 92.8394 287.784 93.3552 283.629 93.514C283.629 94.8632 283.603 96.1727 283.497 97.4161C285.482 96.9399 288.34 96.3976 291.489 96.1859C297.311 95.7891 304.867 96.477 309.59 101.755C316.855 109.877 318.654 123.144 318.099 132.747L318.112 132.734ZM317.014 186.941C317.014 186.941 316.471 192.602 312.66 187.046C310.133 183.356 299.547 164.414 299.746 158.991C299.746 158.991 304.073 154.943 309.365 157.615C314.658 160.3 316.445 176.226 316.445 176.226L317 186.941H317.014ZM179.096 181.729C179.096 181.729 190.833 184.586 193.89 184.917C196.933 185.247 195.345 190.856 196.205 196.874C197.065 202.893 195.954 207.668 195.954 207.668C195.954 207.668 185.077 203.078 183.251 198.726C181.425 194.374 179.533 189.348 179.943 187.47C180.353 185.591 179.096 181.702 179.096 181.702V181.729ZM198.216 186.041C198.216 186.041 203.589 185.128 203.734 186.835C203.893 188.541 204.66 193.369 204.263 196.425C203.867 199.48 203.919 203.859 202.781 206.107C201.644 208.369 199.831 207.748 199.487 203.819C199.129 199.89 198.852 193.025 198.693 191.239C198.534 189.454 198.23 186.028 198.23 186.028L198.216 186.041ZM180.181 180.287L196.787 183.567C196.787 183.567 203.006 184.388 201.075 182.959C199.156 181.517 192.262 178.991 189.232 179.414C186.202 179.851 180.168 180.287 180.168 180.287H180.181ZM224.985 175.856C223.225 175.948 222.762 176.213 220.856 178.329C218.964 180.446 219.983 183.25 218.766 184.057C217.548 184.864 214.333 181.253 217.628 177.311C220.909 173.369 223.781 167.708 227.803 167.985C229.484 168.104 235.094 167.641 236.563 168.012C238.614 168.528 239.289 169.731 240.162 169.824C241.657 169.996 242.623 168.435 243.84 168.118C245.058 167.8 246.421 169.48 246.421 169.48C246.421 169.48 247.797 176.107 246.288 176.2C244.78 176.279 243.999 175.565 242.478 175.155C240.943 174.731 237.476 175.432 236.55 176.993C235.623 178.554 235.862 178.276 235.862 178.276L235.478 180.313L226.52 180.803L225.607 178.078L224.985 175.869V175.856ZM237.807 227.298C237.807 227.298 234.155 228.502 231.402 228.66C228.637 228.806 227.644 228.621 226.824 227.655C226.017 226.689 227.102 225.75 226.93 222.761L227.869 209.983C227.724 207.47 227.274 203.806 227.446 198.025C227.631 192.245 226.89 183.554 226.89 183.554L229.801 183.396L235.557 183.078C235.61 185.34 235.319 186.676 235.372 187.562C235.438 188.806 236.96 201.769 237.701 205.988C238.442 210.208 237.251 226.081 237.807 227.311V227.298ZM189.073 176.425L188.663 171.385C189.655 171.398 190.793 171.385 191.958 171.305C198.415 170.829 200.281 169.11 203.933 164.387L206.235 161.464C214.148 151.491 219.573 141.464 219.93 128.17L219.308 119.744C220.909 121.332 222.749 122.615 224.747 123.66L230.251 158.567C238.746 158.581 260.328 158.025 266.719 152.84C272.938 147.787 282.796 152.271 280.877 138.832C279.858 131.742 276.312 125.075 271.482 119.863L272.938 118.21C274.38 116.821 275.769 115.287 277.026 113.66C277.781 115.697 278.866 118.488 280.136 121.424C286.474 135.948 289.054 137.178 303.358 142.363C305.793 143.25 307.579 143.488 308.77 143.514C309.418 145.67 310.212 148.409 311.033 151.371C311.033 151.371 297.351 150.419 293.752 156.451C290.708 161.557 294.916 171.649 294.916 171.649C294.916 171.649 291.687 177.972 287.771 176.597C283.457 175.075 278.972 173.435 278.972 173.435C278.972 173.435 271.588 173.462 265.938 174.586L268.69 177.933C273.149 176.848 278.31 176.015 278.641 177.919C281.724 177.562 281.816 196.597 281.816 196.597C281.816 196.597 266.057 202.483 265.462 198.938C261.995 199.441 262.22 179.771 262.22 179.771C262.22 179.771 265.237 178.779 268.69 177.933L265.938 174.586C263.636 175.036 261.624 175.684 260.5 176.57C257.496 178.951 260.222 182.999 258.237 186.226C256.252 189.454 237.833 191.107 237.833 191.107L238.839 180.552L243.51 179.123C248.975 178.845 250.88 176.557 248.326 169.07C247.545 166.768 246.209 165.459 244.409 164.811C243.285 165.274 241.128 166.028 239.95 165.459C238.878 164.943 238.323 164.917 237.357 164.493C234.088 164.89 230.225 165.697 225.924 166.319C221.359 166.967 222.96 168.038 219.957 170.618C216.953 173.197 212.758 180.221 212.97 183.753C213.314 189.586 222.63 184.454 222.63 184.454L223.94 190.155L211.845 191.398C209.98 181.848 204.409 180.684 198.097 177.668C195.769 176.557 192.394 176.292 189.06 176.398L189.073 176.425ZM263 239.454C263 239.454 263.834 239.031 263.887 238.753C265.025 232.642 262.776 223.872 266.441 218.33L265.435 214.573L274.75 213.237C270.238 219.48 268.042 231.914 267.738 238.912L267.605 242.166C272.382 237.086 286.58 222.073 291.304 220.499C296.491 218.766 307.923 215.644 307.923 215.644L310.212 215.102C310.226 214.335 311.88 214.097 311.933 213.409C312.052 211.967 311.681 196.279 311.681 196.279C310.477 193.475 309.736 189.798 308.175 188.885C305.488 187.311 304.867 179.546 301.916 179.48C298.965 179.414 293.05 182.708 290.1 186.081C287.149 189.441 284.132 192.337 284.132 192.337C284.132 192.337 284.132 195.075 283.92 196.822C283.1 203.118 262.22 203.819 262.22 203.819L260.367 197.708L239.328 201.742C239.328 201.742 240.48 226.16 238.349 228.435C236.219 230.697 223.622 228.687 223.622 228.687L223.688 218.859C223.688 218.859 226.427 210.909 224.707 202.324C224.707 202.324 210.271 204.388 208.008 202.258C207.677 201.954 207.36 201.438 207.055 200.79L205.865 205.684L202.517 210.38L202.742 210.42L206.037 236.557C208.312 236.147 211.885 235.406 215.246 234.335C224.535 231.385 230.264 233.488 236.682 239.533C238.812 241.504 240.519 242.457 243.668 242.007C248.75 241.279 256.967 239.877 262.087 240.34L262.974 239.441L263 239.454ZM225.408 88.6727C218.289 89.3076 213.42 79.334 209.517 79.5456C209.093 79.5721 208.299 57.5746 246.818 36.2914C261.161 28.368 268.518 32.667 271.985 33.9369C275.465 35.2067 276.616 38.5533 276.272 41.0004C275.915 43.4475 292.032 57.5349 287.996 60.6698C284.145 63.6725 252.177 63.5005 239.514 76.5694C229.603 86.7943 232.62 88.0377 225.395 88.6859L225.408 88.6727ZM191.323 263.766C193.056 261.174 195.557 258.594 199.116 256.253L198.56 242.1L202.332 237.629L198.375 212.602C198.375 212.602 180.803 211.081 178.263 196.729C175.709 182.377 175.576 177.972 175.576 177.972L185.262 177.073L184.64 169.308L183.78 167.84C183.78 167.84 183.939 167.946 181.187 162.443C178.435 156.954 175.696 154.89 164.832 157.919C164.832 157.919 159.195 156.279 158.785 153.395C158.375 150.512 153.082 144.401 154.167 131.49L116.509 135.895C116.509 135.895 112.936 134.943 111.15 129.308C109.363 123.673 108.808 112.959 114.233 109.731C119.658 106.503 127.081 103.474 130.111 104.017C130.111 104.017 122.887 87.879 130.31 84.8499C130.31 84.8499 139.651 81.5562 140.961 83.8181C142.271 86.0933 161.524 103.937 161.524 103.937C161.524 103.937 163.244 98.7786 170.588 98.7124C177.945 98.6463 183.992 106.609 183.992 106.609L193.135 105.3C193.135 105.3 187.776 95.2732 188.597 87.3102C188.597 87.3102 184.601 81.5695 188.65 49.2412C188.65 49.2412 190.251 34.0691 208.418 19.4526C208.418 19.4526 226.11 4.86259 243.92 10.2065C243.92 10.2065 258.396 16.7013 264.721 25.6035C264.721 25.6035 275.796 24.704 278.059 30.4183C278.059 30.4183 281.486 41.9396 287.93 51.2518C287.93 51.2518 302.008 56.7677 284.317 70.6699L285.627 89.6118C285.627 89.6118 299.296 89.1224 302.67 88.6462C302.67 88.6462 308.307 86.8605 308.849 80.4054C309.392 73.9503 307.262 62.482 317.014 58.6196C317.014 58.6196 325.389 58.8973 325.681 71.1196C325.681 71.1196 337.02 68.0244 343.001 68.6329C348.982 69.2546 363.63 83.5139 357.265 92.1383C352.727 98.2759 338.132 96.3315 338.132 96.3315C338.132 96.3315 341.162 100.313 334.427 101.279C327.692 102.244 324.741 102.178 324.741 102.178C324.741 102.178 330.722 116.53 327.837 123.818C324.953 131.107 320.15 138.66 312.184 141.266C312.184 141.266 321.089 161.094 322.267 186.451L320.282 190.419L320.083 189.546L316.259 193.607C316.259 193.607 316.656 194.771 317.252 196.504L315.823 199.348C315.823 199.348 315.32 207.509 314.923 209.07C315.307 210.314 315.624 211.61 315.796 212.787C316.101 214.89 315.929 216.094 315.029 217.986L314.195 218.184C314.433 222.02 315.333 226.809 317.463 232.47C317.463 232.47 329.346 234.93 334.969 243.237L330.576 243.872C327.573 240.473 323.219 238.422 320.189 237.311C319.012 236.769 318.032 236.491 317.265 236.385C316.961 236.306 316.762 236.266 316.696 236.253L314.619 235.83L313.864 233.846C313.679 233.356 313.507 232.88 313.335 232.404C313.335 231.438 312.872 230.592 312.528 229.943C312.303 229.203 312.091 228.475 311.906 227.761C311.496 224.877 311.072 219.269 311.072 219.269L310.424 219.414L310.398 219.11L308.942 219.454C308.942 219.454 305.74 220.327 301.969 221.412C299.111 222.113 296.133 222.88 293.963 223.541C291.754 224.203 290.748 224.904 290.139 225.764C285.839 229.057 278.178 236.835 272.183 243.118C269.325 245.155 267.208 246.584 267.208 246.584C267.208 246.584 266.838 247.827 266.361 249.309C265.567 250.168 264.919 250.869 264.443 251.385L262.723 249.176L263.252 246.253C259.467 244.996 253.619 244.031 248.114 245.42C247.876 245.486 247.651 245.539 247.426 245.592C246.368 245.671 245.309 245.764 244.29 245.909C239.977 246.531 237.145 245.221 234.141 242.457C233.744 242.086 233.361 241.729 232.977 241.399C231.813 240.063 230.436 238.766 227.671 237.88C225.858 237.126 223.926 236.822 221.69 236.994C218.184 237.033 215.101 238.025 211.726 238.912C209.45 239.52 207.545 240.063 206.156 240.486C205.706 240.565 205.269 240.645 204.872 240.711L204.674 240.936C204.012 241.147 203.655 241.266 203.655 241.266C203.655 241.266 203.628 241.637 203.589 242.232L202.504 243.515L203.086 258.343L201.273 259.534C199.566 260.658 198.15 261.835 196.973 263.026L191.349 263.833L191.323 263.766Z" fill="black"/>
<path fill-rule="evenodd" clip-rule="evenodd" d="M322.134 98.1833C325.23 98.1436 329.994 97.9849 333.857 97.4294C334.4 97.35 335.114 97.1383 335.485 97.0061C335.458 97.3632 335.366 97.7865 335.048 98.6198L337.827 92.4425C337.827 92.4425 350.662 95.9214 354.645 90.67C359.792 83.8711 346.031 72.7863 342.591 72.4292C337.483 71.9001 326.95 74.7176 326.686 74.7969L321.935 76.1065L321.816 71.1726C321.697 66.0535 319.964 64.109 318.918 63.3418C318.402 62.9582 317.9 62.7334 317.489 62.6011C314.936 63.9371 313.811 66.1593 313.255 69.1884C312.924 71.0535 312.845 72.998 312.818 74.8366C312.792 76.9795 312.818 79.0033 312.673 80.6964C312.461 83.2097 311.667 85.2467 310.648 86.8605L322.134 98.1833Z" fill="#DDA553"/>
<path d="M161.259 148.964L161.695 149.956C168.073 138.104 171.143 123.488 163.27 111.689C162.741 110.908 162.198 110.101 161.801 109.44C161.801 109.44 154.074 102.27 149.072 97.5085C146.558 95.1143 144.004 92.6408 142.006 90.6302C140.974 89.5984 140.074 88.6725 139.4 87.9317L138.46 86.8735C137.838 86.9 136.978 87.019 135.972 87.2439C134.093 87.654 132.32 88.236 131.778 88.4079C129.039 89.5191 132.413 99.6779 133.644 102.429L136.634 109.096L129.436 107.8C128.06 107.548 121.907 109.651 116.23 113.025C115.198 113.646 114.14 115.445 113.848 118.924C113.571 122.178 114.1 125.763 114.854 128.13C115.529 130.26 116.455 131.292 117.223 131.927L158.427 127.099L158.03 131.794C157.527 137.628 158.48 141.834 159.565 144.903C160.134 146.53 160.769 147.866 161.259 148.964Z" fill="#DDA553"/>
<path fill-rule="evenodd" clip-rule="evenodd" d="M177.574 153.422C174.504 152.297 170.495 152.416 164.858 153.818C178.712 128.13 167.518 110.114 164.475 106.027L165.255 105.022C165.388 104.797 165.613 104.453 165.97 104.109C166.618 103.474 167.955 102.575 170.627 102.548C175.762 102.495 180.697 108.62 180.922 108.924L181.848 110.128C185.924 122.958 182.206 141.332 177.574 153.422ZM213.261 109.083L212.004 108.752C212.031 108.977 212.031 109.175 211.938 109.334C211.938 109.334 210.218 109.784 208.775 109.956C204.078 110.511 200.651 109.969 198.044 108.474L185.805 110.233C187.419 116.808 189.814 133.382 180.935 155.472C182.378 156.768 183.568 158.527 184.667 160.723C185.447 162.284 186.321 162.76 187.22 163.633L188.147 164.612L188.385 167.522C191.878 167.628 197.502 167.337 199.143 164.559C199.592 163.779 200.214 162.932 200.902 162.046L203.244 159.083C210.588 149.81 215.775 140.551 216.106 128.17L215.021 113.487C214.386 112.059 213.804 110.604 213.261 109.096V109.083Z" fill="white"/>
<path d="M215.934 18.9893C219.242 21.7141 226.07 32.7195 227.234 37.4418C228.597 43.0106 223.741 44.4524 216.424 52.2567C209.093 60.061 201.419 76.4632 197.634 78.0769C196.205 78.6854 195.028 78.4209 194.115 77.8785L193.532 76.6484C192.011 73.196 190.489 65.5504 192.487 49.6641C192.487 49.6641 192.58 48.8969 192.924 47.6006C193.307 46.1058 194.009 43.9894 195.213 41.4629C197.647 36.3306 202.265 29.3465 210.866 22.4152C210.932 22.3491 212.851 20.8147 215.947 18.9893" fill="#F3E01B"/>
<path fill-rule="evenodd" clip-rule="evenodd" d="M228.914 125.392L229.139 125.472C238.56 128.501 250.191 127.509 258.964 126.252C261.69 125.868 264.971 124.374 268.226 122.099C272.765 126.847 276.113 132.747 277.065 139.374C278.415 148.792 270.992 144.4 264.297 149.837C259.229 153.951 239.434 154.586 233.558 154.691L228.941 125.392H228.914Z" fill="white"/>
<path fill-rule="evenodd" clip-rule="evenodd" d="M232.58 97.8391C232.58 97.8391 231.971 114.903 251.647 112.442C269.113 110.26 268.028 88.3549 268.028 88.3549C263.013 97.9052 259.52 100.855 247.492 102.588C235.464 104.307 232.58 97.8523 232.58 97.8523M249.014 77.1511C248.551 76.9527 248.352 76.6881 248.366 76.3839C250.999 74.8495 253.738 73.5929 256.609 72.6273C262.616 76.794 257.998 91.5692 244.766 91.1988C243.668 91.1724 242.226 90.9872 241.181 90.5771L242.557 86.9792C245.6 87.7067 248.286 87.1644 250.456 85.7755C253.222 84.0162 251.263 78.1035 249.027 77.1643L249.014 77.1511ZM228.081 120.961L227.538 120.471L222.087 113.262C218.964 108.567 215.285 103.064 213.698 95.6433C212.586 90.4184 212.004 86.3311 212.004 86.3311C212.004 86.3311 217.68 90.7359 220.181 91.3311C223.503 92.138 227.446 96.0798 230.436 92.429C243.92 75.9342 257.085 66.1987 279.104 68.9632C279.236 69.0161 281.75 89.7306 279.077 101.093C278.296 104.44 276.656 107.641 274.578 110.511V110.538L270.172 115.538H270.159C266.123 119.4 261.611 121.993 258.422 122.442C251.687 123.408 244.885 124.083 238.084 123.355C234.445 122.958 231.415 122.257 229.06 121.397L228.769 121.292L228.068 120.961H228.081Z" fill="#DDA553"/>
<path fill-rule="evenodd" clip-rule="evenodd" d="M270.158 115.551L274.578 110.511C273.241 112.35 271.746 114.043 270.158 115.551Z" fill="#231F20"/>
<path d="M208.299 106.133L209.265 105.987C210.535 101.94 208.736 97.7728 206.142 94.6247C202.808 90.5903 204.224 88.9368 199.315 88.6061C197.568 88.4871 193.81 91.0136 193.347 91.1591C193.122 92.667 195.332 98.7781 195.795 100.154C197.674 105.789 203.298 106.741 208.313 106.146" fill="#DDA553"/>
<path d="M308.836 138.263L310.966 137.562C311.999 137.218 312.978 136.768 313.904 136.226C315.214 127.218 313.983 112.416 306.732 104.321C301.532 98.514 290.047 99.4664 282.941 101.517C282.213 104.638 281.128 107.218 279.726 109.652C282.438 117.35 287.374 130.009 291.674 132.906C294.731 134.982 300.275 136.768 304.747 137.972C302.538 131.464 293.58 132.218 292.918 116.318L296.768 116.146C297.43 131.742 307.103 128.62 308.836 138.263Z" fill="white"/>
<path d="M318.111 132.734C320.678 129.916 322.689 126.265 324.237 122.35C326.408 116.861 321.419 104.255 321.168 103.62L320.824 102.8L308.108 89.7969C307.023 90.7228 306.03 91.3048 305.276 91.6752C304.403 92.1117 303.476 92.3895 303.212 92.4292C300.34 92.8392 287.783 93.3551 283.628 93.5138C283.628 94.8631 283.602 96.1726 283.496 97.416C285.481 96.9398 288.339 96.3974 291.488 96.1858C297.31 95.789 304.866 96.4768 309.59 101.755C316.854 109.876 318.654 123.144 318.098 132.747" fill="white"/>
<path d="M281.816 196.597C281.816 196.597 266.057 202.483 265.462 198.938C261.995 199.441 262.22 179.771 262.22 179.771C262.22 179.771 265.237 178.779 268.69 177.933C273.149 176.848 278.31 176.015 278.641 177.919C281.724 177.562 281.816 196.597 281.816 196.597Z" fill="white"/>
<path d="M317.013 186.94C317.013 186.94 316.47 192.601 312.659 187.046C310.132 183.355 299.546 164.413 299.745 158.99C299.745 158.99 304.072 154.943 309.365 157.614C314.657 160.3 316.444 176.226 316.444 176.226L317 186.94H317.013Z" fill="#F3E01B"/>
<path d="M179.096 181.729C179.096 181.729 190.833 184.586 193.889 184.916C196.932 185.247 195.345 190.856 196.205 196.874C197.065 202.893 195.953 207.668 195.953 207.668C195.953 207.668 185.077 203.078 183.251 198.726C181.425 194.374 179.532 189.348 179.943 187.469C180.353 185.591 179.096 181.702 179.096 181.702" fill="#F3E01B"/>
<path d="M198.216 186.041C198.216 186.041 203.588 185.128 203.734 186.834C203.892 188.541 204.66 193.369 204.263 196.424C203.866 199.48 203.919 203.858 202.781 206.107C201.643 208.369 199.83 207.747 199.486 203.819C199.129 199.89 198.851 193.025 198.692 191.239C198.533 189.453 198.229 186.027 198.229 186.027" fill="#F3E01B"/>
<path d="M316.219 193.554C316.219 193.554 320.837 207.033 322.266 210.988C323.682 214.877 329.24 226.253 329.412 224.467C329.597 222.681 326.17 211.213 324.78 207.615C323.404 204.03 320.03 189.493 320.03 189.493L316.206 193.554H316.219Z" fill="#231F20"/>
<path d="M180.181 180.287L196.787 183.567C196.787 183.567 203.006 184.387 201.075 182.959C199.156 181.517 192.262 178.991 189.232 179.414C186.202 179.85 180.168 180.287 180.168 180.287" fill="#F3E01B"/>
<path fill-rule="evenodd" clip-rule="evenodd" d="M224.984 175.856C223.225 175.948 222.761 176.213 220.856 178.329C218.964 180.446 219.983 183.25 218.765 184.057C217.548 184.864 214.333 181.253 217.627 177.311C220.909 173.369 223.78 167.708 227.803 167.985C229.483 168.104 235.094 167.641 236.562 168.012C238.613 168.528 239.288 169.731 240.162 169.824C241.657 169.996 242.623 168.435 243.84 168.118C245.057 167.8 246.42 169.48 246.42 169.48C246.42 169.48 247.796 176.107 246.288 176.2C244.78 176.279 243.999 175.565 242.477 175.155C240.942 174.731 237.475 175.432 236.549 176.993C235.623 178.554 235.861 178.276 235.861 178.276L235.477 180.313L226.519 180.803L225.606 178.078L224.984 175.869V175.856Z" fill="white"/>
<path d="M237.806 227.298C237.806 227.298 234.154 228.501 231.402 228.66C228.636 228.805 227.644 228.62 226.824 227.655C226.016 226.689 227.101 225.75 226.929 222.76L227.869 209.983C227.723 207.469 227.273 203.805 227.446 198.025C227.631 192.244 226.89 183.554 226.89 183.554L229.801 183.395L235.557 183.078C235.61 185.34 235.319 186.676 235.372 187.562C235.438 188.805 236.959 201.768 237.7 205.988C238.441 210.207 237.25 226.081 237.806 227.311" fill="#F3E01B"/>
<path fill-rule="evenodd" clip-rule="evenodd" d="M189.072 176.424L188.662 171.384C189.655 171.398 190.792 171.384 191.957 171.305C198.414 170.829 200.28 169.109 203.932 164.387L206.234 161.464C214.147 151.49 219.572 141.464 219.929 128.17L219.307 119.744C220.909 121.331 222.748 122.614 224.746 123.659L230.25 158.567C238.745 158.58 260.327 158.025 266.718 152.839C272.937 147.786 282.795 152.271 280.876 138.831C279.857 131.741 276.311 125.075 271.481 119.863L272.937 118.209C274.379 116.821 275.769 115.286 277.026 113.659C277.78 115.696 278.865 118.487 280.135 121.424C286.473 135.948 289.053 137.178 303.357 142.363C305.792 143.249 307.578 143.487 308.769 143.514C309.418 145.67 310.212 148.408 311.032 151.371C311.032 151.371 297.35 150.419 293.751 156.45C290.708 161.556 294.915 171.649 294.915 171.649C294.915 171.649 291.687 177.972 287.77 176.596C283.456 175.075 278.971 173.435 278.971 173.435C278.971 173.435 271.587 173.461 265.937 174.586C263.635 175.035 261.623 175.683 260.499 176.57C257.495 178.951 260.221 182.998 258.236 186.226C256.251 189.453 237.832 191.107 237.832 191.107L238.838 180.551L243.509 179.123C248.974 178.845 250.879 176.556 248.325 169.07C247.545 166.768 246.208 165.458 244.409 164.81C243.284 165.273 241.127 166.027 239.949 165.458C238.878 164.943 238.322 164.916 237.356 164.493C234.088 164.89 230.224 165.697 225.924 166.318C221.358 166.966 222.96 168.038 219.956 170.617C216.952 173.197 212.758 180.22 212.969 183.752C213.313 189.586 222.629 184.453 222.629 184.453L223.939 190.154L211.845 191.398C209.979 181.847 204.408 180.683 198.097 177.668C195.768 176.556 192.394 176.292 189.059 176.398M312.487 229.877C312.845 230.525 313.295 231.372 313.295 232.337C313.003 231.504 312.726 230.684 312.487 229.877ZM310.384 219.348L311.032 219.202C311.032 219.202 311.455 224.797 311.866 227.694C311.058 224.626 310.595 221.835 310.384 219.348ZM290.086 225.684C290.694 224.824 291.7 224.123 293.91 223.461C296.08 222.813 299.057 222.046 301.915 221.332C298.633 222.271 294.915 223.356 292.534 224.163C291.951 224.361 291.118 224.89 290.086 225.684ZM267.168 246.517C267.168 246.517 269.272 245.075 272.143 243.052C269.867 245.433 267.843 247.615 266.321 249.242C266.797 247.761 267.168 246.517 267.168 246.517ZM221.65 236.914C218.143 236.954 215.06 237.946 211.686 238.832C209.41 239.44 207.505 239.983 206.115 240.406C209.159 239.85 213.26 239.017 216.436 238.012C218.368 237.403 220.088 237.033 221.636 236.914H221.65ZM232.936 241.319C231.772 239.983 230.396 238.686 227.63 237.8C229.443 238.554 231.137 239.731 232.936 241.319ZM262.695 249.097L263.225 246.173C259.44 244.917 253.592 243.951 248.087 245.34C247.849 245.406 247.624 245.459 247.399 245.512C249.741 245.353 252.096 245.34 254.068 245.393C256.953 245.459 262.364 248.66 262.364 248.66L262.709 249.11L262.695 249.097ZM203.614 241.2C203.614 241.2 203.588 241.57 203.548 242.165L204.646 240.869C203.985 241.081 203.628 241.2 203.628 241.2H203.614ZM263 239.454C263 239.454 263.833 239.03 263.886 238.753C265.024 232.641 262.775 223.872 266.44 218.329L265.434 214.573L274.75 213.237C270.238 219.48 268.041 231.914 267.737 238.911L267.604 242.165C272.381 237.086 286.579 222.073 291.303 220.499C296.49 218.766 307.922 215.644 307.922 215.644L310.212 215.102C310.225 214.334 311.879 214.096 311.932 213.409C312.051 211.967 311.68 196.279 311.68 196.279C310.476 193.475 309.735 189.797 308.174 188.885C305.488 187.31 304.866 179.546 301.915 179.48C298.964 179.414 293.05 182.707 290.099 186.08C287.148 189.44 284.131 192.337 284.131 192.337C284.131 192.337 284.131 195.075 283.919 196.821C283.099 203.117 262.219 203.819 262.219 203.819L260.366 197.707L239.328 201.742C239.328 201.742 240.479 226.16 238.348 228.435C236.218 230.697 223.621 228.686 223.621 228.686L223.687 218.858C223.687 218.858 226.426 210.908 224.706 202.324C224.706 202.324 210.27 204.387 208.007 202.258C207.677 201.953 207.359 201.438 207.055 200.789L205.864 205.684L202.516 210.379L202.741 210.419L206.036 236.557C208.312 236.147 211.884 235.406 215.245 234.335C224.534 231.385 230.264 233.488 236.681 239.533C238.811 241.504 240.518 242.456 243.668 242.007C248.749 241.279 256.966 239.877 262.087 240.34L262.973 239.44L263 239.454Z" fill="#F3B416"/>
<path d="M225.408 88.6724C218.289 89.3074 213.42 79.3338 209.516 79.5454C209.093 79.5718 208.299 57.5743 246.818 36.2911C261.161 28.3678 268.518 32.6668 271.985 33.9366C275.465 35.2065 276.616 38.5531 276.272 41.0002C275.915 43.4473 292.031 57.5347 287.996 60.6696C284.145 63.6723 252.177 63.5003 239.513 76.5692C229.603 86.7941 232.62 88.0375 225.395 88.6857" fill="#F3E01B"/>
<path d="M249.014 77.1513C248.551 76.9529 248.352 76.6883 248.366 76.3841C250.999 74.8497 253.738 73.5931 256.609 72.6274C262.617 76.7941 257.999 91.5694 244.767 91.199C243.668 91.1725 242.226 90.9874 241.181 90.5773L242.557 86.9794C245.6 87.7069 248.286 87.1646 250.456 85.7757C253.222 84.0164 251.263 78.1037 249.027 77.1645" fill="black"/>
<path d="M330.536 243.819C327.532 240.42 323.179 238.369 320.149 237.258H320.175C322.385 238.29 325.362 240.287 329.252 244.004L330.523 243.819H330.536ZM262.338 248.66C262.338 248.66 256.926 245.459 254.042 245.393C251.183 245.327 247.505 245.38 244.237 245.843C239.923 246.465 237.091 245.155 234.088 242.391C228.689 237.298 224.481 235.486 216.436 238.025C212.784 239.189 207.915 240.115 204.818 240.645L202.45 243.449L203.032 258.277L201.219 259.467C199.512 260.592 198.097 261.769 196.919 262.959L197.501 262.88C198.679 261.69 200.095 260.512 201.802 259.388L203.614 258.198L212.877 255.764C212.877 255.764 211.474 258.687 210.045 261.094L313.89 246.213C308.399 241.994 314.591 236.769 314.591 236.769C314.591 236.769 315.332 236.107 317.172 236.346H317.198C316.894 236.266 316.695 236.227 316.629 236.213L314.552 235.79L313.797 233.806C311.641 228.105 310.648 223.171 310.331 219.07L308.875 219.414C308.875 219.414 297.641 222.483 292.52 224.189C288.154 225.644 268.689 246.65 264.389 251.332L262.325 248.674L262.338 248.66Z" fill="#231F20"/>
<path d="M197.528 262.867C198.706 261.676 200.122 260.499 201.829 259.375L203.642 258.184L212.904 255.75C212.904 255.75 211.501 258.674 210.072 261.081L197.542 262.88L197.528 262.867Z" fill="white"/>
<path d="M314.618 236.755C314.618 236.755 315.359 236.094 317.198 236.332C317.992 236.438 318.971 236.702 320.189 237.271C322.398 238.29 325.376 240.287 329.266 244.004L313.917 246.2C308.425 241.98 314.618 236.755 314.618 236.755Z" fill="white"/>
<path d="M294.161 267.311C290.946 268.488 287.731 269.679 284.529 270.856C284.343 269.785 284.145 268.7 283.96 267.615C283.695 266.107 283.404 265.155 283.086 264.811C282.755 264.454 282.319 264.361 281.723 264.52C281.101 264.679 280.665 265.089 280.44 265.764C280.215 266.425 280.215 267.351 280.427 268.528C280.691 270.049 281.088 271.134 281.578 271.782C282.067 272.417 283.179 273.065 284.992 273.449C290.033 274.507 293.315 275.38 294.797 276.504C296.239 277.589 297.324 279.917 297.972 283.594C298.449 286.266 298.475 288.489 298.078 290.248C297.681 292.034 296.676 294.084 295.074 296.452C293.447 298.872 291.568 301.161 289.173 303.079C286.632 305.116 284.237 306.174 282.173 306.266C280.096 306.359 278.587 305.539 277.661 303.899C276.695 302.206 275.888 299.441 275.226 295.671C275.028 294.573 274.843 293.475 274.644 292.364C277.767 290.764 280.903 289.084 284.026 287.417C284.356 289.256 284.674 291.108 285.005 292.96C285.309 294.666 285.64 295.671 285.984 296.002C286.315 296.319 286.831 296.253 287.479 295.83C288.128 295.407 288.564 294.745 288.776 293.912C288.988 293.092 289.001 292.1 288.789 290.949C288.339 288.383 287.731 286.901 286.99 286.491C286.209 286.055 284.37 285.565 281.525 284.825C278.627 284.071 276.695 283.277 275.703 282.682C274.697 282.086 273.771 281.028 272.937 279.52C272.09 277.999 271.402 275.883 270.926 273.197C270.238 269.322 270.132 266.385 270.622 264.441C271.111 262.496 272.157 260.856 273.784 259.56C275.398 258.277 277.489 257.43 280.016 257.007C282.795 256.531 285.243 256.61 287.36 257.139C289.451 257.655 290.933 258.449 291.806 259.6C292.653 260.724 293.354 262.774 293.884 265.803C293.976 266.306 294.056 266.809 294.148 267.311M268.703 279.798C265.223 281.015 261.743 282.192 258.263 283.303C257.959 281.61 257.654 279.904 257.363 278.198C256.794 274.957 256.331 272.973 256 272.205C255.669 271.425 255.127 271.147 254.373 271.319C253.751 271.465 253.354 271.914 253.261 272.695C253.155 273.449 253.354 275.301 253.883 278.237C254.704 282.84 255.511 287.444 256.331 292.034C257.138 296.637 257.959 301.227 258.766 305.83C259.216 308.409 259.639 310.05 259.996 310.764C260.354 311.465 260.883 311.65 261.531 311.319C262.246 310.949 262.656 310.248 262.762 309.229C262.868 308.198 262.696 306.359 262.233 303.74C261.836 301.518 261.452 299.296 261.055 297.073C260.38 297.351 259.705 297.629 259.044 297.907C258.541 295.023 258.025 292.153 257.509 289.269C261.558 287.84 265.58 286.319 269.603 284.745C270.423 289.401 271.244 294.057 272.064 298.687C272.884 303.33 273.705 307.986 274.525 312.629C272.448 314.005 270.37 315.367 268.293 316.73C267.75 315.592 267.208 314.454 266.665 313.29C266.295 315.38 265.646 317.153 264.773 318.608C263.887 320.103 262.735 321.24 261.333 322.047C259.639 323.026 257.959 323.317 256.252 322.775C254.532 322.219 253.116 321.187 252.017 319.653C250.906 318.105 250.059 316.333 249.503 314.335C248.934 312.325 248.286 309.216 247.545 305.036C247.016 302.02 246.473 299.018 245.944 296.002C245.415 292.986 244.872 289.97 244.343 286.954C243.311 281.147 242.781 276.888 242.729 274.163C242.676 271.438 243.47 268.793 245.097 266.266C246.711 263.753 249.12 262.258 252.309 261.716C255.458 261.174 258.184 261.623 260.579 262.946C262.907 264.242 264.628 265.896 265.646 268.025C266.652 270.129 267.539 273.29 268.293 277.563C268.425 278.317 268.557 279.057 268.69 279.811L268.703 279.798ZM236.496 265.711C238.322 276.041 240.148 286.372 241.974 296.69C243.8 307.007 245.626 317.338 247.452 327.669C244.435 328.872 241.419 330.076 238.428 331.253C236.668 326.756 234.882 322.219 233.135 317.616C231.362 312.973 229.563 308.317 227.803 303.634C228.676 308.555 229.536 313.462 230.41 318.37C231.283 323.277 232.143 328.185 233.016 333.092C230.092 333.992 227.168 334.891 224.23 335.671C222.285 324.706 220.353 313.74 218.408 302.774C216.463 291.809 214.531 280.843 212.586 269.864C215.576 269.348 218.567 268.832 221.557 268.317C223.397 272.999 225.262 277.668 227.102 282.311C228.928 286.928 230.793 291.491 232.633 296.015C231.786 291.227 230.939 286.452 230.092 281.663C229.245 276.875 228.398 272.086 227.551 267.285C230.542 266.769 233.532 266.24 236.523 265.724L236.496 265.711ZM208.299 270.592C210.244 281.597 212.189 292.602 214.147 303.608C216.092 314.6 218.038 325.605 219.983 336.611C216.423 337.404 212.851 338.026 209.265 338.515C207.32 327.51 205.361 316.491 203.416 305.473C201.471 294.467 199.513 283.449 197.568 272.43C201.14 271.822 204.713 271.213 208.299 270.605V270.592ZM195.715 272.735C196.747 283.885 197.779 295.036 198.825 306.174C199.87 317.285 200.876 328.357 201.908 339.362C196.377 339.64 190.833 339.785 185.235 339.587C182.298 329.044 179.374 318.568 176.463 308.184C173.565 297.854 170.68 287.576 167.809 277.391C171.58 276.769 175.351 276.147 179.135 275.512C181.345 284.282 183.343 292.417 185.13 299.891C186.929 307.391 188.53 314.19 189.933 320.341C189.112 314.071 188.371 308.145 187.683 302.576C186.982 296.994 186.4 291.743 185.844 286.848C185.381 282.774 184.878 278.7 184.402 274.626C188.173 273.991 191.931 273.356 195.728 272.721L195.715 272.735ZM164.408 316.835C163.548 313.502 162.609 309.772 161.616 305.658C160.624 301.571 159.539 297.087 158.388 292.232C158.837 297.841 159.234 302.655 159.605 306.703C159.975 310.724 160.306 314.018 160.597 316.544C161.868 316.637 163.138 316.743 164.408 316.835ZM163.416 278.118C166.234 288.079 169.066 298.158 171.911 308.304C174.782 318.555 177.667 328.912 180.578 339.362C176.727 338.925 172.877 338.462 169.039 337.947C168.206 334.375 167.372 330.817 166.552 327.259C165.189 327.073 163.839 326.888 162.476 326.69C162.873 330.089 163.283 333.489 163.68 336.862C159.711 336.068 155.728 335.037 151.719 333.912C151.136 325.38 150.554 316.716 149.906 307.907C149.258 298.965 148.583 289.864 147.881 280.618C153.042 279.785 158.229 278.938 163.403 278.092L163.416 278.118ZM143.382 297.444C139.969 297.483 136.528 297.444 133.114 297.417C132.916 296.28 132.717 295.142 132.506 294.004C132.228 292.404 131.924 291.385 131.593 290.962C131.249 290.539 130.799 290.367 130.19 290.407C129.542 290.459 129.092 290.777 128.854 291.372C128.629 291.954 128.602 292.801 128.801 293.952C129.065 295.42 129.462 296.531 129.978 297.298C130.494 298.052 131.725 298.952 133.604 300.142C139.161 303.687 142.787 306.809 144.468 309.15C146.174 311.531 147.471 315.288 148.371 320.38C149.019 324.071 149.138 326.73 148.702 328.29C148.278 329.825 147.101 330.949 145.142 331.32C143.184 331.69 140.723 331.28 137.865 330.182C134.676 328.952 131.871 327.1 129.383 325.01C126.962 322.96 125.241 321.068 124.262 319.216C123.296 317.391 122.555 315.089 122.052 312.259C121.907 311.438 121.761 310.605 121.616 309.785C125.175 310.658 128.761 311.531 132.347 312.417C132.665 314.216 132.982 316.002 133.3 317.814C133.591 319.468 133.948 320.592 134.332 321.161C134.715 321.73 135.298 322.126 136.065 322.351C136.846 322.576 137.362 322.444 137.613 321.915C137.878 321.399 137.904 320.499 137.693 319.269C137.203 316.531 136.542 314.653 135.695 313.687C134.821 312.708 132.823 311.002 129.621 308.581C126.512 306.227 124.381 304.679 123.336 303.766C122.291 302.88 121.351 301.743 120.531 300.38C119.71 299.031 119.128 297.364 118.771 295.38C118.268 292.497 118.295 290.354 118.864 288.938C119.446 287.483 120.57 286.253 122.224 285.168C123.892 284.071 125.969 283.25 128.496 282.814C131.275 282.338 133.763 282.444 135.893 283.211C138.063 283.991 139.598 285.221 140.538 286.835C141.477 288.462 142.311 291.333 143.038 295.42C143.158 296.108 143.277 296.782 143.396 297.457L143.382 297.444Z" fill="#F3E01B"/>
<path fill-rule="evenodd" clip-rule="evenodd" d="M364.543 230.036C359.938 236.53 355.069 246.16 355.492 253.078C355.519 253.515 355.598 254.163 355.717 254.837C361.142 248.157 363.722 238.978 364.543 230.036ZM166.923 232.284C165.785 227.456 165.11 222.522 164.819 217.575C164.528 212.747 164.633 207.8 165.163 202.946C164.144 203.078 163.112 203.21 162.093 203.342C161.564 211.239 161.18 219.493 161.656 227.245C162.027 233.382 162.728 239.784 164.104 245.816C164.554 244.176 164.964 242.509 165.348 240.856C165.996 238.038 166.565 235.155 166.949 232.271L166.923 232.284ZM39.5643 279.256C41.0595 277.906 42.4488 276.451 43.1766 275.592C45.4922 272.853 47.3844 269.599 48.8267 266.121C47.702 267.152 46.6434 268.237 45.7039 269.361C43.8647 271.531 41.0462 275.592 39.5643 279.256ZM33.8083 222.179C34.3111 221.134 34.814 220.062 35.2771 218.977C34.761 220.022 34.2715 221.094 33.8083 222.179ZM37.0105 244.348C36.3621 244.599 35.6873 244.784 34.986 244.89C33.2394 245.142 31.3869 244.93 29.7593 244.269C29.8123 245.353 29.8652 246.438 29.9313 247.523C30.2886 253.422 31.1487 259.401 32.0617 265.274C32.9086 264.11 33.7554 263.039 34.5626 262.086C39.4716 256.292 45.6642 251.411 52.1744 247.43C52.0421 246.16 51.7907 244.864 51.3672 243.687C50.441 241.12 49.2369 240.168 46.4185 240.565C43.8382 240.935 42.0916 241.716 39.8686 242.999C38.9159 243.541 38.0161 244.044 36.984 244.348H37.0105ZM307.513 234.07C307.592 234.07 307.658 234.057 307.738 234.044C312.29 233.515 317.225 233.263 321.79 233.739C324.106 233.978 326.964 234.507 328.935 235.935C330.51 233.118 334.546 231.808 337.629 231.358C340.619 230.935 344.708 231.041 347.063 233.131C347.566 232.139 348.082 231.16 348.625 230.208C344.576 229.798 341.4 227.47 339.045 224.335C336.12 228.528 332.283 232.007 327.295 232.721C323.868 233.21 320.533 232.615 317.569 230.816C315.201 229.374 313.295 227.298 311.787 224.903C310.45 228.488 308.982 231.914 307.539 234.083L307.513 234.07ZM288.366 236.306C288.67 236.266 288.962 236.239 289.266 236.2C289.041 236.028 288.829 235.856 288.617 235.684C288.538 235.896 288.459 236.094 288.366 236.306ZM253.566 240.472C254.28 240.38 255.008 240.3 255.723 240.208C255.63 240.062 255.551 239.917 255.458 239.771C255.167 239.269 254.876 238.766 254.598 238.25C254.267 239.03 253.923 239.771 253.553 240.472H253.566ZM230.529 243.316C230.648 243.303 230.78 243.29 230.899 243.277C230.82 243.184 230.727 243.105 230.648 243.012C230.608 243.118 230.569 243.21 230.529 243.316ZM193.744 248.078C195.993 247.774 198.23 247.483 200.479 247.179C198.719 242.708 197.687 237.655 197.092 233.157C195.477 238.369 194.366 243.792 193.744 248.078ZM128.88 257.681C133.922 256.835 138.976 256.028 144.031 255.234C144.944 255.089 145.87 254.943 146.783 254.811C144.732 250.195 143.25 245.049 142.232 240.499C139.294 240.777 136.105 240.247 133.34 239.004C131.289 244.956 129.965 252.046 128.933 257.43C128.92 257.509 128.907 257.602 128.88 257.695V257.681ZM107.934 261.517C108.133 261.478 108.331 261.438 108.53 261.398C108.45 261.24 108.371 261.081 108.305 260.922C108.186 261.121 108.066 261.319 107.947 261.517H107.934ZM66.5841 272.602C72.5914 270.287 79.0751 268.343 85.003 266.782C80.5042 262.893 77.8975 256.451 76.5081 250.419C75.6877 250.71 74.8806 251.015 74.0866 251.319C73.9543 253.951 73.4647 256.57 72.7237 259.11C71.3608 263.819 69.1511 268.396 66.5973 272.602H66.5841ZM45.7304 292.959C43.0443 294.375 40.292 295.393 37.6456 295.777C30.8708 296.742 24.3474 293.369 23.8975 286.015C23.7917 284.361 23.9902 282.615 24.3871 280.843C20.6557 280.816 17.8902 278.422 16.395 274.877C14.4499 270.301 13.0473 265.142 11.9226 260.314C10.467 254.057 9.40847 247.628 8.77333 241.239C8.61455 239.665 8.49546 238.078 8.40284 236.504C8.03234 230.353 7.95295 223.898 7.99264 217.734C8.01911 213.805 8.0985 209.797 8.469 205.882C8.74687 202.946 9.20999 198.792 11.1683 196.464C12.9414 194.361 15.7863 193.356 18.4327 192.972C22.0318 192.456 26.6498 192.946 29.4153 195.472C30.2092 196.199 30.8179 197.059 31.2149 198.012C34.417 194.533 38.122 191.914 42.2504 191.332C46.4185 190.736 50.5998 192.125 53.7622 194.864C57.2687 197.893 59.1609 202.218 59.4388 206.808C59.8357 213.448 57.1232 220.459 53.4314 226.53C57.1893 227.337 60.8017 228.938 63.8715 231.134C66.6238 233.104 69.0055 235.552 70.7919 238.396C72.1547 237.893 73.5441 237.417 74.9335 236.993C74.7879 232.073 75.0526 225.803 77.6196 222.747C77.8975 222.417 78.2018 222.099 78.5326 221.808C77.4079 220.287 76.6933 218.409 76.561 216.332C76.2038 210.499 80.5968 205.498 86.313 204.678C92.2939 203.819 97.6132 208.065 97.9704 214.11C98.1292 216.663 97.3485 219.044 95.9592 220.975C96.8457 221.742 97.547 222.721 97.9969 223.951C98.2351 224.586 98.3674 225.247 98.4071 225.922C98.4997 227.35 98.3012 229.057 98.1954 230.499C97.7852 235.803 97.4412 241.16 97.7587 246.464C97.8117 247.43 97.9704 249.202 98.2218 251.081C100.035 247.298 101.477 243.157 102.721 239.163C102.655 238.422 102.602 237.681 102.549 236.927C102.258 232.112 101.993 222.298 105.155 218.581C107.445 215.895 110.964 214.665 114.365 214.176C118.758 213.541 124.21 214.149 126.446 218.607C126.856 219.44 127.107 220.34 127.187 221.266C128.219 220.657 129.37 220.287 130.706 220.089C133.247 219.731 135.748 220.274 137.786 221.861C138.619 222.522 139.228 223.29 139.77 224.123C139.638 222.602 139.519 221.081 139.426 219.559C139.188 215.538 139.162 211.319 139.241 207.165C137.746 207.43 136.264 207.681 134.769 207.893C130.561 208.501 127.147 204.916 126.896 200.895C126.671 197.297 128.735 194.162 132.268 193.21C132.294 193.21 132.321 193.197 132.36 193.184C133.644 192.866 135.166 192.681 136.476 192.469C137.614 192.284 138.765 192.099 139.916 191.927C140.286 187.072 141.094 180.789 143.343 178.131C145.076 176.08 148.186 174.85 150.793 174.48C154.63 173.924 159.116 174.4 161.749 177.601C162.821 178.898 163.416 180.498 163.509 182.165C163.575 183.276 163.469 184.533 163.39 185.657C163.323 186.609 163.257 187.562 163.178 188.514C164.885 188.289 166.605 188.091 168.299 187.932C171.435 178.554 177.376 168.779 187.71 167.297C191.111 166.808 194.551 167.152 197.515 169.017C202.768 172.31 204.21 178.818 204.568 184.586C204.925 190.565 204.197 196.504 202.503 202.178C202.57 202.178 202.636 202.152 202.715 202.152C205.864 201.702 209.027 202.006 211.779 203.7C216.926 206.861 218.223 213.29 218.567 218.858C218.766 222.231 218.594 225.763 218.475 229.136C218.369 231.874 218.236 234.692 218.263 237.47C218.647 236.464 218.951 235.591 219.163 234.97C220.658 230.591 221.888 226.107 223 221.61C223.741 209.837 232.011 199.652 243.933 197.946C245.375 197.734 246.844 197.694 248.313 197.813C249.689 184.374 254.452 166.358 267.248 162.205C268.134 161.914 269.047 161.702 269.974 161.57C280.718 160.035 285.878 167.112 286.487 177.099C287.162 188.157 281.618 204.467 274.486 212.906C273.533 214.03 272.289 215.274 270.992 216.358C270.992 216.398 270.992 216.438 270.992 216.477C271.297 221.464 271.998 226.663 273.321 231.491C273.48 232.086 273.798 233.144 274.181 234.255C274.737 233.237 275.2 232.231 275.518 231.517C277.648 226.57 278.985 220.882 279.951 215.578C279.964 202.8 288.313 191.636 301.294 189.771C303.53 189.453 306.044 189.401 308.466 189.771C308.545 189.665 308.624 189.572 308.704 189.48C310.437 187.416 313.057 186.451 315.664 186.08C320.917 185.326 327.374 187.39 327.758 193.58C327.85 195.035 327.718 196.689 327.652 198.144C327.467 201.98 327.229 205.988 327.467 209.811C327.546 211.041 327.784 213.858 328.208 216.332C329.055 214.877 329.809 213.356 330.179 212.615C331.357 210.155 332.402 207.615 333.368 205.062C333.183 199.996 333.289 191.173 336.213 187.721C338.41 185.128 341.36 184.043 344.642 183.58C347.99 183.104 351.814 183.329 354.407 185.776C356.088 187.363 356.868 189.599 356.577 191.874C356.273 194.718 355.982 197.734 355.77 200.776C357.159 196.001 358.258 191.305 358.932 188.157C358.8 187.575 358.694 186.967 358.668 186.411C358.35 181.239 362.757 178.475 367.335 177.813C373.527 176.927 379.416 179.043 381.956 185.062C382.737 186.914 383.24 189.612 383.65 191.596C383.888 192.774 384.113 193.964 384.338 195.155C387.567 193.184 390.994 191.345 393.918 190.419C397.438 189.215 401.381 190.736 402.638 194.387C403.776 197.668 402.135 201.08 399.052 202.562C398.959 202.602 398.88 202.641 398.787 202.681C394.778 204.334 390.147 207.271 386.257 209.956C386.257 210.036 386.257 210.102 386.27 210.181C386.508 214.083 386.389 218.025 385.992 221.914C384.801 233.726 380.157 250.3 372.35 259.533L372.178 259.745C367.52 265.248 363.021 269.877 355.479 270.949C352.846 271.319 350.226 271.028 347.884 269.705C342.948 266.914 341.572 260.988 341.254 255.763C341.03 251.967 341.599 247.946 342.75 243.911C341.651 244.269 340.527 244.507 339.508 244.652C336.703 245.049 332.932 244.983 330.537 243.25C328.684 246.425 323.563 247.205 320.216 247.615C267.01 254.189 213.645 261.848 160.995 272.02C147.419 274.639 133.816 277.099 120.266 279.851C108.675 282.219 97.0045 284.758 85.625 287.986C78.5723 289.983 68.688 292.959 62.5351 296.981C59.5446 298.938 55.9058 299.719 52.4258 298.78C49.4089 297.959 46.8154 295.869 45.7172 292.946L45.7304 292.959Z" fill="black"/>
<path fill-rule="evenodd" clip-rule="evenodd" d="M308.306 239.044C245.6 246.319 187.974 253.449 144.798 260.195C122.912 263.621 63.7917 272.84 51.3271 287.219C47.5957 291.531 53.8412 296.703 59.7956 292.801C76.5077 281.875 128.166 273.25 160.055 267.099C207.677 257.893 261.862 249.93 319.606 242.642C332.878 241.16 324.701 237.139 308.306 239.044ZM338.33 236.332C341.241 235.909 343.715 236.332 343.848 237.258C343.98 238.184 341.73 239.282 338.806 239.692C335.895 240.115 333.421 239.692 333.288 238.766C333.156 237.84 335.406 236.742 338.33 236.332Z" fill="#EC1C24"/>
<path d="M33.5834 284.018C33.2659 278.793 37.5001 271.267 41.8667 266.108C45.5981 261.69 51.0497 257.549 57.0835 253.965C56.2896 261.333 53.3918 271.28 47.0139 278.819C42.8723 283.727 38.1352 286.968 35.952 287.285C34.47 287.497 33.6893 285.79 33.5834 284.005V284.018ZM81.3907 240.565C78.4532 241.108 73.7162 242.549 68.3043 244.811C67.0869 241.161 64.5464 237.814 60.9605 235.248C56.3557 231.967 50.5601 230.446 45.4922 231.174C44.9497 231.253 44.5131 231.319 44.1161 231.372C43.9706 231.399 43.825 231.412 43.6927 231.438C43.7721 231.372 43.8515 231.279 43.9044 231.187C50.9174 222.92 54.8341 213.925 54.4239 207.139C53.974 199.758 48.1387 195.591 42.9649 196.332C34.2847 197.576 27.0468 213.224 25.1017 217.801C25.4325 212.814 25.9088 207.417 26.6101 201.636C26.6498 201.279 26.6763 201.015 26.716 200.843C26.7557 200.221 26.544 199.666 26.0279 199.203C24.6386 197.933 21.529 197.615 19.1473 197.959C17.2683 198.224 15.7334 198.872 15.0189 199.718C11.8432 203.502 13.4046 235.883 13.4178 236.2C14.2911 250.552 17.8902 265.526 21.013 272.92C21.9657 275.129 23.2492 276.028 25.0355 275.777C27.0203 275.499 28.1583 273.833 28.0789 272.444C28.0657 272.179 27.8937 271.187 27.6555 269.653C26.9145 265.023 25.3531 255.407 24.9032 247.84C24.6915 244.362 24.5195 240.102 24.5327 235.076C26.1206 226.782 30.593 214.613 36.6665 207.43C39.5511 203.991 43.2031 201.372 44.0764 201.24C44.1823 201.226 44.3543 201.385 44.4337 202.642C44.963 211.306 37.606 228.277 31.4398 235.578C30.6856 236.438 30.2622 237.047 30.3283 238.105C30.3945 239.242 31.9162 240.261 34.245 239.93C34.6155 239.877 34.9993 239.758 35.383 239.586C35.899 239.494 36.4945 239.163 37.3546 238.674C39.0483 237.695 41.602 236.213 45.6907 235.618C55.0061 234.282 56.938 242.946 57.2555 248.224C57.2952 248.846 57.2952 249.52 57.2952 250.235C50.4543 254.137 43.5868 259.176 38.3734 265.341C31.4928 273.476 28.6479 281.597 28.8993 285.724C29.1242 289.494 32.2867 291.492 36.9179 290.817C43.7589 289.838 52.4391 282.841 57.5995 276.73C57.7186 276.584 69.8127 261.875 69.0188 248.713C69.0056 248.475 68.9923 248.224 68.9791 247.959C73.5971 245.989 78.1621 244.441 82.1582 243.462C83.1903 243.211 83.5872 242.417 83.5079 241.795C83.4152 241.055 82.661 240.38 81.3907 240.565Z" fill="#F3E01B"/>
<path d="M110.249 236.636C109.561 236.504 108.727 236.835 108.423 237.721C108.383 237.827 108.33 238.025 108.291 238.237C104.467 251.173 100.404 259.454 96.7921 261.557C95.9453 261.57 93.4444 258.091 92.7564 246.822C92.3859 240.75 92.8622 234.374 93.193 230.168C93.3253 228.25 93.4312 226.888 93.4047 226.279C93.2856 224.295 90.3084 223.21 86.5108 223.753C84.8833 223.991 82.6868 224.559 81.4694 226.028C79.6831 228.144 79.8551 235.829 80.1198 240.221C81.0857 256.107 87.3974 266.385 95.4689 265.234C98.0095 264.864 99.7826 263.819 101.794 261.478C107.576 254.652 111.281 238.475 111.321 238.316C111.533 237.324 110.937 236.755 110.249 236.65V236.636ZM87.3974 220.79C90.2952 220.38 93.1798 217.88 92.9681 214.454C92.7828 211.332 90.1629 209.242 87.0401 209.692C83.785 210.155 81.4033 212.972 81.5885 216.067C81.7473 218.779 83.9703 221.279 87.3974 220.79Z" fill="#F3E01B"/>
<path d="M149.337 231.782C149.178 231.213 148.543 230.856 147.829 230.962C147.392 231.028 146.81 231.213 146.135 231.411C145.222 231.689 144.071 232.033 142.88 232.205C141.371 232.417 139.426 231.901 138.262 230.988C137.534 230.419 136.939 229.335 136.356 228.277C135.814 227.298 135.311 226.345 134.716 225.882C133.829 225.195 132.718 224.943 131.447 225.128C129.992 225.34 129.277 225.869 128.576 226.702C125.744 230.049 123.244 239.758 121.854 246.081C121.298 235.79 121.788 228.713 122.079 224.824C122.185 223.356 122.251 222.39 122.211 221.848C122.079 219.665 119.3 218.634 115.106 219.229C112.261 219.639 110.17 220.565 109.019 221.914C107.603 223.581 107.233 230.618 107.603 236.689C108.463 250.883 113.465 261.544 116.032 263.555C117.144 264.414 118.096 264.957 119.221 264.798C121.034 264.533 122.278 263.568 122.82 261.98C123.124 261.121 123.495 259.189 123.998 256.504C125.321 249.56 127.544 237.972 131.328 230.962C131.381 231.041 131.447 231.107 131.487 231.187C131.897 231.795 132.36 232.483 133.247 233.184C135.92 235.274 139.678 235.83 142.205 235.472C144.693 235.115 147.538 233.938 148.477 233.409C149.192 232.986 149.509 232.404 149.324 231.822L149.337 231.782Z" fill="#F3E01B"/>
<path d="M174.425 227.47C173.499 227.523 172.427 228.184 172.281 229.242C171.672 238.7 167.094 255.75 164.276 259.071C161.338 257.1 157.699 245.499 156.614 227.549C156.098 218.991 156.694 207.946 157.342 198.925C157.594 198.885 157.858 198.845 158.136 198.806C160.2 198.515 164.739 197.919 167.743 197.536C169.158 197.351 170.204 197.218 170.442 197.192C171.553 197.033 172.149 196.173 172.069 194.877C172.017 194.07 171.514 192.747 169.926 192.88C168.351 193.025 162.251 193.753 157.673 194.388C157.779 193.065 157.871 191.808 157.977 190.631C158.321 186.478 158.546 183.462 158.493 182.536C158.321 179.599 154.762 179.044 151.507 179.52C149.509 179.811 147.789 180.724 147.18 181.451C145.844 183.025 145.089 189.269 144.679 196.345C139.175 197.192 134.173 197.999 133.591 198.144C132.453 198.448 131.857 199.374 131.937 200.671C132.016 202.033 133.061 203.144 134.08 202.999C136.475 202.655 139.413 202.113 142.813 201.464C143.356 201.372 143.912 201.266 144.481 201.147C144.203 208.673 144.282 216.187 144.481 219.335C145.989 244.229 152.38 257.616 157.395 261.531C159.009 262.814 161.325 263.436 163.244 263.158C164.474 262.986 166.247 262.417 167.663 260.751C172.691 254.798 176.211 232.536 175.973 228.74C175.92 227.946 175.325 227.443 174.438 227.483L174.425 227.47Z" fill="#F3E01B"/>
<path d="M191.137 177.43C192.474 178.541 194.631 181.914 195.001 187.985C195.769 200.671 187.194 215.076 182.325 219.295C181.796 201.822 186.506 182.602 191.137 177.43ZM230.516 218.528C229.775 218.435 228.875 218.819 228.637 219.798C228.571 220.049 228.412 220.671 228.2 221.57C226.665 227.787 222.034 246.584 216.212 250.869C215.524 250.248 213.817 248.436 213.341 240.764C213.129 237.298 213.301 233.078 213.447 228.991C213.579 225.301 213.711 221.808 213.552 219.203C212.983 209.93 209.887 206.24 203.43 207.165C192.871 208.673 186.837 229.983 185.289 241.279C184.23 236.716 183.106 230.711 182.576 223.581C188.015 220.578 200.784 205.009 199.566 184.93C198.984 175.313 195.451 171.305 188.438 172.311C175.206 174.202 168.59 196.65 169.834 217.258C171.157 239.11 179.427 250.116 182.497 252.51C183.516 253.33 184.415 253.621 185.315 253.489C185.527 253.462 185.712 253.436 185.897 253.369C187.446 252.946 188.226 251.756 188.504 249.401C189.642 239.996 193.585 222.113 201.339 214.11C201.339 214.613 201.339 215.195 201.339 215.83C201.326 218.634 201.273 222.43 201.524 226.465C202.358 240.102 206.487 255.579 215.431 254.295C225.223 252.893 230.728 225.592 231.733 220.089C231.905 219.15 231.244 218.607 230.542 218.528H230.516Z" fill="#F3E01B"/>
<path d="M252.388 211.345C251.091 217.06 247.175 234.282 243.8 238.7C242.782 237.602 240.929 233.422 240.559 227.179C239.95 217.205 244.383 208.237 246.884 207.88C247.677 207.761 251.224 209.216 252.679 210.076C252.613 210.393 252.52 210.83 252.401 211.345M273.52 171.438C274.803 172.218 276.259 174.97 276.523 179.401C277.172 190.195 271.442 203.991 265.739 209.97C265.739 191.782 269.921 175.869 273.506 171.438H273.52ZM287.347 211.213C286.593 211.2 285.706 211.676 285.548 212.761C285.534 212.867 285.495 213.012 285.468 213.224C283.007 228.912 278.693 239.586 273.625 242.523C270.675 241.703 266.837 231.041 265.977 216.861C265.924 215.909 265.858 214.983 265.832 214.031C267.234 213.158 269.352 211.266 270.648 209.745C276.285 203.052 282.12 188.184 281.472 177.496C280.969 169.216 277.45 165.657 270.688 166.636C259.692 168.21 253.553 185.724 252.917 204.216C251.528 203.581 248.432 202.47 244.647 203.012C234.498 204.467 227.34 213.859 228.015 224.851C228.451 232.139 232.5 238.475 236.086 241.253C237.859 242.655 240.426 243.303 242.742 242.973C244.224 242.761 246.09 242.272 247.677 240.407C250.668 236.875 252.917 227.219 254.002 222.576C254.069 222.298 254.121 222.047 254.188 221.795C255.339 227.655 257.244 232.973 259.785 237.245C263.463 243.449 268.108 246.663 272.474 246.041C284.621 244.295 287.678 220.486 288.71 212.668C288.803 211.782 288.101 211.293 287.36 211.253L287.347 211.213Z" fill="#F3E01B"/>
<path d="M308.412 206.517C305.713 213.806 301.704 224.705 299.984 227.589C299.666 226.835 299.097 224.877 298.793 219.771C297.972 206.226 303.913 199.321 306.295 198.977C307.817 198.766 309.841 199.507 310.807 200.128C310.424 201.067 309.511 203.475 308.412 206.517ZM340.923 203.779C340.169 203.581 339.203 203.845 338.872 204.665C337.285 209.136 331.74 223.792 327.149 224.454C324.833 224.784 322.994 219.176 322.452 210.168C322.213 206.279 322.452 201.477 322.637 197.959C322.716 196.067 322.796 194.586 322.756 193.938C322.61 191.504 319.448 190.67 316.391 191.107C314.578 191.372 313.242 191.94 312.554 192.774C311.8 193.633 311.442 195.181 311.297 195.935C309.616 194.996 306.308 194.176 302.021 194.797C291.475 196.305 284.343 205.724 285.045 217.192C285.746 228.647 293.487 234.904 298.515 234.189C300.5 233.912 301.717 233.263 302.895 231.861C305.329 228.978 309.14 217.126 310.966 211.411C311.257 210.578 311.482 209.864 311.641 209.361C312.713 215.922 316.18 229.229 326.553 227.747C330.602 227.165 336.517 222.972 341.691 206.266C341.784 205.962 341.863 205.737 341.929 205.578C342.247 204.533 341.598 203.951 340.937 203.779H340.923Z" fill="#F3E01B"/>
<path d="M359.158 258.554C357.252 260.79 355.664 262.06 354.54 262.219C353.309 262.39 350.821 259.176 350.464 253.396C349.855 243.25 357.755 229.983 363.22 223.515C365.165 221.213 367.309 218.991 369.571 216.874C369.624 217.483 369.664 218.065 369.704 218.647C371.106 241.742 362.783 254.242 359.158 258.554ZM397.875 196.067C397.623 195.313 396.697 194.784 395.493 195.221C392.621 196.12 386.958 199.202 380.567 203.686C379.601 196.372 378.013 188.7 377.299 187.046C375.896 183.66 372.601 182.165 368.036 182.826C365.152 183.237 363.564 184.44 363.67 186.147C363.683 186.477 363.829 187.139 364.067 188.157C363.193 192.483 358.509 214.268 352.184 220.935C351.721 220.168 350.954 218.647 350.583 212.694C350.279 207.76 350.636 200.379 351.589 191.345C351.695 190.618 351.457 189.956 350.954 189.48C349.975 188.541 347.977 188.237 345.357 188.607C342.763 188.977 341.175 189.692 340.051 191.028C338.582 192.774 338.092 200.406 338.476 206.768C339.27 219.917 345.33 226.001 350.874 225.194C352.833 224.917 354.645 223.898 355.982 222.324C359.316 218.356 363.524 207.522 366.052 196.345C367.163 201.067 368.394 206.954 369.135 212.8C366.184 215.472 363.339 218.329 360.812 221.319C355.056 228.131 345.515 242.999 346.27 255.486C346.746 263.316 349.525 266.756 354.765 266.002C361.089 265.089 364.94 260.539 368.341 256.531L368.513 256.319C375.473 248.091 382.327 228.237 381.255 210.525C381.202 209.573 381.123 208.581 381.017 207.562C387.554 202.853 393.614 199.427 396.869 198.091C397.888 197.602 398.113 196.729 397.888 196.094L397.875 196.067Z" fill="#F3E01B"/>
<path d="M349.048 294.745C350.107 295.42 350.742 296.333 350.967 297.47C351.192 298.608 351.007 299.653 350.398 300.605C349.763 301.584 348.876 302.206 347.751 302.444C346.613 302.695 345.555 302.497 344.576 301.862C343.61 301.24 343.001 300.354 342.763 299.216C342.512 298.079 342.71 297.02 343.332 296.055C343.994 295.023 344.907 294.401 346.045 294.203C347.196 294.005 348.188 294.177 349.048 294.732M342.961 310.46L334.903 304.891L341.506 312.563L342.961 310.46ZM333.858 297.192L346.23 305.751L347.156 304.415L350.385 306.65L349.458 307.986L352.78 310.288L349.525 314.997L346.203 312.695L342.313 318.317L339.085 316.081L329.544 303.436L333.871 297.192H333.858ZM341.519 319.005L344.523 321.531L336.385 331.187L333.871 329.058C331.608 322.259 330.153 318.118 329.491 316.637C328.83 315.156 328.195 314.15 327.573 313.634C327.096 313.238 326.673 313.013 326.289 312.986C325.919 312.947 325.588 313.105 325.31 313.436C325.032 313.767 324.953 314.137 325.072 314.507C325.191 314.891 325.641 315.407 326.408 316.055L328.075 317.457L324.754 321.399L324.119 320.857C323.14 320.023 322.399 319.322 321.923 318.74C321.433 318.158 321.089 317.444 320.877 316.584C320.665 315.724 320.679 314.851 320.943 313.978C321.195 313.105 321.698 312.219 322.452 311.333C323.921 309.587 325.469 308.634 327.096 308.462C328.711 308.304 330.193 308.78 331.516 309.891C332.521 310.738 333.381 311.888 334.07 313.343C334.771 314.798 335.896 318.29 337.457 323.82L341.519 319.005ZM318.231 325.301C317.384 324.415 316.815 323.912 316.511 323.78C316.22 323.634 315.902 323.727 315.584 324.031C315.28 324.322 315.187 324.64 315.32 324.97C315.439 325.301 315.915 325.896 316.736 326.743L324.516 334.812C325.442 335.777 326.051 336.306 326.329 336.412C326.607 336.518 326.911 336.425 327.215 336.134C327.52 335.843 327.612 335.526 327.48 335.209C327.348 334.891 326.898 334.322 326.117 333.515L318.218 325.314L318.231 325.301ZM323.696 322.708L329.015 328.238C330.232 329.494 331.039 330.473 331.45 331.174C331.873 331.875 332.098 332.682 332.151 333.608C332.204 334.521 332.032 335.381 331.635 336.174C331.238 336.981 330.669 337.735 329.915 338.463C328.922 339.415 327.996 340.09 327.123 340.5C326.249 340.896 325.389 341.042 324.529 340.936C323.669 340.817 322.902 340.579 322.227 340.209C321.539 339.825 320.639 339.058 319.514 337.894L313.944 332.113C312.475 330.592 311.509 329.322 311.046 328.317C310.583 327.312 310.517 326.201 310.861 324.984C311.205 323.78 311.932 322.642 313.044 321.571C313.957 320.698 314.91 320.076 315.942 319.706C316.961 319.335 317.874 319.203 318.667 319.322C319.461 319.441 320.202 319.719 320.877 320.169C321.552 320.619 322.505 321.478 323.709 322.735L323.696 322.708ZM320.255 341.611L322.849 344.56L313.361 352.894L311.205 350.42C309.987 343.357 309.167 339.045 308.73 337.484C308.307 335.923 307.817 334.838 307.288 334.23C306.878 333.754 306.481 333.489 306.124 333.396C305.766 333.304 305.409 333.396 305.091 333.687C304.761 333.978 304.628 334.322 304.694 334.719C304.761 335.116 305.118 335.698 305.793 336.452L307.235 338.092L303.358 341.492L302.802 340.857C301.955 339.891 301.333 339.084 300.937 338.436C300.54 337.788 300.315 337.021 300.222 336.148C300.143 335.261 300.288 334.402 300.672 333.582C301.056 332.748 301.691 331.955 302.564 331.187C304.284 329.679 305.952 328.965 307.579 329.044C309.207 329.124 310.596 329.812 311.734 331.121C312.607 332.113 313.269 333.37 313.745 334.918C314.222 336.452 314.817 340.076 315.531 345.791L320.269 341.637L320.255 341.611ZM290.682 345.579L293.619 349.772C294.162 349.389 294.493 349.045 294.612 348.74C294.731 348.436 294.493 347.867 293.91 347.034L293.183 346.002C292.759 345.407 292.375 345.09 292.045 345.05C291.701 345.01 291.251 345.195 290.695 345.579H290.682ZM283.523 345.791L286.99 343.37C289.306 341.756 290.933 340.751 291.873 340.354C292.812 339.957 293.804 339.944 294.837 340.328C295.869 340.698 296.94 341.69 298.065 343.291C299.097 344.759 299.6 345.87 299.587 346.624C299.587 347.378 299.071 348.185 298.065 349.031C299.203 348.595 300.09 348.463 300.698 348.635C301.307 348.807 301.783 349.031 302.101 349.309C302.419 349.587 303.107 350.486 304.178 352.008L307.658 356.981L303.107 360.169L298.714 353.899C298.012 352.894 297.496 352.325 297.165 352.193C296.835 352.061 296.345 352.232 295.67 352.695L301.625 361.201L296.716 364.64L283.523 345.791ZM274.658 350.804L283.285 345.791L285.601 349.759L282.16 351.77L284.37 355.566L287.585 353.688L289.782 357.457L286.567 359.336L289.107 363.714L292.905 361.505L295.22 365.473L286.236 370.698L274.658 350.817V350.804ZM272.633 365.949L275.505 371.73C276.232 371.333 276.643 370.989 276.748 370.672C276.841 370.354 276.682 369.786 276.272 368.952L275.319 367.021C274.883 366.135 274.525 365.645 274.248 365.553C273.97 365.46 273.44 365.592 272.646 365.949H272.633ZM268.769 358.158L271.045 362.748C271.27 362.629 271.442 362.537 271.561 362.471C272.078 362.219 272.342 361.928 272.355 361.598C272.369 361.267 272.064 360.487 271.469 359.27C271.151 358.621 270.86 358.198 270.622 358C270.384 357.801 270.146 357.709 269.921 357.735C269.696 357.762 269.312 357.907 268.769 358.158ZM261.651 357.312L266.983 354.666C268.664 353.833 270.013 353.33 271.006 353.158C271.998 352.986 272.964 353.172 273.904 353.714C274.843 354.256 275.743 355.407 276.629 357.193C277.225 358.397 277.463 359.322 277.317 359.984C277.172 360.645 276.603 361.386 275.624 362.193C277 361.862 278.085 361.902 278.839 362.325C279.607 362.762 280.321 363.635 280.996 364.984L281.949 366.889C282.637 368.278 282.994 369.389 283.007 370.222C283.02 371.042 282.743 371.756 282.174 372.352C281.605 372.947 280.242 373.78 278.085 374.838L271.892 377.907L261.651 357.299V357.312ZM257.932 365.076C257.535 364.084 257.231 363.476 257.019 363.238C256.808 363 256.53 362.947 256.199 363.079C255.921 363.185 255.749 363.383 255.683 363.674C255.617 363.952 255.802 364.653 256.239 365.751L260.195 375.738C260.685 376.981 261.042 377.722 261.254 377.973C261.465 378.225 261.757 378.278 262.114 378.132C262.484 377.987 262.656 377.722 262.63 377.352C262.603 376.981 262.339 376.161 261.836 374.905L257.946 365.076H257.932ZM266.295 369.891C267.142 372.047 267.698 373.582 267.949 374.508C268.201 375.447 268.214 376.386 267.976 377.338C267.737 378.291 267.235 379.137 266.494 379.891C265.739 380.645 264.773 381.267 263.569 381.743C262.418 382.193 261.32 382.418 260.261 382.391C259.203 382.378 258.25 382.114 257.403 381.571C256.556 381.042 255.895 380.354 255.445 379.521C254.995 378.674 254.333 377.153 253.46 374.957L252.018 371.293C251.171 369.137 250.615 367.603 250.364 366.664C250.112 365.725 250.099 364.785 250.337 363.833C250.575 362.881 251.078 362.034 251.819 361.28C252.573 360.526 253.539 359.904 254.744 359.428C255.895 358.979 256.993 358.767 258.052 358.78C259.11 358.793 260.063 359.058 260.91 359.587C261.757 360.116 262.418 360.804 262.868 361.637C263.318 362.484 263.979 364.005 264.853 366.201L266.295 369.865V369.891ZM248.749 362.206L250.152 366.584L246.804 367.656L252.428 385.196L246.725 387.021L241.101 369.481L237.714 370.566L236.311 366.188L248.749 362.206ZM239.315 375.645L233.466 376.981L232.58 373.092C232.315 371.955 232.104 371.267 231.905 371.016C231.72 370.764 231.415 370.685 230.992 370.778C230.516 370.883 230.251 371.121 230.211 371.492C230.158 371.862 230.264 372.616 230.529 373.754L232.911 384.164C233.162 385.262 233.387 385.95 233.599 386.254C233.797 386.558 234.128 386.651 234.578 386.558C235.015 386.466 235.253 386.227 235.306 385.857C235.359 385.5 235.253 384.693 234.962 383.463L234.313 380.645L240.162 379.309L240.36 380.182C240.89 382.51 241.101 384.19 240.995 385.235C240.89 386.28 240.36 387.299 239.408 388.291C238.455 389.283 237.158 389.958 235.504 390.341C233.797 390.725 232.315 390.751 231.071 390.381C229.828 390.011 228.888 389.323 228.28 388.317C227.671 387.299 227.115 385.698 226.612 383.503L225.117 376.955C224.747 375.341 224.522 374.111 224.455 373.278C224.389 372.444 224.535 371.584 224.919 370.711C225.302 369.838 225.924 369.071 226.797 368.423C227.671 367.775 228.743 367.299 230.013 367.008C231.733 366.611 233.228 366.624 234.499 367.034C235.769 367.444 236.682 368.106 237.264 369.005C237.846 369.918 238.362 371.412 238.852 373.516L239.341 375.645H239.315ZM218.435 375.659C218.316 374.6 218.17 373.926 218.025 373.648C217.879 373.37 217.614 373.251 217.27 373.291C216.966 373.331 216.754 373.476 216.609 373.741C216.477 373.992 216.477 374.706 216.609 375.883L217.866 386.545C218.025 387.868 218.17 388.688 218.316 388.979C218.461 389.283 218.726 389.402 219.11 389.362C219.507 389.323 219.745 389.111 219.811 388.741C219.877 388.37 219.837 387.51 219.679 386.175L218.448 375.672L218.435 375.659ZM225.276 382.471C225.54 384.772 225.686 386.399 225.686 387.365C225.686 388.331 225.461 389.243 224.985 390.103C224.508 390.963 223.807 391.651 222.894 392.193C221.981 392.735 220.87 393.079 219.586 393.225C218.369 393.37 217.244 393.291 216.225 393.013C215.206 392.722 214.346 392.22 213.671 391.492C212.983 390.764 212.533 389.931 212.308 389.005C212.083 388.079 211.832 386.439 211.554 384.085L211.091 380.169C210.826 377.868 210.681 376.241 210.681 375.275C210.681 374.309 210.906 373.397 211.382 372.537C211.859 371.677 212.56 370.989 213.473 370.447C214.386 369.905 215.497 369.561 216.781 369.415C217.998 369.27 219.123 369.349 220.142 369.627C221.161 369.918 222.021 370.42 222.696 371.148C223.384 371.875 223.834 372.709 224.058 373.635C224.283 374.561 224.535 376.201 224.813 378.555L225.276 382.471ZM205.19 371.571L205.348 394.574L199.619 394.614L199.526 382.259C199.526 380.473 199.46 379.402 199.381 379.045C199.288 378.688 199.05 378.41 198.666 378.225C198.282 378.04 197.422 377.96 196.099 377.96H195.53L195.517 375.288C198.282 374.68 200.386 373.436 201.802 371.571L205.176 371.545L205.19 371.571ZM192.355 381.677C193.215 382.008 193.837 382.51 194.233 383.185C194.63 383.873 194.776 385.447 194.683 387.907C194.617 389.733 194.353 391.148 193.889 392.14C193.44 393.132 192.685 393.873 191.64 394.349C190.595 394.839 189.285 395.05 187.684 394.984C185.871 394.918 184.455 394.548 183.449 393.899C182.431 393.251 181.782 392.471 181.491 391.571C181.2 390.672 181.094 389.124 181.187 386.942L181.253 385.13L186.982 385.354L186.837 389.098C186.797 390.09 186.837 390.738 186.943 391.003C187.048 391.28 187.313 391.426 187.723 391.439C188.173 391.452 188.464 391.294 188.623 390.963C188.782 390.632 188.888 389.746 188.941 388.304L189.007 386.717C189.047 385.831 188.967 385.182 188.782 384.772C188.597 384.362 188.319 384.085 187.935 383.939C187.551 383.794 186.81 383.688 185.686 383.635L185.818 380.288C187.181 380.341 188.014 380.315 188.345 380.235C188.663 380.143 188.914 379.931 189.06 379.574C189.219 379.23 189.311 378.688 189.338 377.934L189.391 376.664C189.417 375.857 189.364 375.328 189.205 375.063C189.047 374.799 188.795 374.667 188.451 374.653C188.054 374.64 187.776 374.759 187.617 375.024C187.459 375.288 187.366 375.857 187.326 376.743L187.247 378.622L181.518 378.397L181.597 376.439C181.676 374.243 182.245 372.788 183.277 372.061C184.309 371.333 185.924 371.002 188.107 371.095C190.846 371.201 192.672 371.809 193.612 372.92C194.538 374.032 194.974 375.539 194.908 377.431C194.855 378.714 194.644 379.64 194.273 380.196C193.903 380.751 193.268 381.254 192.368 381.69L192.355 381.677ZM180.446 382.735L180.128 386.677L172.639 386.069L172.956 382.127L180.446 382.735ZM169.185 370.037L165.216 392.696L159.566 391.704L161.696 379.534C162 377.775 162.146 376.704 162.133 376.346C162.106 375.976 161.921 375.659 161.577 375.42C161.233 375.169 160.412 374.931 159.102 374.706L158.547 374.614L159.01 371.981C161.841 371.875 164.131 371.029 165.864 369.455L169.185 370.037ZM155.437 367.669L149.258 389.825L144.216 388.423L148.371 373.463L142.192 387.868L138.659 386.889L140.631 371.677L136.529 386.294L131.487 384.891L137.667 362.722L145.116 364.799C144.957 366.201 144.746 367.841 144.481 369.706L143.727 375.566L147.921 365.579L155.424 367.669H155.437ZM129.846 365.817C130.217 364.825 130.415 364.164 130.402 363.833C130.402 363.516 130.23 363.291 129.899 363.158C129.608 363.053 129.357 363.079 129.119 363.251C128.881 363.423 128.55 364.058 128.14 365.156L124.342 375.209C123.866 376.452 123.627 377.246 123.614 377.577C123.614 377.907 123.773 378.145 124.143 378.278C124.514 378.423 124.818 378.344 125.056 378.04C125.281 377.749 125.639 376.955 126.115 375.698L129.846 365.804V365.817ZM132.784 375.01C131.964 377.18 131.342 378.688 130.892 379.547C130.455 380.407 129.82 381.108 129.013 381.651C128.192 382.193 127.253 382.484 126.194 382.55C125.136 382.603 123.998 382.405 122.781 381.942C121.629 381.505 120.677 380.923 119.896 380.209C119.129 379.481 118.599 378.648 118.321 377.682C118.043 376.717 118.03 375.778 118.255 374.852C118.48 373.926 119.023 372.352 119.856 370.143L121.246 366.465C122.066 364.296 122.688 362.788 123.138 361.928C123.574 361.068 124.21 360.367 125.017 359.825C125.837 359.283 126.777 358.992 127.835 358.926C128.894 358.873 130.032 359.071 131.249 359.534C132.4 359.971 133.366 360.553 134.134 361.267C134.914 361.994 135.43 362.828 135.708 363.793C135.986 364.759 135.999 365.698 135.774 366.624C135.549 367.55 135.007 369.124 134.173 371.333L132.784 375.01ZM116.416 357.801L114.14 362.391C114.735 362.682 115.199 362.815 115.516 362.762C115.834 362.709 116.231 362.233 116.681 361.333L117.236 360.195C117.567 359.534 117.66 359.045 117.527 358.727C117.395 358.41 117.025 358.092 116.416 357.788V357.801ZM112.79 351.611L116.588 353.489C119.115 354.746 120.783 355.685 121.576 356.32C122.37 356.955 122.86 357.815 123.019 358.899C123.191 359.984 122.833 361.399 121.96 363.158C121.166 364.759 120.425 365.738 119.764 366.095C119.089 366.452 118.149 366.386 116.919 365.923C117.845 366.717 118.388 367.418 118.533 368.039C118.679 368.661 118.705 369.177 118.612 369.587C118.52 369.997 118.057 371.042 117.236 372.709L114.537 378.145L109.562 375.672L112.962 368.82C113.505 367.722 113.756 366.994 113.717 366.637C113.677 366.293 113.293 365.936 112.552 365.566L107.934 374.865L102.562 372.206L112.79 351.598V351.611ZM103.687 346.505L112.526 351.452L110.276 355.46L106.664 353.449L104.52 357.285L107.722 359.071L105.592 362.881L102.39 361.095L97.6794 369.521L92.4527 366.598L103.687 346.518V346.505ZM90.7458 342.431L82.0788 354.865C82.7801 355.354 83.3094 355.5 83.6667 355.341C84.0239 355.169 84.6458 354.455 85.5324 353.198L90.6532 345.857C91.2486 344.997 91.6059 344.428 91.725 344.15C91.8441 343.873 91.8441 343.608 91.725 343.37C91.6191 343.119 91.3015 342.814 90.7723 342.444L90.7458 342.431ZM88.0729 335.791L91.7514 338.343C94.12 339.997 95.6417 341.214 96.3297 342.021C97.0178 342.828 97.4015 343.621 97.4809 344.428C97.5735 345.222 97.4544 345.976 97.1369 346.65C96.8193 347.338 96.0386 348.568 94.7948 350.367L90.1901 356.981C89.0124 358.674 88.1391 359.759 87.5834 360.209C87.0276 360.672 86.4322 360.923 85.8103 360.976C85.1884 361.016 84.54 360.897 83.8652 360.632C83.1903 360.354 82.2773 359.799 81.0997 358.992L74.9071 354.68L88.0729 335.804V335.791ZM87.8745 335.433L73.1075 353.079L68.516 349.23L83.2829 331.584L87.8745 335.433ZM80.4513 329.322L67.7618 342.669L70.3817 345.156L67.2193 348.489L60.2592 341.875L76.1112 325.195L80.4513 329.322ZM60.7753 330.804C62.4557 328.793 64.5861 326.346 67.1399 323.436C63.5408 326.068 60.9473 328.039 59.3594 329.336L60.762 330.804H60.7753ZM73.6633 322.854L59.4124 341.254L55.1781 336.836L57.9304 333.74L56.4352 332.179L53.233 334.799L48.9458 330.328L67.6559 316.597L73.65 322.841L73.6633 322.854ZM67.2325 316.439L47.4506 328.582L41.7344 321.544L57.4276 304.349L61.4104 309.256C56.9247 313.806 53.0875 317.589 49.8853 320.605C53.5373 318.066 56.7924 315.83 59.677 313.925L63.2629 311.531L67.2457 316.439H67.2325ZM48.5886 311.624C47.5697 312.351 46.4847 312.603 45.3467 312.391C44.2088 312.179 43.2958 311.611 42.6474 310.698C41.9725 309.745 41.7344 308.7 41.9329 307.55C42.1313 306.412 42.7003 305.499 43.653 304.825C44.5925 304.163 45.6378 303.925 46.7758 304.124C47.927 304.322 48.8267 304.891 49.5016 305.83C50.2161 306.835 50.441 307.907 50.2029 309.044C49.9647 310.182 49.4222 311.042 48.5886 311.637V311.624Z" fill="#231F20"/>
</svg>
