<svg width="544" height="243" viewBox="0 0 544 243" fill="none" xmlns="http://www.w3.org/2000/svg">
<path d="M31.1272 86L4.59659 0.0409061H21.3403C23.0697 0.0409061 24.524 0.433951 25.7031 1.22004C26.8823 2.00613 27.6291 3.06736 27.9435 4.40371L39.7349 49.2109C40.1279 50.6259 40.521 52.1588 40.914 53.8096C41.3071 55.4604 41.6215 57.1898 41.8573 58.9978C42.0145 58.2117 42.329 56.8753 42.8006 54.9887C43.3509 53.0235 43.9012 51.0975 44.4514 49.2109L58.3652 4.40371C58.7583 3.30319 59.5051 2.32057 60.6056 1.45587C61.7847 0.512562 63.1997 0.0409061 64.8505 0.0409061H70.7462C74.2836 0.0409061 76.4846 1.49518 77.3493 4.40371L91.1453 49.2109C91.5383 50.5473 91.9707 52.0015 92.4423 53.5737C92.9926 55.1459 93.4249 56.7967 93.7394 58.5261C94.0538 56.7967 94.3682 55.1459 94.6827 53.5737C95.0757 52.0015 95.4294 50.5473 95.7439 49.2109L107.535 4.40371C107.85 3.22458 108.596 2.20266 109.776 1.33795C110.955 0.473255 112.37 0.0409061 114.021 0.0409061H129.703L103.172 86H85.1317L68.9775 32.703C68.5058 31.1308 68.1128 29.8338 67.7983 28.8119C67.5625 27.7899 67.4053 27.1611 67.3267 26.9252C67.0122 27.8685 66.6978 28.8512 66.3834 29.8731C66.1475 30.8164 65.8724 31.7597 65.558 32.703L49.168 86H31.1272ZM19.8075 4.52163V0.0409061H28.5331V4.52163H19.8075ZM106.828 4.52163V0.0409061H115.553V4.52163H106.828ZM12.3789 0.0409061L10.7281 13.9547L5.5399 12.8935C4.12494 12.5791 2.9851 12.1074 2.1204 11.4785C1.33431 10.7711 0.941265 9.74913 0.941265 8.41278V0.0409061H12.3789ZM36.4333 0.0409061V8.41278C36.4333 9.74913 36.0009 10.7711 35.1362 11.4785C34.3501 12.1074 33.2496 12.5791 31.8347 12.8935L26.6465 13.9547L24.9957 0.0409061H36.4333ZM109.304 0.0409061L107.653 13.9547L102.465 12.8935C101.05 12.5791 99.9102 12.1074 99.0455 11.4785C98.2594 10.7711 97.8663 9.74913 97.8663 8.41278V0.0409061H109.304ZM133.358 0.0409061V8.41278C133.358 9.74913 132.926 10.7711 132.061 11.4785C131.275 12.1074 130.175 12.5791 128.76 12.8935L123.572 13.9547L121.921 0.0409061H133.358ZM145.701 86V0.0409061H165.746V86H145.701ZM136.621 86V77.6281C136.621 76.2918 137.014 75.3092 137.8 74.6803C138.665 73.9728 139.805 73.4618 141.22 73.1474L146.408 72.0862L148.059 86H136.621ZM163.388 86L165.038 72.0862L170.227 73.1474C171.642 73.4618 172.742 73.9728 173.528 74.6803C174.393 75.3092 174.825 76.2918 174.825 77.6281V86H163.388ZM148.059 0.0409061L146.408 13.9547L141.22 12.8935C139.805 12.5791 138.665 12.1074 137.8 11.4785C137.014 10.7711 136.621 9.74913 136.621 8.41278V0.0409061H148.059ZM174.825 0.0409061V8.41278C174.825 9.74913 174.393 10.7711 173.528 11.4785C172.742 12.1074 171.642 12.5791 170.227 12.8935L165.038 13.9547L163.388 0.0409061H174.825ZM188.652 86V0.0409061H199.146C200.797 0.0409061 202.054 0.237429 202.919 0.630474C203.784 1.02352 204.727 1.84892 205.749 3.10667L246.547 54.7529C246.39 53.1021 246.272 51.4906 246.193 49.9184C246.115 48.3462 246.076 46.892 246.076 45.5556V0.0409061H263.645V86H253.268C251.775 86 250.478 85.7642 249.377 85.2925C248.355 84.8209 247.333 83.9562 246.311 82.6984L205.867 31.5239C206.024 33.1747 206.103 34.4717 206.103 35.415C206.181 36.3583 206.221 37.8519 206.221 39.8957V86H188.652ZM179.572 86V77.6281C179.572 76.2918 179.965 75.3092 180.751 74.6803C181.616 73.9728 182.756 73.4618 184.171 73.1474L189.359 72.0862L191.01 86H179.572ZM203.98 86L205.631 72.0862L210.819 73.1474C212.234 73.4618 213.335 73.9728 214.121 74.6803C214.986 75.3092 215.418 76.2918 215.418 77.6281V86H203.98ZM191.01 0.0409061L189.359 13.9547L184.171 12.8935C182.756 12.5791 181.616 12.1074 180.751 11.4785C179.965 10.7711 179.572 9.74913 179.572 8.41278V0.0409061H191.01ZM248.316 0.0409061L246.665 13.9547L241.477 12.8935C240.062 12.5791 238.922 12.1074 238.057 11.4785C237.271 10.7711 236.878 9.74913 236.878 8.41278V0.0409061H248.316ZM272.842 0.0409061V8.41278C272.842 9.74913 272.41 10.7711 271.545 11.4785C270.759 12.1074 269.658 12.5791 268.243 12.8935L263.055 13.9547L261.404 0.0409061H272.842ZM303.581 86V80.992C303.581 79.2961 304.455 78.3157 306.204 78.0508L314.71 76.9379V47.8437C314.71 47.1017 314.71 46.3598 314.71 45.6179C314.763 44.8759 314.816 44.134 314.869 43.3921L308.271 48.7976C307.847 49.1685 307.423 49.4335 306.999 49.5925C306.575 49.6985 306.177 49.7515 305.806 49.7515C305.118 49.7515 304.482 49.619 303.899 49.354C303.369 49.036 302.971 48.6916 302.706 48.3206L298.811 43.1536L316.856 28.05H327.031V76.9379L334.026 77.9713C335.722 78.2362 336.57 79.2431 336.57 80.992V86H303.581ZM381.614 44.1075C385.853 44.1075 389.536 44.9819 392.663 46.7308C395.79 48.4266 398.228 50.8644 399.976 54.0441C401.725 57.2238 402.6 60.9599 402.6 65.2525C402.6 69.5451 401.725 73.3077 399.976 76.5404C398.281 79.7201 395.843 82.2109 392.663 84.0127C389.536 85.7615 385.853 86.6359 381.614 86.6359C377.427 86.6359 373.744 85.7615 370.564 84.0127C367.385 82.2109 364.894 79.7201 363.092 76.5404C361.343 73.3077 360.469 69.5451 360.469 65.2525C360.469 60.9599 361.343 57.2238 363.092 54.0441C364.894 50.8644 367.385 48.4266 370.564 46.7308C373.744 44.9819 377.427 44.1075 381.614 44.1075ZM381.614 77.4943C384.475 77.4943 386.569 76.4874 387.894 74.4736C389.218 72.4598 389.881 69.4126 389.881 65.332C389.881 62.5762 389.589 60.324 389.006 58.5751C388.424 56.7733 387.523 55.4484 386.304 54.6005C385.085 53.6996 383.521 53.2491 381.614 53.2491C379.706 53.2491 378.116 53.6996 376.844 54.6005C375.625 55.4484 374.698 56.7733 374.062 58.5751C373.479 60.324 373.187 62.5762 373.187 65.332C373.187 69.4126 373.85 72.4598 375.175 74.4736C376.553 76.4874 378.699 77.4943 381.614 77.4943ZM412.326 86V53.2491L409.624 52.6927C408.723 52.4807 407.981 52.1627 407.398 51.7388C406.815 51.2618 406.523 50.5729 406.523 49.672V44.8229H412.326V42.5177C412.326 37.7481 413.81 33.959 416.778 31.1502C419.799 28.3415 423.826 26.9372 428.861 26.9372C429.868 26.9372 430.795 27.0166 431.643 27.1756C432.544 27.2816 433.445 27.4671 434.346 27.7321L434.107 33.694C434.054 34.4889 433.736 35.0719 433.153 35.4428C432.57 35.7608 432.04 35.9198 431.563 35.9198C431.51 35.9198 431.431 35.9198 431.325 35.9198C431.219 35.9198 431.113 35.9198 431.007 35.9198C428.728 35.9198 427.032 36.4232 425.919 37.4302C424.807 38.4371 424.25 40.2654 424.25 42.9151V44.8229H433.948V53.2491H424.648V86H412.326ZM406.205 86V80.356C406.205 79.4551 406.47 78.7927 407 78.3687C407.583 77.8918 408.352 77.5473 409.306 77.3353L412.803 76.6199L413.916 86H406.205ZM423.058 86L424.171 76.6199L427.668 77.3353C428.622 77.5473 429.364 77.8918 429.894 78.3687C430.477 78.7927 430.769 79.4551 430.769 80.356V86H423.058ZM463.187 86V80.992C463.187 79.2961 464.061 78.3157 465.81 78.0508L474.315 76.9379V47.8437C474.315 47.1017 474.315 46.3598 474.315 45.6179C474.368 44.8759 474.421 44.134 474.474 43.3921L467.877 48.7976C467.453 49.1685 467.029 49.4335 466.605 49.5925C466.181 49.6985 465.783 49.7515 465.412 49.7515C464.723 49.7515 464.087 49.619 463.505 49.354C462.975 49.036 462.577 48.6916 462.312 48.3206L458.417 43.1536L476.462 28.05H486.637V76.9379L493.632 77.9713C495.328 78.2362 496.176 79.2431 496.176 80.992V86H463.187ZM522.034 86.6359C517.794 86.6359 514.111 85.7615 510.984 84.0127C507.911 82.2639 505.526 79.8261 503.83 76.6994C502.134 73.5727 501.286 69.969 501.286 65.8884C501.286 62.9737 501.843 60.0855 502.956 57.2238C504.069 54.362 505.711 51.4473 507.884 48.4796L520.921 30.9118C521.504 30.1169 522.378 29.4544 523.544 28.9245C524.71 28.3415 526.035 28.05 527.519 28.05H538.489L521.318 48.5591C521.265 48.6121 521.027 48.9036 520.603 49.4335C520.179 49.9635 519.914 50.2814 519.808 50.3874C520.762 50.0164 521.742 49.7515 522.749 49.5925C523.756 49.3805 524.843 49.2745 526.008 49.2745C529.082 49.2745 531.917 49.9635 534.514 51.3413C537.111 52.6662 539.178 54.627 540.715 57.2238C542.304 59.7675 543.099 62.9207 543.099 66.6833C543.099 70.393 542.198 73.7582 540.397 76.7789C538.595 79.7996 536.104 82.2109 532.924 84.0127C529.798 85.7615 526.167 86.6359 522.034 86.6359ZM521.795 76.8584C523.544 76.8584 525.081 76.4609 526.406 75.666C527.784 74.8181 528.844 73.7052 529.586 72.3273C530.381 70.8964 530.778 69.3066 530.778 67.5578C530.778 64.643 529.957 62.3643 528.314 60.7214C526.671 59.0256 524.445 58.1777 521.636 58.1777C519.994 58.1777 518.51 58.5751 517.185 59.3701C515.913 60.165 514.906 61.2779 514.164 62.7087C513.475 64.0866 513.131 65.7029 513.131 67.5578C513.131 69.4656 513.449 71.1349 514.085 72.5658C514.721 73.9437 515.674 75.0036 516.946 75.7455C518.271 76.4874 519.888 76.8584 521.795 76.8584ZM148.039 164L167.515 140.709C167.674 140.497 167.833 140.311 167.992 140.152C168.151 139.94 168.31 139.728 168.469 139.516C167.25 140.152 165.925 140.629 164.494 140.947C163.116 141.265 161.659 141.424 160.122 141.424C157.419 141.424 154.849 140.762 152.411 139.437C149.974 138.112 147.986 136.204 146.449 133.713C144.966 131.17 144.224 128.149 144.224 124.651C144.224 121.101 145.098 117.868 146.847 114.953C148.596 112.038 151.007 109.733 154.081 108.037C157.154 106.289 160.652 105.414 164.574 105.414C168.707 105.414 172.258 106.236 175.226 107.878C178.193 109.521 180.472 111.8 182.062 114.715C183.705 117.629 184.526 121.021 184.526 124.89C184.526 128.493 183.97 131.832 182.857 134.906C181.744 137.926 180.207 140.788 178.246 143.491L165.766 161.218C165.236 162.013 164.388 162.675 163.222 163.205C162.109 163.735 160.837 164 159.407 164H148.039ZM164.574 132.442C166.375 132.442 167.859 132.097 169.025 131.408C170.244 130.666 171.172 129.633 171.807 128.308C172.443 126.983 172.761 125.473 172.761 123.777C172.761 121.922 172.417 120.359 171.728 119.087C171.039 117.815 170.059 116.861 168.787 116.225C167.568 115.536 166.11 115.192 164.415 115.192C162.825 115.192 161.42 115.563 160.202 116.305C159.036 117.046 158.135 118.053 157.499 119.325C156.863 120.597 156.545 122.081 156.545 123.777C156.545 125.685 156.836 127.301 157.419 128.626C158.055 129.898 158.956 130.852 160.122 131.488C161.341 132.124 162.825 132.442 164.574 132.442ZM212.457 164V106.05H225.971V129.5H228.117C229.124 129.5 229.972 129.341 230.661 129.023C231.403 128.705 231.986 128.255 232.41 127.672L245.447 108.753C246.189 107.693 247.01 106.977 247.911 106.606C248.812 106.236 249.925 106.05 251.25 106.05H262.935L245.765 129.5C245.182 130.348 244.546 131.064 243.857 131.647C243.221 132.177 242.558 132.627 241.869 132.998C242.876 133.369 243.777 133.872 244.572 134.508C245.42 135.144 246.189 136.019 246.877 137.132L264.366 164H252.362C250.932 164 249.845 163.815 249.103 163.444C248.361 163.02 247.699 162.384 247.116 161.536L234 141.345C233.523 140.603 232.913 140.099 232.171 139.834C231.482 139.516 230.502 139.357 229.23 139.357H225.971V164H212.457ZM253.634 115.987L244.97 109.309V106.05H258.563L256.735 115.351L253.634 115.987ZM256.735 164L252.283 153.586L258.245 154.699L256.735 164ZM206.336 164V158.356C206.336 157.455 206.601 156.793 207.131 156.369C207.714 155.892 208.483 155.547 209.437 155.335L212.934 154.62L214.047 164H206.336ZM224.381 164L225.494 154.62L228.992 155.335C229.946 155.547 230.688 155.892 231.217 156.369C231.8 156.793 232.092 157.455 232.092 158.356V164H224.381ZM214.047 106.05L212.934 115.43L209.437 114.715C208.483 114.503 207.714 114.185 207.131 113.761C206.601 113.284 206.336 112.595 206.336 111.694V106.05H214.047ZM232.092 106.05V111.694C232.092 112.595 231.8 113.284 231.217 113.761C230.688 114.185 229.946 114.503 228.992 114.715L225.494 115.43L224.381 106.05H232.092ZM256.735 164L257.847 154.62L261.345 155.335C262.299 155.547 263.041 155.892 263.571 156.369C264.154 156.793 264.445 157.455 264.445 158.356V164H256.735ZM262.935 106.05V111.694C262.935 112.595 262.643 113.284 262.061 113.761C261.531 114.185 260.789 114.503 259.835 114.715L256.337 115.43L255.224 106.05H262.935ZM246.083 106.05L244.97 115.43L241.472 114.715C240.518 114.503 239.75 114.185 239.167 113.761C238.637 113.284 238.372 112.595 238.372 111.694V106.05H246.083ZM291.376 164L268.165 106.05H278.976C280.142 106.05 281.095 106.315 281.837 106.845C282.579 107.375 283.109 108.09 283.427 108.991L294.636 139.993C295.113 141.318 295.616 142.776 296.146 144.365C296.676 145.955 297.179 147.625 297.656 149.373C298.027 147.625 298.451 145.955 298.928 144.365C299.405 142.776 299.882 141.318 300.359 139.993L311.488 108.991C311.753 108.249 312.256 107.587 312.998 107.004C313.793 106.368 314.747 106.05 315.86 106.05H326.751L303.539 164H291.376ZM278.419 109.071V106.05H284.302V109.071H278.419ZM312.044 109.071V106.05H317.927V109.071H312.044ZM273.411 106.05L272.298 115.43L268.801 114.715C267.847 114.503 267.078 114.185 266.495 113.761C265.965 113.284 265.7 112.595 265.7 111.694V106.05H273.411ZM289.628 106.05V111.694C289.628 112.595 289.336 113.284 288.753 113.761C288.223 114.185 287.481 114.503 286.527 114.715L283.03 115.43L281.917 106.05H289.628ZM312.998 106.05L311.885 115.43L308.388 114.715C307.434 114.503 306.665 114.185 306.083 113.761C305.553 113.284 305.288 112.595 305.288 111.694V106.05H312.998ZM329.215 106.05V111.694C329.215 112.595 328.923 113.284 328.34 113.761C327.81 114.185 327.069 114.503 326.115 114.715L322.617 115.43L321.504 106.05H329.215ZM320.951 164L343.368 106.05H357.12L379.537 164H369.123C367.957 164 366.977 163.735 366.182 163.205C365.44 162.622 364.936 161.907 364.672 161.059L352.827 126.003C352.456 124.837 352.032 123.618 351.555 122.346C351.131 121.074 350.707 119.617 350.283 117.974C349.859 119.617 349.409 121.048 348.932 122.266C348.508 123.485 348.084 124.757 347.66 126.082L335.816 161.059C335.551 161.801 335.021 162.49 334.226 163.126C333.484 163.709 332.557 164 331.444 164H320.951ZM328.9 164V158.356H338.598V164H328.9ZM336.054 148.896L336.849 139.755H362.764L363.559 148.896H336.054ZM360.299 164V158.356H370.792V164H360.299ZM318.566 164V158.356C318.566 157.455 318.831 156.793 319.361 156.369C319.944 155.892 320.712 155.547 321.666 155.335L325.164 154.62L326.277 164H318.566ZM335.577 164L336.69 154.62L340.188 155.335C341.142 155.547 341.884 155.892 342.414 156.369C342.997 156.793 343.288 157.455 343.288 158.356V164H335.577ZM357.199 164V158.356C357.199 157.455 357.464 156.793 357.994 156.369C358.577 155.892 359.346 155.547 360.299 155.335L363.797 154.62L364.91 164H357.199ZM374.211 164L375.324 154.62L378.821 155.335C379.775 155.547 380.517 155.892 381.047 156.369C381.63 156.793 381.921 157.455 381.921 158.356V164H374.211ZM91.1196 242.636C86.88 242.636 82.9584 241.868 79.3547 240.331C75.804 238.794 72.7038 236.727 70.0541 234.13C67.4573 231.481 65.3905 228.354 63.8537 224.75C62.3168 221.146 61.5484 217.225 61.5484 212.985C61.5484 208.693 62.2638 204.718 63.6947 201.061C65.1256 197.405 67.1924 194.278 69.8951 191.681C72.5449 189.032 75.751 186.991 79.5137 185.56C83.2763 184.13 87.4894 183.414 92.153 183.414C95.1737 183.414 97.8234 183.6 100.102 183.971C102.434 184.342 104.607 184.871 106.621 185.56C108.687 186.196 110.807 187.018 112.98 188.025V196.053L107.018 197.405C104.898 196.292 102.46 195.55 99.7048 195.179C97.002 194.755 94.3258 194.543 91.676 194.543C88.2843 194.543 85.3696 195.338 82.9319 196.928C80.4941 198.465 78.6128 200.611 77.2879 203.367C75.963 206.122 75.3006 209.329 75.3006 212.985C75.3006 216.854 75.9895 220.246 77.3674 223.16C78.7983 226.075 80.7856 228.327 83.3293 229.917C85.8731 231.507 88.8143 232.302 92.153 232.302C94.0078 232.302 95.6506 232.143 97.0815 231.825C98.5124 231.507 99.8637 231.083 101.136 230.553V221.729H95.4122C94.5642 221.729 93.9018 221.517 93.4249 221.094C92.9479 220.617 92.7094 220.034 92.7094 219.345V211.952H113.298V236.436C110.171 238.661 106.833 240.251 103.282 241.205C99.7312 242.159 95.6771 242.636 91.1196 242.636ZM104.315 194.305L112.98 196.053V202.89H108.528C107.627 202.89 106.939 202.625 106.462 202.095C106.038 201.512 105.72 200.743 105.508 199.79L104.315 194.305ZM140.995 242.636C136.755 242.636 133.072 241.709 129.945 239.854C126.819 237.946 124.381 235.323 122.632 231.984C120.936 228.645 120.088 224.803 120.088 220.458C120.088 216.642 120.936 213.197 122.632 210.124C124.328 207.05 126.713 204.612 129.786 202.81C132.86 201.008 136.411 200.108 140.438 200.108C144.148 200.108 147.381 200.876 150.136 202.413C152.945 203.95 155.118 206.122 156.655 208.931C158.192 211.74 158.96 215.105 158.96 219.027C158.96 220.67 158.801 221.835 158.483 222.524C158.165 223.213 157.397 223.558 156.178 223.558H132.41C132.41 223.717 132.41 223.876 132.41 224.035C132.463 224.141 132.516 224.273 132.569 224.432C133.099 227.559 134.185 229.838 135.828 231.269C137.471 232.699 139.564 233.415 142.108 233.415C143.38 233.415 144.651 233.15 145.923 232.62C147.248 232.037 148.52 231.481 149.739 230.951C150.958 230.368 152.018 230.076 152.919 230.076C153.767 230.076 154.509 230.421 155.144 231.11L158.722 235.561C157.079 237.416 155.277 238.873 153.316 239.933C151.355 240.94 149.315 241.629 147.195 242C145.128 242.424 143.062 242.636 140.995 242.636ZM132.569 216.403H147.911C147.911 214.284 147.328 212.455 146.162 210.918C145.049 209.382 143.221 208.613 140.677 208.613C138.345 208.613 136.517 209.302 135.192 210.68C133.867 212.005 132.993 213.913 132.569 216.403ZM168.686 242V200.743H176.317C177.907 200.743 178.914 201.432 179.337 202.81L180.053 205.195C181.696 203.658 183.471 202.439 185.379 201.538C187.287 200.584 189.513 200.108 192.056 200.108C195.077 200.108 197.621 200.796 199.688 202.174C201.754 203.499 203.318 205.354 204.378 207.739C205.49 210.071 206.047 212.747 206.047 215.768V242H193.726V215.768C193.726 213.754 193.249 212.19 192.295 211.077C191.394 209.965 190.042 209.408 188.241 209.408C186.916 209.408 185.644 209.7 184.425 210.283C183.259 210.865 182.12 211.634 181.007 212.588V242H168.686ZM162.565 242V236.356C162.565 235.455 162.83 234.793 163.36 234.369C163.942 233.892 164.711 233.547 165.665 233.335L169.162 232.62L170.275 242H162.565ZM179.417 242L180.53 232.62L184.028 233.335C184.981 233.547 185.723 233.892 186.253 234.369C186.836 234.793 187.128 235.455 187.128 236.356V242H179.417ZM204.457 242L205.57 232.62L209.068 233.335C210.022 233.547 210.763 233.892 211.293 234.369C211.876 234.793 212.168 235.455 212.168 236.356V242H204.457ZM170.275 200.743L169.162 210.124L165.665 209.408C164.711 209.196 163.942 208.878 163.36 208.454C162.83 207.977 162.565 207.288 162.565 206.387V200.743H170.275ZM236.168 242.636C231.929 242.636 228.246 241.709 225.119 239.854C221.992 237.946 219.554 235.323 217.806 231.984C216.11 228.645 215.262 224.803 215.262 220.458C215.262 216.642 216.11 213.197 217.806 210.124C219.501 207.05 221.886 204.612 224.96 202.81C228.034 201.008 231.584 200.108 235.612 200.108C239.322 200.108 242.554 200.876 245.31 202.413C248.119 203.95 250.291 206.122 251.828 208.931C253.365 211.74 254.134 215.105 254.134 219.027C254.134 220.67 253.975 221.835 253.657 222.524C253.339 223.213 252.57 223.558 251.351 223.558H227.583C227.583 223.717 227.583 223.876 227.583 224.035C227.636 224.141 227.689 224.273 227.742 224.432C228.272 227.559 229.358 229.838 231.001 231.269C232.644 232.699 234.737 233.415 237.281 233.415C238.553 233.415 239.825 233.15 241.097 232.62C242.422 232.037 243.694 231.481 244.912 230.951C246.131 230.368 247.191 230.076 248.092 230.076C248.94 230.076 249.682 230.421 250.318 231.11L253.895 235.561C252.252 237.416 250.45 238.873 248.49 239.933C246.529 240.94 244.489 241.629 242.369 242C240.302 242.424 238.235 242.636 236.168 242.636ZM227.742 216.403H243.084C243.084 214.284 242.501 212.455 241.335 210.918C240.222 209.382 238.394 208.613 235.85 208.613C233.519 208.613 231.69 209.302 230.365 210.68C229.041 212.005 228.166 213.913 227.742 216.403ZM263.859 242V200.743H271.172C272.391 200.743 273.239 200.982 273.716 201.459C274.193 201.883 274.537 202.625 274.749 203.685L275.465 207.5C276.949 205.169 278.618 203.34 280.473 202.015C282.381 200.637 284.448 199.949 286.673 199.949C287.627 199.949 288.475 200.081 289.217 200.346C290.012 200.558 290.674 200.876 291.204 201.3L289.615 210.362C289.509 210.945 289.297 211.342 288.979 211.554C288.661 211.766 288.237 211.872 287.707 211.872C287.548 211.872 287.044 211.819 286.196 211.713C285.348 211.607 284.554 211.554 283.812 211.554C282.169 211.554 280.711 212.005 279.44 212.906C278.168 213.754 277.081 215.026 276.18 216.721V242H263.859ZM274.59 242L275.703 232.62L279.201 233.335C280.155 233.547 280.897 233.892 281.427 234.369C282.01 234.793 282.301 235.455 282.301 236.356V242H274.59ZM257.738 242V236.356C257.738 235.455 258.003 234.793 258.533 234.369C259.116 233.892 259.884 233.547 260.838 233.335L264.336 232.62L265.449 242H257.738ZM265.449 200.743L264.336 210.124L260.838 209.408C259.884 209.196 259.116 208.878 258.533 208.454C258.003 207.977 257.738 207.288 257.738 206.387V200.743H265.449ZM304.752 242.636C302.261 242.636 300.062 242.212 298.154 241.364C296.3 240.463 294.869 239.165 293.862 237.469C292.855 235.773 292.351 233.706 292.351 231.269C292.351 229.785 292.722 228.274 293.464 226.737C294.259 225.201 295.558 223.796 297.359 222.524C299.214 221.305 301.679 220.272 304.752 219.424C307.826 218.576 311.721 218.099 316.438 217.993V216.244C316.438 213.807 315.934 212.058 314.927 210.998C313.973 209.938 312.569 209.408 310.714 209.408C309.018 209.408 307.614 209.673 306.501 210.203C305.388 210.733 304.355 211.263 303.401 211.793C302.447 212.27 301.334 212.508 300.062 212.508C299.214 212.508 298.499 212.296 297.916 211.872C297.333 211.448 296.856 210.945 296.485 210.362L294.259 206.467C296.75 204.294 299.506 202.678 302.526 201.618C305.6 200.505 308.859 199.949 312.304 199.949C315.59 199.949 318.425 200.637 320.81 202.015C323.247 203.393 325.129 205.328 326.454 207.818C327.779 210.256 328.441 213.065 328.441 216.244V242H322.797C321.631 242 320.757 241.841 320.174 241.523C319.591 241.205 319.087 240.543 318.663 239.536L317.789 237.23C315.828 238.979 313.841 240.331 311.827 241.285C309.813 242.185 307.455 242.636 304.752 242.636ZM308.647 234.448C310.237 234.448 311.615 234.183 312.781 233.653C314 233.07 315.219 232.169 316.438 230.951V225.227C314.424 225.28 312.648 225.439 311.112 225.704C309.575 225.969 308.276 226.314 307.217 226.737C306.21 227.161 305.441 227.691 304.911 228.327C304.381 228.963 304.116 229.732 304.116 230.633C304.116 232.063 304.487 233.07 305.229 233.653C306.024 234.183 307.164 234.448 308.647 234.448ZM326.851 242L327.964 232.62L331.462 233.335C332.416 233.547 333.158 233.892 333.687 234.369C334.27 234.793 334.562 235.455 334.562 236.356V242H326.851ZM354.774 242.636C350.905 242.636 347.911 241.55 345.791 239.377C343.725 237.204 342.691 234.263 342.691 230.553V209.249H339.194C338.558 209.249 338.001 209.064 337.524 208.693C337.1 208.269 336.888 207.659 336.888 206.864V202.015L343.486 200.743L345.871 190.727C346.189 189.456 347.09 188.82 348.574 188.82H355.013V200.823H365.029V209.249H355.013V229.758C355.013 230.712 355.251 231.507 355.728 232.143C356.205 232.726 356.867 233.017 357.715 233.017C358.298 233.017 358.749 232.938 359.067 232.779C359.438 232.62 359.756 232.487 360.021 232.381C360.286 232.222 360.604 232.143 360.974 232.143C361.557 232.143 362.087 232.487 362.564 233.176L366.3 239.059C364.711 240.225 362.909 241.126 360.895 241.762C358.934 242.344 356.894 242.636 354.774 242.636ZM390.346 200.108C394.585 200.108 398.268 200.982 401.395 202.731C404.522 204.427 406.96 206.864 408.708 210.044C410.457 213.224 411.332 216.96 411.332 221.252C411.332 225.545 410.457 229.308 408.708 232.54C407.013 235.72 404.575 238.211 401.395 240.013C398.268 241.762 394.585 242.636 390.346 242.636C386.159 242.636 382.476 241.762 379.296 240.013C376.117 238.211 373.626 235.72 371.824 232.54C370.075 229.308 369.201 225.545 369.201 221.252C369.201 216.96 370.075 213.224 371.824 210.044C373.626 206.864 376.117 204.427 379.296 202.731C382.476 200.982 386.159 200.108 390.346 200.108ZM390.346 233.494C393.207 233.494 395.301 232.487 396.626 230.474C397.95 228.46 398.613 225.413 398.613 221.332C398.613 218.576 398.321 216.324 397.738 214.575C397.156 212.773 396.255 211.448 395.036 210.601C393.817 209.7 392.253 209.249 390.346 209.249C388.438 209.249 386.848 209.7 385.576 210.601C384.357 211.448 383.43 212.773 382.794 214.575C382.211 216.324 381.919 218.576 381.919 221.332C381.919 225.413 382.582 228.46 383.907 230.474C385.285 232.487 387.431 233.494 390.346 233.494ZM421.058 242V200.743H428.372C429.591 200.743 430.438 200.982 430.915 201.459C431.392 201.883 431.737 202.625 431.949 203.685L432.664 207.5C434.148 205.169 435.817 203.34 437.672 202.015C439.58 200.637 441.647 199.949 443.873 199.949C444.827 199.949 445.674 200.081 446.416 200.346C447.211 200.558 447.874 200.876 448.404 201.3L446.814 210.362C446.708 210.945 446.496 211.342 446.178 211.554C445.86 211.766 445.436 211.872 444.906 211.872C444.747 211.872 444.244 211.819 443.396 211.713C442.548 211.607 441.753 211.554 441.011 211.554C439.368 211.554 437.911 212.005 436.639 212.906C435.367 213.754 434.281 215.026 433.38 216.721V242H421.058ZM431.79 242L432.903 232.62L436.4 233.335C437.354 233.547 438.096 233.892 438.626 234.369C439.209 234.793 439.501 235.455 439.501 236.356V242H431.79ZM414.937 242V236.356C414.937 235.455 415.202 234.793 415.732 234.369C416.315 233.892 417.084 233.547 418.038 233.335L421.535 232.62L422.648 242H414.937ZM422.648 200.743L421.535 210.124L418.038 209.408C417.084 209.196 416.315 208.878 415.732 208.454C415.202 207.977 414.937 207.288 414.937 206.387V200.743H422.648ZM464.795 242.636C462.092 242.636 459.575 242.424 457.243 242C454.964 241.576 452.95 241.073 451.201 240.49V233.176L456.925 232.302C457.455 232.885 458.594 233.362 460.343 233.733C462.092 234.104 463.788 234.289 465.431 234.289C467.126 234.289 468.398 233.971 469.246 233.335C470.147 232.699 470.598 231.825 470.598 230.712C470.598 229.599 470.094 228.751 469.087 228.168C468.08 227.532 466.835 227.002 465.351 226.578C463.867 226.102 462.436 225.625 461.059 225.148C459.257 224.512 457.614 223.717 456.13 222.763C454.646 221.809 453.48 220.564 452.632 219.027C451.784 217.437 451.36 215.476 451.36 213.144C451.36 210.601 452.023 208.348 453.348 206.387C454.673 204.427 456.554 202.89 458.992 201.777C461.429 200.664 464.318 200.108 467.656 200.108C470.465 200.108 472.85 200.505 474.811 201.3C476.825 202.042 478.653 202.89 480.296 203.844V209.011L474.652 210.521C473.804 210.203 472.85 209.832 471.79 209.408C470.73 208.984 469.432 208.772 467.895 208.772C466.888 208.772 466.014 208.905 465.272 209.17C464.53 209.435 463.973 209.832 463.602 210.362C463.231 210.839 463.046 211.448 463.046 212.19C463.046 213.197 463.549 214.019 464.556 214.655C465.563 215.238 466.808 215.768 468.292 216.244C469.829 216.668 471.287 217.145 472.664 217.675C474.413 218.311 476.003 219.08 477.434 219.981C478.865 220.829 480.004 221.941 480.852 223.319C481.7 224.697 482.124 226.446 482.124 228.566C482.124 231.481 481.409 233.998 479.978 236.118C478.6 238.184 476.613 239.801 474.016 240.967C471.472 242.079 468.398 242.636 464.795 242.636ZM471.711 206.467L480.296 208.772V214.973H475.844C474.943 214.973 474.254 214.708 473.777 214.178C473.353 213.595 473.035 212.826 472.823 211.872L471.711 206.467ZM459.787 236.595L451.201 234.289V228.089H455.653C456.554 228.089 457.216 228.38 457.64 228.963C458.117 229.493 458.462 230.235 458.674 231.189L459.787 236.595Z" fill="#F5DF11"/>
</svg>
