<svg width="92" height="100" viewBox="0 0 92 100" fill="none" xmlns="http://www.w3.org/2000/svg">
<g clip-path="url(#clip0_144_1413)">
<path fill-rule="evenodd" clip-rule="evenodd" d="M46.4003 92.1254C46.4003 92.1254 46.7518 97.7307 37.099 99.425L21.829 98.9149C21.829 98.9149 17.6177 97.5546 18.4963 93.1396L20.0779 92.4594C20.0779 92.4594 18.8478 86.8542 25.1679 83.9696L25.6951 79.0445L27.2767 77.6842L27.1449 68.83C27.1449 68.83 20.9441 67.4271 20.7683 62.332C20.5926 57.2369 20.7683 55.7065 20.7683 55.7065L24.2767 55.8765L24.4524 53.162L24.2202 52.6093C24.2202 52.6093 24.2704 52.6519 23.5738 50.6175C22.8708 48.577 21.9922 47.7268 17.9566 48.2369C17.9566 48.2369 16.0235 47.3867 16.0235 46.3665C16.0235 45.3462 14.4419 42.9717 15.4963 38.5568L1.80794 38.2167C1.80794 38.2167 0.57781 37.7066 0.226343 35.6661C-0.125124 33.6317 0.226343 29.8908 2.33514 29.0406C4.44394 28.1904 7.2494 27.5102 8.3038 27.8503C8.3038 27.8503 6.54647 21.905 9.3582 21.2248C9.3582 21.2248 12.8666 20.5447 13.2181 21.3949C13.5695 22.2451 19.5382 29.3746 19.5382 29.3746C19.5382 29.3746 20.4169 27.6742 23.0466 28.0143C25.6826 28.3544 27.4336 31.409 27.4336 31.409H30.7663C30.7663 31.409 29.3604 27.6742 30.0634 24.9536C30.0634 24.9536 28.9274 22.7673 32.0341 11.7815C32.0341 11.7815 33.3835 6.61352 40.6325 2.45361C40.6325 2.45361 47.7057 -1.72451 53.7999 1.00827C53.7999 1.00827 58.6389 3.9779 60.4464 7.36656C60.4464 7.36656 64.4506 7.6034 64.9653 9.69246C64.9653 9.69246 65.5992 13.8463 67.4318 17.3928C67.4318 17.3928 72.1829 19.9981 65.141 23.9333L64.6389 30.5527C64.6389 30.5527 69.5532 31.0629 70.7833 31.0629C70.7833 31.0629 72.8921 30.7228 73.4193 28.5123C73.9465 26.3017 73.7708 22.2268 77.4549 21.3827C77.4549 21.3827 80.4361 21.8928 79.9151 26.1378C79.9151 26.1378 84.1265 25.6276 86.2353 26.1378C88.3441 26.6479 92.8504 32.3078 90.1328 34.9798C88.1997 36.8806 83.0783 35.4839 83.0783 35.4839C83.0783 35.4839 83.957 37.0143 81.4967 37.0143C79.0365 37.0143 77.9884 36.8442 77.9884 36.8442C77.9884 36.8442 79.3942 42.1094 77.9884 44.4839C76.5825 46.8584 74.48 49.2389 71.4925 49.749C71.4925 49.749 73.6578 57.0547 72.7791 65.8846L69.8105 70.0263C69.8105 70.0263 69.2142 72.8259 68.9883 73.3482C69.0573 73.7976 69.1075 74.2591 69.1075 74.6781C69.1075 75.419 68.9883 75.8259 68.5678 76.4392L68.2603 76.4696C68.1473 77.8117 68.2226 79.5121 68.6996 81.5769C68.6996 81.5769 75.0197 83.7874 75.0197 88.7125V92.6173C75.0197 92.6173 76.9528 94.4878 75.1954 96.3521C73.4381 98.2226 69.5783 102.297 55.7141 97.3724C55.7141 97.3724 50.097 94.1477 49.0426 91.9372L46.4066 92.1072L46.4003 92.1254Z" fill="#231F20"/>
<path d="M46.4003 92.1254C46.4003 92.1254 46.7518 97.7307 37.099 99.425L21.829 98.9149C21.829 98.9149 17.6177 97.5546 18.4963 93.1396L20.0779 92.4594C20.0779 92.4594 18.8478 86.8542 25.1679 83.9696L25.6951 79.0445L27.2767 77.6842L27.1449 68.83C27.1449 68.83 20.9441 67.4271 20.7683 62.332C20.5926 57.2369 20.7683 55.7065 20.7683 55.7065L24.2767 55.8766L24.4524 53.162L24.2202 52.6093C24.2202 52.6093 24.2704 52.6519 23.5738 50.6175C22.8708 48.577 21.9922 47.7268 17.9566 48.2369C17.9566 48.2369 16.0235 47.3867 16.0235 46.3665C16.0235 45.3462 14.4419 42.9717 15.4963 38.5568L1.80794 38.2167C1.80794 38.2167 0.57781 37.7066 0.226343 35.6661C-0.125124 33.6317 0.226343 29.8908 2.33514 29.0406C4.44394 28.1904 7.2494 27.5102 8.3038 27.8503C8.3038 27.8503 6.54647 21.905 9.3582 21.2248C9.3582 21.2248 12.8666 20.5447 13.2181 21.3949C13.5695 22.2451 19.5382 29.3746 19.5382 29.3746C19.5382 29.3746 20.4169 27.6742 23.0466 28.0143C25.6826 28.3544 27.4336 31.409 27.4336 31.409H30.7663C30.7663 31.409 29.3604 27.6742 30.0634 24.9536C30.0634 24.9536 28.9274 22.7673 32.0341 11.7815C32.0341 11.7815 33.3835 6.61352 40.6325 2.45361C40.6325 2.45361 47.7057 -1.72451 53.7999 1.00827C53.7999 1.00827 58.6389 3.9779 60.4464 7.36656C60.4464 7.36656 64.4506 7.6034 64.9653 9.69246C64.9653 9.69246 65.5992 13.8463 67.4318 17.3928C67.4318 17.3928 72.1829 19.9981 65.141 23.9333L64.6389 30.5527C64.6389 30.5527 69.5532 31.0629 70.7833 31.0629C70.7833 31.0629 72.8921 30.7228 73.4193 28.5123C73.9465 26.3017 73.7708 22.2268 77.4549 21.3827C77.4549 21.3827 80.4361 21.8928 79.9151 26.1378C79.9151 26.1378 84.1265 25.6276 86.2353 26.1378C88.3441 26.6479 92.8504 32.3078 90.1328 34.9798C88.1997 36.8806 83.0783 35.4839 83.0783 35.4839C83.0783 35.4839 83.957 37.0143 81.4968 37.0143C79.0365 37.0143 77.9884 36.8442 77.9884 36.8442C77.9884 36.8442 79.3942 42.1094 77.9884 44.4839C76.5825 46.8584 74.48 49.2389 71.4925 49.749C71.4925 49.749 73.6578 57.0547 72.7791 65.8846L69.8105 70.0263C69.8105 70.0263 69.2142 72.8259 68.9883 73.3482C69.0573 73.7976 69.1075 74.2591 69.1075 74.6781C69.1075 75.419 68.9883 75.8259 68.5678 76.4392L68.2603 76.4696C68.1473 77.8117 68.2226 79.5121 68.6996 81.5769C68.6996 81.5769 75.0197 83.7874 75.0197 88.7125V92.6173C75.0197 92.6173 76.9528 94.4878 75.1954 96.3522C73.4381 98.2226 69.5783 102.297 55.7141 97.3724C55.7141 97.3724 50.097 94.1477 49.0426 91.9372L46.4066 92.1072L46.4003 92.1254Z" stroke="#231F20" stroke-width="0.595524" stroke-miterlimit="3.86"/>
<path fill-rule="evenodd" clip-rule="evenodd" d="M77.2593 35.368C78.3702 35.5077 80.0836 35.6838 81.4895 35.6838C81.684 35.6838 81.9539 35.6474 82.092 35.617C82.0606 35.7385 82.0104 35.8842 81.8535 36.1575L83.159 34.1595C83.159 34.1595 87.5711 35.9996 89.2657 34.3782C91.4561 32.283 87.1004 27.7648 85.8891 27.4672C84.0941 27.03 80.1778 27.4855 80.0836 27.4976L78.3137 27.7102L78.5271 25.9976C78.7468 24.2183 78.2259 23.4592 77.8932 23.1434C77.73 22.9855 77.5606 22.8822 77.4225 22.8154C76.4434 23.1555 75.9225 23.866 75.571 24.8863C75.3514 25.5179 75.2321 26.1859 75.1254 26.8174C75.0062 27.5583 74.912 28.2567 74.774 28.8397C74.5668 29.7021 74.184 30.364 73.7321 30.8741L77.2593 35.362V35.368Z" fill="#E0A651"/>
<path fill-rule="evenodd" clip-rule="evenodd" d="M17.1267 44.9695L17.2334 45.3338C20.1204 41.5504 21.9656 36.6375 19.7564 32.1679C19.6121 31.8703 19.4552 31.5667 19.3422 31.3177C19.3422 31.3177 16.9447 28.4513 15.4007 26.5565C14.6288 25.6031 13.838 24.6193 13.2229 23.8238C12.9028 23.4108 12.6329 23.0525 12.4258 22.761L12.1434 22.3481C11.9174 22.3238 11.6036 22.3298 11.2396 22.3481C10.543 22.3966 9.87768 22.5059 9.67684 22.5424C8.64127 22.7914 9.32538 26.4715 9.62663 27.4857L10.3547 29.9452L7.85047 29.1375C7.37348 28.9857 5.06384 29.4047 2.8609 30.2914C2.45922 30.4553 1.98851 31.0262 1.70608 32.2164C1.44248 33.3278 1.44248 34.597 1.59311 35.4533C1.72491 36.2245 2.00734 36.6253 2.24583 36.8865L17.2271 37.2569L16.8443 38.8662C16.3673 40.8642 16.4928 42.3642 16.7187 43.4816C16.8443 44.0707 16.9949 44.5686 17.1204 44.9695" fill="#E0A651"/>
<path fill-rule="evenodd" clip-rule="evenodd" d="M22.7326 47.3199C21.697 46.7734 20.2535 46.6216 18.1635 46.828C24.4334 38.6236 21.3581 31.8341 20.4732 30.2674L20.8058 29.9576C20.8623 29.8848 20.9627 29.7815 21.107 29.6783C21.3706 29.4961 21.8978 29.2471 22.8518 29.3686C24.6908 29.6054 26.1406 31.9678 26.2033 32.0831L26.4669 32.5447C27.264 37.1904 24.9983 43.3604 22.72 47.3139M37.7703 33.7471C37.8833 34.2937 38.0214 34.8281 38.172 35.3503L37.8017 40.488C37.0486 44.7572 34.7201 47.7025 31.6197 50.5507L30.628 51.4556C30.3393 51.7288 30.0757 51.99 29.8686 52.239C29.1406 53.1195 27.1134 52.9434 25.8707 52.7309L25.9397 51.7167L25.6573 51.3341C25.3811 50.9879 25.0924 50.7754 24.8916 50.1985C24.6092 49.3847 24.2765 48.7167 23.8246 48.2005C28.1301 40.992 28.1301 35.1378 27.8853 32.7815H32.3477C33.2013 33.4313 34.4 33.7896 36.1071 33.826C36.6343 33.8382 37.2745 33.7714 37.2745 33.7714C37.3122 33.7228 37.3247 33.6499 37.3247 33.571L37.7641 33.7471H37.7703Z" fill="white"/>
<path d="M22.7326 47.3199C21.697 46.7734 20.2535 46.6216 18.1635 46.828C24.4334 38.6236 21.3581 31.8341 20.4732 30.2674L20.8058 29.9576C20.8623 29.8848 20.9627 29.7815 21.107 29.6783C21.3706 29.4961 21.8978 29.2471 22.8518 29.3686C24.6908 29.6054 26.1406 31.9678 26.2033 32.0831L26.4669 32.5447C27.264 37.1904 24.9983 43.3604 22.72 47.3139L22.7326 47.3199ZM37.7703 33.7471C37.8833 34.2937 38.0214 34.8281 38.172 35.3503L37.8017 40.488C37.0486 44.7572 34.7201 47.7025 31.6197 50.5507L30.628 51.4556C30.3393 51.7288 30.0757 51.99 29.8686 52.239C29.1406 53.1195 27.1134 52.9434 25.8707 52.7309L25.9397 51.7167L25.6573 51.3341C25.3811 50.9879 25.0924 50.7754 24.8916 50.1985C24.6092 49.3847 24.2765 48.7167 23.8246 48.2005C28.1301 40.992 28.1301 35.1378 27.8853 32.7815H32.3477C33.2013 33.4313 34.4 33.7896 36.1071 33.826C36.6343 33.8382 37.2745 33.7714 37.2745 33.7714C37.3122 33.7228 37.3247 33.6499 37.3247 33.571L37.7641 33.7471H37.7703Z" stroke="#231F20" stroke-width="0.595524" stroke-miterlimit="3.86"/>
<path fill-rule="evenodd" clip-rule="evenodd" d="M43.337 2.69064C44.3788 3.7959 46.2617 7.94367 46.4311 9.63799C46.632 11.6299 44.8244 11.891 41.8056 14.2291C38.7867 16.5671 35.1967 21.8627 33.7595 22.2331C33.2197 22.3728 32.8118 22.227 32.5105 21.9902L32.3662 21.5347C31.9959 20.2655 31.8453 17.5449 33.3766 12.14C33.3766 12.14 33.452 11.8789 33.634 11.4477C33.8536 10.9558 34.2051 10.2514 34.77 9.43759C35.906 7.7797 37.9143 5.59347 41.3411 3.61979C41.3662 3.60157 42.1319 3.16433 43.3307 2.68457" fill="#F5DF11"/>
<path fill-rule="evenodd" clip-rule="evenodd" d="M56.1277 7.5786C56.1277 7.5786 50.4979 10.3235 48.3954 9.0786C47.7364 8.68994 44.1339 2.10696 46.456 1.75473C48.7782 1.40251 53.159 1.9187 55.1925 4.3114C57.2699 6.75877 56.1277 7.5786 56.1277 7.5786Z" fill="#F5DF11"/>
<path fill-rule="evenodd" clip-rule="evenodd" d="M42.5328 40.1655L42.6144 40.202C45.8278 41.7202 50.0392 41.9509 53.2337 41.9509C54.2254 41.9509 55.4743 41.5987 56.7547 40.9732C58.1354 42.8437 59.0329 45.0542 59.0329 47.3922C59.0329 50.7202 56.6041 48.8315 53.9304 50.3801C51.9095 51.5521 44.7923 50.793 42.6897 50.538L42.5391 40.1716H42.5328V40.1655Z" fill="white"/>
<path d="M42.5328 40.1655L42.6144 40.202C45.8278 41.7202 50.0392 41.9509 53.2337 41.9509C54.2254 41.9509 55.4743 41.5987 56.7547 40.9732C58.1354 42.8437 59.0329 45.0542 59.0329 47.3922C59.0329 50.7202 56.6041 48.8315 53.9304 50.3801C51.9095 51.5521 44.7923 50.793 42.6897 50.538L42.5391 40.1716H42.5328V40.1655Z" stroke="#231F20" stroke-width="0.595524" stroke-miterlimit="3.86"/>
<path fill-rule="evenodd" clip-rule="evenodd" d="M45.2572 30.8082C45.2572 30.8082 44.1652 36.6806 51.3263 36.8021C57.6841 36.9114 58.4184 29.2778 58.4184 29.2778C56.1339 32.3325 54.7343 33.1827 50.3472 33.1827C45.9602 33.1827 45.2572 30.8021 45.2572 30.8021M48.9727 21.2495C48.9727 21.2495 47.4602 20.4418 47.1464 21.9479C46.8326 23.454 48.5522 23.9398 49.3116 23.3264C50.0711 22.707 48.9727 21.2495 48.9727 21.2495ZM42.458 38.5875L42.2886 38.3932L40.707 35.63C39.8283 33.8507 38.799 31.7616 38.6107 29.1139C38.4789 27.2495 38.4789 25.8102 38.4789 25.8102C38.4789 25.8102 40.2865 27.6139 41.1463 27.9479C42.2886 28.3912 43.4999 29.9519 44.7551 28.8345C50.4225 23.794 55.6255 21.0795 63.364 23.126C63.408 23.1503 63.2448 30.4438 61.7071 34.2454C61.2552 35.3628 60.5084 36.3952 59.6172 37.2819C59.046 37.8527 58.4247 38.3628 57.7782 38.8061C56.1339 39.9357 54.3891 40.6098 53.228 40.6098C50.7677 40.6098 48.3012 40.5065 45.91 39.9175C44.6296 39.6017 43.5815 39.207 42.7844 38.794L42.684 38.7393L42.4518 38.5936L42.458 38.5875Z" fill="#E0A651"/>
<path d="M45.2572 30.8082C45.2572 30.8082 44.1652 36.6806 51.3263 36.8021C57.6841 36.9114 58.4184 29.2778 58.4184 29.2778C56.1339 32.3325 54.7343 33.1827 50.3472 33.1827C45.9602 33.1827 45.2572 30.8021 45.2572 30.8021V30.8082ZM48.9727 21.2495C48.9727 21.2495 47.4602 20.4418 47.1464 21.9479C46.8326 23.454 48.5522 23.9398 49.3116 23.3264C50.0711 22.707 48.9727 21.2495 48.9727 21.2495ZM42.458 38.5875L42.2886 38.3932L40.707 35.63C39.8283 33.8507 38.799 31.7616 38.6107 29.1139C38.4789 27.2495 38.4789 25.8102 38.4789 25.8102C38.4789 25.8102 40.2865 27.6139 41.1463 27.9479C42.2886 28.3912 43.4999 29.9519 44.7551 28.8345C50.4225 23.794 55.6255 21.0795 63.364 23.126C63.408 23.1503 63.2448 30.4438 61.7071 34.2454C61.2552 35.3628 60.5084 36.3952 59.6172 37.2819C59.046 37.8527 58.4247 38.3628 57.7782 38.8061C56.1339 39.9357 54.3891 40.6098 53.228 40.6098C50.7677 40.6098 48.3012 40.5066 45.91 39.9175C44.6296 39.6017 43.5815 39.207 42.7844 38.794L42.684 38.7393L42.4518 38.5936L42.458 38.5875Z" stroke="#231F20" stroke-width="0.595524" stroke-miterlimit="3.86"/>
<path fill-rule="evenodd" clip-rule="evenodd" d="M57.7852 38.7992L59.6241 37.2749C59.053 37.8458 58.4317 38.3559 57.7852 38.7992Z" fill="#231F20"/>
<path d="M57.7852 38.7992L59.6241 37.2749C59.053 37.8458 58.4317 38.3559 57.7852 38.7992Z" stroke="#231F20" stroke-width="0.595524" stroke-miterlimit="3.86"/>
<path fill-rule="evenodd" clip-rule="evenodd" d="M36.144 32.4778H36.4954C37.1544 31.1357 36.7277 29.5992 35.962 28.3847C34.9766 26.8239 35.5666 26.3199 33.8281 25.9616C33.213 25.8341 31.7381 26.5203 31.5624 26.5446C31.4055 27.0547 31.8824 29.2834 31.9766 29.7753C32.3594 31.8219 34.3239 32.4292 36.144 32.4717" fill="#E0A651"/>
<path fill-rule="evenodd" clip-rule="evenodd" d="M70.4508 48.5829L71.2479 48.4432C71.637 48.3764 72.0073 48.2671 72.3651 48.1274C73.294 45.0728 73.614 39.8926 71.4362 36.7287C69.8734 34.4635 65.7186 34.2206 63.07 34.5789C62.6495 35.6234 62.1286 36.4615 61.5073 37.2327C62.0847 40.0323 63.2018 44.6598 64.5826 45.8744C65.5742 46.7428 67.4634 47.6355 69.001 48.2732C68.5429 45.9108 65.3044 45.7287 65.8755 40.1902L67.2625 40.3238C66.7039 45.753 70.3253 45.1517 70.4446 48.5768" fill="white"/>
<path fill-rule="evenodd" clip-rule="evenodd" d="M74.0457 47.1314C75.1064 46.2812 76.0165 45.1213 76.7696 43.8399C77.8303 42.0484 76.6943 37.4391 76.6315 37.2023L76.5499 36.8987L72.6713 31.7671C72.2382 32.0343 71.8491 32.1861 71.5604 32.2772C71.2277 32.3865 70.8825 32.4351 70.7821 32.4351C69.734 32.4351 65.2214 31.9918 63.7277 31.84C63.6586 32.3076 63.5771 32.757 63.4829 33.1821C64.2172 33.1213 65.2653 33.0728 66.4013 33.1517C68.5039 33.3035 71.1712 33.9169 72.5897 35.9756C74.7738 39.1456 74.7361 43.8278 74.0457 47.1253" fill="white"/>
<path fill-rule="evenodd" clip-rule="evenodd" d="M48.164 84.4857C48.164 84.4857 46.3941 83.1072 45.3648 82.9432C44.3481 82.7792 43.0238 82.6153 41.8376 82.6153C40.2623 82.6153 39.3146 82.0201 38.3857 80.9149C36.7162 78.8865 35.3041 78.0485 32.2978 78.5282C30.9296 78.7469 29.1409 78.8319 28.0111 78.8623L27.0195 79.7124L26.4672 84.8744L25.758 85.1962C23.0027 86.4533 21.9797 88.2387 21.5969 89.6537C21.396 90.3825 21.3584 91.0444 21.3709 91.512C21.3835 91.931 21.6471 93.2671 21.6471 93.2671L19.7768 94.0748C19.6575 96.3885 21.5404 97.348 22.1115 97.5849L36.9986 98.0828C41.4422 97.2752 43.3627 95.6294 44.2163 94.3966C44.6619 93.7529 44.8564 93.1699 44.9443 92.763C45.0133 92.429 45.0008 90.8744 45.0008 90.8744L49.9025 90.5586L50.3042 91.4027C51.0761 93.012 55.5448 95.7266 56.3168 96.182C63.0386 98.5565 67.1495 98.678 69.6851 98.1254C72.1767 97.5788 73.3378 96.3521 74.16 95.4776C74.9571 94.6274 74.1851 93.7468 74.0282 93.6011L73.6202 93.2063V88.7428C73.6202 84.8987 68.4549 82.9614 68.2227 82.8764L67.5009 82.6274L67.3315 81.9048C66.8545 79.8218 66.7541 78.0667 66.8482 76.6274L66.3085 76.676C66.3085 76.676 62.1348 77.1801 60.2143 77.5202C58.5762 77.8056 50.5427 84.1092 48.7665 85.5242L48.164 84.5039V84.4857Z" fill="#231F20"/>
<path d="M22.7569 87.6797C22.8762 87.54 22.9954 87.3943 23.1084 87.2364C22.9829 87.3821 22.8636 87.5339 22.7569 87.6797ZM21.1816 92.9206C21.1251 92.5865 21.5959 91.6878 21.5896 91.5056C21.577 91.0319 21.6147 90.376 21.8092 89.6473C21.9787 89.0339 22.2611 88.3598 22.7569 87.6797C22.8636 87.5339 22.9829 87.3821 23.1084 87.2364C23.7486 86.5015 24.6649 85.7849 25.9704 85.1898L26.6796 84.8679L30.1126 84.4854C30.1126 84.4854 28.7068 86.5258 28.0038 87.0299C27.3009 87.54 26.2465 90.2546 26.2465 92.6351C26.2465 94.2991 24.985 93.4671 23.9934 93.2303C23.9934 92.6594 21.985 92.9995 21.1691 92.9206M42.0562 94.8456C43.9642 93.6736 43.0793 96.5278 36.9788 98.0703L22.3302 97.5784C22.1105 97.4873 21.69 97.2869 21.2695 96.9408C21.1251 96.7586 20.9682 96.5886 20.7548 96.4307C20.3532 95.9448 20.0331 95.295 19.9954 94.4388L20.0456 94.044L20.1021 94.0197C20.7297 94.0744 21.759 94.2141 22.9013 94.5784L22.9515 94.5967C23.2214 94.8639 23.736 94.961 24.1565 95.0096C25.7256 95.1918 26.6168 96.1999 28.3679 96.3699C30.1252 96.54 36.2633 96.71 37.4934 95.6898C38.7236 94.6695 40.1232 96.0299 42.0562 94.8396" fill="white"/>
<path fill-rule="evenodd" clip-rule="evenodd" d="M67.4623 82.9548C67.4623 82.9548 67.7636 82.7605 68.41 82.9366C68.6862 83.0095 69.0251 83.1552 69.4268 83.4103C70.2489 83.9265 71.3347 84.8981 72.728 86.6896C72.728 86.6896 73.6067 90.9346 72.728 92.805L68.8431 93.8374C68.8431 93.8374 69.5648 88.39 67.1108 86.5196C64.6506 84.6491 67.4623 82.9548 67.4623 82.9548Z" fill="white"/>
<path fill-rule="evenodd" clip-rule="evenodd" d="M67.2876 95.866C69.7605 95.7081 72.6977 92.8478 73.7709 93.3457L74.022 93.5886C74.6998 94.6757 73.1496 96.5826 70.796 97.5603C69.114 98.2587 64.7081 98.0765 61.6516 97.7364C60.2269 97.4206 58.6265 96.9712 56.8378 96.3579C55.5637 95.6473 54.365 94.7243 54.8231 94.1656C55.5261 93.3154 57.2771 94.3356 57.2771 94.3356C57.2771 94.3356 64.6516 96.036 67.2814 95.866" fill="white"/>
<path fill-rule="evenodd" clip-rule="evenodd" d="M57.7969 67.4332C57.7969 67.4332 51.8596 68.6903 51.8282 67.4332C50.5604 67.4332 51.6525 60.6438 51.6525 60.6438C51.6525 60.6438 57.5897 59.6235 57.6211 60.8138C58.7446 60.8442 57.7969 67.4332 57.7969 67.4332Z" fill="white"/>
<path fill-rule="evenodd" clip-rule="evenodd" d="M70.8774 65.8362C70.8774 65.8362 70.3941 67.7674 69.3146 65.6601C68.5991 64.2573 65.7874 57.1763 66.1326 55.3059C66.1326 55.3059 67.8899 54.1156 69.641 55.3059C71.3983 56.4961 71.2226 62.1014 71.2226 62.1014L70.8711 65.8362H70.8774Z" fill="#F5DF11"/>
<path fill-rule="evenodd" clip-rule="evenodd" d="M21.829 57.1943C21.829 57.1943 25.8834 58.7672 26.9567 59.0344C28.0299 59.3016 27.1701 61.1599 27.1701 63.2915C27.1701 65.4231 26.5236 67.0141 26.5236 67.0141C26.5236 67.0141 22.8709 64.8886 22.4441 63.2915C22.0173 61.6943 21.5968 59.8664 21.8416 59.2348C22.0863 58.6032 21.8353 57.2004 21.8353 57.2004" fill="#F5DF11"/>
<path fill-rule="evenodd" clip-rule="evenodd" d="M28.4428 59.6294C28.4428 59.6294 30.4072 59.5808 30.3759 60.1759C30.3445 60.7771 30.3759 62.4836 30.0746 63.5221C29.7733 64.5545 29.5725 66.0787 29.0453 66.8014C28.5181 67.5241 27.9093 67.2204 27.9846 65.848C28.0599 64.4694 28.311 62.0828 28.3424 61.4573C28.3737 60.8318 28.4428 59.6294 28.4428 59.6294Z" fill="#F5DF11"/>
<path fill-rule="evenodd" clip-rule="evenodd" d="M70.2547 68.0825C70.2547 68.0825 71.2087 72.9772 71.5225 74.4165C71.83 75.8315 73.2359 80.046 73.3865 79.4388C73.5434 78.8315 72.9032 74.6898 72.5957 73.3781C72.2882 72.0663 71.83 66.874 71.83 66.874L70.2547 68.0886V68.0825Z" fill="#231F20"/>
<path fill-rule="evenodd" clip-rule="evenodd" d="M22.2926 56.7446L28.0667 58.7062C28.0667 58.7062 30.2445 59.3013 29.6295 58.7062C29.0144 58.111 26.6797 56.8965 25.5751 56.8965C24.4704 56.8965 22.2926 56.7507 22.2926 56.7507" fill="#F5DF11"/>
<path fill-rule="evenodd" clip-rule="evenodd" d="M38.5365 57.4315C37.9026 57.3768 37.7206 57.4436 36.936 58.0813C36.1452 58.7189 36.3712 59.7392 35.8942 59.9578C35.4172 60.1764 34.457 58.7675 35.8314 57.5651C37.2122 56.3627 38.5239 54.5469 39.9486 54.8445C40.5449 54.9659 42.5721 55.0874 43.0742 55.2878C43.7771 55.5671 43.9654 56.0165 44.2729 56.0955C44.8001 56.2291 45.2269 55.7372 45.6788 55.6825C46.1307 55.6279 46.5261 56.2837 46.5261 56.2837C46.5261 56.2837 46.6767 58.6461 46.1369 58.6036C45.5972 58.555 45.3524 58.2696 44.8252 58.0509C44.298 57.8323 43.024 57.8991 42.616 58.391C42.208 58.889 42.3085 58.7979 42.3085 58.7979L42.0637 59.4841L38.8377 59.2108L38.6557 58.227L38.5428 57.4315H38.5365Z" fill="white"/>
<path fill-rule="evenodd" clip-rule="evenodd" d="M40.4882 75.874C40.4882 75.874 39.12 76.1108 38.1283 76.0258C37.1367 75.9408 36.7852 75.8254 36.5467 75.4489C36.3082 75.0784 36.7413 74.8051 36.8354 73.7606L37.8271 69.3882C37.9087 68.5137 37.9275 67.2201 38.2915 65.2282C38.6555 63.2364 38.8375 60.1938 38.8375 60.1938L41.9568 60.455C41.8627 61.2384 41.6869 61.6878 41.6618 61.9975C41.6242 62.4287 41.4986 66.9954 41.5488 68.4894C41.599 69.9894 40.3564 75.4185 40.4944 75.874" fill="#F5DF11"/>
<path fill-rule="evenodd" clip-rule="evenodd" d="M25.6691 55.8522L25.7821 54.091C26.1398 54.1457 26.5415 54.2003 26.962 54.2246C29.2968 54.3825 30.0562 53.8785 31.6001 52.421L32.5729 51.5283C35.9119 48.4676 38.3659 45.2672 39.1755 40.6822L39.3889 37.7368C39.8784 38.3684 40.4684 38.9028 41.1337 39.3583L41.3094 51.7105C44.3471 52.1416 52.0919 53.0161 54.64 51.5344C57.1191 50.0951 60.4204 52.1356 60.4204 47.3927C60.4204 44.8906 59.4978 42.4068 58.0354 40.3603L58.638 39.8623C59.2279 39.4554 59.7991 38.9939 60.3325 38.4899C60.4957 39.2307 60.7405 40.251 61.048 41.3319C62.5669 46.6761 63.433 47.2287 68.2782 49.7307C69.1066 50.1558 69.7343 50.3319 70.1548 50.3987C70.274 51.1761 70.4246 52.1659 70.5627 53.2348C70.5627 53.2348 65.7175 52.2267 64.1233 54.1396C62.774 55.755 63.7593 59.4594 63.7593 59.4594C63.7593 59.4594 62.2781 61.4878 60.9476 60.8198C59.4852 60.0789 57.9664 59.2894 57.9664 59.2894C57.9664 59.2894 52.7509 58.5789 51.2007 59.4534C50.0082 60.1274 50.7739 61.6639 49.8952 62.6841C49.0166 63.7044 42.345 63.3643 42.345 63.3643L43.2487 59.757L44.9935 59.4959C46.958 59.672 47.7613 58.9736 47.2341 56.259C47.0709 55.421 46.663 54.9048 46.0542 54.589C45.6274 54.6922 44.8178 54.8441 44.4287 54.589C44.0709 54.3582 43.8764 54.3218 43.55 54.1275C42.3575 54.0971 40.9391 54.1943 39.3638 54.1943C37.7006 54.1943 38.2152 54.6437 37.0102 55.3845C35.8052 56.1254 33.9411 58.3481 33.8407 59.5809C33.665 61.6214 37.2613 60.3036 37.2613 60.3036L37.437 62.344L33.0499 62.174C32.8742 58.7793 30.9411 58.0991 28.8386 56.7388C28.0666 56.2408 26.8742 55.9797 25.6754 55.8522M50.0019 83.9816C50.0019 83.9816 56.3409 80.9695 57.8472 79.7185C59.3534 78.4735 58.6003 77.6416 60.7468 77.3258C62.8932 77.0161 67.0857 76.7003 67.0857 76.7003C67.0857 76.7003 66.8723 79.8217 66.979 80.2347C67.0857 80.6476 67.7322 81.5889 66.4393 82.3116C65.1464 83.0343 60.207 82.5181 57.2007 84.6011C54.1944 86.678 53.0082 87.6132 51.5082 88.2387C50.0019 88.8642 49.6818 89.1739 49.6818 88.5484C49.6818 87.9229 48.6086 86.5747 49.0354 85.846C49.4622 85.1173 50.0019 83.9756 50.0019 83.9756M27.5457 78.9897C27.5457 78.9897 26.5792 83.1496 27.006 83.2529C27.439 83.3561 29.0457 82.6274 33.0248 83.6658C36.9977 84.7043 44.0897 88.3419 45.8094 88.6577C47.5291 88.9674 47.9559 89.18 48.2822 87.6193C48.6023 86.0585 47.7425 86.1618 48.0688 85.2266L48.6086 83.6658C47.322 83.0403 45.2759 82.4209 43.2362 82.6274C41.1964 82.8339 40.1232 82.7306 39.0437 81.7954C37.9705 80.8602 38.0772 79.7185 36.0374 78.8865C33.9976 78.0545 32.3847 78.3642 30.5583 78.5768C28.7319 78.7833 27.552 78.9897 27.552 78.9897M48.8722 81.3339L48.5082 81.6011C46.7006 81.1881 43.6943 81.2671 41.8366 81.2671C40.6943 81.2671 40.1232 80.848 39.4642 80.0646C37.4809 77.6476 35.5353 76.6395 32.0646 77.1982C30.8093 77.3987 29.4913 77.4776 28.6566 77.508L28.8198 68.2954L28.7382 68.2711L30.1754 66.8137L30.8533 65.1801C30.9286 65.4169 31.0102 65.6112 31.1169 65.7327C31.8198 66.5829 37.0855 66.5829 37.0855 66.5829C37.2613 69.6375 35.8742 72.2549 35.8742 72.2549L35.347 75.6497C35.347 75.6497 39.7529 76.9735 40.6253 76.2934C41.504 75.6132 42.345 67.1052 42.345 67.1052L50.071 66.7529L50.4224 68.9635C50.4224 68.9635 57.9225 69.7529 58.5375 67.6153C58.707 67.0262 58.8451 66.0728 58.8451 66.0728C58.8451 66.0728 60.0752 65.2226 61.3053 64.2023C62.5355 63.1821 64.8137 62.3319 65.8681 62.5019C66.9225 62.672 66.7468 65.3926 67.6255 66.0667C68.1338 66.4614 68.2091 67.7671 68.4979 68.7995C68.4979 68.7995 67.8263 74.2468 67.7071 74.7387C67.6506 74.9695 67.0481 74.9756 67.0041 75.2367L66.1568 75.3096C66.1568 75.3096 61.9079 75.8258 59.9622 76.1659C58.1923 76.4756 52.3429 80.9695 50.3785 82.4877L50.5919 81.3642C51.0563 78.9594 52.481 74.763 54.4141 72.8258H51.0187L51.1881 74.174C49.594 75.9108 49.9454 79.0565 49.2237 81.1152C49.1923 81.2063 48.8659 81.3156 48.8659 81.3156" fill="#F5B41A"/>
<path fill-rule="evenodd" clip-rule="evenodd" d="M43.1557 27.2789C40.5761 27.1453 39.346 23.453 37.9401 23.3315C37.7895 23.3194 38.6305 15.6676 53.4988 10.2081C59.0344 8.17364 61.4445 10.0259 62.6181 10.6392C63.798 11.2526 64.0365 12.4672 63.7855 13.2931C63.5344 14.125 68.5742 19.7971 66.9738 20.6837C65.4424 21.5279 54.0197 19.8882 48.8231 23.787C44.7561 26.8355 45.7728 27.4125 43.1557 27.2789Z" fill="#F5DF11"/>
<path d="M52.1921 24.4618C52.0352 24.3707 51.9787 24.2674 51.9976 24.1642C53.0143 23.7695 54.0624 23.4658 55.1357 23.2715C57.0687 25.0083 54.6587 29.897 49.9515 29.1136C49.5624 29.0468 49.054 28.9132 48.7026 28.7188L49.3804 27.5407C50.4348 27.9415 51.4202 27.8869 52.2675 27.5164C53.347 27.0427 52.9516 24.899 52.1984 24.4618" fill="#231F20"/>
<path d="M52.1921 24.4618C52.0352 24.3707 51.9787 24.2674 51.9976 24.1642C53.0143 23.7695 54.0624 23.4658 55.1357 23.2715C57.0687 25.0083 54.6587 29.897 49.9515 29.1136C49.5624 29.0468 49.054 28.9132 48.7026 28.7188L49.3804 27.5407C50.4348 27.9415 51.4202 27.8869 52.2675 27.5164C53.347 27.0427 52.9516 24.899 52.1984 24.4618H52.1921Z" stroke="#231F20" stroke-width="0.595524" stroke-miterlimit="3.86"/>
</g>
<defs>
<clipPath id="clip0_144_1413">
<rect width="91.0801" height="99.8378" fill="white"/>
</clipPath>
</defs>
</svg>
