<svg width="50" height="50" viewBox="0 0 50 50" fill="none" xmlns="http://www.w3.org/2000/svg">
<g clip-path="url(#clip0_175_2847)">
<path d="M23.4254 50C22.5258 49.8757 21.6223 49.7778 20.7285 49.6232C15.3269 48.6867 10.724 46.2266 6.93367 42.2781C3.1903 38.3785 0.870273 33.7381 0.221253 28.3755C-0.843806 19.5821 1.94316 12.142 8.52636 6.20213C12.2355 2.85542 16.6406 0.865987 21.5958 0.231874C28.8829 -0.699724 35.4181 1.16739 41.0625 5.8792C45.6076 9.67311 48.4259 14.5346 49.5566 20.3542C49.724 21.2144 49.7935 22.0931 49.9109 22.9621C49.9325 23.1206 49.9697 23.2772 50 23.4338V26.5593C49.9726 26.6846 49.9286 26.8098 49.9188 26.937C49.5899 31.2241 48.2654 35.1825 45.8651 38.7444C41.8799 44.657 36.3696 48.3002 29.3449 49.6115C28.4218 49.7837 27.483 49.8718 26.5521 49.999H23.4254V50ZM2.48646 24.9574C2.45807 37.3862 12.535 47.487 24.9702 47.4929C37.3818 47.4987 47.4539 37.4527 47.4901 25.0308C47.5273 12.6088 37.4513 2.51488 25.0005 2.50215C12.582 2.48845 2.51485 12.5296 2.48646 24.9574Z" fill="#F5DF11"/>
<path d="M29.3361 24.991C27.3185 23.2256 25.348 21.5024 23.3784 19.7781C22.4357 18.9532 21.4891 18.1332 20.5513 17.3024C19.8993 16.724 19.8102 15.9784 20.3105 15.4196C20.8077 14.8638 21.5596 14.8677 22.2154 15.4411C25.4498 18.2672 28.6821 21.0933 31.9126 23.9234C32.6967 24.6103 32.6927 25.3873 31.9047 26.0782C28.6743 28.9072 25.441 31.7353 22.2066 34.5604C21.5517 35.1319 20.8019 35.128 20.3036 34.5653C19.8073 34.0046 19.8993 33.2638 20.5591 32.6855C23.3353 30.2508 26.1164 27.821 28.8955 25.3883C29.0287 25.2718 29.1579 25.1525 29.3361 24.991Z" fill="#F5DF11"/>
</g>
<defs>
<clipPath id="clip0_175_2847">
<rect width="50" height="50" fill="white"/>
</clipPath>
</defs>
</svg>
