<svg width="50" height="50" viewBox="0 0 50 50" fill="none" xmlns="http://www.w3.org/2000/svg">
<g clip-path="url(#clip0_175_2852)">
<path d="M26.5746 50C27.4742 49.8757 28.3777 49.7778 29.2715 49.6232C34.6731 48.6867 39.276 46.2266 43.0663 42.2781C46.8097 38.3785 49.1297 33.7381 49.7787 28.3755C50.8438 19.5821 48.0568 12.142 41.4736 6.20213C37.7645 2.85542 33.3594 0.865987 28.4042 0.231874C21.1171 -0.699724 14.5819 1.16739 8.93747 5.8792C4.39237 9.67311 1.57408 14.5346 0.443432 20.3542C0.276035 21.2144 0.206535 22.0931 0.0890656 22.9621C0.0675278 23.1206 0.0303307 23.2772 -1.52588e-05 23.4338V26.5593C0.0273933 26.6846 0.0714417 26.8098 0.0812302 26.937C0.410149 31.2241 1.73462 35.1825 4.13491 38.7444C8.12008 44.657 13.6304 48.3002 20.6551 49.6115C21.5782 49.7837 22.517 49.8718 23.4479 49.999H26.5746V50ZM47.5135 24.9574C47.5419 37.3862 37.465 47.487 25.0298 47.4929C12.6182 47.4987 2.54614 37.4527 2.50992 25.0308C2.47272 12.6088 12.5487 2.51488 24.9995 2.50215C37.418 2.48845 47.4852 12.5296 47.5135 24.9574Z" fill="#F5DF11"/>
<path d="M20.6639 24.991C22.6815 23.2256 24.652 21.5024 26.6216 19.7781C27.5643 18.9532 28.5109 18.1332 29.4487 17.3024C30.1007 16.724 30.1898 15.9784 29.6895 15.4196C29.1923 14.8638 28.4404 14.8677 27.7846 15.4411C24.5502 18.2672 21.3179 21.0933 18.0874 23.9234C17.3033 24.6103 17.3073 25.3873 18.0953 26.0782C21.3257 28.9072 24.559 31.7353 27.7934 34.5604C28.4483 35.1319 29.1981 35.128 29.6964 34.5653C30.1927 34.0046 30.1007 33.2638 29.4409 32.6855C26.6647 30.2508 23.8836 27.821 21.1045 25.3883C20.9713 25.2718 20.8421 25.1525 20.6639 24.991Z" fill="#F5DF11"/>
</g>
<defs>
<clipPath id="clip0_175_2852">
<rect width="50" height="50" fill="white" transform="matrix(-1 0 0 1 50 0)"/>
</clipPath>
</defs>
</svg>
