<svg width="55" height="86" viewBox="0 0 55 86" fill="none" xmlns="http://www.w3.org/2000/svg">
<path d="M0.729496 86C0.123814 85.4961 0 84.8427 0 84.0734C0.0184047 74.5832 0.0117121 65.0929 0.0133853 55.6044C0.0133853 54.2606 0.430001 53.6341 1.30004 53.6543C2.15503 53.6744 2.55658 54.3127 2.55658 55.6531C2.55658 64.5554 2.55658 73.4578 2.55658 82.3584V83.4217H5.36414C5.36414 83.0605 5.36414 82.6809 5.36414 82.303C5.36414 57.4168 5.36414 32.5305 5.36414 7.64426C5.36414 7.30832 5.35243 6.9707 5.37752 6.63645C5.43943 5.84027 5.87445 5.42035 6.65414 5.38172C6.82146 5.37332 6.98877 5.38004 7.15609 5.38004C20.7087 5.38004 34.2596 5.38004 47.8121 5.38004C49.2996 5.38004 49.6359 5.70758 49.6359 7.19242C49.6375 25.0525 49.6359 42.9127 49.6359 60.7728C49.6359 60.9962 49.6359 61.2212 49.6158 61.443C49.5472 62.1619 49.1272 62.56 48.4329 62.6288C47.782 62.6943 47.2048 62.1854 47.1111 61.4883C47.0709 61.186 47.0927 60.8736 47.0927 60.5662C47.0927 43.4065 47.0927 26.2451 47.0927 9.08543C47.0927 8.72598 47.0927 8.36484 47.0927 7.94828H7.9659V83.4368H47.0927C47.0927 83.1093 47.0927 82.8103 47.0927 82.5113C47.0927 77.3328 47.0927 72.1543 47.0943 66.9742C47.0943 66.6954 47.0676 66.4014 47.1429 66.1411C47.3202 65.5128 47.7318 65.1349 48.4228 65.1685C49.1038 65.2021 49.5054 65.57 49.6024 66.2418C49.6459 66.5442 49.6375 66.8566 49.6375 67.164C49.6392 72.2316 49.6375 77.2975 49.6375 82.3652C49.6375 82.6961 49.6375 83.0286 49.6375 83.4234H52.3849V2.56656H2.55491V3.64828C2.55491 18.8209 2.55491 33.9935 2.55491 49.1661C2.55491 50.5032 2.15001 51.1448 1.29502 51.1616C0.428328 51.1801 0.0117121 50.5502 0.0117121 49.2064C0.0117121 33.4476 0.0167316 17.6871 0 1.9266C0 1.1573 0.12214 0.503906 0.729496 0H54.2705C54.8762 0.503906 55 1.15898 54.9983 1.92492C54.9833 29.3072 54.9833 56.6911 54.9983 84.0734C54.9983 84.8427 54.8678 85.4927 54.2688 85.9983H0.729496V86Z" fill="white"/>
<path d="M12.3195 63.9123C12.3195 59.4326 12.3195 54.9546 12.3195 50.4748C12.3195 48.9833 12.721 48.5852 14.2118 48.5835C23.0796 48.5835 31.9456 48.5835 40.8133 48.5835C42.2556 48.5835 42.6789 48.9967 42.6789 50.4177C42.6806 59.404 42.6823 68.3887 42.6789 77.375C42.6789 78.7591 42.274 79.1572 40.8702 79.1588C31.9473 79.1622 23.0243 79.1622 14.1014 79.1588C12.716 79.1588 12.3212 78.7507 12.3195 77.3481C12.3161 72.8701 12.3195 68.3904 12.3195 63.9123ZM14.9463 76.557H40.0219V51.2307H14.9463V76.557Z" fill="white"/>
<path d="M14.9062 40.138H40.0504V14.8168H14.9062C14.9062 15.1141 14.9062 15.408 14.9062 15.702C14.9062 18.3895 14.9112 21.077 14.9012 23.7628C14.9012 24.1205 14.9397 24.5741 14.7489 24.8159C14.4678 25.172 13.9943 25.5903 13.6062 25.5869C13.218 25.5852 12.7629 25.1552 12.4701 24.8025C12.2911 24.5875 12.3262 24.1625 12.3262 23.8316C12.3178 20.5563 12.3178 17.2809 12.3228 14.0071C12.3245 12.6164 12.7227 12.2166 14.1198 12.2149C23.0428 12.2116 31.964 12.2116 40.887 12.2149C42.2807 12.2149 42.6823 12.618 42.6823 14.0088C42.6856 22.9935 42.6856 31.9798 42.6823 40.9645C42.6823 42.3502 42.2523 42.7869 40.887 42.7886C31.964 42.792 23.0428 42.792 14.1198 42.7886C12.7512 42.7886 12.3228 42.3519 12.3212 40.9695C12.3178 37.2742 12.3178 33.5805 12.3245 29.8852C12.3245 29.6098 12.2827 29.2419 12.4333 29.0756C12.7579 28.7145 13.1594 28.2929 13.5961 28.1938C14.1851 28.0611 14.6803 28.4609 14.8092 29.0907C14.9045 29.5493 14.9012 30.033 14.9028 30.5067C14.9095 33.6931 14.9062 36.8795 14.9062 40.1397V40.138Z" fill="white"/>
<path d="M43.5523 48.1803C43.0788 47.9788 42.4865 47.8898 42.1602 47.5471C41.6432 47.0046 41.081 46.9626 40.4335 46.9844C39.8496 47.0046 39.264 47.013 38.6817 46.9777C37.8301 46.9256 37.3298 46.4251 37.3281 45.6877C37.3281 44.9486 37.8301 44.4531 38.6784 44.396C39.1217 44.3658 39.5685 44.3893 40.0135 44.3859C40.83 44.3792 41.5963 44.4514 42.2941 43.7325C42.9633 43.0455 44.1981 43.1833 45.0012 43.7712C45.816 44.3691 46.1641 45.4945 45.8345 46.4687C45.5149 47.4127 44.6281 48.0426 43.5506 48.1803H43.5523Z" fill="white"/>
</svg>
