<svg width="76" height="76" viewBox="0 0 76 76" fill="none" xmlns="http://www.w3.org/2000/svg">
<path d="M22.4137 0C22.5832 0.0847749 22.7482 0.179961 22.9222 0.254325C24.4108 0.881957 25.2466 2.02568 25.3313 3.61112C25.4146 5.14004 24.7261 6.35217 23.3728 7.09433C22.9267 7.33973 22.8211 7.60744 22.8211 8.07296C22.8315 22.1977 22.8286 36.3223 22.8315 50.447C22.8315 51.8034 23.4427 52.7018 24.5833 53.0647C25.6005 53.3889 26.7471 53.0557 27.333 52.1425C27.6126 51.7068 27.7211 51.1476 27.8431 50.6285C27.9145 50.3236 27.8446 49.9875 27.8624 49.6662C27.9174 48.6727 27.9382 47.8324 26.7798 47.239C25.7329 46.7036 25.3269 45.5271 25.3254 44.318C25.3165 40.1134 25.309 35.9074 25.3269 31.7029C25.3328 30.1605 26.0556 28.9945 27.4237 28.294C27.8639 28.0679 27.8669 27.772 27.8609 27.3957C27.8193 24.6725 27.9144 21.9671 28.6506 19.3123C31.1073 10.4586 38.6365 3.8699 47.6677 2.70387C59.7965 1.13926 70.9171 9.26575 73.1091 21.3469C73.3678 22.7717 73.4466 24.2471 73.4481 25.7002C73.4719 39.7014 73.466 53.7012 73.4526 67.7025C73.4526 68.2929 73.5507 68.6543 74.1426 68.9741C75.6357 69.7802 76.3078 71.553 75.8662 73.1727C75.4022 74.8726 73.9805 75.9911 72.2257 75.994C66.2892 76.0015 60.3542 76.0015 54.4176 75.994C52.7194 75.9926 51.2204 74.8369 50.7891 73.2396C50.3311 71.5426 51.0404 69.7653 52.5721 68.9235C52.99 68.6945 53.1759 68.4803 53.1744 67.9761C53.1581 53.8261 53.1625 39.6777 53.1595 25.5277C53.1595 24.1876 52.5246 23.2744 51.3839 22.9249C50.3668 22.6126 49.2143 22.9591 48.6402 23.8753C48.3651 24.3141 48.2595 24.8748 48.1465 25.3953C48.0751 25.727 48.1554 26.0869 48.1257 26.4305C48.0424 27.3942 48.1198 28.1497 49.1726 28.7209C50.2404 29.2994 50.6627 30.4669 50.6657 31.7043C50.6731 35.9089 50.6835 40.1149 50.6597 44.3195C50.6508 45.8261 49.9504 46.9802 48.609 47.6807C48.2045 47.8919 48.1198 48.1477 48.1242 48.5537C48.1465 50.8531 48.1183 53.1435 47.6469 55.416C45.7463 64.5658 38.1145 71.8103 28.8796 73.189C16.7864 74.9946 5.57664 67.3202 3.03667 55.4235C2.68422 53.7696 2.55336 52.0414 2.5489 50.3459C2.51172 36.3447 2.5251 22.3449 2.537 8.34364C2.537 7.73534 2.46859 7.31295 1.82319 7.01401C0.823856 6.54998 0.391109 5.57135 0 4.60313V2.9701C0.495206 1.48282 1.48413 0.493777 2.96975 0C9.45055 0 15.9314 0 22.4122 0H22.4137ZM70.9305 68.3628V67.6326C70.9305 53.6075 70.9468 39.5825 70.9081 25.5589C70.9037 24.0151 70.7446 22.4356 70.3966 20.932C68.2656 11.7317 60.7126 5.4018 51.2873 5.11773C44.1745 4.90356 38.4327 7.82607 34.2064 13.5566C31.0909 17.7789 30.0856 22.6052 30.4738 27.8181H45.5798C45.5798 26.9123 45.5604 26.0512 45.5828 25.1915C45.672 21.8764 48.8945 19.5339 52.0695 20.4679C54.4176 21.158 55.756 23.096 55.756 25.8326C55.759 39.6836 55.756 53.5361 55.756 67.3872C55.756 67.6995 55.756 68.0118 55.756 68.3628H70.9275H70.9305ZM30.4128 48.1775C30.4128 49.0981 30.4559 49.9637 30.4039 50.8218C30.2789 52.8996 29.2885 54.4538 27.3776 55.2956C25.5024 56.1225 23.6955 55.8578 22.0954 54.5638C20.702 53.438 20.2291 51.9031 20.2306 50.1555C20.2395 36.306 20.235 22.4564 20.235 8.60689C20.235 8.29605 20.235 7.98372 20.235 7.65652H5.06359C5.06359 7.95843 5.06359 8.20235 5.06359 8.44626C5.06359 22.3955 5.0517 36.3432 5.08144 50.2924C5.08441 51.6919 5.22569 53.1108 5.4785 54.488C7.37455 64.829 17.2772 72.1539 27.6706 70.7663C35.5701 69.7118 41.0902 65.3645 44.1849 58.0173C45.5039 54.8866 45.7419 51.5759 45.5307 48.176H30.4128V48.1775ZM37.9375 45.5822C40.8062 45.5822 43.6748 45.5851 46.5434 45.5822C47.6781 45.5822 48.1034 45.1538 48.1034 44.0146C48.1064 40.0078 48.1064 36.0011 48.1034 31.9944C48.1034 30.8477 47.6825 30.4223 46.5494 30.4223C40.8612 30.4193 35.173 30.4208 29.4848 30.4223C28.2966 30.4223 27.8892 30.8313 27.8892 32.0256C27.8862 36.007 27.8877 39.99 27.8892 43.9714C27.8892 45.1657 28.2996 45.5821 29.4789 45.5836C32.2984 45.5866 35.118 45.5836 37.9361 45.5836L37.9375 45.5822ZM12.6895 5.05378C15.5804 5.05378 18.4713 5.04931 21.3623 5.05675C21.9645 5.05675 22.5073 4.85597 22.6486 4.27593C22.7453 3.87734 22.6679 3.28094 22.4166 2.99389C22.1594 2.69941 21.5957 2.55217 21.1645 2.54771C18.052 2.51202 14.938 2.52838 11.824 2.52838C9.27954 2.52838 6.73361 2.5016 4.18918 2.55217C3.72222 2.5611 3.15118 2.77675 2.83591 3.09949C2.60541 3.33448 2.595 3.93832 2.70356 4.3146C2.8597 4.85746 3.36978 5.05675 3.94232 5.05675C6.85853 5.05229 9.77326 5.05378 12.6895 5.05526V5.05378ZM63.3284 70.9462C60.4865 70.9462 57.6447 70.9447 54.8028 70.9462C53.7797 70.9462 53.2324 71.3879 53.2339 72.2C53.2339 73.0121 53.7841 73.4672 54.8043 73.4687C60.488 73.4731 66.1717 73.4731 71.854 73.4687C72.834 73.4687 73.4526 72.9645 73.4526 72.1985C73.4526 71.4355 72.8354 70.9462 71.8525 70.9462C69.0106 70.9432 66.1687 70.9462 63.3269 70.9462H63.3284Z" fill="white"/>
<path d="M10.1378 27.9102C10.1378 30.6542 10.1378 33.3982 10.1378 36.1423C10.1378 36.3892 10.1408 36.639 10.1096 36.8829C10.0263 37.5388 9.56381 37.9657 8.93179 37.9939C8.28787 38.0237 7.72426 37.5864 7.60975 36.9395C7.56662 36.6985 7.58447 36.4472 7.58447 36.2003C7.58447 30.6378 7.58447 25.0754 7.58447 19.513C7.58447 19.3152 7.57257 19.1159 7.59339 18.9196C7.66775 18.2265 8.22244 17.7104 8.87379 17.7149C9.5296 17.7178 10.0977 18.225 10.114 18.9374C10.1512 20.4693 10.1363 22.0027 10.1378 23.5346C10.1408 24.9936 10.1378 26.4512 10.1378 27.9102Z" fill="white"/>
<path d="M10.1213 12.661C10.1213 13.1057 10.1481 13.5534 10.1153 13.9951C10.0618 14.7179 9.53984 15.2013 8.86321 15.1998C8.22078 15.1998 7.64229 14.7372 7.60511 14.0709C7.55455 13.134 7.55604 12.191 7.60511 11.254C7.63932 10.6056 8.2416 10.1163 8.86023 10.1133C9.52051 10.1103 10.0574 10.61 10.1124 11.3254C10.1466 11.7671 10.1183 12.2148 10.1183 12.6595L10.1213 12.661Z" fill="white"/>
</svg>
