<svg width="83" height="83" viewBox="0 0 83 83" fill="none" xmlns="http://www.w3.org/2000/svg">
<path d="M19.291 0C21.8913 0.517129 23.6745 2.24359 25.4593 4.03977C33.2843 11.915 41.1498 19.7482 48.9992 27.5975C49.2278 27.8261 49.4628 28.0546 49.6541 28.314C50.1242 28.9495 50.0642 29.8411 49.5374 30.3955C48.9749 30.9872 48.0784 31.078 47.404 30.5852C47.1657 30.4117 46.9631 30.188 46.754 29.9773C42.6656 25.8905 38.5772 21.8037 34.4953 17.7121C34.2861 17.5029 34.1256 17.2452 33.91 16.968C33.5891 17.2711 33.3767 17.4624 33.1741 17.6651C29.2202 21.6173 25.2566 25.563 21.3222 29.5347C20.7241 30.1394 20.0821 30.4117 19.2424 30.3923C17.704 30.3566 16.1639 30.3809 14.6239 30.3842C14.3645 30.3842 14.1035 30.4085 13.6999 30.4296C14.8119 31.5497 15.8008 32.5743 16.8302 33.5583C16.9891 33.709 17.3263 33.7139 17.5824 33.7155C19.0138 33.7301 20.4452 33.7155 21.8767 33.7252C22.9887 33.7317 23.6258 34.3607 23.6534 35.4776C23.6712 36.2006 23.6566 36.9237 23.6566 37.7423C24.6747 37.7423 25.6117 37.7423 26.5503 37.7423C29.1375 37.7423 29.3856 37.9887 29.3856 40.5436C29.3856 40.9148 29.3856 41.2844 29.3856 41.7578C30.6338 41.7578 31.788 41.7545 32.9406 41.7578C34.6363 41.7626 35.1583 42.2895 35.1599 43.9884C35.1599 44.5493 35.1599 45.1086 35.1599 45.7554H37.8136C40.6846 45.7554 40.871 45.9434 40.8759 48.8468C40.8759 49.1143 40.8759 49.3818 40.8759 49.7903C41.7415 49.7903 42.5651 49.7903 43.387 49.7903C43.8457 49.7903 44.3061 49.7822 44.7649 49.7919C45.9694 49.8178 46.6146 50.4484 46.6583 51.6367C46.668 51.9026 46.6583 52.1668 46.6583 52.4797H69.211C68.9662 52.2187 68.7862 52.0128 68.5933 51.8215C64.9653 48.1919 61.3341 44.5655 57.7109 40.931C56.7804 39.9972 56.8566 38.7798 57.8568 38.1865C58.575 37.7601 59.2802 37.8914 60.0323 38.6404C62.3878 40.9829 64.7351 43.3351 67.0841 45.684C69.2045 47.8044 71.3103 49.9394 73.4582 52.0306C73.7436 52.3078 74.2396 52.4959 74.6449 52.5056C76.7231 52.5526 78.8046 52.564 80.8829 52.5105C81.8571 52.4845 82.5639 52.778 82.9984 53.6582V83H0C0 73.2199 0 63.4383 0 53.6582C0.434453 52.7731 1.14449 52.5089 2.11553 52.5105C13.7323 52.5348 25.349 52.5267 36.9658 52.5267C37.2706 52.5267 37.5737 52.5267 37.7488 52.5267C37.6807 51.3319 37.6191 50.2442 37.551 49.0656C36.2752 49.0656 35.014 49.0819 33.7528 49.0608C32.5159 49.0413 31.9177 48.4431 31.8837 47.2176C31.8642 46.5221 31.8804 45.8267 31.8804 45.0437C30.6046 45.0437 29.4229 45.047 28.2411 45.0437C26.7124 45.0388 26.1207 44.4536 26.1158 42.9476C26.1142 42.3122 26.1158 41.6767 26.1158 41.0023C24.7509 41.0023 23.5107 41.0088 22.2706 41.0007C21.0288 40.9926 20.4258 40.4074 20.3966 39.1802C20.3804 38.4604 20.3934 37.7407 20.3934 36.9593C19.124 36.9593 17.965 36.9188 16.8107 36.9723C15.9613 37.0112 15.3307 36.7307 14.7325 36.1277C11.1596 32.5191 7.58672 28.9073 3.95223 25.3604C2.13012 23.5804 0.462012 21.7518 0.00324219 19.1305V16.861C0.481465 14.2543 2.13498 12.4208 3.96844 10.6636C6.28498 8.44428 8.55451 6.1715 10.7738 3.85658C12.4954 2.05555 14.3062 0.460391 16.8594 0H19.291ZM79.7432 71.3249H78.0654C72.5812 71.3249 67.0987 71.3184 61.6145 71.333C60.8753 71.3346 60.2788 71.1385 59.9043 70.4835C59.2575 69.3472 60.1004 68.0924 61.5205 68.0908C67.2738 68.0843 73.0287 68.0876 78.7819 68.0876H79.7043V56.8388C79.3704 57.0171 79.1207 57.1614 78.8614 57.2862C76.146 58.5961 73.4453 59.9335 70.7072 61.1931C69.6584 61.6761 68.736 61.2579 68.3761 60.3193C68.0227 59.3953 68.488 58.5928 69.5903 58.1324C71.0817 57.5115 72.5618 56.8647 74.0435 56.2179C74.2429 56.1304 74.4163 55.9845 74.6805 55.8159H3.30217V68.0876C3.66043 68.0876 3.95547 68.0876 4.25051 68.0876C8.6534 68.0876 13.0563 68.0876 17.4592 68.0908C17.7542 68.0908 18.0622 68.0859 18.3394 68.167C19.0916 68.3891 19.5423 69.1461 19.4402 69.9372C19.3332 70.7656 18.6701 71.32 17.725 71.3216C13.1876 71.3281 8.64853 71.3249 4.11109 71.3249C3.82902 71.3249 3.54695 71.3249 3.28596 71.3249V79.7611C3.64908 79.7611 3.96844 79.7611 4.28617 79.7611C11.1742 79.7611 18.0622 79.7465 24.9503 79.7643C31.8545 79.7821 38.6031 78.7933 45.1734 76.6615C46.8431 76.1201 48.4772 75.4716 50.1291 74.8718C49.8551 74.5849 49.6168 74.4844 49.3704 74.4033C43.1146 72.3656 36.6902 71.3865 30.1199 71.3216C29.0403 71.3103 28.3789 70.6991 28.3659 69.733C28.3529 68.7263 29.0273 68.0551 30.1426 68.0973C32.5159 68.1864 34.8973 68.2237 37.256 68.4734C43.3464 69.1153 49.2245 70.6489 54.9113 72.9249C55.6473 73.2199 56.1936 73.6187 56.2455 74.4649C56.299 75.3501 55.798 75.8607 55.0394 76.1865C53.1605 76.9971 51.2882 77.8255 49.4012 78.6182C48.5096 78.9927 47.5904 79.299 46.5335 79.693H79.7448V71.3249H79.7432ZM31.4622 14.7179C31.3228 14.5655 31.219 14.4439 31.1072 14.3305C27.9379 11.1596 24.7768 7.98064 21.5946 4.82275C19.4645 2.70885 16.5984 2.6975 14.4618 4.81141C11.2358 8.00172 8.02928 11.2115 4.83572 14.4358C2.69264 16.5984 2.7202 19.4629 4.86977 21.6303C6.52328 23.2984 8.17518 24.9713 9.86922 26.5989C10.1578 26.8761 10.6506 27.0674 11.0526 27.0739C13.4826 27.1177 15.9143 27.0804 18.3443 27.1079C18.902 27.1144 19.2926 26.9539 19.6882 26.5551C23.4167 22.7974 27.1647 19.0608 30.9062 15.3161C31.0926 15.128 31.2677 14.9287 31.4622 14.7195V14.7179Z" fill="white"/>
<path d="M55.1237 34.4126C55.1318 35.3334 54.4202 36.0596 53.5124 36.0564C52.6126 36.0548 51.8734 35.3074 51.8864 34.4094C51.8977 33.5615 52.6272 32.8174 53.4734 32.7899C54.3488 32.7607 55.114 33.5129 55.1221 34.411L55.1237 34.4126Z" fill="white"/>
<path d="M22.5542 60.3077C26.0104 60.3077 29.4666 60.3077 32.9228 60.3077C34.1337 60.3077 34.8324 60.8897 34.847 61.8948C34.8632 62.9388 34.1548 63.5418 32.9001 63.5418C25.9602 63.5418 19.0203 63.5434 12.0804 63.5418C11.1515 63.5418 10.5922 63.1576 10.3458 62.3876C10.1075 61.6435 10.3539 61.0226 10.9683 60.6255C11.3022 60.4099 11.7724 60.3223 12.1825 60.3207C15.6387 60.298 19.0948 60.3077 22.551 60.3077H22.5542Z" fill="white"/>
<path d="M49.325 60.3077C51.8377 60.3077 54.3504 60.3045 56.8614 60.3077C58.0076 60.3094 58.6852 60.9027 58.6998 61.8916C58.7144 62.9242 58.0319 63.5402 56.8436 63.5402C51.8182 63.5435 46.7944 63.5435 41.7691 63.5402C40.5776 63.5402 39.8772 62.9291 39.8821 61.9143C39.887 60.9027 40.5857 60.3077 41.7869 60.3061C44.2996 60.3029 46.8123 60.3061 49.3234 60.3061L49.325 60.3077Z" fill="white"/>
<path d="M14.7147 23.2464C12.6883 23.7181 11.2391 22.8427 10.007 21.3189C9.41695 20.5894 8.67611 19.9799 8.01795 19.3039C7.20416 18.4658 7.18147 17.5596 7.99039 16.7458C10.9003 13.8181 13.8198 10.8985 16.7475 7.98865C17.5613 7.17972 18.4756 7.18945 19.3056 8.00973C21.1294 9.81076 22.9417 11.6231 24.7428 13.4469C25.5566 14.2704 25.5582 15.1831 24.7412 16.0098C22.5381 18.234 20.335 20.4581 18.0849 22.6336C17.7364 22.9708 17.1528 23.1443 16.6519 23.2237C16.0197 23.3226 15.3599 23.248 14.7131 23.248L14.7147 23.2464ZM11.4028 18.1594C11.9215 18.6538 12.4743 19.2001 13.0547 19.7189C13.2006 19.8486 13.4243 19.9345 13.6221 19.9539C15.1637 20.1144 16.5627 20.001 17.6132 18.5598C18.2876 17.6342 19.21 16.8836 20.0529 16.086C20.515 15.6483 21.0434 15.2787 21.4925 14.9188C20.1907 13.6122 19.1095 12.5261 18.0752 11.4886C15.89 13.6722 13.6853 15.8769 11.4044 18.1578L11.4028 18.1594Z" fill="white"/>
</svg>
