<svg width="83" height="83" viewBox="0 0 83 83" fill="none" xmlns="http://www.w3.org/2000/svg">
<g clip-path="url(#clip0_144_1709)">
<path d="M44.4331 0C46.0183 0.233774 47.6105 0.429451 49.1888 0.708247C51.9365 1.19311 54.5959 1.98967 57.2414 3.08235C56.8897 3.94644 56.5588 4.75859 56.2019 5.63654C46.0772 1.72646 36.0132 1.73166 26.0566 6.0227C18.4804 9.28687 12.5605 14.5269 8.31074 21.5886C-0.0935538 35.5526 1.59735 52.3809 9.89943 63.7076C11.5072 62.9405 13.2345 62.5665 14.9548 63.1933C16.0342 63.5864 17.0962 64.1942 17.9763 64.9319C19.2947 66.0384 20.452 67.3389 21.6682 68.5649C22.5812 69.4862 22.576 70.1459 21.6734 71.0741C21.4569 71.2975 21.242 71.5243 20.9614 71.817C22.2833 73.1001 23.5601 74.3417 24.8906 75.6335C24.1682 76.2881 23.5168 76.8786 22.7753 77.5487C21.6284 76.3331 20.3948 75.0223 19.196 73.7495C18.4597 74.4889 17.8567 75.095 17.2868 75.6664C18.4822 76.844 19.7625 78.1063 21.0307 79.3549C20.2216 80.167 19.5875 80.8043 18.898 81.4987C17.6939 80.2519 16.4604 78.9704 15.1645 77.6284C14.7539 78.0146 14.4385 78.3366 14.099 78.6293C13.4909 79.154 12.732 79.1748 12.1586 78.612C10.6998 77.1799 9.2099 75.7721 7.8447 74.2534C5.88353 72.0698 5.67563 68.7692 7.27471 66.2289C7.60215 65.7094 7.61428 65.3787 7.26259 64.873C3.32811 59.2157 1.04642 52.9315 0.214828 46.1071C0.152459 45.598 0.071032 45.0906 0 44.5832C0 42.5676 0 40.5519 0 38.5345C0.131669 37.5423 0.244281 36.5483 0.39674 35.5596C1.52459 28.1879 4.32775 21.5262 9.0072 15.7079C15.478 7.66085 23.8044 2.63904 33.9619 0.696126C35.4813 0.405207 37.0233 0.228579 38.5548 0C40.5142 0 42.4737 0 44.4331 0ZM18.8893 69.6645C18.3176 69.1138 17.6818 68.4974 17.0425 67.8826C16.566 67.4238 16.1243 66.9181 15.6028 66.5181C14.0228 65.3025 11.7411 65.4514 10.2962 66.8211C8.81836 68.222 8.47706 70.4732 9.70886 72.0767C10.6964 73.3599 11.9282 74.456 13.0179 75.5972C15.0068 73.5867 16.9021 71.6732 18.8893 69.6645Z" fill="white"/>
<path d="M25.748 79.8451C26.1049 78.9828 26.4393 78.1724 26.7945 77.3135C36.7095 81.1456 46.5708 81.1993 56.3542 77.1715C63.9251 74.0545 69.8987 68.9617 74.2577 62.0333C82.9582 48.2026 81.7091 31.0869 73.2009 19.3878C72.0747 19.6095 70.9989 19.9437 69.9091 20.0112C68.038 20.1273 66.4112 19.4138 65.0686 18.1168C63.7848 16.8769 62.5305 15.6059 61.2727 14.3366C60.4082 13.4656 60.4151 12.7798 61.3073 11.8984C61.5291 11.6785 61.8392 11.5486 62.1424 11.3564C60.668 9.90357 59.4016 8.65504 58.1525 7.4221C58.8767 6.73117 59.5107 6.12509 60.2037 5.46533C61.3195 6.64459 62.5565 7.95026 63.7536 9.21437C64.5419 8.45244 65.1691 7.8429 65.8586 7.17621C64.5991 5.94846 63.3084 4.68955 62.0177 3.43237C62.728 2.71373 63.3482 2.08514 63.9892 1.4375C65.2487 2.72932 66.4892 4.00208 67.8128 5.3597C68.1974 4.98566 68.4694 4.71033 68.7536 4.44712C69.4622 3.78909 70.2262 3.7406 70.8949 4.39344C72.3156 5.78222 73.7587 7.15543 75.091 8.62734C77.1111 10.8612 77.3294 14.205 75.6731 16.799C75.3734 17.2683 75.3769 17.5627 75.6835 18.0043C79.6353 23.6875 82.0123 29.9838 82.7555 36.8533C84.786 55.6366 74.1035 73.3653 56.4113 80.1569C46.3161 84.0323 36.1793 83.9111 26.0911 80.0079C26.0114 79.9768 25.9369 79.9352 25.7498 79.8469L25.748 79.8451ZM69.8883 7.46366C67.9826 9.38234 66.0855 11.2924 64.2162 13.1764C65.2124 14.2085 66.1912 15.3929 67.3416 16.3748C68.9407 17.7393 71.3662 17.4986 72.8266 15.9903C74.2975 14.4717 74.4292 12.0803 73.012 10.501C72.0366 9.41351 70.9157 8.4559 69.8866 7.46366H69.8883Z" fill="white"/>
<path d="M40.1139 48.3826H39.064C34.4539 48.3826 29.8437 48.386 25.2336 48.3809C23.7263 48.3809 23.1234 47.4475 23.7922 46.1106C29.2356 35.2081 34.6895 24.3126 40.1364 13.4118C40.4829 12.7174 41.0044 12.3018 41.7927 12.4836C42.6208 12.6741 42.8859 13.2871 42.8842 14.1096C42.8703 20.5618 42.8755 27.0122 42.8755 33.4644C42.8755 33.802 42.8755 34.1397 42.8755 34.5657H43.8821C48.4922 34.5657 53.1024 34.564 57.7125 34.5657C59.2856 34.5657 59.8764 35.4748 59.1817 36.8671C53.7486 47.7471 48.3068 58.6219 42.872 69.5001C42.5099 70.2257 41.9746 70.6655 41.1517 70.456C40.327 70.2465 40.1053 69.6058 40.107 68.7919C40.1226 62.3692 40.1156 55.9465 40.1156 49.5237C40.1156 49.1809 40.1156 48.8397 40.1156 48.3809L40.1139 48.3826ZM42.8738 62.854C42.9344 62.861 42.995 62.8679 43.0557 62.8748C47.2968 54.3932 51.5397 45.9098 55.8328 37.3225C51.0702 37.3225 46.4929 37.3225 41.9157 37.3225C40.5401 37.3225 40.1139 36.8965 40.1139 35.525C40.1139 30.6608 40.1139 25.7966 40.1139 20.9324V20.0717C40.055 20.0717 39.9944 20.0717 39.9355 20.07C35.6943 28.5534 31.4515 37.035 27.1566 45.6241C31.9262 45.6241 36.5034 45.6241 41.0806 45.6241C42.4493 45.6241 42.872 46.0518 42.8738 47.4302C42.8738 52.2944 42.8738 57.1586 42.8738 62.0228C42.8738 62.2999 42.8738 62.577 42.8738 62.8523V62.854Z" fill="white"/>
</g>
<defs>
<clipPath id="clip0_144_1709">
<rect width="83" height="83" fill="white"/>
</clipPath>
</defs>
</svg>
