<svg width="66" height="64" viewBox="0 0 66 64" fill="none" xmlns="http://www.w3.org/2000/svg">
<g clip-path="url(#clip0_175_2325)">
<path d="M0 4.62684C0.331853 4.20568 0.62626 3.74952 1.00202 3.36959C1.95238 2.40853 2.93374 1.47746 3.91251 0.542642C4.57492 -0.0909838 5.08239 -0.16097 5.87264 0.295191C8.80121 1.98736 11.7194 3.69328 14.648 5.38545C15.2007 5.70538 15.4628 6.1503 15.4525 6.77018C15.4408 7.56002 15.4279 8.35112 15.4628 9.13971C15.4731 9.38092 15.5713 9.68086 15.7404 9.84583C20.8396 14.8174 25.9517 19.7751 31.0638 24.7342C31.1219 24.7904 31.1929 24.8342 31.2859 24.9041C31.4498 24.7542 31.6074 24.6167 31.7572 24.473C34.6121 21.7098 37.4632 18.9428 40.3272 16.1883C40.6462 15.8809 40.7585 15.6184 40.6539 15.1585C39.1354 8.52983 43.4663 1.87488 50.2983 0.335183C52.5554 -0.173468 54.8113 -0.105981 57.0374 0.545142C58.3868 0.940065 58.6734 1.96611 57.6921 2.93718C56.1606 4.45313 54.6253 5.96658 53.0694 7.45879C52.7349 7.77998 52.6626 8.11866 52.6006 8.55108C52.4057 9.91331 52.8511 10.9756 53.9836 11.7854C54.0004 11.7979 54.0171 11.8129 54.0288 11.8304C54.872 13.0764 56.0741 13.4976 57.55 13.2352C57.8393 13.1839 58.1711 13.0702 58.3726 12.8777C59.9466 11.3743 61.4922 9.84208 63.0521 8.32362C64.1806 7.22384 65.2201 7.46504 65.6294 8.96475C65.8283 9.69711 65.969 10.4707 65.9613 11.2243C65.9458 12.7528 66.1395 14.285 65.7301 15.8097C64.4983 20.4013 60.1648 24.168 55.2968 24.8441C53.6194 25.0766 51.9666 25.0104 50.3099 24.6942C50.1072 24.6554 49.7986 24.7367 49.654 24.8741C47.2703 27.1524 44.9035 29.4482 42.5353 31.7416C42.4617 31.8128 42.4049 31.9015 42.3209 32.0052C42.9317 32.5501 43.527 33.0825 44.1545 33.6449C44.937 32.9551 45.6511 31.929 46.8119 32.9501C47.4524 33.5137 47.2574 34.1036 46.1198 35.3833C46.44 35.6708 46.7642 35.962 47.0896 36.2519C52.5658 41.1135 58.0497 45.965 63.5053 50.8478C64.1574 51.4315 64.7087 52.1463 65.1917 52.8724C65.7663 53.736 66.062 54.7058 65.9884 55.7694C65.9044 57.0016 66.1498 58.2539 65.5687 59.4461C64.3976 61.8444 62.5201 63.3529 59.8188 63.8803C59.7206 63.899 59.6315 63.959 59.5386 64.0003H57.3473C55.3433 63.5803 53.684 62.6405 52.2856 61.1533C47.2122 55.7581 42.0885 50.4079 36.9906 45.034C36.8512 44.8877 36.7905 44.6715 36.7027 44.5053C35.2294 45.7513 34.6948 45.8838 34.0388 45.2877C33.3803 44.689 33.5184 44.1829 34.7555 42.7007C34.1976 42.112 33.6385 41.5221 33.0626 40.9135C30.5912 43.3055 28.1559 45.6513 25.7451 48.0196C25.5927 48.1696 25.5294 48.5095 25.5772 48.7307C25.8871 50.1867 26.0149 51.6414 25.7799 53.1211C25.0749 57.5453 22.6732 60.8096 18.5205 62.7542C17.2137 63.3666 15.7159 63.5953 14.3058 63.999H11.5994C10.875 63.8365 10.1583 63.6253 9.42488 63.5216C7.93219 63.3104 7.46734 61.9744 8.73793 60.8584C10.343 59.4499 11.8408 57.9264 13.3697 56.4367C13.5492 56.2618 13.717 55.9956 13.7338 55.7606C13.8836 53.7273 13.8733 53.7273 12.3896 52.2938C12.3289 52.2351 12.2579 52.1838 12.2088 52.1163C11.3811 50.9703 10.2642 50.5504 8.83349 50.7466C8.40608 50.8053 8.08327 50.8853 7.77466 51.1928C6.21869 52.7437 4.64723 54.2784 3.06544 55.8044C2.09184 56.7442 0.992976 56.478 0.653376 55.1807C0.370591 54.1047 0.213057 52.9962 0 51.9001C0 51.6927 0 51.4839 0 51.2765C0.0890967 50.6241 0.156242 49.9692 0.269873 49.3219C0.769589 46.4749 2.13961 44.0704 4.38511 42.187C7.68814 39.4163 11.5077 38.414 15.8114 39.3176C16.1885 39.3963 16.4325 39.3326 16.705 39.0564C17.5792 38.169 18.4882 37.3155 19.3843 36.4494C21.5098 34.3948 23.6352 32.3402 25.8639 30.1856C25.6302 30.0131 25.4042 29.8819 25.2234 29.7069C20.7763 25.4015 16.275 21.1474 11.926 16.752C10.5573 15.3685 9.20279 14.5462 7.20909 14.8723C6.41884 15.0011 5.89975 14.6074 5.4943 13.9388C3.88797 11.2918 2.23387 8.66981 0.614638 6.03032C0.368008 5.62915 0.202727 5.17924 0 4.75182C0 4.71058 0 4.66809 0 4.62684ZM11.9996 61.4083C12.3121 61.4395 12.5652 61.4907 12.817 61.487C16.479 61.4358 19.4347 60.031 21.502 57.0791C23.3149 54.4921 23.7707 51.6564 22.8385 48.6457C22.6125 47.9159 22.721 47.3385 23.2956 46.7836C31.6719 38.6939 40.038 30.5955 48.3989 22.4896C48.9515 21.9547 49.5313 21.8422 50.2686 22.0509C50.944 22.2422 51.6451 22.3959 52.3437 22.4509C57.612 22.8595 62.2102 19.5727 63.3439 14.5524C63.5608 13.5901 63.5272 12.5753 63.6215 11.443C62.214 12.779 60.9615 13.9463 59.7387 15.1423C59.2997 15.571 58.818 15.7784 58.1969 15.7659C57.1885 15.7447 56.1787 15.7484 55.1689 15.7647C54.593 15.7734 54.1385 15.5785 53.7434 15.1748C52.6962 14.1025 51.5973 13.0752 50.5914 11.9679C50.2815 11.6267 50.0814 11.0993 50.0414 10.6407C49.9587 9.69086 50.0323 8.72979 50.0104 7.77498C49.9962 7.1751 50.2002 6.69394 50.6392 6.27027C51.72 5.22923 52.7814 4.16943 53.8493 3.11589C53.99 2.97717 54.1269 2.8347 54.349 2.60849C53.9358 2.5685 53.6608 2.51476 53.3883 2.51976C49.7547 2.58474 46.8132 3.98197 44.755 6.90765C42.9382 9.4884 42.4656 12.3228 43.3953 15.3373C43.6174 16.0584 43.5489 16.647 42.9691 17.2081C34.5786 25.3128 26.197 33.4262 17.8193 41.5459C17.3067 42.0433 16.7541 42.1633 16.0632 41.9883C15.3401 41.8046 14.6041 41.5971 13.8655 41.5609C9.50236 41.3397 6.16704 43.0543 3.94866 46.6999C2.8795 48.4583 2.53086 50.3929 2.74134 52.515C2.96214 52.315 3.11709 52.1826 3.26301 52.0401C4.35412 50.979 5.45298 49.9268 6.5273 48.8507C6.94438 48.4333 7.4131 48.2358 8.01225 48.2483C9.04267 48.2683 10.0744 48.2633 11.1048 48.2508C11.6562 48.2433 12.0913 48.432 12.4774 48.8132C13.5595 49.8818 14.6545 50.9391 15.7572 51.9888C16.1833 52.395 16.3731 52.8649 16.3615 53.4398C16.3447 54.3334 16.3318 55.2282 16.3654 56.1205C16.3912 56.8154 16.1497 57.3491 15.6358 57.8365C14.4285 58.985 13.2586 60.171 12.0009 61.4133L11.9996 61.4083ZM38.4795 42.8581C38.504 42.8931 38.5337 42.9494 38.5763 42.9944C43.944 48.637 49.2976 54.2921 54.695 59.9098C56.0341 61.3033 57.7644 61.7894 59.6896 61.3058C61.7182 60.7959 62.9978 59.4974 63.4394 57.5228C63.8591 55.6456 63.2535 54.0347 61.7995 52.7375C58.942 50.1867 56.0754 47.6447 53.2114 45.1014C50.2363 42.4595 47.26 39.8212 44.3211 37.213C42.3752 39.0939 40.4486 40.956 38.4795 42.8581ZM5.1689 2.82595C4.56717 3.43083 3.99127 4.04696 3.37147 4.61935C3.05899 4.90679 3.06415 5.1205 3.27979 5.46293C4.57234 7.51878 5.86231 9.57713 7.1032 11.6617C7.43506 12.2204 7.80823 12.4666 8.46806 12.3853C8.91225 12.3316 9.37065 12.4041 9.81872 12.3691C10.6529 12.3028 11.2791 12.5965 11.8705 13.1739C16.918 18.1005 21.9901 23.0045 27.0492 27.9198C27.23 28.0948 27.3669 28.3122 27.4779 28.4522C28.1701 27.8173 28.7679 27.2674 29.3903 26.6963C29.2224 26.5251 29.0649 26.3589 28.9009 26.1989C23.7914 21.2436 18.6858 16.2846 13.5647 11.3405C13.0559 10.8494 12.7989 10.3245 12.8312 9.63212C12.8609 8.98974 12.8583 8.34362 12.8248 7.70124C12.8144 7.50503 12.7137 7.22759 12.5601 7.1376C10.1286 5.70039 7.68298 4.28816 5.16761 2.8272L5.1689 2.82595ZM42.2409 35.3658C41.6714 34.8609 41.0633 34.3223 40.4706 33.7962C38.6047 35.6033 36.7879 37.3617 34.9362 39.1551C35.4837 39.73 36.0454 40.3199 36.5619 40.8635C38.4652 39.0214 40.335 37.2105 42.2409 35.3658Z" fill="white"/>
<path d="M25.3268 41.0585C24.051 41.0622 23.4364 40.0399 23.9425 39.2051C24.0704 38.9939 24.255 38.8089 24.4358 38.6339C29.6099 33.6212 34.7826 28.6071 39.9761 23.6119C40.2885 23.3119 40.7456 23.0282 41.1653 22.982C42.1544 22.872 42.8026 23.9368 42.3107 24.7791C42.1764 25.0091 41.9736 25.2091 41.7787 25.3978C36.6201 30.3968 31.4602 35.3946 26.2887 40.3811C25.9582 40.6998 25.5256 40.921 25.3268 41.0597V41.0585Z" fill="white"/>
<path d="M44.8787 19.3979C45.5864 19.4166 46.1623 20.019 46.13 20.7089C46.1003 21.375 45.505 21.9161 44.8219 21.8974C44.1079 21.8786 43.5333 21.2812 43.5668 20.5926C43.5991 19.9328 44.206 19.3804 44.8775 19.3979H44.8787Z" fill="white"/>
<path d="M20.109 43.3742C20.1012 42.6806 20.6939 42.1019 21.4054 42.1119C22.0885 42.1207 22.6669 42.6806 22.676 43.343C22.685 44.0228 22.073 44.619 21.3744 44.6077C20.69 44.5965 20.1167 44.0391 20.109 43.3742Z" fill="white"/>
<path d="M58.7858 55.328C58.809 56.554 57.7566 57.1702 56.8928 56.6865C56.6565 56.554 56.4512 56.3591 56.2549 56.1691C52.6174 52.6698 48.9838 49.1667 45.3502 45.6624C44.4928 44.8363 44.3611 44.0952 44.9616 43.5091C45.5542 42.9304 46.3458 43.0592 47.1877 43.8703C50.8355 47.3896 54.4859 50.9051 58.122 54.4357C58.4384 54.7419 58.654 55.1456 58.787 55.3268L58.7858 55.328Z" fill="white"/>
</g>
<defs>
<clipPath id="clip0_175_2325">
<rect width="66" height="64" fill="white"/>
</clipPath>
</defs>
</svg>
