<svg width="71" height="81" viewBox="0 0 71 81" fill="none" xmlns="http://www.w3.org/2000/svg">
<path d="M70.9984 24.2051C70.9656 24.2446 70.9093 24.2779 70.9015 24.3221C70.4495 26.5117 69.042 27.6112 66.9292 27.9814C57.6335 29.6093 48.3394 31.2578 39.0453 32.9015C37.9365 33.0977 37.3626 33.7716 37.3501 34.9091C37.336 36.2206 37.3469 37.5305 37.3469 38.9259C38.3791 38.9259 39.3346 38.9227 40.2917 38.9259C41.4287 38.9306 41.8368 39.3356 41.8478 40.5016C41.8603 41.8178 41.8509 43.1341 41.8509 44.4329C43.2271 44.9882 43.285 45.0784 43.285 46.5877C43.285 50.7531 43.2865 54.917 43.2818 59.0825C43.2818 59.3958 43.2756 59.7201 43.1974 60.0191C43.0473 60.595 42.6422 60.9082 42.0495 60.8924C41.4599 60.8766 41.069 60.5507 40.9454 59.9653C40.8813 59.66 40.875 59.3388 40.8735 59.0256C40.8688 55.3616 40.8704 51.6976 40.8704 48.0336V47.037H31.4402C31.4277 47.26 31.4089 47.4625 31.4089 47.6666C31.4089 56.3646 31.4011 65.0642 31.4136 73.7622C31.4167 76.2191 32.9837 78.0748 35.3655 78.5257C38.0741 79.0383 40.7546 76.9579 40.8328 74.1577C40.9173 71.155 40.8641 68.1492 40.8719 65.1433C40.875 63.8318 41.2128 63.3002 42.0526 63.286C42.9268 63.2702 43.2865 63.8176 43.2865 65.1686C43.2865 67.9103 43.2912 70.6519 43.2865 73.3936C43.2772 77.2743 41.1691 79.9638 37.422 80.8877C37.3501 80.9051 37.2875 80.9636 37.2203 81.0016H35.0308C34.4694 80.8117 33.883 80.6725 33.3481 80.421C30.4925 79.0747 29.0224 76.7712 29.0115 73.6024C28.9818 64.4551 28.999 55.3062 29.0037 46.1589C29.0037 45.0784 29.2429 44.8158 30.4534 44.4867C30.4534 43.1958 30.4487 41.8811 30.4534 40.568C30.4596 39.2897 30.8193 38.9306 32.0798 38.9275C32.9884 38.9259 33.897 38.9275 34.8917 38.9275C34.9073 38.6063 34.9276 38.3295 34.9339 38.0526C34.9589 36.7886 34.8995 35.5166 35.0199 34.2621C35.2044 32.332 36.6526 30.8797 38.5292 30.5474C46.4925 29.1379 54.4558 27.7219 62.419 26.3076C63.9297 26.0387 65.4435 25.7887 66.9496 25.4976C68.013 25.2919 68.54 24.6749 68.5478 23.5818C68.5697 20.5759 68.5729 17.5716 68.5478 14.5658C68.5369 13.3096 67.8285 12.6531 66.568 12.623C66.0019 12.6088 65.4373 12.6214 64.782 12.6214C64.782 14.3158 64.7992 15.9168 64.7742 17.5178C64.7633 18.2503 64.7711 19.0097 64.5881 19.7074C64.1017 21.5631 62.5082 22.7733 60.6143 22.7812C56.7828 22.7987 52.9529 22.7907 49.1214 22.786C48.2362 22.786 47.6904 22.3003 47.7123 21.571C47.7342 20.8654 48.2597 20.4177 49.1089 20.4177C52.7574 20.4129 56.4059 20.4177 60.0544 20.4145C61.745 20.4145 62.4096 19.7358 62.4096 18.0146C62.4096 13.5327 62.4128 9.0508 62.4096 4.56891C62.4096 3.16723 61.6809 2.37937 60.314 2.37779C53.5909 2.36672 46.8663 2.37463 40.1432 2.37779C40.0931 2.37779 40.0415 2.3952 39.8663 2.42842C39.8663 2.67996 39.8663 2.95523 39.8663 3.23209C39.8663 6.57967 39.8851 9.92883 39.8585 13.2764C39.8398 15.6479 38.1195 17.5906 35.8409 17.8944C33.5201 18.2044 31.2775 16.8296 30.7661 14.5515C30.4831 13.2891 30.58 11.938 30.5269 10.6265C30.4815 9.50959 29.8779 8.66004 28.8942 8.3816C27.4945 7.98451 26.0385 8.92424 26.0026 10.4351C25.9244 13.7241 25.9791 17.0163 25.9791 20.4145H26.9268C32.5818 20.4145 38.2368 20.4145 43.8918 20.4145C44.8145 20.4145 45.2946 20.7689 45.3571 21.4777C45.4181 22.1737 44.988 22.7116 44.2984 22.7765C44.0403 22.8002 43.7776 22.7876 43.5164 22.7876C37.9913 22.7876 32.4661 22.7876 26.9425 22.7876H25.9666C25.9666 23.1087 25.9666 23.3856 25.9666 23.6624C25.965 25.4027 25.9822 27.1429 25.9541 28.8816C25.915 31.3274 23.9351 33.3239 21.5158 33.3967C19.0027 33.4726 16.8867 31.6707 16.7319 29.1837C16.6209 27.3976 16.6834 25.6004 16.6709 23.808C16.6678 23.4963 16.6709 23.1863 16.6709 22.786C15.5246 22.786 14.4643 22.786 13.404 22.786C11.9965 22.786 10.589 22.7923 9.18152 22.786C6.57141 22.7733 4.8402 21.0821 4.71196 18.4291C4.70727 18.3247 4.69632 18.2187 4.67756 17.9829C3.73297 17.9829 2.77901 17.9497 1.82817 17.9924C1.03216 18.0272 0.417555 17.7836 0 17.0859V5.69531C0.415991 4.98973 1.04154 4.78881 1.82504 4.82678C2.76806 4.87266 3.71577 4.83785 4.64471 4.83785C4.87304 2.8176 5.11388 2.00918 6.02249 1.24822C6.64022 0.730898 7.42216 0.409746 8.1306 0C25.9072 0 43.6822 0 61.4588 0C64.0142 0.90334 64.9806 2.77646 64.7961 5.4327C64.7054 6.73945 64.7789 8.05887 64.782 9.37354C64.782 9.6235 64.8086 9.87187 64.8274 10.1804C65.4842 10.1804 66.0535 10.1646 66.6211 10.1835C68.6198 10.25 70.1633 11.3859 70.7467 13.2005C70.8249 13.4425 70.914 13.683 70.9984 13.9235V24.2067V24.2051ZM37.4564 2.42367H19.0574C19.0574 4.58156 19.0652 6.68725 19.0543 8.79293C19.0496 9.66463 18.5304 10.2468 17.8266 10.2262C17.1432 10.2057 16.6928 9.67412 16.6756 8.80875C16.6553 7.83422 16.6694 6.85811 16.6694 5.88199C16.6694 4.72869 16.6694 3.57539 16.6694 2.37146C14.1453 2.37146 11.7228 2.36197 9.30194 2.37463C7.85692 2.38254 7.12189 3.09762 7.1172 4.55467C7.10156 9.11566 7.10156 13.6767 7.1172 18.2377C7.12189 19.7058 7.85223 20.4066 9.30037 20.4114C11.5414 20.4193 13.7824 20.4145 16.025 20.4114C16.2205 20.4114 16.4176 20.375 16.6694 20.3497C16.6694 19.9811 16.6694 19.6678 16.6694 19.3562C16.6694 17.5368 16.6553 15.7175 16.6803 13.8981C16.6913 13.0834 17.1635 12.5914 17.8391 12.5787C18.5304 12.5661 19.023 13.1135 19.0574 13.9361C19.0668 14.1465 19.059 14.3585 19.059 14.5689C19.059 19.2359 19.0637 23.9029 19.0574 28.5683C19.0574 29.6283 19.4984 30.4066 20.4539 30.8259C22.0147 31.5109 23.6114 30.3354 23.6145 28.4955C23.6239 22.5107 23.6098 16.5259 23.6224 10.5411C23.6271 8.07627 25.5381 6.03703 27.9418 5.87408C30.3893 5.70797 32.5834 7.50516 32.8461 9.97945C32.9681 11.128 32.8961 12.2971 32.9634 13.452C33.0244 14.5088 33.822 15.3568 34.8135 15.5087C35.8847 15.6748 36.9012 15.1369 37.275 14.1307C37.4267 13.7241 37.4814 13.259 37.483 12.8192C37.5002 9.60293 37.4924 6.38666 37.4908 3.16881C37.4908 2.93625 37.472 2.70369 37.4595 2.42051L37.4564 2.42367ZM39.4066 41.367H32.8852V44.5389H39.4066V41.367ZM2.49282 7.29158V15.4691H4.66348V7.29158H2.49282Z" fill="white"/>
</svg>
