<svg width="69" height="69" viewBox="0 0 69 69" fill="none" xmlns="http://www.w3.org/2000/svg">
<path d="M-0.00204468 32.9615C0.402941 32.407 0.948321 32.2677 1.6233 32.269C10.2225 32.2866 18.8217 32.2758 27.4209 32.2934C27.9366 32.2934 28.2065 32.15 28.4536 31.6848C31.4046 26.1371 34.3812 20.6029 37.3511 15.0647C38.5472 12.8345 40.699 12.6763 42.2271 14.709C43.6851 16.6484 45.1376 18.5918 46.5929 20.5339C46.7792 20.7814 46.9682 21.0276 47.1909 21.3211C48.0549 20.6638 48.9324 20.1039 49.664 19.3938C50.0015 19.0665 50.1649 18.4579 50.2162 17.9575C50.2837 17.2948 50.1473 16.6146 50.1271 15.9397C50.0866 14.5345 50.6549 13.4147 51.7632 12.5667C52.5259 11.9825 53.2954 11.4077 54.0932 10.8045C53.7476 10.3393 53.429 9.93623 53.1402 9.51292C52.6947 8.85969 52.7662 8.26867 53.3899 7.79803C56.5609 5.40286 59.7266 2.99822 62.9287 0.644978C64.4123 -0.445087 66.4129 -0.115092 67.5806 1.30767C67.8371 1.62009 68.0774 1.94738 68.3082 2.27872C69.43 3.88677 69.1776 5.89109 67.617 7.08529C64.5148 9.46017 61.3816 11.7918 58.2524 14.1301C57.5289 14.6711 56.9443 14.5737 56.3949 13.8691C56.106 13.4986 55.8266 13.1199 55.4783 12.66C54.5833 13.3579 53.6558 13.9854 52.8607 14.7509C52.561 15.039 52.4881 15.6422 52.4571 16.1101C52.4139 16.7782 52.5151 17.4558 52.534 18.1293C52.5705 19.4331 52.048 20.492 51.0491 21.3021C50.2648 21.9364 49.448 22.5301 48.5989 23.1766C48.7582 23.4065 48.9 23.6256 49.0566 23.8339C50.47 25.7219 51.8861 27.6099 53.3008 29.4965C54.1972 30.6908 54.2201 30.7516 54.316 32.2826C54.9072 32.2826 55.5066 32.2785 56.106 32.2826C57.0726 32.2907 57.5005 32.7072 57.5032 33.681C57.51 36.8525 57.5059 40.0239 57.5059 43.1954C57.5059 43.3523 57.5059 43.5078 57.5059 43.7742C57.7705 43.7742 58.0054 43.7742 58.2416 43.7742C60.5541 43.7742 62.8666 43.7729 65.179 43.7742C66.2846 43.7756 66.6815 44.1719 66.6815 45.2727C66.6829 48.8946 66.6829 52.5151 66.6815 56.1369C66.6815 57.231 66.2752 57.6394 65.1777 57.6408C62.8882 57.6449 60.5973 57.6422 58.3078 57.6422C58.0661 57.6422 57.8258 57.6422 57.5073 57.6422V58.4266C57.5073 61.4411 57.4964 64.4544 57.5167 67.469C57.5207 68.0627 57.4087 68.5739 56.9875 68.9999H-0.00204468V56.0422C0.371892 55.4525 0.917272 55.2767 1.5963 55.2835C3.86152 55.3065 6.12674 55.2916 8.39196 55.2916C8.6309 55.2916 8.86984 55.2916 9.13983 55.2916V46.1099C8.88199 46.1099 8.64035 46.1099 8.40005 46.1099C6.13484 46.1099 3.86962 46.0964 1.6044 46.118C0.930772 46.1248 0.378642 45.9638 -0.00204468 45.3782V32.9601L-0.00204468 32.9615ZM45.3239 22.7195C43.5987 20.4176 41.9194 18.1726 40.236 15.9316C39.8418 15.4068 39.6393 15.722 39.4287 16.1155C35.8675 22.7587 32.301 29.3978 28.7465 36.0437C28.6453 36.2344 28.6723 36.4927 28.6399 36.7199C28.8667 36.7443 29.107 36.8295 29.3189 36.7848C34.1153 35.7813 38.9103 34.7656 43.704 33.75C46.2217 33.2158 48.738 32.6761 51.2543 32.1392C52.1263 31.9526 52.1601 31.8579 51.6147 31.1289C51.2786 30.6786 50.9465 30.2269 50.6103 29.7779C49.3198 28.0548 48.0279 26.3345 46.7157 24.5858C45.1727 25.7435 43.6729 26.8782 42.1637 28.0008C41.4469 28.5336 40.7624 28.4728 40.3399 27.8642C39.943 27.2934 40.1077 26.6443 40.7908 26.129C42.2771 25.0078 43.7661 23.8907 45.3239 22.7195ZM27.5545 55.2456V46.1694H11.5562V55.2456H27.5545ZM29.9358 55.2416H45.9247V46.1505H29.9358V55.2416ZM2.32932 66.7995H18.3222V57.68H2.32932V66.7995ZM36.7409 66.809V57.6854H20.7683V66.809H36.7409ZM39.1398 57.6692V66.7873H55.1016V57.6692H39.1398ZM64.3475 55.2497V46.1681H48.3559V55.2497H64.3475ZM39.0845 43.7377H55.1192V34.6034C53.645 34.6034 52.1749 34.3924 50.7885 34.6439C47.0235 35.3256 43.295 36.2114 39.5461 36.9918C39.1209 37.0797 39.0764 37.2961 39.0791 37.6477C39.0899 39.0421 39.0831 40.4364 39.0831 41.8308C39.0831 42.4543 39.0831 43.0777 39.0831 43.7364L39.0845 43.7377ZM2.31717 43.7377H18.3249V34.6372H2.33607V36.8132C2.41842 36.8416 2.45892 36.8673 2.50077 36.8687C3.12849 36.8741 3.75757 36.8755 4.3853 36.8809C5.21147 36.889 5.7609 37.3475 5.7663 38.0277C5.7717 38.7094 5.23037 39.1719 4.39745 39.1827C3.71032 39.1908 3.02455 39.1841 2.31717 39.1841V43.7377ZM36.7558 37.6423C36.529 37.6707 36.3306 37.6815 36.1375 37.7221C33.9924 38.1792 31.8487 38.6404 29.7036 39.0989C28.5602 39.3437 27.5545 39.1219 26.812 38.1576C26.0777 37.2041 26.052 36.1803 26.5907 35.1241C26.669 34.9712 26.7311 34.8116 26.812 34.6304H20.7778V43.7201H36.7544V37.6423H36.7558ZM57.6625 11.6768C60.523 9.52509 63.3107 7.44369 66.074 5.32983C66.3481 5.1202 66.6424 4.71447 66.6397 4.40205C66.6316 3.55543 66.0443 2.96035 65.4112 2.49782C64.8645 2.0975 64.3569 2.45454 63.8898 2.80753C61.8122 4.37771 59.7293 5.93977 57.6476 7.50455C56.9916 7.99819 56.3368 8.49318 55.6578 9.00575C56.3395 9.91324 56.9821 10.772 57.6625 11.6768Z" fill="#231F20"/>
<path d="M11.5132 39.1827C10.7532 39.1827 9.99183 39.1989 9.23181 39.1773C8.49068 39.157 8.0398 38.6864 8.05735 38.0007C8.07355 37.3488 8.52848 36.8944 9.23181 36.8876C10.7303 36.8727 12.23 36.8741 13.7285 36.8876C14.4561 36.8944 14.9462 37.3772 14.9462 38.0372C14.9462 38.7066 14.4764 39.1624 13.7271 39.1813C12.9887 39.1989 12.2503 39.1854 11.5119 39.1841L11.5132 39.1827Z" fill="#231F20"/>
</svg>
