<svg width="79" height="74" viewBox="0 0 79 74" fill="none" xmlns="http://www.w3.org/2000/svg">
<path d="M45.3642 0.00308569C46.1588 0.18977 46.9657 0.33634 47.7464 0.570852C50.3908 1.36696 52.5986 2.89129 54.5426 4.80596C57.4725 7.69108 60.3669 10.6132 63.2767 13.5215C64.7316 14.9764 64.8967 15.936 64.0234 17.7797C64.7053 18.4385 65.3842 19.0942 66.0893 19.7762C68.0765 18.9276 68.834 19.0773 70.4385 20.6834C70.9477 21.1925 71.4645 21.6924 71.9629 22.2123C73.1478 23.4481 73.1756 25.1283 71.9706 26.3533C69.7551 28.609 67.5179 30.843 65.2654 33.0616C64.0064 34.3005 62.3417 34.2774 61.0673 33.0524C60.4934 32.5 59.938 31.9276 59.3748 31.3645C57.8829 29.8679 57.7579 28.6522 58.8857 26.9766C58.2084 26.3055 57.5388 25.6436 56.8415 24.954C55.871 25.7408 54.7648 25.9692 53.5351 25.3736C53.4164 25.3165 53.1402 25.4199 53.026 25.5372C50.6053 28.0211 48.1984 30.5175 45.7237 33.077C46.3501 33.7173 46.9673 34.3175 47.5505 34.9516C49.6395 37.218 48.5194 40.9023 45.5093 41.5704C44.8567 41.7154 44.1423 41.592 43.3586 41.592C42.5084 43.7967 40.8252 44.7718 38.4014 44.3629C37.2612 47.0243 35.939 47.7263 32.9552 47.2727C32.3565 48.9359 31.1901 49.9141 29.4097 50.1532C29.2138 50.1795 29.0209 50.3785 28.8666 50.5359C27.7712 51.6575 26.702 52.8054 25.5942 53.9147C23.442 56.0716 20.3748 56.1441 18.1192 54.0967C17.32 53.3716 16.5285 52.6341 15.7848 51.8535C13.8023 49.7737 13.8316 46.5893 15.8712 44.5681C17.0191 43.4295 18.2426 42.368 19.3936 41.305C18.4941 39.2808 17.6579 37.2705 16.7013 35.3203C16.3742 34.6523 15.7617 34.1138 15.2433 33.5507C14.5521 32.7993 13.8239 32.0804 13.1203 31.3568C12.6899 31.7085 12.3798 32.0233 12.0141 32.2516C11.002 32.8842 9.75078 32.7268 8.8297 31.8458C7.91942 30.9757 7.05388 30.0592 6.14978 29.1814C5.43698 28.4902 5.11761 27.6879 5.22253 26.6835C5.25184 26.4089 5.09601 26.037 4.90007 25.8303C3.89105 24.7688 2.80643 23.7783 1.81593 22.6999C1.15096 21.9763 0.601709 21.1478 0 20.3655C0 19.8518 0 19.3365 0 18.8227C0.361026 18.2734 0.64028 17.6455 1.09388 17.1873C4.92322 13.3132 8.78033 9.46689 12.6374 5.62058C14.1679 4.09471 15.9731 4.10088 17.5205 5.62984C18.7996 6.89343 20.0539 8.18325 21.3499 9.42986C21.5474 9.61963 21.9161 9.73689 22.1954 9.71992C23.064 9.669 23.8261 9.85569 24.4525 10.479C25.4353 11.4572 26.4767 12.389 27.3701 13.4443C27.765 13.9118 28.0936 14.6586 28.035 15.234C27.9517 16.0394 27.475 16.8047 27.1093 17.7334C28.0088 18.6021 28.8851 19.9798 30.5931 20.1233C31.3491 20.1866 32.1344 20.1156 32.8842 19.9845C35.6073 19.5062 38.0836 20.0169 40.3022 21.6924C40.3978 21.7649 40.5197 21.8019 40.6462 21.8636C42.2693 20.3733 43.8692 18.9029 45.4738 17.428C44.221 15.683 43.9263 13.8825 44.3953 11.8737C44.832 10.0007 44.1485 8.57204 42.5115 7.53371C42.0394 7.2344 41.5318 6.94588 41.0011 6.78851C39.9242 6.46915 38.8257 6.2192 37.7256 5.98778C36.9588 5.82578 36.3803 5.48481 36.1751 4.6887C35.9853 3.95122 36.3016 3.39426 36.8555 2.93449C38.2749 1.75576 39.8455 0.857821 41.6367 0.382625C42.203 0.232969 42.7815 0.126513 43.3539 0C44.022 0 44.6916 0 45.3596 0L45.3642 0.00308569ZM14.7542 29.8371C15.3729 30.428 16.0209 31.0883 16.7121 31.6962C18.0158 32.841 18.994 34.2079 19.5278 35.8557C21.0706 40.6215 24.5096 43.9849 27.9687 47.3375C28.4763 47.8297 29.0934 47.9547 29.746 47.6585C30.3539 47.3838 30.6933 46.9148 30.7273 46.219C30.8152 44.4432 31.9708 43.8631 33.4843 44.8196C34.1092 45.2146 34.7526 45.2547 35.362 44.832C35.9606 44.4169 36.243 43.8276 36.0408 43.0932C35.8572 42.4205 35.9868 41.8666 36.5731 41.4686C37.2072 41.0397 37.7843 41.2109 38.3242 41.6815C38.909 42.1922 39.5678 42.2878 40.2513 41.9237C40.9162 41.5704 41.1677 40.981 41.0705 40.2435C40.9779 39.5416 41.1693 38.9661 41.8172 38.6128C42.4807 38.2502 43.0284 38.494 43.5807 38.9213C44.5666 39.685 45.8564 39.2777 46.2298 38.1067C46.4751 37.3368 46.1002 36.7768 45.5833 36.2599C43.1271 33.8083 40.674 31.3537 38.2255 28.8959C36.641 27.3053 36.6688 25.5171 38.3073 24.0067C38.4693 23.857 38.6976 23.7799 39.0262 23.5963C38.3952 23.2291 38.0481 23.0161 37.6917 22.8218C35.9714 21.8868 34.1447 22.146 32.3426 22.4206C30.0577 22.7678 28.1291 22.1552 26.54 20.4859C26.1219 20.0477 25.7424 19.5725 25.406 19.1837C21.7742 22.8156 18.3074 26.2824 14.7542 29.8371ZM6.84869 24.3723C7.02766 24.2026 7.19737 24.0499 7.35782 23.8894C9.75849 21.4903 12.153 19.0865 14.5598 16.6951C15.1615 16.0965 15.8234 16.0842 16.3248 16.6072C16.7954 17.0963 16.7599 17.7304 16.2261 18.3228C16.0888 18.4756 15.9376 18.616 15.7926 18.761C13.1743 21.3792 10.5654 24.0036 7.93176 26.6048C7.51982 27.0121 7.50902 27.2636 7.93485 27.6539C8.67233 28.3312 9.39283 29.0332 10.0593 29.78C10.5299 30.3061 10.8246 30.3092 11.3384 29.7908C15.97 25.116 20.6325 20.472 25.2857 15.8172C25.4631 15.6398 25.6282 15.447 25.747 15.3158C24.6454 14.2235 23.5855 13.1697 22.4268 12.0188C21.731 12.7485 21.0027 13.5431 20.239 14.3022C19.6389 14.8977 18.9739 14.9039 18.474 14.3824C18.0158 13.9041 18.0451 13.2175 18.5897 12.6668C19.0202 12.2301 19.4908 11.8336 19.9798 11.3877C18.5974 10.0084 17.3076 8.72016 16.0147 7.43342C15.2248 6.64657 14.9162 6.64812 14.1109 7.45348C10.4204 11.1424 6.72989 14.8329 3.04095 18.5218C2.8774 18.6854 2.61666 18.832 2.57809 19.0233C2.50558 19.3812 2.40067 19.9181 2.58889 20.1156C3.96511 21.5659 5.41075 22.9498 6.85177 24.3708L6.84869 24.3723ZM39.6326 3.80928C40.7851 4.24436 41.8373 4.56682 42.8232 5.02967C45.6497 6.35652 47.4934 8.96084 46.6325 12.6575C46.293 14.117 46.6726 15.3791 47.7603 16.4498C49.9218 18.5758 52.0633 20.7204 54.1893 22.8835C54.6938 23.3972 55.0533 23.4451 55.5825 22.9035C57.6113 20.8269 59.6788 18.7888 61.7292 16.7337C62.3834 16.078 62.3864 15.9438 61.7385 15.2942C58.9243 12.477 56.1102 9.65821 53.2898 6.84714C51.7701 5.33207 50.1069 4.01294 48.0982 3.18906C45.2069 2.00415 42.4112 2.13067 39.6326 3.80928ZM47.0907 19.1344C44.6283 21.3931 42.1875 23.6302 39.7498 25.8689C39.3256 26.2592 39.3333 26.6881 39.719 27.0769C41.1461 28.5148 42.5887 29.9373 44.076 31.4154C46.5985 28.8018 49.0979 26.2098 51.5896 23.6271C50.0576 22.0966 48.6042 20.6448 47.0907 19.1328V19.1344ZM20.7312 43.2583C19.6558 44.2519 18.5326 45.2269 17.482 46.2776C16.3696 47.3915 16.3711 49.0902 17.4665 50.2304C18.2472 51.0435 19.0757 51.8164 19.9274 52.5554C20.9256 53.4225 22.4191 53.5367 23.408 52.6974C24.5899 51.6945 25.6452 50.5436 26.7421 49.4698C24.6855 47.3453 22.7446 45.338 20.7312 43.2567V43.2583ZM70.5635 24.306C70.4679 24.1378 70.4262 24.0097 70.3398 23.9218C69.6378 23.2059 68.9343 22.4916 68.2184 21.7911C67.8713 21.4517 67.5719 21.6415 67.2911 21.9223C65.1296 24.0869 62.9696 26.253 60.8004 28.4099C60.4363 28.7725 60.4054 29.0934 60.7803 29.4591C61.4052 30.07 62.0285 30.6825 62.6333 31.3136C63.0298 31.7255 63.3584 31.6684 63.7395 31.2843C65.8764 29.132 68.0271 26.9921 70.167 24.8429C70.3228 24.687 70.4324 24.4849 70.562 24.306H70.5635ZM60.5458 25.1221C61.811 23.8555 63.0175 22.6474 64.1345 21.5288C63.5652 20.9071 62.9434 20.2298 62.3695 19.6018C61.1337 20.8346 59.9225 22.0426 58.6558 23.3077C59.1218 23.7567 59.6356 24.2551 60.1509 24.7519C60.2974 24.8923 60.4471 25.028 60.5458 25.1221Z" fill="white"/>
<path d="M0.00512695 68.3514C0.242725 67.8484 0.424781 67.3069 0.730264 66.8486C1.65443 65.4601 2.9859 64.8136 4.65063 64.8136C12.7212 64.8167 20.7903 64.8136 28.8609 64.8136C40.9908 64.8136 53.1222 64.8136 65.252 64.8136H66.1947V54.6108C65.6732 54.6108 65.1456 54.6154 64.6179 54.6108C62.6585 54.5938 61.1342 53.1235 61.1264 51.2505C61.1187 49.3883 62.6446 47.8809 64.5978 47.8593C66.4739 47.8377 68.35 47.8408 70.2261 47.8593C72.1871 47.8778 73.7145 49.362 73.7268 51.2242C73.7392 53.1219 72.1948 54.6 70.1845 54.6123C69.7 54.6154 69.2156 54.6123 68.674 54.6123V64.8152C69.6969 64.8152 70.7168 64.8152 71.735 64.8152C72.7117 64.8152 73.6914 64.7735 74.6649 64.8275C76.5842 64.9324 77.9434 65.8828 78.701 67.6648C78.7982 67.8947 78.9 68.123 79.0003 68.3514V70.2028C78.826 70.5931 78.6732 70.9958 78.4742 71.3738C77.766 72.7222 76.5549 73.381 75.1432 73.7513H59.2519C59.1825 73.6865 59.1192 73.6109 59.0405 73.5585C58.5576 73.2298 58.3663 72.7639 58.5252 72.2208C58.6857 71.6716 59.1084 71.3969 59.6916 71.3969C59.923 71.3969 60.1544 71.3938 60.3859 71.3938C64.9882 71.3938 69.5889 71.4016 74.1912 71.3892C75.7171 71.3846 76.6999 70.5113 76.6783 69.2447C76.6567 67.9996 75.6893 67.1773 74.2128 67.1495C74.1357 67.1495 74.0586 67.1495 73.9814 67.1495C50.9977 67.1495 28.0139 67.1495 5.03017 67.1541C4.67223 67.1541 4.30812 67.1788 3.95944 67.2529C2.98899 67.4581 2.30088 68.3452 2.32556 69.3156C2.35025 70.2969 3.05996 71.1455 4.03812 71.3121C4.4408 71.38 4.85583 71.3938 5.26468 71.3938C21.3334 71.3969 37.4006 71.3969 53.4693 71.3985C53.7779 71.3985 54.0895 71.3861 54.3935 71.4293C55.0137 71.5173 55.4395 71.9261 55.347 72.517C55.2775 72.9568 54.8748 73.3455 54.6218 73.7559H3.86224C3.0291 73.3301 2.071 73.0447 1.4014 72.4384C0.776549 71.866 0.458723 70.9603 0.00512695 70.2028C0.00512695 69.5856 0.00512695 68.9685 0.00512695 68.3514ZM67.4027 52.2873C68.3254 52.2873 69.2464 52.3042 70.1691 52.2826C70.925 52.2641 71.3416 51.8738 71.3447 51.2474C71.3478 50.6133 70.9482 50.2276 70.1737 50.2199C68.3562 50.1998 66.5372 50.2013 64.7182 50.2183C63.936 50.2245 63.524 50.5871 63.504 51.2042C63.4824 51.8584 63.9174 52.2672 64.7136 52.2842C65.6099 52.3042 66.5063 52.2888 67.4027 52.2888V52.2873Z" fill="white"/>
</svg>
